<svg width="50" height="50" viewBox="0 0 50 50" fill="none" xmlns="http://www.w3.org/2000/svg">
<path d="M34.7282 9.16435L36.6527 8.52498C36.9013 8.44095 37.1338 8.4446 37.3343 8.51767L44.0981 10.9984C43.8977 10.9254 43.6651 10.9217 43.4166 11.0057L41.492 11.6451C41.2435 11.7291 41.0109 11.7255 40.8105 11.6524L34.0466 9.17166C34.2471 9.24473 34.4796 9.24838 34.7282 9.16435Z" fill="#4D99FF"/>
<path d="M18.7678 38.8867L25.5303 41.6239C25.9232 41.7811 26.1837 42.2406 26.1797 42.8695L26.1637 45.3486C26.1637 45.9815 26.4202 46.4371 26.8091 46.5943L20.0466 43.8571C19.6537 43.6999 19.3972 43.2404 19.4012 42.6115L19.4172 40.1323C19.4172 39.5035 19.1607 39.0439 18.7678 38.8867Z" fill="#1E1D1D"/>
<path d="M13.9431 34.8301L20.7056 37.5672C21.0985 37.7244 21.359 38.184 21.355 38.8128L21.339 41.292C21.339 41.9249 21.5955 42.3804 21.9844 42.5376L15.2219 39.8005C14.833 39.6433 14.5725 39.1837 14.5765 38.5549L14.5925 36.0757C14.5925 35.4468 14.336 34.9873 13.9431 34.8301Z" fill="#1E1D1D"/>
<path d="M20.6556 14.1548L22.5803 13.4443C23.3181 13.1723 23.9236 12.1694 23.9316 11.2072L23.9476 8.71022C23.9517 7.75204 24.5611 6.74514 25.2989 6.47311L28.5629 5.27132L31.8268 4.06954C32.0754 3.97616 32.308 3.98022 32.5085 4.06142L39.2729 6.81822C39.0725 6.73702 38.8399 6.73296 38.5913 6.82634L35.3273 8.02812L32.0634 9.22991C31.3256 9.50193 30.7201 10.5088 30.7121 11.467L30.6961 13.964C30.6921 14.9222 30.0826 15.9291 29.3448 16.2011L27.4201 16.9116C27.1715 17.005 26.9389 17.0009 26.7384 16.9197L19.974 14.1629C20.1745 14.2441 20.407 14.2482 20.6556 14.1548Z" fill="#4D99FF"/>
<path d="M9.52078 30.3679L16.2833 33.1051C16.6761 33.2623 16.9367 33.7218 16.9327 34.3507L16.9166 36.8298C16.9166 37.4627 17.1732 37.9183 17.562 38.0755L10.7995 35.3383C10.4107 35.1811 10.1501 34.7216 10.1541 34.0927L10.1702 31.6135C10.1702 30.9847 9.91362 30.5251 9.52078 30.3679Z" fill="#1E1D1D"/>
<path d="M22.5806 13.4443L20.6559 14.1548C20.4073 14.2482 20.1748 14.2441 19.9743 14.1629L26.7387 16.9197C26.9392 17.0009 27.1718 17.005 27.4204 16.9116L29.3451 16.2011C30.0829 15.929 30.6924 14.9221 30.6964 13.964L30.7124 11.467L23.9479 8.71021L23.9319 11.2072C23.9239 12.1694 23.3184 13.1722 22.5806 13.4443Z" fill="#1E1D1D"/>
<path d="M5.52815 25.8135L5.55634 21.5979C5.56036 20.6449 6.17223 19.6435 6.91291 19.373L8.84513 18.6663C9.58581 18.3958 10.1936 17.3984 10.2017 16.4414L10.2178 13.958C10.2218 13.005 10.8337 12.0036 11.5744 11.7331L14.8511 10.5378L18.1278 9.3426C18.3774 9.24972 18.6108 9.25376 18.8121 9.33452L25.603 12.0763C25.4018 11.9956 25.1683 11.9915 24.9187 12.0844L21.642 13.2796L18.3653 14.4749C17.6246 14.7454 17.0168 15.7468 17.0087 16.6998L16.9926 19.1832C16.9886 20.1361 16.3767 21.1376 15.636 21.4081L13.7038 22.1147C12.9631 22.3853 12.3553 23.3867 12.3473 24.3397L12.3191 28.5553L12.2909 32.771C12.2909 33.4049 12.5485 33.8612 12.939 34.0187L6.14808 31.2769C5.75761 31.1194 5.49596 30.6591 5.49999 30.0292L5.52815 25.8135Z" fill="#4D99FF"/>
<path d="M10.2179 13.9583L10.2018 16.4416L16.9927 19.1834L17.0088 16.7L10.2179 13.9583Z" fill="#1E1D1D"/>
<path d="M5.52822 25.8138L5.5564 21.5981L12.3473 24.3399L12.3191 28.5556L12.291 32.7712C12.291 33.4049 12.5483 33.861 12.9385 34.0187L6.14814 31.2772C5.75768 31.1197 5.49603 30.6594 5.50005 30.0294L5.52822 25.8138Z" fill="#1E1D1D"/>
<path d="M18.3608 14.4253C17.626 14.6976 17.023 15.7053 17.0151 16.6642L16.9991 19.1631C16.9951 20.122 16.3881 21.1297 15.6534 21.4019L13.7367 22.113C13.0019 22.3852 12.399 23.3929 12.391 24.3518L12.363 28.5938L12.3351 32.8359C12.3311 33.7948 12.9221 34.3555 13.6608 34.0833L15.5775 33.3722C16.3123 33.1 16.9072 33.6648 16.9033 34.6196L16.8873 37.1185C16.8833 38.0774 17.4743 38.6382 18.213 38.3659L20.1297 37.6549C20.8645 37.3826 21.4594 37.9474 21.4555 38.9023L21.4395 41.4012C21.4355 42.3601 22.0265 42.9208 22.7652 42.6486L24.6819 41.9375C25.4167 41.6653 26.0116 42.2301 26.0077 43.1849L25.9917 45.6838C25.9877 46.6427 26.5787 47.2035 27.3174 46.9312L29.2341 46.2201C29.9689 45.9479 30.5718 44.9443 30.5798 43.9813L30.5958 41.4824C30.5998 40.5235 31.2068 39.5158 31.9415 39.2436L33.8582 38.5325C34.593 38.2603 35.1959 37.2567 35.2039 36.2937L35.2199 33.7948C35.2239 32.8359 35.8308 31.8282 36.5616 31.56L38.4783 30.8489C39.213 30.5767 39.816 29.5731 39.824 28.6101L39.84 26.1112C39.844 25.1523 40.4509 24.1446 41.1817 23.8764L43.0984 23.1654C43.8331 22.8931 44.4361 21.8895 44.4441 20.9265L44.472 16.6845L44.5 12.4425C44.504 11.4836 43.909 10.9228 43.1743 11.1951L41.2575 11.9061C40.5228 12.1784 39.9278 11.6176 39.9358 10.6547L39.9518 8.15577C39.9558 7.19685 39.3608 6.63612 38.626 6.90836L35.3756 8.11108L32.1252 9.31379C31.3904 9.58603 30.7875 10.5937 30.7795 11.5526L30.7635 14.0515C30.7595 15.0104 30.1526 16.0181 29.4178 16.2904L27.5011 17.0014C26.7664 17.2737 26.1714 16.7129 26.1754 15.754L26.1913 13.2551C26.1953 12.2962 25.6004 11.7355 24.8656 12.0077L21.6152 13.2104L18.3647 14.4132L18.3608 14.4253Z" fill="white" stroke="#1E1D1D" stroke-width="0.5" stroke-linecap="round" stroke-linejoin="round"/>
</svg>
