<svg width="50" height="50" viewBox="0 0 50 50" fill="none" xmlns="http://www.w3.org/2000/svg">
<path d="M34.7043 12.5627L35.7468 12.1942C35.8824 12.147 36.0084 12.1492 36.1185 12.1939L43.1469 15.0341C43.0386 14.9903 42.9108 14.9873 42.7752 15.0344L41.7326 15.403C41.597 15.4502 41.4711 15.4479 41.3609 15.4033L34.3325 12.5631C34.4408 12.6068 34.5687 12.6099 34.7043 12.5627Z" fill="#4D99FF"/>
<path d="M32.217 7.09906L33.2604 6.72862C33.394 6.68064 33.5219 6.68369 33.6282 6.72666L40.6566 9.56693C40.5483 9.52314 40.4224 9.5209 40.2887 9.56889L39.2453 9.93933C39.1116 9.98731 38.9838 9.98426 38.8755 9.94047L31.8472 7.10021C31.9546 7.14588 32.0814 7.14623 32.217 7.09906Z" fill="#4D99FF"/>
<path d="M16.1099 41.469L23.1382 44.3093C23.3509 44.3952 23.4934 44.6409 23.4939 44.9756L23.492 46.3016C23.4917 46.6382 23.635 46.882 23.8477 46.9679L16.8193 44.1276C16.6066 44.0417 16.4641 43.796 16.4637 43.4613L16.4655 42.1353C16.4659 41.7987 16.3226 41.5549 16.1099 41.469Z" fill="#1E1D1D"/>
<path d="M11.1245 40.0635L18.1529 42.9037C18.3655 42.9897 18.5081 43.2354 18.5085 43.57L18.5067 44.8961C18.5063 45.2327 18.6496 45.4764 18.8623 45.5624L11.834 42.7221C11.6213 42.6362 11.4788 42.3905 11.4783 42.0558L11.4802 40.7298C11.4805 40.3932 11.3372 40.1494 11.1245 40.0635Z" fill="#1E1D1D"/>
<path d="M27.2312 5.69561L30.7728 4.44252C30.9065 4.39454 31.0343 4.39759 31.1426 4.44138L38.1709 7.28165C38.0627 7.23787 37.9368 7.23563 37.8012 7.2828L34.2596 8.53587C34.1259 8.58386 33.9999 8.58162 33.8917 8.53783L26.8633 5.69757C26.9716 5.74135 27.0975 5.74359 27.2312 5.69561Z" fill="#4D99FF"/>
<path d="M8.63916 34.6006L15.6675 37.4409C15.8802 37.5268 16.0227 37.7725 16.0232 38.1072L16.0159 42.6063C16.0147 42.9448 16.1592 43.1913 16.3718 43.2772L9.34351 40.437C9.13082 40.351 8.9883 40.1053 8.98754 39.7661L8.99484 35.2669C8.99519 34.9303 8.85185 34.6865 8.63916 34.6006Z" fill="#1E1D1D"/>
<path d="M6.52038 23.4579C6.52035 22.9517 6.84839 22.4199 7.24783 22.2797L8.29122 21.9093C8.69067 21.7691 9.01679 21.2365 9.01867 20.7311L9.02597 16.2319C9.02754 15.7219 9.3548 15.192 9.75313 15.0491L10.7965 14.6787C11.1967 14.5366 11.5248 14.0049 11.5267 13.4995L11.5285 12.1734C11.5285 11.6672 11.8565 11.1354 12.256 10.9952L15.7949 9.74324C16.1943 9.60307 16.5204 9.07047 16.522 8.56048L16.523 7.23633C16.5246 6.72634 16.8519 6.19644 17.2521 6.05438L25.7836 3.03546C25.9172 2.98747 26.0451 2.99053 26.1514 3.0335L33.1798 5.87377C33.0715 5.82998 32.9456 5.82774 32.8119 5.87572L24.2804 8.89465C23.8802 9.03671 23.5522 9.56849 23.5514 10.0766L23.5503 11.4007C23.5488 11.9107 23.2215 12.4406 22.8232 12.5835L19.2843 13.8355C18.8849 13.9757 18.5588 14.5083 18.5569 15.0137L18.555 16.3397C18.555 16.8459 18.227 17.3777 17.8248 17.519L16.7815 17.8894C16.382 18.0296 16.0559 18.5622 16.0543 19.0722L16.047 23.5714C16.047 24.0776 15.719 24.6093 15.3196 24.7495L14.2762 25.12C13.8768 25.2601 13.5506 25.7927 13.5487 26.2981L13.5305 37.1436C13.5294 37.4821 13.6738 37.7285 13.8865 37.8145L6.85817 34.9742C6.64548 34.8883 6.50294 34.6426 6.50137 34.3052L6.51958 23.4598L6.52038 23.4579Z" fill="#4D99FF"/>
<path d="M13.8868 37.8144C13.6741 37.7284 13.5316 37.4828 13.5308 37.1435L13.549 26.298L6.52064 23.4578L6.50244 34.3032C6.50128 34.6417 6.64462 34.8855 6.85923 34.9722L13.8876 37.8125L13.8868 37.8144Z" fill="#1E1D1D"/>
<path d="M15.7931 9.74223C16.1925 9.60206 16.5186 9.06946 16.5202 8.55947L16.5213 7.23532L23.5496 10.0756L23.5486 11.3997C23.547 11.9097 23.2198 12.4396 22.8214 12.5825L15.7931 9.74223Z" fill="#1E1D1D"/>
<path d="M10.7955 14.6805C11.1958 14.5385 11.5238 14.0067 11.5257 13.5013L11.5276 12.1753L18.5559 15.0155L18.554 16.3416C18.5541 16.8478 18.226 17.3796 17.8239 17.5208L10.7955 14.6805Z" fill="#1E1D1D"/>
<path d="M8.29126 21.9093C8.69071 21.7691 9.01683 21.2365 9.01872 20.7311L9.02602 16.2319L16.0544 19.0722L16.0471 23.5713C16.0471 24.0776 15.7191 24.6093 15.3196 24.7495L8.29126 21.9093Z" fill="#1E1D1D"/>
<path d="M14.2758 25.1205C13.8764 25.2606 13.5503 25.7932 13.5484 26.2986L13.5302 37.1441C13.5286 37.6541 13.8546 37.9532 14.254 37.813L15.2974 37.4426C15.6969 37.3024 16.0228 37.6015 16.0209 38.1069L16.0136 42.6061C16.0121 43.1161 16.34 43.416 16.7375 43.275L17.7809 42.9046C18.1811 42.7625 18.509 43.0625 18.5063 43.5697L18.5045 44.8958C18.5037 45.4039 18.8297 45.703 19.228 45.5601L22.7669 44.3081C23.1663 44.1679 23.4923 44.467 23.4923 44.9733L23.4905 46.2993C23.4905 46.8055 23.8157 47.1065 24.216 46.9645L32.7474 43.9455C33.1469 43.8054 33.473 43.2728 33.4749 42.7674L33.4767 41.4413C33.4767 40.9351 33.8047 40.4033 34.2042 40.2631L37.7458 39.0101C38.1452 38.8699 38.4713 38.3373 38.4732 37.8319L38.4751 36.5059C38.475 35.9997 38.8031 35.4679 39.2025 35.3277L40.2459 34.9573C40.6453 34.8171 40.9715 34.2845 40.973 33.7745L40.9803 29.2753C40.9803 28.7691 41.3083 28.2373 41.7086 28.0952L42.7512 27.7267C43.1514 27.5846 43.4795 27.0528 43.4802 26.5447L43.4984 15.6993C43.4984 15.1931 43.1732 14.8921 42.773 15.0341L41.7304 15.4027C41.3301 15.5447 41.0023 15.2448 41.005 14.7375L41.0122 10.2384C41.0138 9.72836 40.6878 9.42924 40.2884 9.56942L39.245 9.93986C38.8456 10.08 38.5196 9.78092 38.5196 9.27471L38.5214 7.94867C38.5214 7.44246 38.1962 7.14145 37.7979 7.28433L34.2563 8.53741C33.8568 8.67758 33.5309 8.37847 33.5324 7.86848L33.5354 6.54515C33.537 6.03516 33.211 5.73604 32.8115 5.87621L24.2801 8.89514C23.8798 9.0372 23.5518 9.56898 23.551 10.0771L23.5481 11.4004C23.5465 11.9104 23.2193 12.4403 22.8209 12.5832L19.282 13.8352C18.8826 13.9754 18.5565 14.508 18.5546 15.0134L18.5527 16.3394C18.5528 16.8456 18.2248 17.3774 17.8226 17.5187L16.7792 17.8891C16.3797 18.0293 16.0536 18.5619 16.0521 19.0719L16.0447 23.571C16.0448 24.0772 15.7167 24.609 15.3173 24.7492L14.2739 25.1196L14.2758 25.1205Z" fill="white" stroke="#1E1D1D" stroke-width="0.5" stroke-linecap="round" stroke-linejoin="round"/>
<path d="M31.7531 15.7636C31.3537 15.9037 31.0276 16.4363 31.0257 16.9417L31.0126 24.6095C31.011 25.1194 31.337 25.4186 31.7365 25.2784L32.7798 24.9079C33.1793 24.7678 33.5054 24.2352 33.507 23.7252L33.5201 16.0575C33.52 15.5512 33.1949 15.2502 32.7946 15.3923L31.7512 15.7627L31.7531 15.7636Z" fill="#1E1D1D"/>
<path d="M24.2661 18.4147C23.8659 18.5567 23.5378 19.0885 23.5359 19.5939L23.5229 27.2616C23.5213 27.7716 23.8473 28.0707 24.2495 27.9295L25.292 27.5609C25.6923 27.4189 26.0203 26.8871 26.0211 26.379L26.0341 18.7113C26.0341 18.205 25.709 17.904 25.3087 18.0461L24.2661 18.4147Z" fill="#1E1D1D"/>
<path d="M34.228 27.5709C33.8286 27.711 33.5024 28.2436 33.5009 28.7536L33.4967 31.0018L35.2651 30.3754C35.6646 30.2353 35.9907 29.7027 35.9923 29.1927L35.9952 27.8693C35.9968 27.3594 35.6708 27.0602 35.2714 27.2004L34.228 27.5709Z" fill="#1E1D1D"/>
<path d="M23.5116 34.5355L23.5074 36.7837C23.5074 37.29 23.8326 37.591 24.2329 37.4489L32.7624 34.4292C33.1618 34.289 33.488 33.7564 33.4899 33.251L33.4941 31.0028L23.5089 34.5366L23.5116 34.5355Z" fill="#1E1D1D"/>
<path d="M21.7466 31.9882C21.3471 32.1284 21.021 32.661 21.0194 33.171L21.0164 34.4943C21.0149 35.0043 21.3408 35.3034 21.7403 35.1632L23.5089 34.5366L23.513 32.2886C23.5146 31.7786 23.1886 31.4795 22.7891 31.6197L21.7457 31.9901L21.7466 31.9882Z" fill="#1E1D1D"/>
</svg>
