<svg width="49" height="49" viewBox="0 0 49 49" fill="none" xmlns="http://www.w3.org/2000/svg">
<path d="M22.6339 0.871179C23.5677 0.332091 24.7181 0.332092 25.6518 0.87118L43.5423 11.2002C44.476 11.7393 45.0512 12.7356 45.0512 13.8138V34.4719C45.0512 35.5501 44.476 36.5464 43.5423 37.0855L25.6518 47.4145C24.7181 47.9536 23.5677 47.9536 22.6339 47.4145L4.74346 37.0855C3.80973 36.5464 3.23453 35.5501 3.23453 34.4719V13.8138C3.23453 12.7356 3.80973 11.7393 4.74346 11.2002L22.6339 0.871179Z" fill="url(#paint0_linear_445_87427)"/>
<path d="M17 31V30C17 27.7909 18.7909 26 21 26H25C27.2091 26 29 27.7909 29 30V31" stroke="white" stroke-width="2" stroke-linecap="round"/>
<path d="M23 23C21.3432 23 20 21.6569 20 20C20 18.3432 21.3432 17 23 17C24.6569 17 26 18.3432 26 20C26 21.6569 24.6569 23 23 23Z" stroke="white" stroke-width="2" stroke-linecap="round"/>
<path d="M29 16H35" stroke="white" stroke-width="2" stroke-linecap="round"/>
<path d="M32 13V19" stroke="white" stroke-width="2" stroke-linecap="round"/>
<defs>
<linearGradient id="paint0_linear_445_87427" x1="24.1429" y1="0" x2="24.1429" y2="48.2857" gradientUnits="userSpaceOnUse">
<stop stop-color="#8062F7"/>
<stop offset="1" stop-color="#4B3A91"/>
</linearGradient>
</defs>
</svg>
