<svg width="49" height="49" viewBox="0 0 49 49" fill="none" xmlns="http://www.w3.org/2000/svg">
<g clip-path="url(#clip0_445_87422)">
<path d="M22.6339 0.871179C23.5677 0.332091 24.7181 0.332092 25.6518 0.87118L43.5423 11.2002C44.476 11.7393 45.0512 12.7356 45.0512 13.8138V34.4719C45.0512 35.5501 44.476 36.5464 43.5423 37.0855L25.6518 47.4145C24.7181 47.9536 23.5677 47.9536 22.6339 47.4145L4.74346 37.0855C3.80973 36.5464 3.23453 35.5501 3.23453 34.4719V13.8138C3.23453 12.7356 3.80973 11.7393 4.74346 11.2002L22.6339 0.871179Z" fill="url(#paint0_linear_445_87422)"/>
<path d="M22.6339 0.871179C23.5677 0.332091 24.7181 0.332092 25.6518 0.87118L43.5423 11.2002C44.476 11.7393 45.0512 12.7356 45.0512 13.8138V34.4719C45.0512 35.5501 44.476 36.5464 43.5423 37.0855L25.6518 47.4145C24.7181 47.9536 23.5677 47.9536 22.6339 47.4145L4.74346 37.0855C3.80973 36.5464 3.23453 35.5501 3.23453 34.4719V13.8138C3.23453 12.7356 3.80973 11.7393 4.74346 11.2002L22.6339 0.871179Z" fill="#EBE3FB"/>
</g>
<path fill-rule="evenodd" clip-rule="evenodd" d="M20.4419 20.3958L15 15V28.4896L20.4419 33.8854V28.7594L25.6118 33.8854H33.5026L26.9723 27.4104H20.4419V20.3958Z" fill="#0F0F0F"/>
<path d="M28.3344 24.9534C29.8496 24.9534 31.0779 23.7536 31.0779 22.2737C31.0779 20.7937 29.8496 19.594 28.3344 19.594C26.8192 19.594 25.5909 20.7937 25.5909 22.2737C25.5909 23.7536 26.8192 24.9534 28.3344 24.9534Z" fill="#7660FF"/>
<defs>
<linearGradient id="paint0_linear_445_87422" x1="25.35" y1="-0.603572" x2="3.01786" y2="36.2143" gradientUnits="userSpaceOnUse">
<stop stop-color="#478EDC"/>
<stop offset="1" stop-color="#1F5C9E"/>
</linearGradient>
<clipPath id="clip0_445_87422">
<rect width="48.2857" height="48.2857" fill="white"/>
</clipPath>
</defs>
</svg>
