<svg width="51" height="50" viewBox="0 0 51 50" fill="none" xmlns="http://www.w3.org/2000/svg">
<path d="M31.9854 18.4738C32.1828 18.5872 32.322 18.7987 32.3581 19.0779L32.539 20.5102C32.6101 21.06 32.2441 21.6706 31.7301 21.8685L11.1446 29.8416C10.6309 30.0417 10.2692 30.6516 10.3382 31.2018L10.9537 36.0611C10.9898 36.3403 11.129 36.5518 11.3266 36.6673L5.99737 33.5733C5.79998 33.4599 5.66057 33.2463 5.62446 32.9671L5.00889 28.1078C4.93777 27.5579 5.3014 26.9455 5.81535 26.7476L26.4009 18.7745C26.9148 18.5765 27.2785 17.9642 27.2097 17.4161L27.0288 15.9839C26.9927 15.7047 26.8535 15.4932 26.6562 15.3798L31.9854 18.4738Z" fill="#1E1D1D"/>
<path d="M31.9855 18.4738C32.1829 18.5872 32.322 18.7987 32.3581 19.0779L32.5391 20.5102C32.6102 21.06 32.2442 21.6706 31.7302 21.8685L11.1447 29.8416L5.81543 26.7476L26.401 18.7745C26.9149 18.5765 27.2785 17.9642 27.2098 17.4161L27.0289 15.9839C26.9928 15.7047 26.8536 15.4932 26.6562 15.3798L31.9855 18.4738Z" fill="#4D99FF"/>
<path d="M39.9198 13.8371L45.2491 16.9312C45.0586 16.8211 44.8151 16.8 44.5634 16.8982L42.287 17.7798L36.9578 14.6858L39.2341 13.8042C39.4858 13.706 39.7293 13.7271 39.9198 13.8371Z" fill="#4D99FF"/>
<path d="M33.2895 28.7571C33.4869 28.8705 33.6261 29.0821 33.6619 29.3591L33.8428 30.7914C33.9139 31.3412 33.5482 31.9539 33.0342 32.1519L31.6934 32.6714C31.1816 32.8691 30.8177 33.4794 30.8867 34.0295L31.0676 35.4618C31.1387 36.0116 30.773 36.6243 30.2591 36.8222L28.9204 37.3415C28.4064 37.5394 28.0428 38.1518 28.1115 38.6999L28.2924 40.1321C28.3636 40.682 27.9978 41.2946 27.486 41.4923L26.1452 42.0119C25.6312 42.2098 25.2676 42.8222 25.3363 43.3702L25.5173 44.8025C25.5531 45.0795 25.6922 45.2911 25.8875 45.4048L20.5582 42.3108C20.363 42.1971 20.222 41.9879 20.1859 41.7088L20.0049 40.2765C19.9338 39.7266 20.2998 39.1161 20.8138 38.9181L22.1546 38.3986C22.6664 38.2009 23.0301 37.5885 22.9611 37.0384L22.7801 35.6061C22.709 35.0563 23.075 34.4457 23.589 34.2478L24.9277 33.7285C25.4414 33.5284 25.805 32.916 25.7363 32.368L25.5553 30.9358C25.4842 30.3859 25.8502 29.7754 26.3621 29.5777L27.7029 29.0581C28.2165 28.8581 28.5802 28.2457 28.5114 27.6977L28.3305 26.2654C28.2947 25.9883 28.1558 25.7789 27.9581 25.6634L33.2874 28.7574L33.2895 28.7571Z" fill="#1E1D1D"/>
<path d="M35.5914 11.6181C35.8431 11.5199 36.0866 11.541 36.277 11.651L41.6063 14.7451C41.4158 14.635 41.1723 14.6139 40.9206 14.7121L39.5798 15.2317C39.326 15.3303 39.0828 15.3112 38.892 15.1991L33.5627 12.1051C33.7532 12.2151 33.9965 12.2341 34.2505 12.1377L35.5914 11.6181Z" fill="#4D99FF"/>
<path d="M31.9488 9.43203C32.2026 9.33348 32.4461 9.35464 32.6366 9.46465L37.9659 12.5587C37.7751 12.4465 37.5297 12.4278 37.2781 12.526L35.9372 13.0456C35.6834 13.1442 35.4402 13.1251 35.2494 13.013L29.9202 9.91896C30.1107 10.029 30.3542 10.0501 30.608 9.95159L31.9488 9.43203Z" fill="#4D99FF"/>
<path d="M28.3048 7.25024C28.5586 7.15169 28.804 7.17045 28.9947 7.28259L34.324 10.3766C34.1332 10.2645 33.8879 10.2457 33.6341 10.3443L32.2933 10.8638C32.0416 10.9621 31.7981 10.9409 31.6076 10.8309L26.2783 7.73689C26.4688 7.84691 26.7123 7.86807 26.964 7.7698L28.3048 7.25024Z" fill="#4D99FF"/>
<path d="M28.3427 16.2875C28.5401 16.4009 28.6792 16.6125 28.7153 16.8916L28.8963 18.3239C28.9324 18.603 29.0712 18.8125 29.2686 18.9259L23.9394 15.8319C23.7441 15.7182 23.6028 15.5069 23.567 15.2299L23.3861 13.7976C23.35 13.5184 23.2108 13.3069 23.0134 13.1935L28.3427 16.2875Z" fill="#1E1D1D"/>
<path d="M24.7005 14.1035C24.8958 14.2172 25.037 14.4285 25.0728 14.7055L25.2538 16.1378C25.2896 16.4148 25.4288 16.6264 25.624 16.7401L20.2948 13.6461C20.0995 13.5324 19.9585 13.3232 19.9245 13.0438L19.7436 11.6115C19.7075 11.3324 19.5686 11.1229 19.3712 11.0095L24.7005 14.1035Z" fill="#1E1D1D"/>
<path d="M25.352 5.09637L30.6812 8.19038C30.4905 8.07825 30.2451 8.05949 29.9913 8.15804L22.2369 11.1612C21.7232 11.3613 21.3593 11.9715 21.4281 12.5196L21.609 13.9518C21.6451 14.231 21.7843 14.4425 21.9816 14.5559L16.6524 11.4619C16.455 11.3485 16.3158 11.137 16.2797 10.8578L16.0988 9.42555C16.0277 8.8757 16.3937 8.26514 16.9077 8.0672L24.6621 5.06402C24.9159 4.96547 25.1612 4.98424 25.352 5.09637Z" fill="#4D99FF"/>
<path d="M21.559 11.82C21.4521 12.0409 21.3977 12.2848 21.4283 12.5217L21.6093 13.9539C21.6454 14.2331 21.7845 14.4447 21.9819 14.5581L16.6526 11.464C16.4552 11.3506 16.3161 11.1391 16.28 10.8599L16.0991 9.42766C16.0701 9.20349 16.1171 8.96913 16.2145 8.75815L21.5593 11.8221L21.559 11.82Z" fill="#1E1D1D"/>
<path d="M45.6217 17.5354C45.5506 16.9855 45.0771 16.6983 44.5634 16.8983L43.2144 17.4211C42.7047 17.6185 42.232 17.3376 42.1617 16.7941L41.9794 15.3513C41.9083 14.8014 41.4348 14.5142 40.9211 14.7143L39.5803 15.2338C39.0666 15.4339 38.5909 15.1469 38.5222 14.5989L38.3413 13.1666C38.2702 12.6168 37.7945 12.3298 37.2808 12.5299L35.94 13.0495C35.4263 13.2495 34.9507 12.9626 34.882 12.4146L34.701 10.9823C34.6299 10.4324 34.1548 10.1497 33.6409 10.3477L32.3001 10.8672C31.7864 11.0673 31.3105 10.7782 31.2417 10.2302L31.0608 8.79793C30.9897 8.24808 30.5146 7.96536 30.0006 8.1633L22.2462 11.1665C21.7326 11.3665 21.3687 11.9768 21.4374 12.5248L21.6183 13.9571C21.6894 14.5069 22.1672 14.7936 22.6809 14.5936L24.0217 14.074C24.5335 13.8763 25.011 14.1609 25.0797 14.7089L25.2607 16.1412C25.3318 16.691 25.809 16.9735 26.323 16.7755L27.6617 16.2562C28.1753 16.0562 28.6534 16.345 28.7221 16.893L28.903 18.3252C28.9741 18.8751 29.4513 19.1575 29.9611 18.9602L31.3019 18.4406C31.8156 18.2405 32.2936 18.5293 32.3623 19.0773L32.5433 20.5096C32.6144 21.0594 32.2484 21.67 31.7344 21.868L11.1489 29.841C10.6352 30.0411 10.2734 30.6511 10.3424 31.2012L10.958 36.0606C11.0291 36.6104 11.5026 36.8977 12.0163 36.6976L32.6019 28.7245C33.1155 28.5244 33.5936 28.8132 33.662 29.3591L33.843 30.7914C33.9141 31.3413 33.5483 31.9539 33.0344 32.1519L31.6936 32.6714C31.1817 32.8691 30.8178 33.4794 30.8868 34.0295L31.0678 35.4618C31.1389 36.0116 30.7731 36.6243 30.2592 36.8222L28.9205 37.3415C28.4068 37.5416 28.0429 38.1519 28.1116 38.6999L28.2926 40.1321C28.3637 40.682 27.9979 41.2947 27.4861 41.4923L26.1453 42.0119C25.6316 42.212 25.2677 42.8222 25.3364 43.3702L25.5174 44.8025C25.5885 45.3524 26.0657 45.6348 26.5797 45.4369L34.3341 42.4337C34.8477 42.2336 35.2116 41.6233 35.1429 41.0753L34.962 39.6431C34.8909 39.0932 35.255 38.4851 35.7687 38.285L37.1095 37.7654C37.6232 37.5654 37.9868 36.953 37.9181 36.405L37.7372 34.9727C37.666 34.4228 38.0302 33.8147 38.5439 33.6146L39.8847 33.0951C40.3984 32.895 40.762 32.2826 40.6933 31.7346L40.5124 30.3023C40.4412 29.7525 40.8054 29.1443 41.3191 28.9443L42.6599 28.4247C43.1736 28.2246 43.5354 27.6146 43.4664 27.0645L43.2854 25.6322C43.2149 25.0866 43.5803 24.4718 44.0943 24.2739L45.4351 23.7543C45.9488 23.5543 46.3106 22.9443 46.2416 22.3941L45.626 17.5348L45.6217 17.5354Z" fill="white" stroke="#1E1D1D" stroke-width="0.5" stroke-linecap="round" stroke-linejoin="round"/>
</svg>
