<svg width="40" height="40" viewBox="0 0 40 40" fill="none" xmlns="http://www.w3.org/2000/svg">
<rect width="40" height="40" rx="5" fill="#5865F2"/>
<path d="M27.6239 12.4093C26.1976 11.7455 24.6923 11.2722 23.1459 11.0011C23.1318 10.9985 23.1173 11.0004 23.1044 11.0066C23.0915 11.0128 23.0808 11.023 23.0739 11.0357C22.8805 11.3843 22.6663 11.8393 22.5163 12.1968C20.8253 11.9401 19.1431 11.9401 17.4868 12.1968C17.3367 11.8313 17.1148 11.3843 16.9205 11.0357C16.9133 11.0233 16.9026 11.0133 16.8897 11.0072C16.8769 11.001 16.8625 10.9989 16.8485 11.0011C15.3019 11.2716 13.7966 11.745 12.3705 12.4093C12.3582 12.4145 12.3479 12.4235 12.341 12.4349C9.48888 16.7546 8.70766 20.9682 9.0909 25.1295C9.09197 25.1397 9.09505 25.1496 9.09997 25.1586C9.10488 25.1675 9.11152 25.1754 9.1195 25.1817C11.0012 26.5827 12.824 27.4332 14.6129 27.9969C14.6268 28.0011 14.6417 28.0009 14.6555 27.9964C14.6693 27.9918 14.6814 27.983 14.6901 27.9713C15.1133 27.3854 15.4905 26.7677 15.814 26.1181C15.8185 26.1092 15.821 26.0995 15.8215 26.0895C15.8219 26.0795 15.8203 26.0696 15.8167 26.0603C15.8131 26.051 15.8076 26.0426 15.8005 26.0356C15.7935 26.0287 15.7851 26.0233 15.7758 26.0199C15.1774 25.7897 14.6077 25.5092 14.0597 25.1906C14.0497 25.1847 14.0414 25.1763 14.0353 25.1663C14.0293 25.1563 14.0258 25.1449 14.0251 25.1332C14.0244 25.1214 14.0266 25.1097 14.0314 25.0991C14.0362 25.0884 14.0436 25.0791 14.0528 25.072C14.1684 24.9843 14.282 24.8941 14.3936 24.8012C14.4033 24.793 14.4152 24.7878 14.4277 24.786C14.4403 24.7843 14.4531 24.7861 14.4646 24.7914C18.0652 26.4579 21.963 26.4579 25.521 24.7914C25.5326 24.7858 25.5455 24.7837 25.5583 24.7853C25.571 24.7868 25.5831 24.7921 25.593 24.8003C25.7047 24.8937 25.8186 24.9843 25.9347 25.072C25.944 25.079 25.9514 25.0883 25.9563 25.0989C25.9612 25.1095 25.9634 25.1212 25.9628 25.1329C25.9622 25.1446 25.9588 25.156 25.9528 25.1661C25.9469 25.1762 25.9386 25.1846 25.9286 25.1906C25.3803 25.5152 24.8059 25.7923 24.2117 26.019C24.2024 26.0225 24.194 26.028 24.1871 26.0351C24.1801 26.0422 24.1746 26.0507 24.1711 26.0601C24.1676 26.0694 24.1661 26.0794 24.1666 26.0894C24.1672 26.0994 24.1698 26.1092 24.1744 26.1181C24.5035 26.7625 24.8788 27.3816 25.2972 27.9704C25.3058 27.9824 25.3178 27.9915 25.3316 27.9962C25.3455 28.001 25.3605 28.0012 25.3745 27.9969C27.1721 27.4332 28.9949 26.5827 30.8767 25.1817C30.8847 25.1757 30.8915 25.168 30.8964 25.1591C30.9013 25.1503 30.9043 25.1405 30.9053 25.1304C31.364 20.3195 30.1369 16.1404 27.6525 12.4358C27.6464 12.4238 27.6362 12.4144 27.6239 12.4093ZM16.3517 22.5957C15.2676 22.5957 14.3744 21.5869 14.3744 20.3478C14.3744 19.1087 15.2504 18.0998 16.3517 18.0998C17.4616 18.0998 18.3461 19.1177 18.3287 20.3478C18.3287 21.5869 17.4529 22.5957 16.3517 22.5957ZM23.6619 22.5957C22.5778 22.5957 21.6847 21.5869 21.6847 20.3478C21.6847 19.1087 22.5605 18.0998 23.6619 18.0998C24.7718 18.0998 25.6563 19.1177 25.639 20.3478C25.639 21.5869 24.7718 22.5957 23.6619 22.5957Z" fill="white"/>
</svg>
