<svg width="17" height="18" viewBox="0 0 17 18" fill="none" xmlns="http://www.w3.org/2000/svg">
<path d="M9.52704 6.82181C9.88077 6.71001 10.211 6.65836 10.496 6.65836C10.8936 6.65836 11.2035 6.75839 11.3683 6.93622C11.5814 7.16571 11.6435 7.62532 11.5337 8.16536C11.0492 10.5576 8.17947 12.2895 6.68086 11.9358L5.55298 16.8223C6.05317 16.9386 6.57755 16.9981 7.11828 16.9981C7.43343 16.9981 7.75382 16.9779 8.07747 16.9367C9.98081 16.6961 11.8868 15.7664 13.4449 14.3195C15.003 12.8727 16.0707 11.0401 16.4512 9.16043C16.8867 7.0088 16.3741 4.95327 15.0448 3.52146C13.7149 2.08965 11.703 1.42604 9.52508 1.70195C9.02031 1.76602 8.51489 1.87847 8.01601 2.03603L9.52704 6.82116V6.82181Z" fill="#9583FF" stroke="#0F0F0F" stroke-width="0.0653819" stroke-miterlimit="10"/>
<path d="M6.18693 15.0813C7.96211 15.9168 10.5991 15.28 12.6456 13.367C15.1152 11.0598 15.7899 7.76922 14.1527 6.01705C13.0059 4.78988 11.0286 4.64343 9.0985 5.45937L9.27242 5.91702C10.9175 5.31226 12.5809 5.4999 13.5773 6.56624C15.0635 8.15627 14.5019 11.0957 12.3233 13.1316C10.2617 15.0577 7.492 15.484 5.94043 14.1771L6.18628 15.0813H6.18693Z" fill="#F6F3EF"/>
<path d="M9.52722 6.82447C10.0472 6.66033 10.1305 5.45596 9.71328 4.13441C9.29606 2.81287 8.53631 1.87461 8.01633 2.03874C7.49635 2.20288 7.41305 3.40726 7.83027 4.7288C8.24749 6.05034 9.00724 6.98861 9.52722 6.82447Z" fill="#9583FF" stroke="#0F0F0F" stroke-width="0.0653819" stroke-miterlimit="10"/>
<path d="M6.87963 14.556C7.19115 13.2068 7.10369 12.0345 6.68429 11.9377C6.26488 11.8408 5.67234 12.8561 5.36082 14.2054C5.04929 15.5547 5.13675 16.7269 5.55616 16.8237C5.97557 16.9206 6.56811 15.9053 6.87963 14.556Z" fill="#0F0F0F" stroke="#0F0F0F" stroke-width="0.0653819" stroke-miterlimit="10"/>
<path d="M6.68277 11.9363C6.48924 11.8906 6.33559 11.8115 6.23555 11.7036C5.90666 11.3499 5.92693 10.4457 6.44216 9.45648L2.00517 7.11328C1.60502 7.87495 1.31537 8.67258 1.15191 9.47871C0.715795 11.6303 1.22906 13.6859 2.55833 15.1177C3.35079 15.9709 4.38582 16.5515 5.55424 16.8228C5.97401 16.9195 6.56639 15.9042 6.87762 14.5548C7.18885 13.2053 7.10124 12.0331 6.68212 11.9363H6.68277Z" fill="#4D99FF"/>
<path d="M2.09567 10.2495C1.47386 12.7385 2.69459 15.0601 4.73197 16.2853C2.82144 15.525 1.23914 13.7996 1.23914 10.9621C1.23914 10.1834 1.3771 9.4682 1.54971 8.87586C1.83675 7.88863 2.49713 8.64442 2.09632 10.2495H2.09567Z" fill="white"/>
<path d="M5.99042 13.6879C4.96193 12.5869 4.98547 10.7935 5.89627 9.16557L4.924 8.65234C3.60128 10.8125 3.48751 13.2237 4.83312 14.6633C5.29212 15.1543 5.87535 15.4832 6.53377 15.6578C6.66584 15.3335 6.78484 14.9588 6.87834 14.5528C6.89469 14.4816 6.90973 14.411 6.92411 14.341C6.57234 14.1887 6.25588 13.9723 5.99042 13.6879Z" fill="white"/>
<path d="M6.68277 11.9363C6.48924 11.8906 6.33559 11.8114 6.23555 11.7036C5.90666 11.3499 5.92693 10.4457 6.44216 9.45648L2.00517 7.11328C1.60502 7.87495 1.31537 8.67258 1.15191 9.47871C0.715795 11.6303 1.22906 13.6859 2.55833 15.1177C3.35079 15.9709 4.38582 16.5515 5.55424 16.8228C5.97401 16.9195 6.56639 15.9042 6.87762 14.5548C7.18885 13.2053 7.10124 12.0331 6.68212 11.9363H6.68277Z" stroke="#0F0F0F" stroke-width="0.0653819" stroke-miterlimit="10"/>
<path d="M6.4462 9.45863C6.64722 9.07804 5.81695 8.245 4.59175 7.59798C3.36655 6.95096 2.21038 6.73498 2.00936 7.11557C1.80834 7.49616 2.63861 8.3292 3.8638 8.97622C5.089 9.62324 6.24518 9.83922 6.4462 9.45863Z" fill="#4D99FF" stroke="#0F0F0F" stroke-width="0.0653819" stroke-miterlimit="10"/>
<path d="M9.71317 3.11404C9.29602 1.79272 8.53625 0.854528 8.01644 1.01863C6.63552 1.45537 5.30233 2.23861 4.15811 3.30168C3.26822 4.12808 2.53788 5.08066 2.00434 6.09535C1.80296 6.47585 2.63334 7.30944 3.85864 7.95604C5.08395 8.6033 6.23995 8.81905 6.44133 8.43789C6.69371 7.95343 7.0651 7.4487 7.57183 6.97731C8.22175 6.37386 8.91025 5.99728 9.52682 5.8031C10.0466 5.639 10.1303 4.43471 9.71317 3.11339V3.11404Z" fill="#0F0F0F"/>
<path d="M5.66524 8.60553C5.99347 7.87917 6.49497 7.16849 7.15862 6.5487C8.0145 5.74845 9.00181 5.22738 9.96165 5.00051C9.99892 4.66511 9.97473 4.2493 9.88711 3.79688C8.70888 4.12443 7.50254 4.79457 6.44397 5.78376C5.62993 6.54477 4.99832 7.40517 4.56482 8.28714C4.97478 8.4532 5.35466 8.56173 5.66589 8.60553H5.66524Z" fill="#9583FF"/>
<path d="M3.50657 4.37746C2.96126 5.01622 3.44053 5.33069 3.94137 4.74555C4.27941 4.35131 4.64556 3.98911 5.02741 3.65829C5.73356 3.04633 5.34452 2.63117 4.62791 3.25359C4.25195 3.58048 3.87076 3.95119 3.50722 4.37746H3.50657Z" fill="#9583FF"/>
<path d="M9.71317 3.11404C9.29602 1.79272 8.53625 0.854528 8.01644 1.01863C6.63552 1.45537 5.30233 2.23861 4.15811 3.30168C3.26822 4.12808 2.53788 5.08066 2.00434 6.09535C1.80296 6.47585 2.63334 7.30944 3.85864 7.95604C5.08395 8.6033 6.23995 8.81905 6.44133 8.43789C6.69371 7.95343 7.0651 7.4487 7.57183 6.97731C8.22175 6.37386 8.91025 5.99728 9.52682 5.8031C10.0466 5.639 10.1303 4.43471 9.71317 3.11339V3.11404Z" stroke="#0F0F0F" stroke-width="0.0653819" stroke-miterlimit="10"/>
<path d="M11.6604 6.95312C11.8408 7.26172 11.8696 7.69126 11.7656 8.20972C11.4753 9.63434 10.4168 10.8046 9.2686 11.5055C9.06722 11.6284 8.60168 11.852 8.60168 11.852C9.13914 11.7873 9.44318 12.0795 9.77991 12.2449C10.2186 12.4607 10.6652 12.5261 11.2746 11.9658C12.8307 10.5353 13.2407 8.4647 12.2174 7.36894C12.0559 7.19634 11.8683 7.05839 11.661 6.95312H11.6604Z" fill="#0F0F0F"/>
</svg>
