<svg width="40" height="40" viewBox="0 0 40 40" fill="none" xmlns="http://www.w3.org/2000/svg">
<g clip-path="url(#clip0_10899_34650)">
<rect width="40" height="40" rx="5" fill="#5865F2"/>
<rect width="40" height="40" fill="url(#paint0_radial_10899_34650)"/>
<rect width="40" height="40" fill="url(#paint1_radial_10899_34650)"/>
<rect width="40" height="40" fill="url(#paint2_radial_10899_34650)"/>
<rect width="40" height="40" fill="url(#paint3_radial_10899_34650)"/>
<path d="M20.001 9C17.0136 9 16.6387 9.01306 15.4653 9.06646C14.2943 9.12008 13.4949 9.30548 12.7955 9.57751C12.072 9.85846 11.4583 10.2343 10.8469 10.8459C10.235 11.4574 9.85915 12.0711 9.57728 12.7943C9.30456 13.494 9.11893 14.2935 9.06623 15.4641C9.01375 16.6374 9 17.0126 9 20C9 22.9874 9.0133 23.3612 9.06645 24.5345C9.12032 25.7056 9.30571 26.5049 9.5775 27.2043C9.85869 27.9278 10.2345 28.5415 10.8462 29.1529C11.4574 29.7648 12.0711 30.1416 12.7941 30.4225C13.494 30.6945 14.2936 30.8799 15.4644 30.9336C16.6378 30.9869 17.0124 31 19.9997 31C22.9873 31 23.3611 30.9869 24.5345 30.9335C25.7055 30.8799 26.5058 30.6945 27.2056 30.4225C27.9289 30.1416 28.5417 29.7648 29.1529 29.1529C29.7648 28.5415 30.1406 27.9278 30.4225 27.2045C30.6929 26.5049 30.8785 25.7053 30.9335 24.5348C30.9862 23.3614 31 22.9874 31 20C31 17.0126 30.9862 16.6377 30.9335 15.4643C30.8785 14.2933 30.6929 13.494 30.4225 12.7945C30.1406 12.0711 29.7648 11.4574 29.1529 10.8459C28.541 10.2341 27.9291 9.85823 27.205 9.5775C26.5037 9.30548 25.7039 9.12008 24.5329 9.06646C23.3595 9.01306 22.986 9 19.9976 9H20.001ZM19.0142 10.9823C19.3071 10.9818 19.6339 10.9823 20.001 10.9823C22.9381 10.9823 23.2862 10.9928 24.446 11.0455C25.5185 11.0946 26.1006 11.2738 26.4883 11.4244C27.0017 11.6237 27.3677 11.8621 27.7524 12.2471C28.1374 12.6321 28.3758 12.9987 28.5756 13.5121C28.7262 13.8993 28.9056 14.4814 28.9544 15.5539C29.0071 16.7135 29.0186 17.0619 29.0186 19.9975C29.0186 22.9331 29.0071 23.2814 28.9544 24.441C28.9054 25.5135 28.7262 26.0956 28.5756 26.4829C28.3762 26.9962 28.1374 27.3618 27.7524 27.7465C27.3675 28.1315 27.0019 28.3699 26.4883 28.5692C26.1011 28.7205 25.5185 28.8992 24.446 28.9483C23.2864 29.001 22.9381 29.0124 20.001 29.0124C17.0638 29.0124 16.7157 29.001 15.5561 28.9483C14.4836 28.8988 13.9015 28.7196 13.5135 28.569C13.0001 28.3696 12.6335 28.1313 12.2485 27.7463C11.8635 27.3613 11.6251 26.9956 11.4253 26.482C11.2747 26.0947 11.0953 25.5126 11.0465 24.4401C10.9938 23.2805 10.9832 22.9322 10.9832 19.9947C10.9832 17.0573 10.9938 16.7108 11.0465 15.5512C11.0955 14.4787 11.2747 13.8966 11.4253 13.5089C11.6247 12.9955 11.8635 12.6289 12.2485 12.2439C12.6335 11.8589 13.0001 11.6205 13.5135 11.4207C13.9012 11.2694 14.4836 11.0907 15.5561 11.0414C16.5708 10.9956 16.9641 10.9818 19.0142 10.9795L19.0142 10.9823ZM25.8728 12.8087C25.144 12.8087 24.5528 13.3993 24.5528 14.1283C24.5528 14.857 25.144 15.4483 25.8728 15.4483C26.6016 15.4483 27.1928 14.857 27.1928 14.1283C27.1928 13.3995 26.6016 12.8083 25.8728 12.8083L25.8728 12.8087ZM20.001 14.351C16.8813 14.351 14.352 16.8804 14.352 20C14.352 23.1196 16.8813 25.6478 20.001 25.6478C23.1207 25.6478 25.6491 23.1196 25.6491 20C25.6491 16.8804 23.1205 14.351 20.0008 14.351H20.001ZM20.001 16.3333C22.026 16.3333 23.6677 17.9749 23.6677 20C23.6677 22.0249 22.026 23.6667 20.001 23.6667C17.9759 23.6667 16.3343 22.0249 16.3343 20C16.3343 17.9749 17.9759 16.3333 20.001 16.3333Z" fill="white"/>
</g>
<defs>
<radialGradient id="paint0_radial_10899_34650" cx="0" cy="0" r="1" gradientUnits="userSpaceOnUse" gradientTransform="translate(38.7084 18.7485) rotate(164.25) scale(25.5577 18.4131)">
<stop stop-color="#FF005F"/>
<stop offset="1" stop-color="#FC01D8"/>
</radialGradient>
<radialGradient id="paint1_radial_10899_34650" cx="0" cy="0" r="1" gradientUnits="userSpaceOnUse" gradientTransform="translate(10.6247 43.0808) rotate(-90) scale(31.9288 33.8757)">
<stop stop-color="#FFCC00"/>
<stop offset="0.1242" stop-color="#FFCC00"/>
<stop offset="0.5672" stop-color="#FE4A05"/>
<stop offset="0.6942" stop-color="#FF0F3F"/>
<stop offset="1" stop-color="#FE0657" stop-opacity="0"/>
</radialGradient>
<radialGradient id="paint2_radial_10899_34650" cx="0" cy="0" r="1" gradientUnits="userSpaceOnUse" gradientTransform="translate(21.0108 39.4359) rotate(-59.8703) scale(13.2028 17.1886)">
<stop stop-color="#FFCC00"/>
<stop offset="1" stop-color="#FFCC00" stop-opacity="0"/>
</radialGradient>
<radialGradient id="paint3_radial_10899_34650" cx="0" cy="0" r="1" gradientUnits="userSpaceOnUse" gradientTransform="translate(5.42714 1.62879) rotate(164.274) scale(25.2742 8.61091)">
<stop stop-color="#780CFF"/>
<stop offset="1" stop-color="#820BFF" stop-opacity="0"/>
</radialGradient>
<clipPath id="clip0_10899_34650">
<rect width="40" height="40" rx="5" fill="white"/>
</clipPath>
</defs>
</svg>
