<svg width="60" height="60" viewBox="0 0 60 60" fill="none" xmlns="http://www.w3.org/2000/svg">
<path d="M18.1 50.1883L18.1 13.6469H40.9L40.9 50.1883L40.9 50.1889L40.9 50.2C40.9 50.8278 40.5955 51.4349 40.026 51.9967C39.4562 52.5589 38.6265 53.0697 37.5932 53.5009C35.527 54.3631 32.6657 54.8987 29.5 54.8987C26.3343 54.8987 23.473 54.3631 21.4068 53.5009C20.3735 53.0697 19.5438 52.5589 18.974 51.9967C18.4045 51.4349 18.1 50.8278 18.1 50.2L18.1 50.1889V50.1883Z" fill="#9583FF" stroke="#0F0F0F" stroke-width="0.2"/>
<mask id="path-3-inside-1_8467_80532" fill="white">
<path d="M41 13.4102L18 13.8561V30.696C18 30.7001 18 30.7043 18 30.7085C18 33.3586 23.1484 35.5064 29.5 35.5064C35.8516 35.5064 41 33.3579 41 30.7085C41 30.7043 40.9993 30.7001 40.9993 30.696L41 13.4102Z"/>
</mask>
<path d="M41 13.4102L18 13.8561V30.696C18 30.7001 18 30.7043 18 30.7085C18 33.3586 23.1484 35.5064 29.5 35.5064C35.8516 35.5064 41 33.3579 41 30.7085C41 30.7043 40.9993 30.7001 40.9993 30.696L41 13.4102Z" fill="white"/>
<path d="M41 13.4102L41.2 13.4102L41.2 13.2062L40.9961 13.2102L41 13.4102ZM18 13.8561L17.9961 13.6562L17.8 13.66V13.8561H18ZM40.9993 30.696L40.7993 30.6959V30.696H40.9993ZM40.9961 13.2102L17.9961 13.6562L18.0039 14.0561L41.0039 13.6101L40.9961 13.2102ZM17.8 13.8561V30.696H18.2V13.8561H17.8ZM17.8 30.696C17.8 30.696 17.8 30.696 17.8 30.696C17.8 30.696 17.8 30.696 17.8 30.696C17.8 30.696 17.8 30.696 17.8 30.696C17.8 30.696 17.8 30.696 17.8 30.6961C17.8 30.6961 17.8 30.6961 17.8 30.6961C17.8 30.6961 17.8 30.6961 17.8 30.6961C17.8 30.6961 17.8 30.6961 17.8 30.6961C17.8 30.6961 17.8 30.6961 17.8 30.6962C17.8 30.6962 17.8 30.6962 17.8 30.6962C17.8 30.6962 17.8 30.6962 17.8 30.6962C17.8 30.6962 17.8 30.6962 17.8 30.6962C17.8 30.6962 17.8 30.6962 17.8 30.6963C17.8 30.6963 17.8 30.6963 17.8 30.6963C17.8 30.6963 17.8 30.6963 17.8 30.6963C17.8 30.6963 17.8 30.6963 17.8 30.6963C17.8 30.6963 17.8 30.6963 17.8 30.6963C17.8 30.6964 17.8 30.6964 17.8 30.6964C17.8 30.6964 17.8 30.6964 17.8 30.6964C17.8 30.6964 17.8 30.6964 17.8 30.6964C17.8 30.6964 17.8 30.6964 17.8 30.6964C17.8 30.6965 17.8 30.6965 17.8 30.6965C17.8 30.6965 17.8 30.6965 17.8 30.6965C17.8 30.6965 17.8 30.6965 17.8 30.6965C17.8 30.6965 17.8 30.6965 17.8 30.6965C17.8 30.6966 17.8 30.6966 17.8 30.6966C17.8 30.6966 17.8 30.6966 17.8 30.6966C17.8 30.6966 17.8 30.6966 17.8 30.6966C17.8 30.6966 17.8 30.6966 17.8 30.6966C17.8 30.6966 17.8 30.6967 17.8 30.6967C17.8 30.6967 17.8 30.6967 17.8 30.6967C17.8 30.6967 17.8 30.6967 17.8 30.6967C17.8 30.6967 17.8 30.6967 17.8 30.6967C17.8 30.6967 17.8 30.6968 17.8 30.6968C17.8 30.6968 17.8 30.6968 17.8 30.6968C17.8 30.6968 17.8 30.6968 17.8 30.6968C17.8 30.6968 17.8 30.6968 17.8 30.6968C17.8 30.6968 17.8 30.6969 17.8 30.6969C17.8 30.6969 17.8 30.6969 17.8 30.6969C17.8 30.6969 17.8 30.6969 17.8 30.6969C17.8 30.6969 17.8 30.6969 17.8 30.6969C17.8 30.6969 17.8 30.697 17.8 30.697C17.8 30.697 17.8 30.697 17.8 30.697C17.8 30.697 17.8 30.697 17.8 30.697C17.8 30.697 17.8 30.697 17.8 30.697C17.8 30.697 17.8 30.697 17.8 30.6971C17.8 30.6971 17.8 30.6971 17.8 30.6971C17.8 30.6971 17.8 30.6971 17.8 30.6971C17.8 30.6971 17.8 30.6971 17.8 30.6971C17.8 30.6971 17.8 30.6971 17.8 30.6972C17.8 30.6972 17.8 30.6972 17.8 30.6972C17.8 30.6972 17.8 30.6972 17.8 30.6972C17.8 30.6972 17.8 30.6972 17.8 30.6972C17.8 30.6972 17.8 30.6972 17.8 30.6973C17.8 30.6973 17.8 30.6973 17.8 30.6973C17.8 30.6973 17.8 30.6973 17.8 30.6973C17.8 30.6973 17.8 30.6973 17.8 30.6973C17.8 30.6973 17.8 30.6973 17.8 30.6973C17.8 30.6974 17.8 30.6974 17.8 30.6974C17.8 30.6974 17.8 30.6974 17.8 30.6974C17.8 30.6974 17.8 30.6974 17.8 30.6974C17.8 30.6974 17.8 30.6974 17.8 30.6974C17.8 30.6975 17.8 30.6975 17.8 30.6975C17.8 30.6975 17.8 30.6975 17.8 30.6975C17.8 30.6975 17.8 30.6975 17.8 30.6975C17.8 30.6975 17.8 30.6975 17.8 30.6975C17.8 30.6976 17.8 30.6976 17.8 30.6976C17.8 30.6976 17.8 30.6976 17.8 30.6976C17.8 30.6976 17.8 30.6976 17.8 30.6976C17.8 30.6976 17.8 30.6976 17.8 30.6976C17.8 30.6977 17.8 30.6977 17.8 30.6977C17.8 30.6977 17.8 30.6977 17.8 30.6977C17.8 30.6977 17.8 30.6977 17.8 30.6977C17.8 30.6977 17.8 30.6977 17.8 30.6977C17.8 30.6977 17.8 30.6978 17.8 30.6978C17.8 30.6978 17.8 30.6978 17.8 30.6978C17.8 30.6978 17.8 30.6978 17.8 30.6978C17.8 30.6978 17.8 30.6978 17.8 30.6978C17.8 30.6978 17.8 30.6979 17.8 30.6979C17.8 30.6979 17.8 30.6979 17.8 30.6979C17.8 30.6979 17.8 30.6979 17.8 30.6979C17.8 30.6979 17.8 30.6979 17.8 30.6979C17.8 30.6979 17.8 30.698 17.8 30.698C17.8 30.698 17.8 30.698 17.8 30.698C17.8 30.698 17.8 30.698 17.8 30.698C17.8 30.698 17.8 30.698 17.8 30.698C17.8 30.698 17.8 30.698 17.8 30.6981C17.8 30.6981 17.8 30.6981 17.8 30.6981C17.8 30.6981 17.8 30.6981 17.8 30.6981C17.8 30.6981 17.8 30.6981 17.8 30.6981C17.8 30.6981 17.8 30.6981 17.8 30.6982C17.8 30.6982 17.8 30.6982 17.8 30.6982C17.8 30.6982 17.8 30.6982 17.8 30.6982C17.8 30.6982 17.8 30.6982 17.8 30.6982C17.8 30.6982 17.8 30.6982 17.8 30.6983C17.8 30.6983 17.8 30.6983 17.8 30.6983C17.8 30.6983 17.8 30.6983 17.8 30.6983C17.8 30.6983 17.8 30.6983 17.8 30.6983C17.8 30.6983 17.8 30.6983 17.8 30.6984C17.8 30.6984 17.8 30.6984 17.8 30.6984C17.8 30.6984 17.8 30.6984 17.8 30.6984C17.8 30.6984 17.8 30.6984 17.8 30.6984C17.8 30.6984 17.8 30.6984 17.8 30.6984C17.8 30.6985 17.8 30.6985 17.8 30.6985C17.8 30.6985 17.8 30.6985 17.8 30.6985C17.8 30.6985 17.8 30.6985 17.8 30.6985C17.8 30.6985 17.8 30.6985 17.8 30.6985C17.8 30.6986 17.8 30.6986 17.8 30.6986C17.8 30.6986 17.8 30.6986 17.8 30.6986C17.8 30.6986 17.8 30.6986 17.8 30.6986C17.8 30.6986 17.8 30.6986 17.8 30.6986C17.8 30.6987 17.8 30.6987 17.8 30.6987C17.8 30.6987 17.8 30.6987 17.8 30.6987C17.8 30.6987 17.8 30.6987 17.8 30.6987C17.8 30.6987 17.8 30.6987 17.8 30.6987C17.8 30.6987 17.8 30.6988 17.8 30.6988C17.8 30.6988 17.8 30.6988 17.8 30.6988C17.8 30.6988 17.8 30.6988 17.8 30.6988C17.8 30.6988 17.8 30.6988 17.8 30.6988C17.8 30.6988 17.8 30.6989 17.8 30.6989C17.8 30.6989 17.8 30.6989 17.8 30.6989C17.8 30.6989 17.8 30.6989 17.8 30.6989C17.8 30.6989 17.8 30.6989 17.8 30.6989C17.8 30.6989 17.8 30.699 17.8 30.699C17.8 30.699 17.8 30.699 17.8 30.699C17.8 30.699 17.8 30.699 17.8 30.699C17.8 30.699 17.8 30.699 17.8 30.699C17.8 30.699 17.8 30.6991 17.8 30.6991C17.8 30.6991 17.8 30.6991 17.8 30.6991C17.8 30.6991 17.8 30.6991 17.8 30.6991C17.8 30.6991 17.8 30.6991 17.8 30.6991C17.8 30.6991 17.8 30.6991 17.8 30.6992C17.8 30.6992 17.8 30.6992 17.8 30.6992C17.8 30.6992 17.8 30.6992 17.8 30.6992C17.8 30.6992 17.8 30.6992 17.8 30.6992C17.8 30.6992 17.8 30.6992 17.8 30.6993C17.8 30.6993 17.8 30.6993 17.8 30.6993C17.8 30.6993 17.8 30.6993 17.8 30.6993C17.8 30.6993 17.8 30.6993 17.8 30.6993C17.8 30.6993 17.8 30.6993 17.8 30.6994C17.8 30.6994 17.8 30.6994 17.8 30.6994C17.8 30.6994 17.8 30.6994 17.8 30.6994C17.8 30.6994 17.8 30.6994 17.8 30.6994C17.8 30.6994 17.8 30.6994 17.8 30.6994C17.8 30.6995 17.8 30.6995 17.8 30.6995C17.8 30.6995 17.8 30.6995 17.8 30.6995C17.8 30.6995 17.8 30.6995 17.8 30.6995C17.8 30.6995 17.8 30.6995 17.8 30.6995C17.8 30.6996 17.8 30.6996 17.8 30.6996C17.8 30.6996 17.8 30.6996 17.8 30.6996C17.8 30.6996 17.8 30.6996 17.8 30.6996C17.8 30.6996 17.8 30.6996 17.8 30.6996C17.8 30.6997 17.8 30.6997 17.8 30.6997C17.8 30.6997 17.8 30.6997 17.8 30.6997C17.8 30.6997 17.8 30.6997 17.8 30.6997C17.8 30.6997 17.8 30.6997 17.8 30.6997C17.8 30.6998 17.8 30.6998 17.8 30.6998C17.8 30.6998 17.8 30.6998 17.8 30.6998C17.8 30.6998 17.8 30.6998 17.8 30.6998C17.8 30.6998 17.8 30.6998 17.8 30.6998C17.8 30.6998 17.8 30.6999 17.8 30.6999C17.8 30.6999 17.8 30.6999 17.8 30.6999C17.8 30.6999 17.8 30.6999 17.8 30.6999C17.8 30.6999 17.8 30.6999 17.8 30.6999C17.8 30.6999 17.8 30.7 17.8 30.7C17.8 30.7 17.8 30.7 17.8 30.7C17.8 30.7 17.8 30.7 17.8 30.7C17.8 30.7 17.8 30.7 17.8 30.7C17.8 30.7 17.8 30.7001 17.8 30.7001C17.8 30.7001 17.8 30.7001 17.8 30.7001C17.8 30.7001 17.8 30.7001 17.8 30.7001C17.8 30.7001 17.8 30.7001 17.8 30.7001C17.8 30.7001 17.8 30.7001 17.8 30.7002C17.8 30.7002 17.8 30.7002 17.8 30.7002C17.8 30.7002 17.8 30.7002 17.8 30.7002C17.8 30.7002 17.8 30.7002 17.8 30.7002C17.8 30.7002 17.8 30.7002 17.8 30.7003C17.8 30.7003 17.8 30.7003 17.8 30.7003C17.8 30.7003 17.8 30.7003 17.8 30.7003C17.8 30.7003 17.8 30.7003 17.8 30.7003C17.8 30.7003 17.8 30.7003 17.8 30.7004C17.8 30.7004 17.8 30.7004 17.8 30.7004C17.8 30.7004 17.8 30.7004 17.8 30.7004C17.8 30.7004 17.8 30.7004 17.8 30.7004C17.8 30.7004 17.8 30.7004 17.8 30.7005C17.8 30.7005 17.8 30.7005 17.8 30.7005C17.8 30.7005 17.8 30.7005 17.8 30.7005C17.8 30.7005 17.8 30.7005 17.8 30.7005C17.8 30.7005 17.8 30.7005 17.8 30.7005C17.8 30.7006 17.8 30.7006 17.8 30.7006C17.8 30.7006 17.8 30.7006 17.8 30.7006C17.8 30.7006 17.8 30.7006 17.8 30.7006C17.8 30.7006 17.8 30.7006 17.8 30.7006C17.8 30.7007 17.8 30.7007 17.8 30.7007C17.8 30.7007 17.8 30.7007 17.8 30.7007C17.8 30.7007 17.8 30.7007 17.8 30.7007C17.8 30.7007 17.8 30.7007 17.8 30.7007C17.8 30.7008 17.8 30.7008 17.8 30.7008C17.8 30.7008 17.8 30.7008 17.8 30.7008C17.8 30.7008 17.8 30.7008 17.8 30.7008C17.8 30.7008 17.8 30.7008 17.8 30.7008C17.8 30.7008 17.8 30.7009 17.8 30.7009C17.8 30.7009 17.8 30.7009 17.8 30.7009C17.8 30.7009 17.8 30.7009 17.8 30.7009C17.8 30.7009 17.8 30.7009 17.8 30.7009C17.8 30.7009 17.8 30.701 17.8 30.701C17.8 30.701 17.8 30.701 17.8 30.701C17.8 30.701 17.8 30.701 17.8 30.701C17.8 30.701 17.8 30.701 17.8 30.701C17.8 30.701 17.8 30.7011 17.8 30.7011C17.8 30.7011 17.8 30.7011 17.8 30.7011C17.8 30.7011 17.8 30.7011 17.8 30.7011C17.8 30.7011 17.8 30.7011 17.8 30.7011C17.8 30.7011 17.8 30.7012 17.8 30.7012C17.8 30.7012 17.8 30.7012 17.8 30.7012C17.8 30.7012 17.8 30.7012 17.8 30.7012C17.8 30.7012 17.8 30.7012 17.8 30.7012C17.8 30.7012 17.8 30.7012 17.8 30.7013C17.8 30.7013 17.8 30.7013 17.8 30.7013C17.8 30.7013 17.8 30.7013 17.8 30.7013C17.8 30.7013 17.8 30.7013 17.8 30.7013C17.8 30.7013 17.8 30.7013 17.8 30.7014C17.8 30.7014 17.8 30.7014 17.8 30.7014C17.8 30.7014 17.8 30.7014 17.8 30.7014C17.8 30.7014 17.8 30.7014 17.8 30.7014C17.8 30.7014 17.8 30.7014 17.8 30.7015C17.8 30.7015 17.8 30.7015 17.8 30.7015C17.8 30.7015 17.8 30.7015 17.8 30.7015C17.8 30.7015 17.8 30.7015 17.8 30.7015C17.8 30.7015 17.8 30.7015 17.8 30.7015C17.8 30.7016 17.8 30.7016 17.8 30.7016C17.8 30.7016 17.8 30.7016 17.8 30.7016C17.8 30.7016 17.8 30.7016 17.8 30.7016C17.8 30.7016 17.8 30.7016 17.8 30.7016C17.8 30.7017 17.8 30.7017 17.8 30.7017C17.8 30.7017 17.8 30.7017 17.8 30.7017C17.8 30.7017 17.8 30.7017 17.8 30.7017C17.8 30.7017 17.8 30.7017 17.8 30.7017C17.8 30.7018 17.8 30.7018 17.8 30.7018C17.8 30.7018 17.8 30.7018 17.8 30.7018C17.8 30.7018 17.8 30.7018 17.8 30.7018C17.8 30.7018 17.8 30.7018 17.8 30.7018C17.8 30.7019 17.8 30.7019 17.8 30.7019C17.8 30.7019 17.8 30.7019 17.8 30.7019C17.8 30.7019 17.8 30.7019 17.8 30.7019C17.8 30.7019 17.8 30.7019 17.8 30.7019C17.8 30.7019 17.8 30.702 17.8 30.702C17.8 30.702 17.8 30.702 17.8 30.702C17.8 30.702 17.8 30.702 17.8 30.702C17.8 30.702 17.8 30.702 17.8 30.702C17.8 30.702 17.8 30.7021 17.8 30.7021C17.8 30.7021 17.8 30.7021 17.8 30.7021C17.8 30.7021 17.8 30.7021 17.8 30.7021C17.8 30.7021 17.8 30.7021 17.8 30.7021C17.8 30.7021 17.8 30.7022 17.8 30.7022C17.8 30.7022 17.8 30.7022 17.8 30.7022C17.8 30.7022 17.8 30.7022 17.8 30.7022C17.8 30.7022 17.8 30.7022 17.8 30.7022C17.8 30.7022 17.8 30.7022 17.8 30.7023C17.8 30.7023 17.8 30.7023 17.8 30.7023C17.8 30.7023 17.8 30.7023 17.8 30.7023C17.8 30.7023 17.8 30.7023 17.8 30.7023C17.8 30.7023 17.8 30.7023 17.8 30.7024C17.8 30.7024 17.8 30.7024 17.8 30.7024C17.8 30.7024 17.8 30.7024 17.8 30.7024C17.8 30.7024 17.8 30.7024 17.8 30.7024C17.8 30.7024 17.8 30.7024 17.8 30.7025C17.8 30.7025 17.8 30.7025 17.8 30.7025C17.8 30.7025 17.8 30.7025 17.8 30.7025C17.8 30.7025 17.8 30.7025 17.8 30.7025C17.8 30.7025 17.8 30.7025 17.8 30.7026C17.8 30.7026 17.8 30.7026 17.8 30.7026C17.8 30.7026 17.8 30.7026 17.8 30.7026C17.8 30.7026 17.8 30.7026 17.8 30.7026C17.8 30.7026 17.8 30.7026 17.8 30.7026C17.8 30.7027 17.8 30.7027 17.8 30.7027C17.8 30.7027 17.8 30.7027 17.8 30.7027C17.8 30.7027 17.8 30.7027 17.8 30.7027C17.8 30.7027 17.8 30.7027 17.8 30.7027C17.8 30.7028 17.8 30.7028 17.8 30.7028C17.8 30.7028 17.8 30.7028 17.8 30.7028C17.8 30.7028 17.8 30.7028 17.8 30.7028C17.8 30.7028 17.8 30.7028 17.8 30.7028C17.8 30.7029 17.8 30.7029 17.8 30.7029C17.8 30.7029 17.8 30.7029 17.8 30.7029C17.8 30.7029 17.8 30.7029 17.8 30.7029C17.8 30.7029 17.8 30.7029 17.8 30.7029C17.8 30.7029 17.8 30.703 17.8 30.703C17.8 30.703 17.8 30.703 17.8 30.703C17.8 30.703 17.8 30.703 17.8 30.703C17.8 30.703 17.8 30.703 17.8 30.703C17.8 30.703 17.8 30.7031 17.8 30.7031C17.8 30.7031 17.8 30.7031 17.8 30.7031C17.8 30.7031 17.8 30.7031 17.8 30.7031C17.8 30.7031 17.8 30.7031 17.8 30.7031C17.8 30.7031 17.8 30.7032 17.8 30.7032C17.8 30.7032 17.8 30.7032 17.8 30.7032C17.8 30.7032 17.8 30.7032 17.8 30.7032C17.8 30.7032 17.8 30.7032 17.8 30.7032C17.8 30.7032 17.8 30.7033 17.8 30.7033C17.8 30.7033 17.8 30.7033 17.8 30.7033C17.8 30.7033 17.8 30.7033 17.8 30.7033C17.8 30.7033 17.8 30.7033 17.8 30.7033C17.8 30.7033 17.8 30.7033 17.8 30.7034C17.8 30.7034 17.8 30.7034 17.8 30.7034C17.8 30.7034 17.8 30.7034 17.8 30.7034C17.8 30.7034 17.8 30.7034 17.8 30.7034C17.8 30.7034 17.8 30.7034 17.8 30.7035C17.8 30.7035 17.8 30.7035 17.8 30.7035C17.8 30.7035 17.8 30.7035 17.8 30.7035C17.8 30.7035 17.8 30.7035 17.8 30.7035C17.8 30.7035 17.8 30.7035 17.8 30.7036C17.8 30.7036 17.8 30.7036 17.8 30.7036C17.8 30.7036 17.8 30.7036 17.8 30.7036C17.8 30.7036 17.8 30.7036 17.8 30.7036C17.8 30.7036 17.8 30.7036 17.8 30.7036C17.8 30.7037 17.8 30.7037 17.8 30.7037C17.8 30.7037 17.8 30.7037 17.8 30.7037C17.8 30.7037 17.8 30.7037 17.8 30.7037C17.8 30.7037 17.8 30.7037 17.8 30.7037C17.8 30.7038 17.8 30.7038 17.8 30.7038C17.8 30.7038 17.8 30.7038 17.8 30.7038C17.8 30.7038 17.8 30.7038 17.8 30.7038C17.8 30.7038 17.8 30.7038 17.8 30.7038C17.8 30.7039 17.8 30.7039 17.8 30.7039C17.8 30.7039 17.8 30.7039 17.8 30.7039C17.8 30.7039 17.8 30.7039 17.8 30.7039C17.8 30.7039 17.8 30.7039 17.8 30.7039C17.8 30.704 17.8 30.704 17.8 30.704C17.8 30.704 17.8 30.704 17.8 30.704C17.8 30.704 17.8 30.704 17.8 30.704C17.8 30.704 17.8 30.704 17.8 30.704C17.8 30.704 17.8 30.7041 17.8 30.7041C17.8 30.7041 17.8 30.7041 17.8 30.7041C17.8 30.7041 17.8 30.7041 17.8 30.7041C17.8 30.7041 17.8 30.7041 17.8 30.7041C17.8 30.7041 17.8 30.7042 17.8 30.7042C17.8 30.7042 17.8 30.7042 17.8 30.7042C17.8 30.7042 17.8 30.7042 17.8 30.7042C17.8 30.7042 17.8 30.7042 17.8 30.7042C17.8 30.7042 17.8 30.7043 17.8 30.7043C17.8 30.7043 17.8 30.7043 17.8 30.7043C17.8 30.7043 17.8 30.7043 17.8 30.7043C17.8 30.7043 17.8 30.7043 17.8 30.7043C17.8 30.7043 17.8 30.7043 17.8 30.7044C17.8 30.7044 17.8 30.7044 17.8 30.7044C17.8 30.7044 17.8 30.7044 17.8 30.7044C17.8 30.7044 17.8 30.7044 17.8 30.7044C17.8 30.7044 17.8 30.7044 17.8 30.7045C17.8 30.7045 17.8 30.7045 17.8 30.7045C17.8 30.7045 17.8 30.7045 17.8 30.7045C17.8 30.7045 17.8 30.7045 17.8 30.7045C17.8 30.7045 17.8 30.7045 17.8 30.7046C17.8 30.7046 17.8 30.7046 17.8 30.7046C17.8 30.7046 17.8 30.7046 17.8 30.7046C17.8 30.7046 17.8 30.7046 17.8 30.7046C17.8 30.7046 17.8 30.7046 17.8 30.7047C17.8 30.7047 17.8 30.7047 17.8 30.7047C17.8 30.7047 17.8 30.7047 17.8 30.7047C17.8 30.7047 17.8 30.7047 17.8 30.7047C17.8 30.7047 17.8 30.7047 17.8 30.7047C17.8 30.7048 17.8 30.7048 17.8 30.7048C17.8 30.7048 17.8 30.7048 17.8 30.7048C17.8 30.7048 17.8 30.7048 17.8 30.7048C17.8 30.7048 17.8 30.7048 17.8 30.7048C17.8 30.7049 17.8 30.7049 17.8 30.7049C17.8 30.7049 17.8 30.7049 17.8 30.7049C17.8 30.7049 17.8 30.7049 17.8 30.7049C17.8 30.7049 17.8 30.7049 17.8 30.7049C17.8 30.705 17.8 30.705 17.8 30.705C17.8 30.705 17.8 30.705 17.8 30.705C17.8 30.705 17.8 30.705 17.8 30.705C17.8 30.705 17.8 30.705 17.8 30.705C17.8 30.705 17.8 30.7051 17.8 30.7051C17.8 30.7051 17.8 30.7051 17.8 30.7051C17.8 30.7051 17.8 30.7051 17.8 30.7051C17.8 30.7051 17.8 30.7051 17.8 30.7051C17.8 30.7051 17.8 30.7052 17.8 30.7052C17.8 30.7052 17.8 30.7052 17.8 30.7052C17.8 30.7052 17.8 30.7052 17.8 30.7052C17.8 30.7052 17.8 30.7052 17.8 30.7052C17.8 30.7052 17.8 30.7053 17.8 30.7053C17.8 30.7053 17.8 30.7053 17.8 30.7053C17.8 30.7053 17.8 30.7053 17.8 30.7053C17.8 30.7053 17.8 30.7053 17.8 30.7053C17.8 30.7053 17.8 30.7054 17.8 30.7054C17.8 30.7054 17.8 30.7054 17.8 30.7054C17.8 30.7054 17.8 30.7054 17.8 30.7054C17.8 30.7054 17.8 30.7054 17.8 30.7054C17.8 30.7054 17.8 30.7054 17.8 30.7055C17.8 30.7055 17.8 30.7055 17.8 30.7055C17.8 30.7055 17.8 30.7055 17.8 30.7055C17.8 30.7055 17.8 30.7055 17.8 30.7055C17.8 30.7055 17.8 30.7055 17.8 30.7056C17.8 30.7056 17.8 30.7056 17.8 30.7056C17.8 30.7056 17.8 30.7056 17.8 30.7056C17.8 30.7056 17.8 30.7056 17.8 30.7056C17.8 30.7056 17.8 30.7056 17.8 30.7057C17.8 30.7057 17.8 30.7057 17.8 30.7057C17.8 30.7057 17.8 30.7057 17.8 30.7057C17.8 30.7057 17.8 30.7057 17.8 30.7057C17.8 30.7057 17.8 30.7057 17.8 30.7057C17.8 30.7058 17.8 30.7058 17.8 30.7058C17.8 30.7058 17.8 30.7058 17.8 30.7058C17.8 30.7058 17.8 30.7058 17.8 30.7058C17.8 30.7058 17.8 30.7058 17.8 30.7058C17.8 30.7059 17.8 30.7059 17.8 30.7059C17.8 30.7059 17.8 30.7059 17.8 30.7059C17.8 30.7059 17.8 30.7059 17.8 30.7059C17.8 30.7059 17.8 30.7059 17.8 30.7059C17.8 30.706 17.8 30.706 17.8 30.706C17.8 30.706 17.8 30.706 17.8 30.706C17.8 30.706 17.8 30.706 17.8 30.706C17.8 30.706 17.8 30.706 17.8 30.706C17.8 30.7061 17.8 30.7061 17.8 30.7061C17.8 30.7061 17.8 30.7061 17.8 30.7061C17.8 30.7061 17.8 30.7061 17.8 30.7061C17.8 30.7061 17.8 30.7061 17.8 30.7061C17.8 30.7061 17.8 30.7062 17.8 30.7062C17.8 30.7062 17.8 30.7062 17.8 30.7062C17.8 30.7062 17.8 30.7062 17.8 30.7062C17.8 30.7062 17.8 30.7062 17.8 30.7062C17.8 30.7062 17.8 30.7063 17.8 30.7063C17.8 30.7063 17.8 30.7063 17.8 30.7063C17.8 30.7063 17.8 30.7063 17.8 30.7063C17.8 30.7063 17.8 30.7063 17.8 30.7063C17.8 30.7063 17.8 30.7064 17.8 30.7064C17.8 30.7064 17.8 30.7064 17.8 30.7064C17.8 30.7064 17.8 30.7064 17.8 30.7064C17.8 30.7064 17.8 30.7064 17.8 30.7064C17.8 30.7064 17.8 30.7064 17.8 30.7065C17.8 30.7065 17.8 30.7065 17.8 30.7065C17.8 30.7065 17.8 30.7065 17.8 30.7065C17.8 30.7065 17.8 30.7065 17.8 30.7065C17.8 30.7065 17.8 30.7065 17.8 30.7066C17.8 30.7066 17.8 30.7066 17.8 30.7066C17.8 30.7066 17.8 30.7066 17.8 30.7066C17.8 30.7066 17.8 30.7066 17.8 30.7066C17.8 30.7066 17.8 30.7066 17.8 30.7067C17.8 30.7067 17.8 30.7067 17.8 30.7067C17.8 30.7067 17.8 30.7067 17.8 30.7067C17.8 30.7067 17.8 30.7067 17.8 30.7067C17.8 30.7067 17.8 30.7067 17.8 30.7068C17.8 30.7068 17.8 30.7068 17.8 30.7068C17.8 30.7068 17.8 30.7068 17.8 30.7068C17.8 30.7068 17.8 30.7068 17.8 30.7068C17.8 30.7068 17.8 30.7068 17.8 30.7068C17.8 30.7069 17.8 30.7069 17.8 30.7069C17.8 30.7069 17.8 30.7069 17.8 30.7069C17.8 30.7069 17.8 30.7069 17.8 30.7069C17.8 30.7069 17.8 30.7069 17.8 30.7069C17.8 30.707 17.8 30.707 17.8 30.707C17.8 30.707 17.8 30.707 17.8 30.707C17.8 30.707 17.8 30.707 17.8 30.707C17.8 30.707 17.8 30.707 17.8 30.707C17.8 30.7071 17.8 30.7071 17.8 30.7071C17.8 30.7071 17.8 30.7071 17.8 30.7071C17.8 30.7071 17.8 30.7071 17.8 30.7071C17.8 30.7071 17.8 30.7071 17.8 30.7071C17.8 30.7071 17.8 30.7072 17.8 30.7072C17.8 30.7072 17.8 30.7072 17.8 30.7072C17.8 30.7072 17.8 30.7072 17.8 30.7072C17.8 30.7072 17.8 30.7072 17.8 30.7072C17.8 30.7072 17.8 30.7073 17.8 30.7073C17.8 30.7073 17.8 30.7073 17.8 30.7073C17.8 30.7073 17.8 30.7073 17.8 30.7073C17.8 30.7073 17.8 30.7073 17.8 30.7073C17.8 30.7073 17.8 30.7074 17.8 30.7074C17.8 30.7074 17.8 30.7074 17.8 30.7074C17.8 30.7074 17.8 30.7074 17.8 30.7074C17.8 30.7074 17.8 30.7074 17.8 30.7074C17.8 30.7074 17.8 30.7075 17.8 30.7075C17.8 30.7075 17.8 30.7075 17.8 30.7075C17.8 30.7075 17.8 30.7075 17.8 30.7075C17.8 30.7075 17.8 30.7075 17.8 30.7075C17.8 30.7075 17.8 30.7075 17.8 30.7076C17.8 30.7076 17.8 30.7076 17.8 30.7076C17.8 30.7076 17.8 30.7076 17.8 30.7076C17.8 30.7076 17.8 30.7076 17.8 30.7076C17.8 30.7076 17.8 30.7076 17.8 30.7077C17.8 30.7077 17.8 30.7077 17.8 30.7077C17.8 30.7077 17.8 30.7077 17.8 30.7077C17.8 30.7077 17.8 30.7077 17.8 30.7077C17.8 30.7077 17.8 30.7077 17.8 30.7078C17.8 30.7078 17.8 30.7078 17.8 30.7078C17.8 30.7078 17.8 30.7078 17.8 30.7078C17.8 30.7078 17.8 30.7078 17.8 30.7078C17.8 30.7078 17.8 30.7078 17.8 30.7078C17.8 30.7079 17.8 30.7079 17.8 30.7079C17.8 30.7079 17.8 30.7079 17.8 30.7079C17.8 30.7079 17.8 30.7079 17.8 30.7079C17.8 30.7079 17.8 30.7079 17.8 30.7079C17.8 30.708 17.8 30.708 17.8 30.708C17.8 30.708 17.8 30.708 17.8 30.708C17.8 30.708 17.8 30.708 17.8 30.708C17.8 30.708 17.8 30.708 17.8 30.708C17.8 30.7081 17.8 30.7081 17.8 30.7081C17.8 30.7081 17.8 30.7081 17.8 30.7081C17.8 30.7081 17.8 30.7081 17.8 30.7081C17.8 30.7081 17.8 30.7081 17.8 30.7081C17.8 30.7082 17.8 30.7082 17.8 30.7082C17.8 30.7082 17.8 30.7082 17.8 30.7082C17.8 30.7082 17.8 30.7082 17.8 30.7082C17.8 30.7082 17.8 30.7082 17.8 30.7082C17.8 30.7082 17.8 30.7083 17.8 30.7083C17.8 30.7083 17.8 30.7083 17.8 30.7083C17.8 30.7083 17.8 30.7083 17.8 30.7083C17.8 30.7083 17.8 30.7083 17.8 30.7083C17.8 30.7083 17.8 30.7084 17.8 30.7084C17.8 30.7084 17.8 30.7084 17.8 30.7084C17.8 30.7084 17.8 30.7084 17.8 30.7084C17.8 30.7084 17.8 30.7084 17.8 30.7084C17.8 30.7084 17.8 30.7085 17.8 30.7085H18.2C18.2 30.7085 18.2 30.7084 18.2 30.7084C18.2 30.7084 18.2 30.7084 18.2 30.7084C18.2 30.7084 18.2 30.7084 18.2 30.7084C18.2 30.7084 18.2 30.7084 18.2 30.7084C18.2 30.7084 18.2 30.7083 18.2 30.7083C18.2 30.7083 18.2 30.7083 18.2 30.7083C18.2 30.7083 18.2 30.7083 18.2 30.7083C18.2 30.7083 18.2 30.7083 18.2 30.7083C18.2 30.7083 18.2 30.7082 18.2 30.7082C18.2 30.7082 18.2 30.7082 18.2 30.7082C18.2 30.7082 18.2 30.7082 18.2 30.7082C18.2 30.7082 18.2 30.7082 18.2 30.7082C18.2 30.7082 18.2 30.7082 18.2 30.7081C18.2 30.7081 18.2 30.7081 18.2 30.7081C18.2 30.7081 18.2 30.7081 18.2 30.7081C18.2 30.7081 18.2 30.7081 18.2 30.7081C18.2 30.7081 18.2 30.7081 18.2 30.708C18.2 30.708 18.2 30.708 18.2 30.708C18.2 30.708 18.2 30.708 18.2 30.708C18.2 30.708 18.2 30.708 18.2 30.708C18.2 30.708 18.2 30.708 18.2 30.7079C18.2 30.7079 18.2 30.7079 18.2 30.7079C18.2 30.7079 18.2 30.7079 18.2 30.7079C18.2 30.7079 18.2 30.7079 18.2 30.7079C18.2 30.7079 18.2 30.7079 18.2 30.7078C18.2 30.7078 18.2 30.7078 18.2 30.7078C18.2 30.7078 18.2 30.7078 18.2 30.7078C18.2 30.7078 18.2 30.7078 18.2 30.7078C18.2 30.7078 18.2 30.7078 18.2 30.7078C18.2 30.7077 18.2 30.7077 18.2 30.7077C18.2 30.7077 18.2 30.7077 18.2 30.7077C18.2 30.7077 18.2 30.7077 18.2 30.7077C18.2 30.7077 18.2 30.7077 18.2 30.7077C18.2 30.7076 18.2 30.7076 18.2 30.7076C18.2 30.7076 18.2 30.7076 18.2 30.7076C18.2 30.7076 18.2 30.7076 18.2 30.7076C18.2 30.7076 18.2 30.7076 18.2 30.7076C18.2 30.7075 18.2 30.7075 18.2 30.7075C18.2 30.7075 18.2 30.7075 18.2 30.7075C18.2 30.7075 18.2 30.7075 18.2 30.7075C18.2 30.7075 18.2 30.7075 18.2 30.7075C18.2 30.7075 18.2 30.7074 18.2 30.7074C18.2 30.7074 18.2 30.7074 18.2 30.7074C18.2 30.7074 18.2 30.7074 18.2 30.7074C18.2 30.7074 18.2 30.7074 18.2 30.7074C18.2 30.7074 18.2 30.7073 18.2 30.7073C18.2 30.7073 18.2 30.7073 18.2 30.7073C18.2 30.7073 18.2 30.7073 18.2 30.7073C18.2 30.7073 18.2 30.7073 18.2 30.7073C18.2 30.7073 18.2 30.7072 18.2 30.7072C18.2 30.7072 18.2 30.7072 18.2 30.7072C18.2 30.7072 18.2 30.7072 18.2 30.7072C18.2 30.7072 18.2 30.7072 18.2 30.7072C18.2 30.7072 18.2 30.7071 18.2 30.7071C18.2 30.7071 18.2 30.7071 18.2 30.7071C18.2 30.7071 18.2 30.7071 18.2 30.7071C18.2 30.7071 18.2 30.7071 18.2 30.7071C18.2 30.7071 18.2 30.7071 18.2 30.707C18.2 30.707 18.2 30.707 18.2 30.707C18.2 30.707 18.2 30.707 18.2 30.707C18.2 30.707 18.2 30.707 18.2 30.707C18.2 30.707 18.2 30.707 18.2 30.7069C18.2 30.7069 18.2 30.7069 18.2 30.7069C18.2 30.7069 18.2 30.7069 18.2 30.7069C18.2 30.7069 18.2 30.7069 18.2 30.7069C18.2 30.7069 18.2 30.7069 18.2 30.7068C18.2 30.7068 18.2 30.7068 18.2 30.7068C18.2 30.7068 18.2 30.7068 18.2 30.7068C18.2 30.7068 18.2 30.7068 18.2 30.7068C18.2 30.7068 18.2 30.7068 18.2 30.7068C18.2 30.7067 18.2 30.7067 18.2 30.7067C18.2 30.7067 18.2 30.7067 18.2 30.7067C18.2 30.7067 18.2 30.7067 18.2 30.7067C18.2 30.7067 18.2 30.7067 18.2 30.7067C18.2 30.7066 18.2 30.7066 18.2 30.7066C18.2 30.7066 18.2 30.7066 18.2 30.7066C18.2 30.7066 18.2 30.7066 18.2 30.7066C18.2 30.7066 18.2 30.7066 18.2 30.7066C18.2 30.7065 18.2 30.7065 18.2 30.7065C18.2 30.7065 18.2 30.7065 18.2 30.7065C18.2 30.7065 18.2 30.7065 18.2 30.7065C18.2 30.7065 18.2 30.7065 18.2 30.7065C18.2 30.7064 18.2 30.7064 18.2 30.7064C18.2 30.7064 18.2 30.7064 18.2 30.7064C18.2 30.7064 18.2 30.7064 18.2 30.7064C18.2 30.7064 18.2 30.7064 18.2 30.7064C18.2 30.7064 18.2 30.7063 18.2 30.7063C18.2 30.7063 18.2 30.7063 18.2 30.7063C18.2 30.7063 18.2 30.7063 18.2 30.7063C18.2 30.7063 18.2 30.7063 18.2 30.7063C18.2 30.7063 18.2 30.7062 18.2 30.7062C18.2 30.7062 18.2 30.7062 18.2 30.7062C18.2 30.7062 18.2 30.7062 18.2 30.7062C18.2 30.7062 18.2 30.7062 18.2 30.7062C18.2 30.7062 18.2 30.7061 18.2 30.7061C18.2 30.7061 18.2 30.7061 18.2 30.7061C18.2 30.7061 18.2 30.7061 18.2 30.7061C18.2 30.7061 18.2 30.7061 18.2 30.7061C18.2 30.7061 18.2 30.7061 18.2 30.706C18.2 30.706 18.2 30.706 18.2 30.706C18.2 30.706 18.2 30.706 18.2 30.706C18.2 30.706 18.2 30.706 18.2 30.706C18.2 30.706 18.2 30.706 18.2 30.7059C18.2 30.7059 18.2 30.7059 18.2 30.7059C18.2 30.7059 18.2 30.7059 18.2 30.7059C18.2 30.7059 18.2 30.7059 18.2 30.7059C18.2 30.7059 18.2 30.7059 18.2 30.7058C18.2 30.7058 18.2 30.7058 18.2 30.7058C18.2 30.7058 18.2 30.7058 18.2 30.7058C18.2 30.7058 18.2 30.7058 18.2 30.7058C18.2 30.7058 18.2 30.7058 18.2 30.7057C18.2 30.7057 18.2 30.7057 18.2 30.7057C18.2 30.7057 18.2 30.7057 18.2 30.7057C18.2 30.7057 18.2 30.7057 18.2 30.7057C18.2 30.7057 18.2 30.7057 18.2 30.7057C18.2 30.7056 18.2 30.7056 18.2 30.7056C18.2 30.7056 18.2 30.7056 18.2 30.7056C18.2 30.7056 18.2 30.7056 18.2 30.7056C18.2 30.7056 18.2 30.7056 18.2 30.7056C18.2 30.7055 18.2 30.7055 18.2 30.7055C18.2 30.7055 18.2 30.7055 18.2 30.7055C18.2 30.7055 18.2 30.7055 18.2 30.7055C18.2 30.7055 18.2 30.7055 18.2 30.7055C18.2 30.7054 18.2 30.7054 18.2 30.7054C18.2 30.7054 18.2 30.7054 18.2 30.7054C18.2 30.7054 18.2 30.7054 18.2 30.7054C18.2 30.7054 18.2 30.7054 18.2 30.7054C18.2 30.7054 18.2 30.7053 18.2 30.7053C18.2 30.7053 18.2 30.7053 18.2 30.7053C18.2 30.7053 18.2 30.7053 18.2 30.7053C18.2 30.7053 18.2 30.7053 18.2 30.7053C18.2 30.7053 18.2 30.7052 18.2 30.7052C18.2 30.7052 18.2 30.7052 18.2 30.7052C18.2 30.7052 18.2 30.7052 18.2 30.7052C18.2 30.7052 18.2 30.7052 18.2 30.7052C18.2 30.7052 18.2 30.7051 18.2 30.7051C18.2 30.7051 18.2 30.7051 18.2 30.7051C18.2 30.7051 18.2 30.7051 18.2 30.7051C18.2 30.7051 18.2 30.7051 18.2 30.7051C18.2 30.7051 18.2 30.705 18.2 30.705C18.2 30.705 18.2 30.705 18.2 30.705C18.2 30.705 18.2 30.705 18.2 30.705C18.2 30.705 18.2 30.705 18.2 30.705C18.2 30.705 18.2 30.705 18.2 30.7049C18.2 30.7049 18.2 30.7049 18.2 30.7049C18.2 30.7049 18.2 30.7049 18.2 30.7049C18.2 30.7049 18.2 30.7049 18.2 30.7049C18.2 30.7049 18.2 30.7049 18.2 30.7048C18.2 30.7048 18.2 30.7048 18.2 30.7048C18.2 30.7048 18.2 30.7048 18.2 30.7048C18.2 30.7048 18.2 30.7048 18.2 30.7048C18.2 30.7048 18.2 30.7048 18.2 30.7047C18.2 30.7047 18.2 30.7047 18.2 30.7047C18.2 30.7047 18.2 30.7047 18.2 30.7047C18.2 30.7047 18.2 30.7047 18.2 30.7047C18.2 30.7047 18.2 30.7047 18.2 30.7047C18.2 30.7046 18.2 30.7046 18.2 30.7046C18.2 30.7046 18.2 30.7046 18.2 30.7046C18.2 30.7046 18.2 30.7046 18.2 30.7046C18.2 30.7046 18.2 30.7046 18.2 30.7046C18.2 30.7045 18.2 30.7045 18.2 30.7045C18.2 30.7045 18.2 30.7045 18.2 30.7045C18.2 30.7045 18.2 30.7045 18.2 30.7045C18.2 30.7045 18.2 30.7045 18.2 30.7045C18.2 30.7044 18.2 30.7044 18.2 30.7044C18.2 30.7044 18.2 30.7044 18.2 30.7044C18.2 30.7044 18.2 30.7044 18.2 30.7044C18.2 30.7044 18.2 30.7044 18.2 30.7044C18.2 30.7043 18.2 30.7043 18.2 30.7043C18.2 30.7043 18.2 30.7043 18.2 30.7043C18.2 30.7043 18.2 30.7043 18.2 30.7043C18.2 30.7043 18.2 30.7043 18.2 30.7043C18.2 30.7043 18.2 30.7042 18.2 30.7042C18.2 30.7042 18.2 30.7042 18.2 30.7042C18.2 30.7042 18.2 30.7042 18.2 30.7042C18.2 30.7042 18.2 30.7042 18.2 30.7042C18.2 30.7042 18.2 30.7041 18.2 30.7041C18.2 30.7041 18.2 30.7041 18.2 30.7041C18.2 30.7041 18.2 30.7041 18.2 30.7041C18.2 30.7041 18.2 30.7041 18.2 30.7041C18.2 30.7041 18.2 30.704 18.2 30.704C18.2 30.704 18.2 30.704 18.2 30.704C18.2 30.704 18.2 30.704 18.2 30.704C18.2 30.704 18.2 30.704 18.2 30.704C18.2 30.704 18.2 30.704 18.2 30.7039C18.2 30.7039 18.2 30.7039 18.2 30.7039C18.2 30.7039 18.2 30.7039 18.2 30.7039C18.2 30.7039 18.2 30.7039 18.2 30.7039C18.2 30.7039 18.2 30.7039 18.2 30.7038C18.2 30.7038 18.2 30.7038 18.2 30.7038C18.2 30.7038 18.2 30.7038 18.2 30.7038C18.2 30.7038 18.2 30.7038 18.2 30.7038C18.2 30.7038 18.2 30.7038 18.2 30.7037C18.2 30.7037 18.2 30.7037 18.2 30.7037C18.2 30.7037 18.2 30.7037 18.2 30.7037C18.2 30.7037 18.2 30.7037 18.2 30.7037C18.2 30.7037 18.2 30.7037 18.2 30.7036C18.2 30.7036 18.2 30.7036 18.2 30.7036C18.2 30.7036 18.2 30.7036 18.2 30.7036C18.2 30.7036 18.2 30.7036 18.2 30.7036C18.2 30.7036 18.2 30.7036 18.2 30.7036C18.2 30.7035 18.2 30.7035 18.2 30.7035C18.2 30.7035 18.2 30.7035 18.2 30.7035C18.2 30.7035 18.2 30.7035 18.2 30.7035C18.2 30.7035 18.2 30.7035 18.2 30.7035C18.2 30.7034 18.2 30.7034 18.2 30.7034C18.2 30.7034 18.2 30.7034 18.2 30.7034C18.2 30.7034 18.2 30.7034 18.2 30.7034C18.2 30.7034 18.2 30.7034 18.2 30.7034C18.2 30.7033 18.2 30.7033 18.2 30.7033C18.2 30.7033 18.2 30.7033 18.2 30.7033C18.2 30.7033 18.2 30.7033 18.2 30.7033C18.2 30.7033 18.2 30.7033 18.2 30.7033C18.2 30.7033 18.2 30.7032 18.2 30.7032C18.2 30.7032 18.2 30.7032 18.2 30.7032C18.2 30.7032 18.2 30.7032 18.2 30.7032C18.2 30.7032 18.2 30.7032 18.2 30.7032C18.2 30.7032 18.2 30.7031 18.2 30.7031C18.2 30.7031 18.2 30.7031 18.2 30.7031C18.2 30.7031 18.2 30.7031 18.2 30.7031C18.2 30.7031 18.2 30.7031 18.2 30.7031C18.2 30.7031 18.2 30.703 18.2 30.703C18.2 30.703 18.2 30.703 18.2 30.703C18.2 30.703 18.2 30.703 18.2 30.703C18.2 30.703 18.2 30.703 18.2 30.703C18.2 30.703 18.2 30.7029 18.2 30.7029C18.2 30.7029 18.2 30.7029 18.2 30.7029C18.2 30.7029 18.2 30.7029 18.2 30.7029C18.2 30.7029 18.2 30.7029 18.2 30.7029C18.2 30.7029 18.2 30.7029 18.2 30.7028C18.2 30.7028 18.2 30.7028 18.2 30.7028C18.2 30.7028 18.2 30.7028 18.2 30.7028C18.2 30.7028 18.2 30.7028 18.2 30.7028C18.2 30.7028 18.2 30.7028 18.2 30.7027C18.2 30.7027 18.2 30.7027 18.2 30.7027C18.2 30.7027 18.2 30.7027 18.2 30.7027C18.2 30.7027 18.2 30.7027 18.2 30.7027C18.2 30.7027 18.2 30.7027 18.2 30.7026C18.2 30.7026 18.2 30.7026 18.2 30.7026C18.2 30.7026 18.2 30.7026 18.2 30.7026C18.2 30.7026 18.2 30.7026 18.2 30.7026C18.2 30.7026 18.2 30.7026 18.2 30.7026C18.2 30.7025 18.2 30.7025 18.2 30.7025C18.2 30.7025 18.2 30.7025 18.2 30.7025C18.2 30.7025 18.2 30.7025 18.2 30.7025C18.2 30.7025 18.2 30.7025 18.2 30.7025C18.2 30.7024 18.2 30.7024 18.2 30.7024C18.2 30.7024 18.2 30.7024 18.2 30.7024C18.2 30.7024 18.2 30.7024 18.2 30.7024C18.2 30.7024 18.2 30.7024 18.2 30.7024C18.2 30.7023 18.2 30.7023 18.2 30.7023C18.2 30.7023 18.2 30.7023 18.2 30.7023C18.2 30.7023 18.2 30.7023 18.2 30.7023C18.2 30.7023 18.2 30.7023 18.2 30.7023C18.2 30.7022 18.2 30.7022 18.2 30.7022C18.2 30.7022 18.2 30.7022 18.2 30.7022C18.2 30.7022 18.2 30.7022 18.2 30.7022C18.2 30.7022 18.2 30.7022 18.2 30.7022C18.2 30.7022 18.2 30.7021 18.2 30.7021C18.2 30.7021 18.2 30.7021 18.2 30.7021C18.2 30.7021 18.2 30.7021 18.2 30.7021C18.2 30.7021 18.2 30.7021 18.2 30.7021C18.2 30.7021 18.2 30.702 18.2 30.702C18.2 30.702 18.2 30.702 18.2 30.702C18.2 30.702 18.2 30.702 18.2 30.702C18.2 30.702 18.2 30.702 18.2 30.702C18.2 30.702 18.2 30.7019 18.2 30.7019C18.2 30.7019 18.2 30.7019 18.2 30.7019C18.2 30.7019 18.2 30.7019 18.2 30.7019C18.2 30.7019 18.2 30.7019 18.2 30.7019C18.2 30.7019 18.2 30.7019 18.2 30.7018C18.2 30.7018 18.2 30.7018 18.2 30.7018C18.2 30.7018 18.2 30.7018 18.2 30.7018C18.2 30.7018 18.2 30.7018 18.2 30.7018C18.2 30.7018 18.2 30.7018 18.2 30.7017C18.2 30.7017 18.2 30.7017 18.2 30.7017C18.2 30.7017 18.2 30.7017 18.2 30.7017C18.2 30.7017 18.2 30.7017 18.2 30.7017C18.2 30.7017 18.2 30.7017 18.2 30.7016C18.2 30.7016 18.2 30.7016 18.2 30.7016C18.2 30.7016 18.2 30.7016 18.2 30.7016C18.2 30.7016 18.2 30.7016 18.2 30.7016C18.2 30.7016 18.2 30.7016 18.2 30.7015C18.2 30.7015 18.2 30.7015 18.2 30.7015C18.2 30.7015 18.2 30.7015 18.2 30.7015C18.2 30.7015 18.2 30.7015 18.2 30.7015C18.2 30.7015 18.2 30.7015 18.2 30.7015C18.2 30.7014 18.2 30.7014 18.2 30.7014C18.2 30.7014 18.2 30.7014 18.2 30.7014C18.2 30.7014 18.2 30.7014 18.2 30.7014C18.2 30.7014 18.2 30.7014 18.2 30.7014C18.2 30.7013 18.2 30.7013 18.2 30.7013C18.2 30.7013 18.2 30.7013 18.2 30.7013C18.2 30.7013 18.2 30.7013 18.2 30.7013C18.2 30.7013 18.2 30.7013 18.2 30.7013C18.2 30.7012 18.2 30.7012 18.2 30.7012C18.2 30.7012 18.2 30.7012 18.2 30.7012C18.2 30.7012 18.2 30.7012 18.2 30.7012C18.2 30.7012 18.2 30.7012 18.2 30.7012C18.2 30.7012 18.2 30.7011 18.2 30.7011C18.2 30.7011 18.2 30.7011 18.2 30.7011C18.2 30.7011 18.2 30.7011 18.2 30.7011C18.2 30.7011 18.2 30.7011 18.2 30.7011C18.2 30.7011 18.2 30.701 18.2 30.701C18.2 30.701 18.2 30.701 18.2 30.701C18.2 30.701 18.2 30.701 18.2 30.701C18.2 30.701 18.2 30.701 18.2 30.701C18.2 30.701 18.2 30.7009 18.2 30.7009C18.2 30.7009 18.2 30.7009 18.2 30.7009C18.2 30.7009 18.2 30.7009 18.2 30.7009C18.2 30.7009 18.2 30.7009 18.2 30.7009C18.2 30.7009 18.2 30.7008 18.2 30.7008C18.2 30.7008 18.2 30.7008 18.2 30.7008C18.2 30.7008 18.2 30.7008 18.2 30.7008C18.2 30.7008 18.2 30.7008 18.2 30.7008C18.2 30.7008 18.2 30.7008 18.2 30.7007C18.2 30.7007 18.2 30.7007 18.2 30.7007C18.2 30.7007 18.2 30.7007 18.2 30.7007C18.2 30.7007 18.2 30.7007 18.2 30.7007C18.2 30.7007 18.2 30.7007 18.2 30.7006C18.2 30.7006 18.2 30.7006 18.2 30.7006C18.2 30.7006 18.2 30.7006 18.2 30.7006C18.2 30.7006 18.2 30.7006 18.2 30.7006C18.2 30.7006 18.2 30.7006 18.2 30.7005C18.2 30.7005 18.2 30.7005 18.2 30.7005C18.2 30.7005 18.2 30.7005 18.2 30.7005C18.2 30.7005 18.2 30.7005 18.2 30.7005C18.2 30.7005 18.2 30.7005 18.2 30.7005C18.2 30.7004 18.2 30.7004 18.2 30.7004C18.2 30.7004 18.2 30.7004 18.2 30.7004C18.2 30.7004 18.2 30.7004 18.2 30.7004C18.2 30.7004 18.2 30.7004 18.2 30.7004C18.2 30.7003 18.2 30.7003 18.2 30.7003C18.2 30.7003 18.2 30.7003 18.2 30.7003C18.2 30.7003 18.2 30.7003 18.2 30.7003C18.2 30.7003 18.2 30.7003 18.2 30.7003C18.2 30.7002 18.2 30.7002 18.2 30.7002C18.2 30.7002 18.2 30.7002 18.2 30.7002C18.2 30.7002 18.2 30.7002 18.2 30.7002C18.2 30.7002 18.2 30.7002 18.2 30.7002C18.2 30.7001 18.2 30.7001 18.2 30.7001C18.2 30.7001 18.2 30.7001 18.2 30.7001C18.2 30.7001 18.2 30.7001 18.2 30.7001C18.2 30.7001 18.2 30.7001 18.2 30.7001C18.2 30.7001 18.2 30.7 18.2 30.7C18.2 30.7 18.2 30.7 18.2 30.7C18.2 30.7 18.2 30.7 18.2 30.7C18.2 30.7 18.2 30.7 18.2 30.7C18.2 30.7 18.2 30.6999 18.2 30.6999C18.2 30.6999 18.2 30.6999 18.2 30.6999C18.2 30.6999 18.2 30.6999 18.2 30.6999C18.2 30.6999 18.2 30.6999 18.2 30.6999C18.2 30.6999 18.2 30.6998 18.2 30.6998C18.2 30.6998 18.2 30.6998 18.2 30.6998C18.2 30.6998 18.2 30.6998 18.2 30.6998C18.2 30.6998 18.2 30.6998 18.2 30.6998C18.2 30.6998 18.2 30.6998 18.2 30.6997C18.2 30.6997 18.2 30.6997 18.2 30.6997C18.2 30.6997 18.2 30.6997 18.2 30.6997C18.2 30.6997 18.2 30.6997 18.2 30.6997C18.2 30.6997 18.2 30.6997 18.2 30.6996C18.2 30.6996 18.2 30.6996 18.2 30.6996C18.2 30.6996 18.2 30.6996 18.2 30.6996C18.2 30.6996 18.2 30.6996 18.2 30.6996C18.2 30.6996 18.2 30.6996 18.2 30.6995C18.2 30.6995 18.2 30.6995 18.2 30.6995C18.2 30.6995 18.2 30.6995 18.2 30.6995C18.2 30.6995 18.2 30.6995 18.2 30.6995C18.2 30.6995 18.2 30.6995 18.2 30.6994C18.2 30.6994 18.2 30.6994 18.2 30.6994C18.2 30.6994 18.2 30.6994 18.2 30.6994C18.2 30.6994 18.2 30.6994 18.2 30.6994C18.2 30.6994 18.2 30.6994 18.2 30.6994C18.2 30.6993 18.2 30.6993 18.2 30.6993C18.2 30.6993 18.2 30.6993 18.2 30.6993C18.2 30.6993 18.2 30.6993 18.2 30.6993C18.2 30.6993 18.2 30.6993 18.2 30.6993C18.2 30.6992 18.2 30.6992 18.2 30.6992C18.2 30.6992 18.2 30.6992 18.2 30.6992C18.2 30.6992 18.2 30.6992 18.2 30.6992C18.2 30.6992 18.2 30.6992 18.2 30.6992C18.2 30.6991 18.2 30.6991 18.2 30.6991C18.2 30.6991 18.2 30.6991 18.2 30.6991C18.2 30.6991 18.2 30.6991 18.2 30.6991C18.2 30.6991 18.2 30.6991 18.2 30.6991C18.2 30.6991 18.2 30.699 18.2 30.699C18.2 30.699 18.2 30.699 18.2 30.699C18.2 30.699 18.2 30.699 18.2 30.699C18.2 30.699 18.2 30.699 18.2 30.699C18.2 30.699 18.2 30.6989 18.2 30.6989C18.2 30.6989 18.2 30.6989 18.2 30.6989C18.2 30.6989 18.2 30.6989 18.2 30.6989C18.2 30.6989 18.2 30.6989 18.2 30.6989C18.2 30.6989 18.2 30.6988 18.2 30.6988C18.2 30.6988 18.2 30.6988 18.2 30.6988C18.2 30.6988 18.2 30.6988 18.2 30.6988C18.2 30.6988 18.2 30.6988 18.2 30.6988C18.2 30.6988 18.2 30.6987 18.2 30.6987C18.2 30.6987 18.2 30.6987 18.2 30.6987C18.2 30.6987 18.2 30.6987 18.2 30.6987C18.2 30.6987 18.2 30.6987 18.2 30.6987C18.2 30.6987 18.2 30.6987 18.2 30.6986C18.2 30.6986 18.2 30.6986 18.2 30.6986C18.2 30.6986 18.2 30.6986 18.2 30.6986C18.2 30.6986 18.2 30.6986 18.2 30.6986C18.2 30.6986 18.2 30.6986 18.2 30.6985C18.2 30.6985 18.2 30.6985 18.2 30.6985C18.2 30.6985 18.2 30.6985 18.2 30.6985C18.2 30.6985 18.2 30.6985 18.2 30.6985C18.2 30.6985 18.2 30.6985 18.2 30.6984C18.2 30.6984 18.2 30.6984 18.2 30.6984C18.2 30.6984 18.2 30.6984 18.2 30.6984C18.2 30.6984 18.2 30.6984 18.2 30.6984C18.2 30.6984 18.2 30.6984 18.2 30.6984C18.2 30.6983 18.2 30.6983 18.2 30.6983C18.2 30.6983 18.2 30.6983 18.2 30.6983C18.2 30.6983 18.2 30.6983 18.2 30.6983C18.2 30.6983 18.2 30.6983 18.2 30.6983C18.2 30.6982 18.2 30.6982 18.2 30.6982C18.2 30.6982 18.2 30.6982 18.2 30.6982C18.2 30.6982 18.2 30.6982 18.2 30.6982C18.2 30.6982 18.2 30.6982 18.2 30.6982C18.2 30.6981 18.2 30.6981 18.2 30.6981C18.2 30.6981 18.2 30.6981 18.2 30.6981C18.2 30.6981 18.2 30.6981 18.2 30.6981C18.2 30.6981 18.2 30.6981 18.2 30.6981C18.2 30.698 18.2 30.698 18.2 30.698C18.2 30.698 18.2 30.698 18.2 30.698C18.2 30.698 18.2 30.698 18.2 30.698C18.2 30.698 18.2 30.698 18.2 30.698C18.2 30.698 18.2 30.6979 18.2 30.6979C18.2 30.6979 18.2 30.6979 18.2 30.6979C18.2 30.6979 18.2 30.6979 18.2 30.6979C18.2 30.6979 18.2 30.6979 18.2 30.6979C18.2 30.6979 18.2 30.6978 18.2 30.6978C18.2 30.6978 18.2 30.6978 18.2 30.6978C18.2 30.6978 18.2 30.6978 18.2 30.6978C18.2 30.6978 18.2 30.6978 18.2 30.6978C18.2 30.6978 18.2 30.6977 18.2 30.6977C18.2 30.6977 18.2 30.6977 18.2 30.6977C18.2 30.6977 18.2 30.6977 18.2 30.6977C18.2 30.6977 18.2 30.6977 18.2 30.6977C18.2 30.6977 18.2 30.6977 18.2 30.6976C18.2 30.6976 18.2 30.6976 18.2 30.6976C18.2 30.6976 18.2 30.6976 18.2 30.6976C18.2 30.6976 18.2 30.6976 18.2 30.6976C18.2 30.6976 18.2 30.6976 18.2 30.6975C18.2 30.6975 18.2 30.6975 18.2 30.6975C18.2 30.6975 18.2 30.6975 18.2 30.6975C18.2 30.6975 18.2 30.6975 18.2 30.6975C18.2 30.6975 18.2 30.6975 18.2 30.6974C18.2 30.6974 18.2 30.6974 18.2 30.6974C18.2 30.6974 18.2 30.6974 18.2 30.6974C18.2 30.6974 18.2 30.6974 18.2 30.6974C18.2 30.6974 18.2 30.6974 18.2 30.6973C18.2 30.6973 18.2 30.6973 18.2 30.6973C18.2 30.6973 18.2 30.6973 18.2 30.6973C18.2 30.6973 18.2 30.6973 18.2 30.6973C18.2 30.6973 18.2 30.6973 18.2 30.6973C18.2 30.6972 18.2 30.6972 18.2 30.6972C18.2 30.6972 18.2 30.6972 18.2 30.6972C18.2 30.6972 18.2 30.6972 18.2 30.6972C18.2 30.6972 18.2 30.6972 18.2 30.6972C18.2 30.6971 18.2 30.6971 18.2 30.6971C18.2 30.6971 18.2 30.6971 18.2 30.6971C18.2 30.6971 18.2 30.6971 18.2 30.6971C18.2 30.6971 18.2 30.6971 18.2 30.6971C18.2 30.697 18.2 30.697 18.2 30.697C18.2 30.697 18.2 30.697 18.2 30.697C18.2 30.697 18.2 30.697 18.2 30.697C18.2 30.697 18.2 30.697 18.2 30.697C18.2 30.697 18.2 30.6969 18.2 30.6969C18.2 30.6969 18.2 30.6969 18.2 30.6969C18.2 30.6969 18.2 30.6969 18.2 30.6969C18.2 30.6969 18.2 30.6969 18.2 30.6969C18.2 30.6969 18.2 30.6968 18.2 30.6968C18.2 30.6968 18.2 30.6968 18.2 30.6968C18.2 30.6968 18.2 30.6968 18.2 30.6968C18.2 30.6968 18.2 30.6968 18.2 30.6968C18.2 30.6968 18.2 30.6967 18.2 30.6967C18.2 30.6967 18.2 30.6967 18.2 30.6967C18.2 30.6967 18.2 30.6967 18.2 30.6967C18.2 30.6967 18.2 30.6967 18.2 30.6967C18.2 30.6967 18.2 30.6966 18.2 30.6966C18.2 30.6966 18.2 30.6966 18.2 30.6966C18.2 30.6966 18.2 30.6966 18.2 30.6966C18.2 30.6966 18.2 30.6966 18.2 30.6966C18.2 30.6966 18.2 30.6966 18.2 30.6965C18.2 30.6965 18.2 30.6965 18.2 30.6965C18.2 30.6965 18.2 30.6965 18.2 30.6965C18.2 30.6965 18.2 30.6965 18.2 30.6965C18.2 30.6965 18.2 30.6965 18.2 30.6964C18.2 30.6964 18.2 30.6964 18.2 30.6964C18.2 30.6964 18.2 30.6964 18.2 30.6964C18.2 30.6964 18.2 30.6964 18.2 30.6964C18.2 30.6964 18.2 30.6964 18.2 30.6963C18.2 30.6963 18.2 30.6963 18.2 30.6963C18.2 30.6963 18.2 30.6963 18.2 30.6963C18.2 30.6963 18.2 30.6963 18.2 30.6963C18.2 30.6963 18.2 30.6963 18.2 30.6963C18.2 30.6962 18.2 30.6962 18.2 30.6962C18.2 30.6962 18.2 30.6962 18.2 30.6962C18.2 30.6962 18.2 30.6962 18.2 30.6962C18.2 30.6962 18.2 30.6962 18.2 30.6962C18.2 30.6961 18.2 30.6961 18.2 30.6961C18.2 30.6961 18.2 30.6961 18.2 30.6961C18.2 30.6961 18.2 30.6961 18.2 30.6961C18.2 30.6961 18.2 30.6961 18.2 30.6961C18.2 30.696 18.2 30.696 18.2 30.696C18.2 30.696 18.2 30.696 18.2 30.696C18.2 30.696 18.2 30.696 18.2 30.696C18.2 30.696 18.2 30.696 18.2 30.696H17.8ZM17.8 30.7085C17.8 31.4405 18.1564 32.1199 18.7632 32.7185C19.3693 33.3164 20.2361 33.8456 21.2912 34.2858C23.402 35.1665 26.3044 35.7064 29.5 35.7064V35.3064C26.344 35.3064 23.4964 34.7724 21.4452 33.9166C20.4191 33.4886 19.6019 32.9839 19.0441 32.4338C18.4871 31.8843 18.2 31.3014 18.2 30.7085H17.8ZM29.5 35.7064C32.6956 35.7064 35.598 35.1663 37.7089 34.2855C38.7639 33.8453 39.6307 33.3161 40.2368 32.7182C40.8436 32.1197 41.2 31.4404 41.2 30.7085H40.8C40.8 31.3012 40.5129 31.884 39.9559 32.4335C39.3981 32.9836 38.5809 33.4883 37.5548 33.9164C35.5036 34.7723 32.6559 35.3064 29.5 35.3064V35.7064ZM41.2 30.7085C41.2 30.702 41.1997 30.6966 41.1995 30.6929C41.1993 30.6894 41.199 30.6863 41.199 30.6857C41.1989 30.6843 41.1989 30.6853 41.199 30.6866C41.1991 30.6882 41.1993 30.6916 41.1993 30.696H40.7993C40.7993 30.7024 40.7996 30.7078 40.7998 30.7115C40.8 30.715 40.8003 30.7181 40.8003 30.7188C40.8005 30.7202 40.8004 30.7191 40.8003 30.7178C40.8002 30.7162 40.8 30.7128 40.8 30.7085H41.2ZM41.1993 30.696L41.2 13.4102L40.8 13.4101L40.7993 30.6959L41.1993 30.696Z" fill="#0F0F0F" mask="url(#path-3-inside-1_8467_80532)"/>
<path d="M40.9 13.535C40.9 14.1628 40.5955 14.7698 40.026 15.3316C39.4562 15.8938 38.6265 16.4047 37.5932 16.8358C35.527 17.698 32.6657 18.2336 29.5 18.2336C26.3343 18.2336 23.473 17.698 21.4068 16.8358C20.3735 16.4047 19.5438 15.8938 18.974 15.3316C18.4045 14.7698 18.1 14.1628 18.1 13.535C18.1 12.9072 18.4045 12.3001 18.974 11.7383C19.5438 11.1761 20.3735 10.6653 21.4068 10.2341C23.473 9.37195 26.3343 8.83633 29.5 8.83633C32.6657 8.83633 35.527 9.37195 37.5932 10.2341C38.6265 10.6653 39.4562 11.1761 40.026 11.7383C40.5955 12.3001 40.9 12.9072 40.9 13.535Z" fill="#9583FF" stroke="#0F0F0F" stroke-width="0.2"/>
<path d="M24.2802 13.261V8.25234H34.377V13.261L34.3735 13.2988C34.3498 13.5528 34.2059 13.8037 33.9469 14.0404C33.688 14.2769 33.32 14.4934 32.8641 14.6768C31.9526 15.0434 30.7064 15.2709 29.3286 15.2709C27.9508 15.2709 26.7046 15.0434 25.7931 14.6768C25.3372 14.4934 24.9692 14.2769 24.7103 14.0404C24.4513 13.8037 24.3074 13.5528 24.2837 13.2988L24.2802 13.261Z" fill="white" stroke="#0F0F0F" stroke-width="0.2"/>
<path d="M34.3778 8.14786C34.3778 8.40963 34.251 8.66803 34.003 8.91271C33.7545 9.15775 33.3899 9.38302 32.9313 9.57434C32.0146 9.9568 30.7411 10.1957 29.3293 10.1957C27.9176 10.1957 26.6441 9.9568 25.7274 9.57434C25.2687 9.38302 24.9041 9.15775 24.6557 8.91271C24.4076 8.66803 24.2809 8.40963 24.2809 8.14786C24.2809 7.88609 24.4076 7.6277 24.6557 7.38301C24.9041 7.13798 25.2687 6.91271 25.7274 6.72138C26.6441 6.33892 27.9176 6.1 29.3293 6.1C30.7411 6.1 32.0146 6.33892 32.9313 6.72138C33.3899 6.91271 33.7545 7.13798 34.003 7.38301C34.251 7.6277 34.3778 7.88609 34.3778 8.14786Z" fill="#9583FF" stroke="#0F0F0F" stroke-width="0.2"/>
<path d="M30.1927 33.5888H32.8386L27.7006 43.8447L29.161 35.5173L29.1815 35.4H29.0625C28.2855 35.4 27.5306 35.3476 26.9695 35.2952C26.6891 35.2689 26.4573 35.2427 26.2958 35.2231C26.2388 35.2161 26.1905 35.21 26.1519 35.205L27.9263 27.6H32.3928L30.0996 33.4523L30.0461 33.5888H30.1927Z" fill="#1E1D1D" stroke="#0F0F0F" stroke-width="0.2"/>
</svg>
