<svg width="60" height="60" viewBox="0 0 60 60" fill="none" xmlns="http://www.w3.org/2000/svg">
<path d="M41.6728 10.9966L43.9822 10.2294C44.2805 10.1285 44.5596 10.1329 44.8001 10.2206L52.9167 13.1975C52.6762 13.1098 52.3971 13.1055 52.0988 13.2063L49.7894 13.9735C49.4911 14.0744 49.2121 14.07 48.9715 13.9823L40.8549 11.0054C41.0955 11.0931 41.3745 11.0975 41.6728 10.9966Z" fill="#9583FF"/>
<path d="M22.5204 46.6641L30.6354 49.9486C31.1068 50.1373 31.4195 50.6888 31.4147 51.4434L31.3955 54.4184C31.3955 55.1778 31.7033 55.7245 32.1699 55.9131L24.0549 52.6285C23.5835 52.4399 23.2757 51.8884 23.2805 51.1338L23.2997 48.1588C23.2997 47.4042 22.9918 46.8527 22.5204 46.6641Z" fill="#1E1D1D"/>
<path d="M16.7314 41.7969L24.8464 45.0815C25.3178 45.2701 25.6304 45.8216 25.6256 46.5762L25.6064 49.5512C25.6064 50.3106 25.9143 50.8573 26.3809 51.0459L18.2659 47.7614C17.7993 47.5727 17.4866 47.0212 17.4914 46.2666L17.5106 43.2916C17.5106 42.537 17.2028 41.9855 16.7314 41.7969Z" fill="#1E1D1D"/>
<path d="M24.7869 16.9865L27.0965 16.1339C27.9819 15.8075 28.7085 14.6041 28.7181 13.4494L28.7373 10.453C28.7421 9.30323 29.4735 8.09495 30.3589 7.76851L34.2756 6.32637L38.1923 4.88423C38.4907 4.77217 38.7697 4.77704 39.0103 4.87448L47.1277 8.18264C46.8871 8.0852 46.608 8.08033 46.3097 8.19239L42.393 9.63453L38.4762 11.0767C37.5909 11.4031 36.8643 12.6114 36.8547 13.7612L36.8354 16.7575C36.8306 17.9074 36.0993 19.1156 35.2139 19.4421L32.9043 20.2947C32.6059 20.4068 32.3269 20.4019 32.0863 20.3044L23.9689 16.9963C24.2095 17.0937 24.4886 17.0986 24.7869 16.9865Z" fill="#9583FF"/>
<path d="M11.425 36.4434L19.54 39.7279C20.0114 39.9166 20.3241 40.4681 20.3192 41.2227L20.3 44.1977C20.3 44.9571 20.6079 45.5038 21.0745 45.6924L12.9595 42.4078C12.4929 42.2192 12.1802 41.6677 12.185 40.9131L12.2042 37.9381C12.2042 37.1835 11.8964 36.632 11.425 36.4434Z" fill="#1E1D1D"/>
<path d="M27.0944 16.134L24.7848 16.9866C24.4864 17.0987 24.2074 17.0938 23.9668 16.9964L32.0841 20.3045C32.3247 20.402 32.6038 20.4068 32.9021 20.2948L35.2117 19.4422C36.0971 19.1157 36.8285 17.9074 36.8333 16.7576L36.8525 13.7613L28.7352 10.4531L28.7159 13.4495C28.7063 14.6042 27.9797 15.8076 27.0944 16.134Z" fill="#1E1D1D"/>
<path d="M6.63159 30.977L6.6654 25.9182C6.67023 24.7747 7.40447 23.573 8.29329 23.2483L10.612 22.4003C11.5008 22.0757 12.2302 20.8788 12.2398 19.7304L12.2591 16.7504C12.264 15.6068 12.9982 14.4051 13.8871 14.0805L17.8191 12.6462L21.7512 11.2119C22.0506 11.1004 22.3308 11.1053 22.5723 11.2022L30.7214 14.4924C30.4799 14.3954 30.1997 14.3906 29.9003 14.502L25.9682 15.9363L22.0362 17.3706C21.1473 17.6953 20.4179 18.897 20.4083 20.0405L20.3889 23.0206C20.3841 24.1641 19.6499 25.3658 18.7611 25.6905L16.4424 26.5385C15.5536 26.8631 14.8242 28.0648 14.8145 29.2084L14.7807 34.2672L14.7469 39.326C14.7469 40.0867 15.056 40.6343 15.5246 40.8232L7.37549 37.5331C6.90693 37.3441 6.59295 36.7917 6.59778 36.0358L6.63159 30.977Z" fill="#9583FF"/>
<path d="M12.2598 16.75L12.2405 19.73L20.3896 23.0202L20.4089 20.0402L12.2598 16.75Z" fill="#1E1D1D"/>
<path d="M6.63226 30.9766L6.66607 25.9178L14.8152 29.208L14.7814 34.2668L14.7476 39.3256C14.7476 40.086 15.0564 40.6334 15.5246 40.8226L7.37616 37.5327C6.9076 37.3437 6.59362 36.7913 6.59845 36.0354L6.63226 30.9766Z" fill="#1E1D1D"/>
<path d="M22.0323 17.3119C21.1506 17.6386 20.4271 18.8478 20.4175 19.9985L20.3983 22.9972C20.3935 24.1479 19.6652 25.3571 18.7835 25.6838L16.4834 26.537C15.6017 26.8637 14.8782 28.0729 14.8686 29.2237L14.8351 34.3141L14.8015 39.4045C14.7967 40.5552 15.5059 41.2281 16.3924 40.9014L18.6924 40.0481C19.5741 39.7214 20.2881 40.3992 20.2833 41.545L20.2641 44.5437C20.2594 45.6944 20.9685 46.3672 21.855 46.0406L24.1551 45.1873C25.0368 44.8606 25.7508 45.5383 25.746 46.6842L25.7268 49.6828C25.722 50.8336 26.4312 51.5064 27.3177 51.1797L29.6177 50.3265C30.4994 49.9998 31.2134 50.6775 31.2086 51.8234L31.1894 54.822C31.1847 55.9727 31.8938 56.6456 32.7803 56.3189L35.0804 55.4656C35.9621 55.139 36.6856 53.9346 36.6952 52.779L36.7144 49.7804C36.7192 48.6297 37.4475 47.4204 38.3292 47.0938L40.6293 46.2405C41.511 45.9138 42.2345 44.7094 42.2441 43.5539L42.2633 40.5552C42.2681 39.4045 42.9964 38.1953 43.8733 37.8735L46.1734 37.0202C47.0551 36.6935 47.7786 35.4892 47.7882 34.3336L47.8074 31.3349C47.8122 30.1842 48.5405 28.975 49.4174 28.6532L51.7175 27.7999C52.5992 27.4732 53.3227 26.2689 53.3323 25.1133L53.3659 20.0229L53.3994 14.9324C53.4042 13.7817 52.6902 13.1089 51.8085 13.4356L49.5085 14.2888C48.6268 14.6155 47.9128 13.9426 47.9224 12.7871L47.9415 9.78839C47.9463 8.63769 47.2324 7.96481 46.3507 8.2915L42.4502 9.73476L38.5496 11.178C37.6679 11.5047 36.9444 12.7139 36.9348 13.8646L36.9156 16.8633C36.9108 18.014 36.1825 19.2232 35.3008 19.5499L33.0007 20.4032C32.1191 20.7299 31.4051 20.057 31.4099 18.9063L31.429 15.9076C31.4338 14.7569 30.7198 14.084 29.8382 14.4107L25.9376 15.854L22.0371 17.2972L22.0323 17.3119Z" fill="white" stroke="#1E1D1D" stroke-width="0.5" stroke-linecap="round" stroke-linejoin="round"/>
<rect x="5" y="37" width="18" height="18" rx="4" fill="url(#paint0_linear_8467_79883)"/>
<path fill-rule="evenodd" clip-rule="evenodd" d="M13.6798 50.1643L10.9793 51.894C10.6985 52.0738 10.3314 51.9816 10.1594 51.688C10.0754 51.5446 10.0504 51.3718 10.09 51.2089L10.508 49.4886C10.6589 48.8676 11.0654 48.3485 11.6178 48.0712L14.5639 46.5924C14.7013 46.5234 14.7592 46.3511 14.6932 46.2075C14.6398 46.0912 14.519 46.0261 14.3975 46.0482L11.1181 46.6417C10.4514 46.7624 9.76782 46.5699 9.24928 46.1156L8.21329 45.2079C7.9609 44.9868 7.92776 44.5936 8.13927 44.3297C8.24214 44.2014 8.39008 44.1217 8.54975 44.1086L11.715 43.8497C11.9386 43.8314 12.1335 43.6834 12.2193 43.4668L13.4404 40.385C13.5665 40.0669 13.9153 39.9159 14.2195 40.0476C14.3656 40.1109 14.4816 40.2322 14.5422 40.385L15.7633 43.4668C15.8491 43.6834 16.044 43.8314 16.2676 43.8497L19.4503 44.1101C19.7786 44.1369 20.0238 44.4369 19.9982 44.7802C19.9858 44.9453 19.9111 45.0985 19.7906 45.2059L17.3633 47.3694C17.1924 47.5217 17.1179 47.7615 17.1704 47.9897L17.9166 51.2307C17.9937 51.5654 17.7966 51.9021 17.4765 51.9827C17.3226 52.0214 17.1604 51.9946 17.0255 51.9081L14.3028 50.1643C14.1116 50.0419 13.871 50.0419 13.6798 50.1643Z" fill="white"/>
<defs>
<linearGradient id="paint0_linear_8467_79883" x1="5" y1="47.125" x2="24.125" y2="46.75" gradientUnits="userSpaceOnUse">
<stop stop-color="#6D91FF"/>
<stop offset="1" stop-color="#E069D0"/>
</linearGradient>
</defs>
</svg>
