<svg width="60" height="60" viewBox="0 0 60 60" fill="none" xmlns="http://www.w3.org/2000/svg">
<path d="M15.7563 38.6736L15.7573 38.6733L15.786 38.6632C15.8115 38.6544 15.8492 38.6414 15.8982 38.6248C15.9964 38.5916 16.1398 38.5441 16.3206 38.4869C16.6822 38.3725 17.1931 38.2195 17.7897 38.0651C18.9845 37.7559 20.5173 37.4429 21.8829 37.4211C22.5658 37.4101 23.2015 37.4722 23.7303 37.6407C24.2585 37.809 24.6734 38.0812 24.9271 38.4869C25.1806 38.8922 25.2823 39.4452 25.155 40.1938C25.0275 40.9435 24.6712 41.8828 24.0168 43.0508L24.0168 43.0508C21.4033 47.7172 17.9233 49.5265 15.1003 50.1727C13.6873 50.4962 12.4372 50.5286 11.5407 50.4801C11.0925 50.4559 10.733 50.4115 10.486 50.3732C10.3626 50.3541 10.2672 50.3365 10.2031 50.3238C10.1934 50.3219 10.1845 50.3201 10.1763 50.3184C9.79126 46.3114 11.1798 43.4053 12.669 41.4969C13.4184 40.5365 14.1935 39.8287 14.7809 39.3612C15.0745 39.1276 15.3211 38.9541 15.4938 38.8393C15.5802 38.7819 15.6481 38.7391 15.6942 38.7109C15.7172 38.6968 15.7348 38.6863 15.7465 38.6793L15.7563 38.6736Z" fill="#9583FF" stroke="black" stroke-width="0.2"/>
<path d="M14.2731 46.5157C14.223 46.5079 14.1821 46.5007 14.1512 46.4948C13.9661 44.4653 14.6716 42.9929 15.4276 42.0239C15.8106 41.533 16.2067 41.1713 16.5067 40.9325C16.6567 40.8131 16.7825 40.7246 16.8704 40.6662C16.9143 40.637 16.9488 40.6153 16.972 40.601C16.9836 40.5939 16.9925 40.5887 16.9983 40.5852L17.0019 40.5831L17.0109 40.5799C17.0239 40.5754 17.0432 40.5688 17.0683 40.5603C17.1185 40.5433 17.192 40.5189 17.2848 40.4896C17.4703 40.4309 17.7325 40.3523 18.0387 40.2731C18.6525 40.1143 19.4372 39.9542 20.1345 39.9431C20.4832 39.9375 20.8047 39.9693 21.0701 40.0539C21.3348 40.1383 21.5371 40.2729 21.6598 40.4692C21.7823 40.665 21.8346 40.9369 21.7705 41.3143C21.7061 41.6928 21.5255 42.1711 21.1901 42.7699C19.8514 45.1596 18.0718 46.0834 16.6304 46.4133C15.9082 46.5786 15.2693 46.5951 14.8113 46.5703C14.5823 46.5579 14.3989 46.5352 14.2731 46.5157Z" fill="white" stroke="black" stroke-width="0.2"/>
<path d="M32.3811 17.2743C32.3828 17.277 32.3845 17.2796 32.3861 17.2822L24.585 23.1414C23.8134 20.9909 22.027 20.3645 20.7737 20.2029C20.6649 20.1888 20.5801 20.1264 20.5205 20.023C20.4596 19.9172 20.4265 19.7693 20.431 19.598C20.4398 19.2552 20.5981 18.8461 20.9246 18.5578L20.9247 18.5578C22.1156 17.505 23.0802 16.5394 23.7472 15.8368C24.0807 15.4855 24.3399 15.1999 24.5158 15.002C24.6038 14.903 24.6709 14.826 24.7161 14.7736C24.7316 14.7556 24.7446 14.7406 24.7549 14.7285L25.5665 14.723C26.674 14.7157 27.7769 14.8227 28.8604 15.0372L28.8637 15.0405L28.8969 15.0451C30.1219 15.2158 31.0057 15.7942 31.5841 16.331C31.8733 16.5995 32.0857 16.8572 32.2256 17.0473C32.2955 17.1423 32.3471 17.2203 32.3811 17.2743Z" fill="#9583FF" stroke="black" stroke-width="0.2"/>
<path d="M16.7196 33.2926L26.0198 44.5153C25.9993 44.5342 25.9738 44.5569 25.9436 44.5827C25.8495 44.6631 25.7092 44.7732 25.5265 44.8903C25.1609 45.1246 24.6268 45.3861 23.9524 45.4957C22.6107 45.7137 20.6839 45.3347 18.3949 42.8643C16.1103 40.3976 15.7135 37.9727 15.8831 36.167C15.9681 35.2625 16.1954 34.5116 16.4014 33.9872C16.5044 33.725 16.6019 33.5197 16.6734 33.3804C16.6904 33.3474 16.7058 33.3181 16.7196 33.2926Z" fill="#9583FF" stroke="black" stroke-width="0.2"/>
<path d="M29.6088 17.7849C29.6108 17.7887 29.6127 17.7925 29.6146 17.7961L21.8078 23.6596C21.0352 21.5101 19.2488 20.8836 17.9966 20.721L17.9966 20.721C17.886 20.7067 17.808 20.6484 17.7563 20.5548C17.7026 20.4573 17.6764 20.3186 17.6859 20.1513C17.7048 19.8173 17.8643 19.4021 18.1566 19.0667C20.144 16.7888 21.8564 15.5857 23.302 15.0549C24.7444 14.5253 25.9258 14.6631 26.8613 15.0772C27.7999 15.4926 28.4975 16.1892 28.9617 16.7858C29.1935 17.0836 29.3661 17.3552 29.4807 17.5521C29.5379 17.6505 29.5806 17.7301 29.6088 17.7849Z" fill="white" stroke="black" stroke-width="0.2"/>
<path d="M43.2316 34.1843L43.1725 34.2545L43.1734 34.2554C39.2856 38.8465 34.3959 42.441 29.8297 44.5797L29.8296 44.5796L29.8248 44.5822L29.6695 44.6655C28.5874 45.145 27.2033 45.0875 25.5102 44.6435C23.5125 44.1179 21.492 42.95 19.73 41.4192C18.1992 39.6572 17.0313 37.6367 16.5058 35.639C16.0613 33.9441 15.9999 32.5921 16.4817 31.5109C16.4817 31.5107 16.4818 31.5105 16.4819 31.5104L16.5695 31.3195C16.5696 31.3194 16.5696 31.3193 16.5697 31.3191C18.7183 26.7309 22.3395 21.8138 26.964 17.9166C29.6349 15.6663 33.2279 13.9672 36.805 12.6776C40.381 11.3884 43.9338 10.511 46.5207 9.90044C48.1157 9.52466 49.7827 9.51167 50.995 10.1521C51.6345 11.3655 51.6225 13.0315 51.2478 14.6275C50.6372 17.2144 49.7598 20.7673 48.4706 24.3432C47.181 27.9204 45.4819 31.5133 43.2316 34.1843Z" fill="white" stroke="black" stroke-width="0.2"/>
<path d="M34.0341 24.8334C33.577 26.543 32.7653 27.9835 31.8276 28.9313C30.8877 29.8813 29.8381 30.3218 28.8956 30.0797C27.9531 29.8376 27.2588 28.949 26.9152 27.6692C26.5724 26.3925 26.5859 24.7469 27.043 23.0373C27.5002 21.3277 28.3119 19.8872 29.2495 18.9394C30.1894 17.9894 31.2391 17.5489 32.1816 17.791C33.1241 18.0331 33.8183 18.9216 34.162 20.2014C34.5048 21.4782 34.4913 23.1237 34.0341 24.8334Z" fill="#9583FF" stroke="black" stroke-width="0.2"/>
<path d="M32.5161 24.4427C32.0589 26.1523 31.2472 27.5928 30.3096 28.5406C29.3697 29.4907 28.32 29.9312 27.3775 29.6891C26.435 29.4469 25.7408 28.5584 25.3971 27.2786C25.0543 26.0019 25.0678 24.3563 25.525 22.6467C25.9821 20.9371 26.7938 19.4966 27.7315 18.5488C28.6714 17.5987 29.721 17.1582 30.6635 17.4004C31.606 17.6425 32.3003 18.531 32.6439 19.8108C32.9867 21.0876 32.9732 22.7331 32.5161 24.4427Z" fill="white" stroke="black" stroke-width="0.2"/>
<path d="M31.1316 23.815C30.861 24.8269 30.381 25.6775 29.8289 26.2357C29.2745 26.7961 28.6641 27.0472 28.1233 26.9083C27.5825 26.7694 27.1763 26.2571 26.9736 25.5022C26.7717 24.7503 26.7792 23.7783 27.0497 22.7664C27.3203 21.7545 27.8003 20.9039 28.3524 20.3457C28.9068 19.7853 29.5172 19.5342 30.058 19.6731C30.5988 19.8121 31.005 20.3243 31.2077 21.0793C31.4096 21.8311 31.4021 22.8032 31.1316 23.815Z" fill="#15131D" stroke="black" stroke-width="0.2"/>
<path d="M51.0041 10.1483C51.6477 11.3623 51.6364 13.0321 51.2599 14.6303L51.2599 14.6303C50.5697 17.5557 49.5377 21.7151 47.9558 25.7473C44.8056 25.4367 41.7838 23.1332 39.7176 20.391C38.6777 19.0108 37.8843 17.525 37.4407 16.1367C37.0028 14.7662 36.9094 13.5023 37.2429 12.5298C39.2764 11.7268 42.16 10.7046 44.8199 10.0984C46.1595 9.79319 47.4384 9.59437 48.5215 9.58092C49.5977 9.56756 50.4617 9.73761 51.0041 10.1483Z" fill="#9583FF" stroke="black" stroke-width="0.2"/>
<path d="M28.9186 49.8395L32.1048 43.0845L32.1177 43.0572L32.1133 43.0274C32.0792 42.7954 32.0397 42.5622 31.9881 42.3316L32.8271 41.5392L32.8409 41.5263L32.8489 41.5092L35.7579 35.3428L38.4138 36.1166C38.416 36.1322 38.4184 36.1506 38.4211 36.1718C38.4311 36.2503 38.4448 36.3663 38.4595 36.5156C38.4888 36.8142 38.5219 37.2456 38.5367 37.776C38.5664 38.837 38.5229 40.2921 38.2308 41.8694C37.6465 45.025 36.0705 48.6561 32.1089 50.615C31.9271 50.7039 31.7716 50.6922 31.6491 50.6221L31.6385 50.6161L31.6269 50.6127L28.9186 49.8395Z" fill="#9583FF" stroke="black" stroke-width="0.2"/>
<path d="M29.1898 41.5164L35.6307 35.4309C35.6393 35.5025 35.6494 35.5933 35.6601 35.7015C35.6894 36.0001 35.7225 36.4316 35.7373 36.9619C35.767 38.0229 35.7235 39.478 35.4314 41.0553C34.847 44.211 33.271 47.8422 29.3092 49.801C29.1743 49.8677 29.0533 49.8776 28.9513 49.8511C28.8489 49.8244 28.7569 49.7584 28.6849 49.6578C28.54 49.4552 28.4808 49.1146 28.6024 48.7248L28.6024 48.7248C29.1593 46.938 29.7768 44.1032 29.1898 41.5164Z" fill="white" stroke="black" stroke-width="0.2"/>
</svg>
