<svg width="39" height="39" viewBox="0 0 39 39" fill="none" xmlns="http://www.w3.org/2000/svg">
<g clip-path="url(#clip0_11359_35219)">
<path d="M19.624 38.1811C30.1459 38.1811 38.6767 29.6499 38.6767 19.1276C38.6767 8.60539 30.1459 0.0742188 19.624 0.0742188C9.10214 0.0742188 0.571289 8.60539 0.571289 19.1276C0.571289 29.6499 9.10214 38.1811 19.624 38.1811Z" fill="white"/>
<path d="M19.6243 0.886719C9.55184 0.886719 1.38599 9.05288 1.38599 19.1257C1.38599 29.1985 9.55184 37.3646 19.6243 37.3646C29.6967 37.3646 37.8625 29.1985 37.8625 19.1257C37.8625 9.05288 29.6967 0.886719 19.6243 0.886719ZM17.012 28.2981C9.32283 23.1579 0.728996 13.6763 7.45205 6.95301C14.1751 0.229704 25.0734 0.229704 31.7965 6.95301C37.2585 12.4153 37.884 20.4597 34.8682 27.1315C33.0976 31.0478 24.916 33.5814 17.012 28.2981Z" fill="#9583FF"/>
<path d="M28.5045 16.1367C28.5045 17.7871 27.1283 19.125 25.4308 19.125C23.7333 19.125 22.3571 17.7871 22.3571 16.1367C22.3571 14.4863 23.7333 13.1484 25.4308 13.1484C27.1283 13.1484 28.5045 14.4863 28.5045 16.1367Z" fill="#1E1D1D"/>
<path d="M16.2098 25.4128V22.1133H13.1362L16.2098 25.4128Z" fill="#1E1D1D"/>
<path d="M31.5781 31.0781L23.227 22.1133H16.2098V25.4128L21.4872 31.0781H31.5781Z" fill="#1E1D1D"/>
<path d="M16.2098 14.0022L10.0625 7.17188L10.0625 24.2478L16.2098 31.0781V25.4128L13.1362 22.1133H16.2098V14.0022Z" fill="#1E1D1D"/>
</g>
<defs>
<clipPath id="clip0_11359_35219">
<rect width="38.25" height="38.25" fill="white" transform="translate(0.5)"/>
</clipPath>
</defs>
</svg>
