<svg width="51" height="50" viewBox="0 0 51 50" fill="none" xmlns="http://www.w3.org/2000/svg">
<path d="M35.2043 12.5632L36.2468 12.1947C36.3824 12.1475 36.5084 12.1497 36.6185 12.1943L43.6469 15.0346C43.5386 14.9908 43.4108 14.9878 43.2752 15.0349L42.2326 15.4035C42.097 15.4507 41.9711 15.4484 41.8609 15.4038L34.8325 12.5635C34.9408 12.6073 35.0687 12.6104 35.2043 12.5632Z" fill="#4D99FF"/>
<path d="M32.717 7.10077L33.7604 6.73033C33.894 6.68235 34.0219 6.6854 34.1282 6.72837L41.1566 9.56864C41.0483 9.52485 40.9224 9.52261 40.7887 9.5706L39.7453 9.94104C39.6116 9.98902 39.4838 9.98597 39.3755 9.94218L32.3472 7.10192C32.4546 7.14759 32.5814 7.14794 32.717 7.10077Z" fill="#4D99FF"/>
<path d="M16.6099 41.4688L23.6382 44.309C23.8509 44.395 23.9934 44.6406 23.9939 44.9753L23.992 46.3014C23.9917 46.6379 24.135 46.8817 24.3477 46.9677L17.3193 44.1274C17.1066 44.0414 16.9641 43.7958 16.9637 43.4611L16.9655 42.135C16.9659 41.7985 16.8226 41.5547 16.6099 41.4688Z" fill="#1E1D1D"/>
<path d="M11.6245 40.0625L18.6529 42.9028C18.8655 42.9887 19.0081 43.2344 19.0085 43.5691L19.0067 44.8951C19.0063 45.2317 19.1496 45.4755 19.3623 45.5614L12.334 42.7211C12.1213 42.6352 11.9788 42.3895 11.9783 42.0548L11.9802 40.7288C11.9805 40.3922 11.8372 40.1484 11.6245 40.0625Z" fill="#1E1D1D"/>
<path d="M27.7312 5.69414L31.2728 4.44106C31.4065 4.39308 31.5343 4.39613 31.6426 4.43992L38.6709 7.28019C38.5627 7.2364 38.4368 7.23416 38.3012 7.28133L34.7596 8.53441C34.6259 8.58239 34.4999 8.58016 34.3917 8.53637L27.3633 5.6961C27.4716 5.73989 27.5975 5.74213 27.7312 5.69414Z" fill="#4D99FF"/>
<path d="M9.13916 34.6016L16.1675 37.4418C16.3802 37.5278 16.5227 37.7734 16.5232 38.1081L16.5159 42.6073C16.5147 42.9458 16.6592 43.1923 16.8718 43.2782L9.84351 40.4379C9.63082 40.352 9.4883 40.1063 9.48754 39.767L9.49484 35.2679C9.49519 34.9313 9.35185 34.6875 9.13916 34.6016Z" fill="#1E1D1D"/>
<path d="M7.02038 23.4566C7.02035 22.9504 7.34839 22.4186 7.74783 22.2785L8.79122 21.908C9.19067 21.7679 9.51679 21.2353 9.51867 20.7299L9.52597 16.2307C9.52754 15.7207 9.8548 15.1908 10.2531 15.0479L11.2965 14.6775C11.6967 14.5354 12.0248 14.0036 12.0267 13.4982L12.0285 12.1722C12.0285 11.666 12.3565 11.1342 12.756 10.994L16.2949 9.74202C16.6943 9.60185 17.0204 9.06925 17.022 8.55926L17.023 7.23511C17.0246 6.72512 17.3519 6.19522 17.7521 6.05316L26.2836 3.03424C26.4172 2.98625 26.5451 2.98931 26.6514 3.03228L33.6798 5.87254C33.5715 5.82876 33.4456 5.82652 33.3119 5.8745L24.7804 8.89343C24.3802 9.03549 24.0522 9.56727 24.0514 10.0754L24.0503 11.3995C24.0488 11.9095 23.7215 12.4394 23.3232 12.5823L19.7843 13.8343C19.3849 13.9745 19.0588 14.5071 19.0569 15.0125L19.055 16.3385C19.055 16.8447 18.727 17.3765 18.3248 17.5177L17.2815 17.8882C16.882 18.0284 16.5559 18.561 16.5543 19.071L16.547 23.5701C16.547 24.0763 16.219 24.6081 15.8196 24.7483L14.7762 25.1187C14.3768 25.2589 14.0506 25.7915 14.0487 26.2969L14.0305 37.1424C14.0294 37.4808 14.1738 37.7273 14.3865 37.8133L7.35817 34.973C7.14548 34.8871 7.00294 34.6414 7.00137 34.304L7.01958 23.4585L7.02038 23.4566Z" fill="#4D99FF"/>
<path d="M14.3868 37.8137C14.1741 37.7277 14.0316 37.482 14.0308 37.1428L14.049 26.2973L7.02064 23.457L7.00244 34.3025C7.00128 34.641 7.14462 34.8847 7.35923 34.9715L14.3876 37.8118L14.3868 37.8137Z" fill="#1E1D1D"/>
<path d="M16.2931 9.74126C16.6925 9.60108 17.0186 9.06848 17.0202 8.55849L17.0213 7.23434L24.0496 10.0746L24.0486 11.3988C24.047 11.9087 23.7198 12.4386 23.3214 12.5815L16.2931 9.74126Z" fill="#1E1D1D"/>
<path d="M11.2955 14.681C11.6958 14.539 12.0238 14.0072 12.0257 13.5018L12.0276 12.1757L19.0559 15.016L19.054 16.3421C19.0541 16.8483 18.726 17.38 18.3239 17.5213L11.2955 14.681Z" fill="#1E1D1D"/>
<path d="M8.79126 21.9078C9.19071 21.7676 9.51683 21.235 9.51872 20.7296L9.52602 16.2304L16.5544 19.0707L16.5471 23.5699C16.5471 24.0761 16.2191 24.6079 15.8196 24.7481L8.79126 21.9078Z" fill="#1E1D1D"/>
<path d="M14.7758 25.1217C14.3764 25.2619 14.0503 25.7945 14.0484 26.2998L14.0302 37.1453C14.0286 37.6553 14.3546 37.9544 14.754 37.8142L15.7974 37.4438C16.1969 37.3036 16.5228 37.6027 16.5209 38.1081L16.5136 42.6073C16.5121 43.1173 16.84 43.4172 17.2375 43.2762L18.2809 42.9058C18.6811 42.7637 19.009 43.0637 19.0063 43.571L19.0045 44.897C19.0037 45.4051 19.3297 45.7042 19.728 45.5613L23.2669 44.3093C23.6663 44.1692 23.9923 44.4683 23.9923 44.9745L23.9905 46.3005C23.9905 46.8067 24.3157 47.1077 24.716 46.9657L33.2474 43.9468C33.6469 43.8066 33.973 43.274 33.9749 42.7686L33.9767 41.4425C33.9767 40.9363 34.3047 40.4045 34.7042 40.2644L38.2458 39.0113C38.6452 38.8711 38.9713 38.3385 38.9732 37.8331L38.9751 36.5071C38.975 36.0009 39.3031 35.4691 39.7025 35.3289L40.7459 34.9585C41.1453 34.8183 41.4715 34.2857 41.473 33.7757L41.4803 29.2765C41.4803 28.7703 41.8083 28.2385 42.2086 28.0965L43.2512 27.7279C43.6514 27.5859 43.9795 27.0541 43.9802 26.546L43.9984 15.7005C43.9984 15.1943 43.6732 14.8933 43.273 15.0354L42.2304 15.4039C41.8301 15.546 41.5023 15.246 41.505 14.7388L41.5122 10.2396C41.5138 9.72958 41.1878 9.43047 40.7884 9.57064L39.745 9.94108C39.3456 10.0813 39.0196 9.78214 39.0196 9.27593L39.0214 7.94989C39.0214 7.44368 38.6962 7.14267 38.2979 7.28555L34.7563 8.53863C34.3568 8.67881 34.0309 8.37969 34.0324 7.8697L34.0354 6.54637C34.037 6.03638 33.711 5.73726 33.3115 5.87743L24.7801 8.89636C24.3798 9.03842 24.0518 9.5702 24.051 10.0783L24.0481 11.4016C24.0465 11.9116 23.7193 12.4415 23.3209 12.5844L19.782 13.8364C19.3826 13.9766 19.0565 14.5092 19.0546 15.0146L19.0527 16.3406C19.0528 16.8468 18.7248 17.3786 18.3226 17.5199L17.2792 17.8903C16.8797 18.0305 16.5536 18.5631 16.5521 19.0731L16.5447 23.5722C16.5448 24.0785 16.2167 24.6102 15.8173 24.7504L14.7739 25.1209L14.7758 25.1217Z" fill="white" stroke="#1E1D1D" stroke-width="0.5" stroke-linecap="round" stroke-linejoin="round"/>
<path d="M34.2586 22.0865C34.2586 23.7039 33.3663 25.305 32.2656 25.6626C31.1649 26.0203 30.2726 24.9991 30.2726 23.3817C30.2726 21.7643 31.1649 20.1632 32.2656 19.8055C33.3663 19.4479 34.2586 20.4691 34.2586 22.0865Z" fill="#1E1D1D"/>
<path fill-rule="evenodd" clip-rule="evenodd" d="M26.486 22.562L22.5 18L22.5 32.6429L26.486 37.2049V31.6404L30.2729 35.9744L36.0526 34.0965L31.2694 28.6221L26.486 30.1763V22.562ZM26.486 30.1763V31.6404L25.4897 30.5001L26.486 30.1763Z" fill="#1E1D1D"/>
<path d="M26.486 31.6404V30.1763L25.4897 30.5001L26.486 31.6404Z" fill="#1E1D1D"/>
</svg>
