<svg width="160" height="160" viewBox="0 0 160 160" fill="none" xmlns="http://www.w3.org/2000/svg">
<path d="M26.0618 11.1115L37.3977 10.9141C37.4817 10.9141 37.5658 10.9267 37.6498 10.9561L26.3138 11.1535C26.2298 11.122 26.1437 11.1094 26.0618 11.1115Z" fill="#F6F3EF" stroke="black" stroke-width="0.6" stroke-linecap="round" stroke-linejoin="round"/>
<path d="M26.3223 11.1545L37.6582 10.957L38.8366 11.3834L27.5006 11.5809L26.3223 11.1545Z" fill="#F6F3EF" stroke="black" stroke-width="0.6" stroke-linecap="round" stroke-linejoin="round"/>
<path d="M39.0821 11.4229L27.7462 11.6203C27.6622 11.6203 27.5782 11.6077 27.4941 11.5783L38.8301 11.3809C38.9141 11.4124 38.9981 11.425 39.0821 11.4229Z" fill="#F6F3EF" stroke="black" stroke-width="0.6" stroke-linecap="round" stroke-linejoin="round"/>
<path d="M29.6868 8.64666L41.0227 8.44922C41.1067 8.44922 41.1908 8.46182 41.2748 8.49123L29.9388 8.68867C29.8548 8.65716 29.7687 8.64456 29.6868 8.64666Z" fill="#F6F3EF" stroke="black" stroke-width="0.6" stroke-linecap="round" stroke-linejoin="round"/>
<path d="M29.9316 8.68767L41.2655 8.49023L42.4438 8.91662L31.1079 9.11406L29.9316 8.68767Z" fill="#F6F3EF" stroke="black" stroke-width="0.6" stroke-linecap="round" stroke-linejoin="round"/>
<path d="M42.7019 8.95607L31.3659 9.15351C31.2819 9.15351 31.1979 9.14091 31.1139 9.1115L42.4498 8.91406C42.5338 8.94557 42.6179 8.95817 42.7019 8.95607Z" fill="#F6F3EF" stroke="black" stroke-width="0.6" stroke-linecap="round" stroke-linejoin="round"/>
<path d="M33.2961 6.17986L44.6321 5.98242C44.7161 5.98242 44.8001 5.99502 44.8841 6.02443L33.5482 6.22187C33.4642 6.19036 33.3781 6.17776 33.2961 6.17986Z" fill="#F6F3EF" stroke="black" stroke-width="0.6" stroke-linecap="round" stroke-linejoin="round"/>
<path d="M44.988 48.2013C44.6246 48.2076 44.2927 48.5038 44.1877 48.9617L43.8517 50.4215C43.7466 50.8773 43.4148 51.1755 43.0514 51.1818L54.3873 50.9844C54.7507 50.9781 55.0826 50.6798 55.1876 50.224L55.5237 48.7643C55.6287 48.3085 55.9606 48.0102 56.3239 48.0039L44.988 48.2013Z" fill="#9583FF" stroke="black" stroke-width="0.6" stroke-linecap="round" stroke-linejoin="round"/>
<path d="M48.5974 45.7345C48.234 45.7409 47.9021 46.0391 47.7971 46.4949L47.461 47.9526C47.356 48.4084 47.0241 48.7066 46.6608 48.7129L57.9967 48.5155C58.3601 48.5092 58.692 48.2109 58.797 47.7551L59.133 46.2975C59.2381 45.8417 59.5699 45.5434 59.9333 45.5371L48.5974 45.7345Z" fill="#9583FF" stroke="black" stroke-width="0.6" stroke-linecap="round" stroke-linejoin="round"/>
<path d="M37.8795 11.8376L49.2155 11.6403C50.5408 11.6172 51.8914 11.8376 53.2315 12.3225C60.438 14.94 64.6136 24.2932 62.5594 33.2162C60.8875 40.4788 55.6049 45.2184 49.812 45.3192L38.476 45.5165C44.269 45.4157 49.5536 40.6782 51.2235 33.4135C53.2777 24.4906 49.0999 15.1352 41.8955 12.5198C40.5554 12.0328 39.2028 11.8145 37.8795 11.8376Z" fill="#F6F3EF" stroke="black" stroke-width="0.6" stroke-linecap="round" stroke-linejoin="round"/>
<path d="M33.5514 6.22075L44.8873 6.02344L62.9551 12.585L51.6213 12.7823L33.5514 6.22075Z" fill="#F6F3EF" stroke="black" stroke-width="0.6" stroke-linecap="round" stroke-linejoin="round"/>
<path d="M64.9724 17.0927L63.7962 16.6645C63.3446 16.5008 63.082 15.9109 63.2101 15.3526L63.5462 13.8959C63.6743 13.3354 63.4139 12.7477 62.9602 12.584L51.6243 12.7813C52.078 12.945 52.3384 13.5327 52.2103 14.0932L51.8742 15.5499C51.7461 16.1083 52.0086 16.6981 52.4602 16.8618L53.6365 17.29L64.9724 17.0927Z" fill="#F6F3EF" stroke="black" stroke-width="0.6" stroke-linecap="round" stroke-linejoin="round"/>
<path d="M66.9724 21.6064L65.7962 21.1782C65.3425 21.0144 65.082 20.4246 65.2102 19.8663L65.5462 18.4095C65.6744 17.8491 65.4139 17.2614 64.9602 17.0977L53.6243 17.295C54.078 17.4587 54.3384 18.0464 54.2103 18.6069L53.8742 20.0636C53.7461 20.6219 54.0065 21.2117 54.4602 21.3755L55.6365 21.8037L66.9724 21.6064Z" fill="#F6F3EF" stroke="black" stroke-width="0.6" stroke-linecap="round" stroke-linejoin="round"/>
<path d="M32.4993 6.93833C32.6274 6.37789 33.1 6.05674 33.5516 6.22046L51.6194 12.782C52.0731 12.9457 52.3335 13.5335 52.2054 14.0939L51.8693 15.5506C51.7412 16.109 52.0038 16.6988 52.4554 16.8625L53.6316 17.2907C54.0853 17.4545 54.3457 18.0422 54.2176 18.6026L53.8815 20.0593C53.7534 20.6177 54.0139 21.2075 54.4675 21.3712L55.6438 21.7994C56.0975 21.9632 56.3579 22.5509 56.2298 23.1113L51.0796 45.4869C50.9514 46.0474 50.4789 46.3685 50.0273 46.2048L48.851 45.7766C48.3973 45.6129 47.9269 45.9319 47.7987 46.4945L47.4627 47.9512C47.3345 48.5116 46.8619 48.8328 46.4104 48.6691L45.2341 48.2409C44.7825 48.0771 44.3099 48.3962 44.1818 48.9587L43.8458 50.4155C43.7176 50.9759 43.245 51.2971 42.7934 51.1333L24.7257 44.5718C24.272 44.408 24.0115 43.8203 24.1396 43.2599L24.4757 41.8032C24.6038 41.2427 24.3434 40.655 23.8897 40.4913L22.7135 40.0631C22.2598 39.8993 21.9993 39.3116 22.1275 38.7512L22.4635 37.2944C22.5916 36.734 22.3312 36.1463 21.8775 35.9826L20.7013 35.5544C20.2476 35.3906 19.9871 34.8029 20.1153 34.2425L25.2655 11.8668C25.3936 11.3064 25.8641 10.9853 26.3178 11.149L27.494 11.5772C27.9477 11.7409 28.4182 11.4198 28.5463 10.8593L28.8824 9.40259C29.0105 8.84215 29.4831 8.521 29.9347 8.68472L31.1109 9.11292C31.5646 9.27664 32.0351 8.9555 32.1632 8.39506L32.4993 6.93833Z" fill="#F6F3EF" stroke="black" stroke-width="0.6" stroke-linecap="round" stroke-linejoin="round"/>
<path d="M67.5722 22.9174C67.7003 22.3569 67.4398 21.7692 66.9862 21.6055L55.6502 21.8028C56.1039 21.9665 56.3644 22.5542 56.2362 23.1147L51.086 45.4903C50.981 45.9458 50.6491 46.2438 50.2858 46.2501L61.6217 46.0528C61.9851 46.0465 62.3169 45.7485 62.422 45.293L67.5722 22.9174Z" fill="#F6F3EF" stroke="black" stroke-width="0.6" stroke-linecap="round" stroke-linejoin="round"/>
<path d="M22.7996 49.2047C22.6169 49.2068 22.4321 49.2824 22.2787 49.4336L21.3146 50.3767C21.1592 50.5279 20.9765 50.6035 20.7916 50.6056L31.8755 50.4166C32.0604 50.4145 32.2431 50.3389 32.3985 50.1877L33.3626 49.2446C33.5159 49.0933 33.7008 49.0198 33.8835 49.0156L22.7996 49.2047Z" fill="#9583FF" stroke="black" stroke-width="0.6" stroke-linecap="round" stroke-linejoin="round"/>
<path d="M26.9694 49.7945C26.7867 49.7966 26.6018 49.8722 26.4485 50.0235L25.4844 50.9686C25.3311 51.1199 25.1462 51.1934 24.9635 51.1976L36.0474 51.0085C36.2301 51.0043 36.415 50.9308 36.5683 50.7796L37.5324 49.8344C37.6857 49.6832 37.8706 49.6097 38.0533 49.6055L26.9694 49.7945Z" fill="#9583FF" stroke="black" stroke-width="0.6" stroke-linecap="round" stroke-linejoin="round"/>
<path d="M37.1146 6.92409L36.3374 5.73316C36.1631 5.4664 35.9047 5.32988 35.6464 5.33408L24.5625 5.52311C24.8209 5.51891 25.0792 5.65544 25.2535 5.92219L26.0307 7.11313C26.205 7.37988 26.4634 7.51851 26.7217 7.51431L37.8056 7.32527C37.5473 7.32947 37.291 7.19294 37.1146 6.92409Z" fill="#F6F3EF" stroke="black" stroke-width="0.6" stroke-linecap="round" stroke-linejoin="round"/>
<path d="M41.274 7.516L40.4968 6.32506C40.3225 6.05831 40.0641 5.91969 39.8079 5.92599L28.724 6.11502C28.9824 6.11082 29.2386 6.24735 29.4129 6.5141L30.1901 7.70504C30.3644 7.97179 30.6228 8.11042 30.879 8.10622L41.9629 7.91718C41.7046 7.92138 41.4483 7.78485 41.274 7.516Z" fill="#F6F3EF" stroke="black" stroke-width="0.6" stroke-linecap="round" stroke-linejoin="round"/>
<path d="M44.4601 37.0717L29.6459 51.5592C29.4926 51.7103 29.3077 51.7838 29.125 51.788L40.2089 51.5991C40.3916 51.597 40.5765 51.5214 40.7298 51.3703L55.544 36.8828L44.4601 37.0717Z" fill="#9583FF" stroke="black" stroke-width="0.6" stroke-linecap="round" stroke-linejoin="round"/>
<path d="M44.3903 27.8079L45.3544 26.8648L56.4383 26.6758L55.4742 27.6189C55.1024 27.9822 55.0457 28.6481 55.3418 29.106L44.2579 29.295C43.9597 28.8392 44.0185 28.1713 44.3903 27.8079Z" fill="#9583FF" stroke="black" stroke-width="0.6" stroke-linecap="round" stroke-linejoin="round"/>
<path d="M55.6788 35.3999L54.9016 34.209L43.8177 34.398L44.5949 35.589C44.8932 36.0468 44.8344 36.7127 44.4626 37.0761L55.5465 36.887C55.9161 36.5257 55.9771 35.8599 55.6788 35.3999Z" fill="#F6F3EF" stroke="black" stroke-width="0.6" stroke-linecap="round" stroke-linejoin="round"/>
<path d="M55.9946 31.7773L44.9107 31.9664L43.9466 32.9095C43.5749 33.2728 43.5182 33.9387 43.8143 34.3966L54.8982 34.2075C54.6 33.7517 54.6588 33.0838 55.0305 32.7204L55.9946 31.7773Z" fill="#9583FF" stroke="black" stroke-width="0.6" stroke-linecap="round" stroke-linejoin="round"/>
<path d="M56.1214 30.2925L55.3443 29.1016L44.2604 29.2906L45.0375 30.4815C45.3358 30.9394 45.277 31.6053 44.9052 31.9686L55.9891 31.7796C56.3609 31.4162 56.4197 30.7504 56.1214 30.2925Z" fill="#F6F3EF" stroke="black" stroke-width="0.6" stroke-linecap="round" stroke-linejoin="round"/>
<path d="M56.5844 25.1867L44.6708 6.91468C44.4965 6.64601 44.2381 6.50957 43.9798 6.51377L32.8959 6.70268C33.1542 6.69848 33.4105 6.83492 33.5869 7.10359L45.5005 25.3756C45.7987 25.8332 45.7399 26.4986 45.3681 26.8617L56.452 26.6728C56.8238 26.3097 56.8826 25.6464 56.5844 25.1888V25.1867Z" fill="#F6F3EF" stroke="black" stroke-width="0.6" stroke-linecap="round" stroke-linejoin="round"/>
<path d="M32.3681 6.93341C32.7399 6.57027 33.2818 6.64794 33.58 7.10552L45.4936 25.3776C45.7918 25.8351 45.733 26.5005 45.3613 26.8637L44.3972 27.8061C44.0254 28.1693 43.9687 28.8346 44.2648 29.2922L45.042 30.4824C45.3403 30.94 45.2814 31.6054 44.9097 31.9685L43.9456 32.911C43.5738 33.2741 43.5171 33.9395 43.8132 34.3971L44.5904 35.5872C44.8887 36.0448 44.8298 36.7102 44.4581 37.0733L29.6438 51.5608C29.2742 51.9218 28.7302 51.8463 28.4319 51.3887L27.6547 50.1985C27.3565 49.743 26.8146 49.6633 26.4428 50.0264L25.4787 50.971C25.109 51.332 24.565 51.2564 24.2668 50.7989L23.4896 49.6087C23.1914 49.1532 22.6495 49.0735 22.2777 49.4366L21.3136 50.3791C20.9418 50.7422 20.3999 50.6666 20.0996 50.209L8.19019 31.9328C7.89194 31.4752 7.95075 30.8098 8.32252 30.4467L9.28661 29.5042C9.65839 29.1411 9.7172 28.4778 9.41894 28.0181L8.64178 26.828C8.34353 26.3704 8.40234 25.705 8.77411 25.3419L9.7382 24.3973C10.11 24.0342 10.1688 23.3709 9.87053 22.9112L9.09337 21.721C8.79511 21.2656 8.85393 20.5981 9.2257 20.2349L24.0399 5.74746C24.4096 5.38642 24.9536 5.46199 25.2519 5.91958L26.029 7.10972C26.3273 7.56731 26.8692 7.64498 27.241 7.28184L28.2051 6.33938C28.5768 5.97625 29.1187 6.05181 29.4191 6.5094L30.1963 7.69955C30.4945 8.15714 31.0364 8.2348 31.4082 7.87167L32.3723 6.92921L32.3681 6.93341Z" fill="#F6F3EF" stroke="black" stroke-width="0.6" stroke-linecap="round" stroke-linejoin="round"/>
<g clip-path="url(#clip0_9937_74520)">
<path d="M31.6884 27.7767L26.1095 33.1005L21.0677 25.46L12.6204 24.0371L22.3151 38.6108L30.717 40.0807L27.0741 34.5604L35.1394 35.9514L42.0262 29.5188L31.6884 27.7767Z" fill="black"/>
<path d="M31.1226 23.9713C32.4255 22.7164 32.6141 20.351 31.5333 18.6895C30.4509 17.023 28.5133 16.7071 27.2137 17.9806C25.9192 19.2489 25.7525 21.6093 26.8299 23.2556C27.9056 24.8986 29.8247 25.2195 31.1209 23.9713H31.1226Z" fill="#9583FF"/>
</g>
<path d="M141.635 116.871L139.84 111.562L125.618 123.606L127.413 128.915C127.682 129.707 127.542 130.393 127.11 130.758L141.333 118.715C141.765 118.35 141.904 117.663 141.635 116.871Z" fill="#9583FF" stroke="#9583FF" stroke-width="0.480001" stroke-miterlimit="10"/>
<path d="M79.744 122.26L93.9664 110.217L139.84 111.561L125.618 123.604L79.744 122.26Z" fill="#9583FF" stroke="#9583FF" stroke-width="0.480001" stroke-miterlimit="10"/>
<path d="M77.9487 116.951L92.1711 104.908L93.9663 110.217L79.7439 122.26L77.9487 116.951Z" fill="#9583FF" stroke="#9583FF" stroke-width="0.480001" stroke-miterlimit="10"/>
<path d="M89.5215 102.668L84.8751 102.533L70.6527 114.576L75.2991 114.711C76.3503 114.74 77.5407 115.748 77.9487 116.952L92.1711 104.909C91.7631 103.704 90.5727 102.701 89.5215 102.668Z" fill="#9583FF" stroke="#9583FF" stroke-width="0.480001" stroke-miterlimit="10"/>
<path d="M57.9904 77.1311L72.2128 65.0879L84.8752 102.533L70.6528 114.576L57.9904 77.1311Z" fill="#9583FF" stroke="#9583FF" stroke-width="0.480001" stroke-miterlimit="10"/>
<path d="M67.5711 64.9538C67.2207 64.9442 66.9231 65.045 66.7071 65.2322L52.4847 77.2754C52.7055 77.0882 52.9983 76.9874 53.3487 76.997L57.9951 77.1314L72.2175 65.0882L67.5711 64.9538Z" fill="white" stroke="#9583FF" stroke-width="0.480001" stroke-miterlimit="10"/>
<path d="M78.0352 63.1057L76.24 57.7969L62.0176 69.8401L63.8128 75.1489C64.0816 75.9409 63.9424 76.6273 63.5104 76.9921L77.7328 64.9489C78.1648 64.5841 78.304 63.8977 78.0352 63.1057Z" fill="#9583FF" stroke="#9583FF" stroke-width="0.480001" stroke-miterlimit="10"/>
<path d="M71.5936 57.6569C71.2384 57.6473 70.9408 57.7481 70.72 57.9353L56.4976 69.9785C56.7184 69.7913 57.0112 69.6905 57.3712 69.7001L62.0176 69.8345L76.24 57.7913L71.5936 57.6569Z" fill="white" stroke="#9583FF" stroke-width="0.480001" stroke-miterlimit="10"/>
<path d="M73.6337 85.01L87.8561 72.9668L95.4545 95.4309L81.2321 107.474L73.6337 85.01Z" fill="#9583FF" stroke="#9583FF" stroke-width="0.480001" stroke-miterlimit="10"/>
<path d="M83.2096 72.8307C82.8544 72.8211 82.5616 72.9219 82.3456 73.1091L68.1232 85.1524C68.344 84.9652 68.6368 84.8643 68.9872 84.8739L73.6336 85.0084L87.856 72.9651L83.2096 72.8307Z" fill="white" stroke="#9583FF" stroke-width="0.480001" stroke-miterlimit="10"/>
<path d="M81.2319 107.471L95.4543 95.4277L115.11 96.0037L100.888 108.047L81.2319 107.471Z" fill="white" stroke="#9583FF" stroke-width="0.480001" stroke-miterlimit="10"/>
<path d="M116.906 101.315L115.11 96.0059L100.888 108.049L102.683 113.358C102.952 114.15 102.813 114.836 102.381 115.201L116.603 103.158C117.035 102.793 117.174 102.107 116.906 101.315Z" fill="white" stroke="#9583FF" stroke-width="0.480001" stroke-miterlimit="10"/>
<path d="M98.0513 80.4671L112.274 68.4238L121.667 96.1967L107.445 108.24L98.0513 80.4671Z" fill="#9583FF" stroke="#9583FF" stroke-width="0.480001" stroke-miterlimit="10"/>
<path d="M109.634 66.1817L87.2367 65.5241C86.8815 65.5145 86.5839 65.6153 86.3679 65.8025L72.1455 77.8457C72.3663 77.6585 72.6591 77.5577 73.0143 77.5673L95.4111 78.2249C96.4575 78.2537 97.6479 79.2617 98.0559 80.4665L112.278 68.4233C111.87 67.2185 110.906 66.2201 109.634 66.1817Z" fill="#9583FF" stroke="#9583FF" stroke-width="0.480001" stroke-miterlimit="10"/>
<path d="M99.5392 65.68L113.762 53.6367L115.557 58.9455L101.334 70.9888L99.5392 65.68Z" fill="#9583FF" stroke="#9583FF" stroke-width="0.480001" stroke-miterlimit="10"/>
<path d="M111.117 51.4036L75.6112 50.362C75.256 50.3524 74.9632 50.4532 74.7472 50.6404L60.5248 62.6836C60.7456 62.4964 61.0384 62.3956 61.3888 62.4052L96.8944 63.4468C97.9408 63.4756 99.1312 64.4836 99.5344 65.6788L113.757 53.6356C113.354 52.4404 112.163 51.4324 111.117 51.4036Z" fill="white" stroke="#9583FF" stroke-width="0.480001" stroke-miterlimit="10"/>
<path d="M108.625 73.3596L122.848 61.3164L124.643 66.6252L110.421 78.6685L108.625 73.3596Z" fill="#9583FF" stroke="#9583FF" stroke-width="0.480001" stroke-miterlimit="10"/>
<path d="M120.203 59.0836L115.557 58.9492L101.334 70.9925L105.981 71.1269C107.032 71.1557 108.222 72.1637 108.63 73.3589L122.853 61.3156C122.45 60.1204 121.259 59.1124 120.203 59.0836Z" fill="white" stroke="#9583FF" stroke-width="0.480001" stroke-miterlimit="10"/>
<path d="M130.014 101.697L128.219 96.3887L113.997 108.432L115.792 113.741C116.061 114.533 115.922 115.219 115.49 115.584L129.712 103.541C130.144 103.176 130.283 102.489 130.014 101.697Z" fill="#9583FF" stroke="#9583FF" stroke-width="0.480001" stroke-miterlimit="10"/>
<path d="M107.445 108.241L121.667 96.1973L128.219 96.3893L113.997 108.432L107.445 108.241Z" fill="white" stroke="#9583FF" stroke-width="0.480001" stroke-miterlimit="10"/>
<path d="M134.037 94.4065L132.242 89.0977L118.019 101.141L119.814 106.45C120.083 107.242 119.944 107.928 119.512 108.293L133.734 96.2497C134.166 95.8849 134.306 95.1985 134.037 94.4065Z" fill="#9583FF" stroke="#9583FF" stroke-width="0.480001" stroke-miterlimit="10"/>
<path d="M127.6 88.9596C127.245 88.95 126.947 89.0508 126.726 89.238L112.504 101.281C112.725 101.094 113.018 100.993 113.378 101.003L118.024 101.137L132.246 89.094L127.6 88.9596Z" fill="white" stroke="#9583FF" stroke-width="0.480001" stroke-miterlimit="10"/>
<path d="M138.054 87.1017L131.934 68.9961L117.712 81.0393L123.832 99.145C124.101 99.9418 123.962 100.633 123.53 100.998L137.752 88.9545C138.184 88.5897 138.323 87.9034 138.054 87.1017Z" fill="#9583FF" stroke="#9583FF" stroke-width="0.480001" stroke-miterlimit="10"/>
<path d="M129.29 66.7574L124.643 66.623L110.421 78.6663L115.067 78.8007C116.114 78.8295 117.304 79.8375 117.712 81.0423L131.934 68.9991C131.526 67.7943 130.336 66.791 129.29 66.7574Z" fill="white" stroke="#9583FF" stroke-width="0.480001" stroke-miterlimit="10"/>
<path d="M145.653 109.575L144.592 106.445L130.37 118.489L131.43 121.618C131.699 122.41 131.56 123.097 131.128 123.461L145.35 111.418C145.782 111.053 145.922 110.367 145.653 109.575Z" fill="#9583FF" stroke="#9583FF" stroke-width="0.480001" stroke-miterlimit="10"/>
<path d="M125.617 123.606L127.413 128.915C127.816 130.11 127.293 131.065 126.237 131.036L84.1791 129.803C83.1327 129.774 81.9423 128.766 81.5391 127.571L79.7439 122.262L125.617 123.606Z" fill="white" stroke="#9583FF" stroke-width="0.480001" stroke-miterlimit="10"/>
<path d="M75.2991 114.712C76.3503 114.74 77.5407 115.748 77.9487 116.953L79.7439 122.262L75.0975 122.128C74.0463 122.099 72.8559 121.091 72.4527 119.896L70.6575 114.582L75.3039 114.716L75.2991 114.712Z" fill="white" stroke="#9583FF" stroke-width="0.480001" stroke-miterlimit="10"/>
<path d="M57.9903 77.1324L70.6527 114.577L66.0063 114.443C64.9599 114.414 63.7695 113.406 63.3663 112.211L52.1775 79.1292C51.7695 77.9244 52.2975 76.9692 53.3439 77.0028L57.9903 77.1372V77.1324Z" fill="white" stroke="#9583FF" stroke-width="0.480001" stroke-miterlimit="10"/>
<path d="M62.0175 69.8343L63.8127 75.1431C64.2159 76.3383 63.6927 77.2935 62.6367 77.2647L57.9903 77.1303L56.1951 71.8215C55.7919 70.6263 56.3151 69.6711 57.3711 69.6999L62.0175 69.8343Z" fill="white" stroke="#9583FF" stroke-width="0.480001" stroke-miterlimit="10"/>
<path d="M73.6335 85.0081L81.2319 107.472L76.5855 107.338C75.5391 107.309 74.3487 106.301 73.9455 105.106L67.8207 86.9953C67.4175 85.8001 67.9407 84.8449 68.9919 84.8737L73.6383 85.0081H73.6335Z" fill="white" stroke="#9583FF" stroke-width="0.480001" stroke-miterlimit="10"/>
<path d="M100.888 108.049L102.683 113.357C103.086 114.553 102.563 115.508 101.512 115.479L85.6719 115.013C84.6207 114.985 83.4303 113.977 83.0271 112.781L81.2319 107.473L100.888 108.049Z" fill="white" stroke="#9583FF" stroke-width="0.480001" stroke-miterlimit="10"/>
<path d="M95.4063 78.2259C96.4527 78.2547 97.6431 79.2627 98.0511 80.4675L107.445 108.24L100.888 108.048L93.2895 85.5844L73.6335 85.0084L71.8383 79.6995C71.4303 78.4947 71.9583 77.5395 73.0095 77.5731L95.4063 78.2307V78.2259Z" fill="white" stroke="#9583FF" stroke-width="0.480001" stroke-miterlimit="10"/>
<path d="M96.8943 63.4465C97.9407 63.4753 99.1311 64.4833 99.5343 65.6785L101.329 70.9874L62.0127 69.8354L60.2175 64.5265C59.8143 63.3313 60.3375 62.3761 61.3887 62.4049L96.8943 63.4465Z" fill="white" stroke="#9583FF" stroke-width="0.480001" stroke-miterlimit="10"/>
<path d="M105.981 71.1207C107.032 71.1495 108.222 72.1575 108.63 73.3527L110.426 78.6616L105.779 78.5272C104.728 78.4984 103.538 77.4903 103.134 76.2951L101.339 70.9863L105.986 71.1207H105.981Z" fill="white" stroke="#9583FF" stroke-width="0.480001" stroke-miterlimit="10"/>
<path d="M113.997 108.432L115.792 113.741C116.195 114.936 115.672 115.891 114.621 115.863L111.88 115.781C110.834 115.752 109.643 114.744 109.24 113.549L107.445 108.24L113.997 108.432Z" fill="white" stroke="#9583FF" stroke-width="0.480001" stroke-miterlimit="10"/>
<path d="M118.019 101.137L119.814 106.446C120.218 107.641 119.694 108.596 118.638 108.567L113.992 108.433L112.197 103.124C111.794 101.929 112.317 100.974 113.373 101.003L118.019 101.137Z" fill="white" stroke="#9583FF" stroke-width="0.480001" stroke-miterlimit="10"/>
<path d="M115.067 78.8024C116.113 78.8312 117.304 79.8392 117.712 81.044L123.832 99.1496C124.24 100.354 123.712 101.31 122.665 101.276L118.019 101.142L110.421 78.668L115.067 78.8024Z" fill="white" stroke="#9583FF" stroke-width="0.480001" stroke-miterlimit="10"/>
<path d="M127.73 116.246C128.776 116.274 129.966 117.282 130.374 118.487L131.435 121.617C131.838 122.812 131.315 123.767 130.264 123.738L125.618 123.604L123.822 118.295C123.414 117.09 123.942 116.135 124.989 116.169L127.73 116.25V116.246Z" fill="white" stroke="#9583FF" stroke-width="0.480001" stroke-miterlimit="10"/>
<path d="M141.952 104.203L139.211 104.122C138.861 104.112 138.563 104.213 138.347 104.4L124.125 116.443C124.346 116.256 124.638 116.155 124.989 116.165L127.73 116.247C128.776 116.275 129.966 117.283 130.374 118.488L144.597 106.445C144.189 105.24 142.998 104.237 141.952 104.203Z" fill="white" stroke="#9583FF" stroke-width="0.480001" stroke-miterlimit="10"/>
<path d="M45.4754 43.928C45.4334 43.7538 45.2528 43.6426 44.9587 43.6426H40.6276C40.1172 43.6426 39.4535 43.9784 39.1532 44.3898C39.025 44.5641 38.983 44.7236 39.0145 44.8516L40.2055 49.7109L46.6684 48.7894L45.4775 43.9301L45.4754 43.928Z" fill="#F6F3EF" stroke="black" stroke-width="0.6" stroke-miterlimit="10"/>
<path d="M46.1407 48.502C46.6511 48.502 46.8212 48.838 46.5208 49.2497C46.2205 49.6614 45.5568 49.9975 45.0464 49.9975H40.7153C40.2049 49.9975 40.0348 49.6614 40.3351 49.2497C40.6355 48.838 41.2992 48.502 41.8096 48.502H46.1407Z" fill="#F6F3EF" stroke="black" stroke-width="0.6" stroke-miterlimit="10"/>
<path d="M74.0084 93.6397C75.4283 93.6397 76.5793 92.0449 76.5793 90.0777C76.5793 88.1104 75.4283 86.5156 74.0084 86.5156C72.5885 86.5156 71.4375 88.1104 71.4375 90.0777C71.4375 92.0449 72.5885 93.6397 74.0084 93.6397Z" stroke="#9583FF" stroke-width="0.6" stroke-miterlimit="10"/>
<path d="M74.0138 87.8047H70.6615V92.3575H74.0138C74.9211 92.3575 75.6563 91.3395 75.6563 90.0821C75.6563 88.8248 74.9211 87.8068 74.0138 87.8068V87.8047Z" fill="#F6F3EF" stroke="black" stroke-width="0.6" stroke-miterlimit="10"/>
<path d="M70.6582 92.3554C71.5653 92.3554 72.3007 91.3367 72.3007 90.08C72.3007 88.8234 71.5653 87.8047 70.6582 87.8047C69.751 87.8047 69.0156 88.8234 69.0156 90.08C69.0156 91.3367 69.751 92.3554 70.6582 92.3554Z" fill="#F6F3EF" stroke="black" stroke-width="0.6" stroke-miterlimit="10"/>
<path d="M12.8037 120.498C15.0995 115.212 22.5782 107.905 27.2327 103.417C33.7608 97.1243 46.6669 85.8732 45.3286 76.6246L42.5182 50.2869C42.3544 49.6824 42.7114 49.061 43.3164 48.8952C43.9213 48.7315 44.543 49.0883 44.7089 49.6929L47.5193 76.0306C49.3336 86.6654 35.9549 98.1595 28.8101 105.048C24.1094 109.58 17.0025 116.529 14.8873 121.4C7.64954 138.074 21.7377 159.758 41.3022 154.053C45.2026 152.913 48.3365 150.306 50.3634 146.513C52.636 142.261 53.3628 136.69 52.4659 130.405L49.2375 107.78C48.5591 103.032 50.0315 98.3321 53.3838 94.5434C56.5827 90.9289 61.0692 88.7333 65.0852 88.8046L70.5589 88.9537C71.1848 88.9663 71.5083 89.4826 71.4956 90.1081C71.483 90.7274 71.1554 91.2206 70.5379 91.2206C70.5316 91.2206 70.5232 91.2206 70.5169 91.2206L65.0432 91.0716C61.6699 91.0086 57.8555 92.9145 55.0851 96.0442C52.1823 99.3271 50.9032 103.38 51.485 107.459L54.7133 130.084C55.6795 136.849 54.8667 142.901 52.3672 147.582C50.0798 151.864 46.3768 154.934 41.9407 156.23C18.6667 162.665 5.48705 137.336 12.8037 120.498Z" fill="black"/>
<path d="M69.3423 91.1825L65.0323 91.0649C64.7781 91.0586 64.524 91.0649 64.2656 91.0838" stroke="#9583FF" stroke-width="0.6" stroke-miterlimit="10"/>
<path d="M65.0834 88.7988L69.3199 88.9143" stroke="#9583FF" stroke-width="0.6" stroke-miterlimit="10"/>
<path d="M42.341 49.7005C42.2696 49.4002 42.7065 49.041 43.3177 48.8961C43.9268 48.7511 44.4792 48.8772 44.5507 49.1775L44.7082 49.6942L42.5196 50.2886L42.341 49.7005Z" fill="black"/>
<defs>
<clipPath id="clip0_9937_74520">
<rect width="29.4058" height="22.8794" fill="white" transform="translate(12.6198 17.2012)"/>
</clipPath>
</defs>
</svg>
