<svg width="36" height="36" viewBox="0 0 36 36" fill="none" xmlns="http://www.w3.org/2000/svg">
<g clip-path="url(#clip0_9062_21217)">
<path d="M31.7571 30.3494L32.9091 29.111C32.8657 29 32.8205 28.8891 32.7736 28.7775L27.134 29.091C26.7879 29.1104 26.463 28.9228 26.3063 28.6134L24.4483 24.9381L23.9673 25.5502L24.831 24.4519C25.1376 24.0623 25.3315 23.5961 25.3922 23.1042L25.9585 18.5137C26.0248 17.9783 25.9385 17.4349 25.7097 16.9464L24.9374 15.2972L25.0896 13.4902L23.1876 9.53349L18.6045 8.16406L11.1465 12.1585V20.0908L11.9548 26.6599L13.2635 27.5929L14.7119 32.7251C15.0957 34.0854 14.6867 35.5463 13.6525 36.5096L12.5131 37.5707C13.5616 38.1805 14.6187 38.7153 15.6723 39.1741L31.7565 33.292V30.35L31.7571 30.3494Z" fill="white"/>
<path d="M23.6341 13.2591C23.3149 13.1424 22.9568 13.2425 22.744 13.5074L22.3911 13.9478C22.2286 14.1503 22.2018 14.43 22.3236 14.66L22.5621 15.1113L23.4625 14.5696C23.7622 14.3894 24.1306 14.3654 24.4515 14.5056L24.7679 14.644L24.2393 13.4811L23.6341 13.2603V13.2591Z" fill="#9583FF"/>
<path d="M26.9516 31.4802L26.2183 34.5091L28.0951 33.6996C28.5527 33.5023 29.0669 33.4771 29.5417 33.6298L30.2287 33.8506L31.7572 33.2924V31.1627L28.1534 30.6628C27.602 30.5861 27.0826 30.9402 26.9516 31.4813V31.4802Z" fill="#9583FF"/>
<path d="M27.0159 12.0063L26.774 11.8599C26.663 11.7924 26.6235 11.6505 26.6842 11.5356L26.9118 11.1054C27.1835 10.5917 27.1172 9.96479 26.7436 9.51976L25.718 8.29675C25.6511 8.21666 25.5412 8.18808 25.4434 8.22468L25.067 8.36599C24.9955 8.39287 24.916 8.38486 24.8514 8.34482C24.7867 8.30477 24.7444 8.2367 24.7364 8.1612L24.6586 7.40896C24.6443 7.27053 24.578 7.14243 24.4739 7.05033L22.6125 5.41146C22.2738 5.11343 21.8385 4.94926 21.3878 4.94926H21.2122C21.0823 4.55971 20.7105 4.30345 20.3004 4.32118L18.7136 4.38813C18.2891 4.40586 17.9007 4.63179 17.6748 4.99216L17.2549 5.66203C17.1845 5.77414 17.0593 5.83878 16.9277 5.83134L15.5428 5.75297C15.2951 5.73867 15.0681 5.89024 14.9863 6.1242C14.917 6.32098 14.7683 6.47943 14.5761 6.56009L12.8429 7.29001C12.5431 7.41642 12.3481 7.70986 12.3481 8.03534V8.52556C12.3481 8.52556 11.2338 8.40145 10.5473 9.02038L8.1826 11.1517C7.80392 11.4927 7.57282 11.968 7.53678 12.476L7.5139 12.8009L6.39273 13.7378C6.12445 13.9621 6.04151 14.339 6.19081 14.6554L6.7554 15.8498L6.31093 19.2951C6.28176 19.5193 6.37615 19.7418 6.5569 19.8768L6.72565 20.0032C6.8658 20.1085 6.95618 20.2675 6.97391 20.4414L7.01738 20.871C7.0437 21.1301 7.2073 21.3549 7.44583 21.4596L8.01156 21.7085C8.01156 21.9556 8.1437 22.1838 8.35764 22.3079L9.21682 22.8039L9.68588 24.9232L9.47709 25.7955C9.40559 26.0947 9.48567 26.4099 9.69217 26.6381L10.0171 26.9979C10.3551 27.3726 10.8362 27.586 11.3407 27.586L13.2193 29.7282C13.3789 29.9101 13.7049 30.0262 13.9435 29.9868L13.1129 27.0437L12.5014 26.5844L12.8183 25.0371L11.9305 23.8072L11.6136 20.9156L12.5654 21.0517C12.8005 21.0855 13.0362 20.9923 13.1849 20.8075C13.328 20.6302 13.3709 20.3922 13.2999 20.1754L12.2977 17.1237L12.9058 15.907C13.0974 15.5237 13.1907 15.0987 13.1769 14.6703L13.1472 13.7253L14.4783 13.4124C14.9537 13.3008 15.326 12.9324 15.4433 12.4588L15.8992 10.6186L16.3391 10.7673C16.6062 10.8577 16.9002 10.8228 17.1388 10.6724L19.1329 9.41393L23.6364 10.4607L25.0934 13.4907L24.9412 15.2978L25.321 16.1095L26.3386 15.0146L26.1968 14.6445L26.7837 14.5358L26.9736 14.3316C27.223 14.0628 27.362 13.7098 27.362 13.3432V12.6196C27.362 12.369 27.231 12.1368 27.0171 12.0069L27.0159 12.0063Z" fill="white"/>
<path d="M24.936 15.298L25.2552 15.9787L25.7352 15.1127L24.9824 14.75L24.936 15.298Z" fill="#9583FF"/>
<path d="M26.4331 12.1838L26.1111 11.9893C26.0047 11.9246 25.9663 11.7885 26.0247 11.6781L26.2535 11.2434C26.4017 10.9613 26.3936 10.6227 26.2318 10.3487L25.9028 9.79215C25.67 9.39802 25.193 9.2207 24.7594 9.36771L23.0244 9.95404C22.8843 10.0015 22.7744 10.1113 22.7275 10.2521L23.0622 10.3298C23.4203 10.4128 23.7206 10.6542 23.8802 10.9854L25.0854 13.492L25.0036 14.465L25.5041 14.0903L26.1889 14.6458L26.7403 13.9101V12.7272C26.7403 12.5053 26.6242 12.2993 26.4343 12.1843L26.4331 12.1838Z" fill="#9583FF"/>
<path d="M24.0229 10.244L23.7837 9.72745C23.6264 9.38824 23.7712 8.98554 24.1087 8.82366L25.0616 8.36719" stroke="#0F0F0F" stroke-width="0.0572024" stroke-linecap="round" stroke-linejoin="round"/>
<path d="M22.7149 8.23724L22.3768 8.32933C22.2121 8.37395 22.0708 8.47977 21.9816 8.62506L21.5754 9.28633L21.3998 8.93454C21.2803 8.69543 21.342 8.40483 21.5491 8.23551L21.7081 8.1051C21.9512 7.90604 22.1034 7.61659 22.1303 7.30312C22.1572 6.98965 22.0559 6.67904 21.85 6.44165L21.1327 5.61451C20.663 5.07337 19.9108 4.87315 19.2347 5.10996L17.5884 5.68601C17.3127 5.78268 17.1148 6.02694 17.0787 6.31753L17.0753 6.34498C17.0364 6.6596 16.8122 6.92044 16.5067 7.00625L13.8108 7.76418C13.574 7.83053 13.3634 7.96781 13.2061 8.15658L12.3315 9.21024L10.5525 9.75881C10.1979 9.86806 9.87067 10.05 9.59037 10.2931L8.98403 10.8193C8.81071 10.9698 8.71117 11.1877 8.71117 11.4171V12.0549C8.71117 12.4216 8.54529 12.7688 8.25927 12.9988L6.19141 14.6639L6.75199 15.8497L6.31439 19.239C6.28121 19.4975 6.38933 19.7544 6.59812 19.9105L6.68506 19.9758C6.84866 20.0982 6.95277 20.2841 6.97165 20.4871L7.01112 20.9098C7.04315 21.2508 7.23192 21.5574 7.52136 21.7399L9.21169 22.8038L9.68075 24.9232L9.47197 25.7961C9.40046 26.0953 9.48055 26.4104 9.68705 26.6387L10.012 26.9985C10.35 27.3732 10.8311 27.5865 11.3356 27.5865L13.2141 29.7288C13.3943 29.9347 13.6683 30.0319 13.9383 29.9873L13.1078 27.0442L12.4963 26.5849L12.8132 25.0376L11.9254 23.8077L11.6085 20.9162L12.9401 21.1066L13.4092 20.5232L12.2932 17.1248L13.1936 15.324L13.1426 13.7264L15.2477 13.2316L15.8947 10.6191L16.7573 10.9109L19.1289 9.41445L21.9707 10.0752L22.1852 9.84575L23.0987 8.85558C23.2148 8.72973 23.2303 8.54041 23.1365 8.3974C23.0455 8.25897 22.8762 8.19492 22.7166 8.23839L22.7149 8.23724Z" fill="#9583FF"/>
<path d="M11.4343 26.1919C11.2776 26.4424 11.2964 26.7645 11.4824 26.9944L11.6248 27.1712L12.4302 28.0893C12.7082 28.4062 13.1424 28.5378 13.5496 28.4285L14.2916 28.2294L14.3167 27.7037L12.8043 24.0039L11.4343 26.1913V26.1919Z" stroke="#0F0F0F" stroke-width="0.0572024" stroke-linecap="round" stroke-linejoin="round"/>
<path d="M15.6238 37.2707L15.9956 35.1925L16.9847 37.0059C17.2306 37.4566 17.6282 37.805 18.107 37.9892C18.107 37.9892 18.0446 36.133 17.0453 34.5319L14.9013 31.0968C14.1114 29.8315 14.6279 28.4827 14.6279 28.4827L18.7694 34.3162C19.072 34.7429 19.5502 35.0118 20.0719 35.0484C20.1594 35.0547 20.2435 35.0135 20.2921 34.9409C20.3413 34.8682 20.3476 34.775 20.3087 34.696L16.7118 27.369C16.6523 27.2483 16.6695 27.1035 16.7559 27C16.8422 26.8965 16.9812 26.8536 17.1105 26.8896L19.7361 27.6275C20.5226 27.8489 21.3664 27.6006 21.9086 26.9891L23.5103 25.1816C23.714 24.9516 23.8061 24.6439 23.7626 24.3395L23.6968 23.8808C23.6613 23.6319 23.4503 23.446 23.1991 23.4414L22.4961 23.4294C22.2902 23.426 22.0877 23.4861 21.9172 23.601L21.4156 23.9403C21.1164 24.1428 20.7251 24.1473 20.4208 23.9523L19.1978 23.1686C18.6607 22.8242 18.2517 22.3123 18.0349 21.7122L17.154 19.2737C16.916 18.6147 16.5465 18.0112 16.0677 17.5004L15.0901 16.4559C14.835 16.1836 14.7841 15.778 14.9631 15.4503L15.4694 14.527L16.622 13.5923L17.6539 13.2806C18.1058 13.1439 18.3958 13.2285 18.3958 13.2285L18.0795 13.7125L18.7242 13.7548L19.5473 15.0762C19.6434 15.23 19.7899 15.3456 19.9626 15.4022L20.4162 15.5521L20.6262 17.4724C20.6342 17.5473 20.6765 17.6142 20.7406 17.6543C20.8046 17.6943 20.8836 17.7023 20.9539 17.676L21.1273 17.6125C21.3252 17.5399 21.5471 17.5811 21.7061 17.7201L22.0671 18.0353L21.0546 18.3922C20.6079 18.5495 20.3299 19.4259 21.2588 19.6999L22.2633 19.9961C22.7272 20.1163 22.956 19.824 22.8811 19.5917L22.8365 19.4533C22.7592 19.2148 22.9675 19.0249 23.1722 19.0386L23.635 19.0689L23.7591 18.9013C23.8507 18.7778 23.869 18.6141 23.8072 18.4728L23.7019 18.2343C23.7763 18.1108 23.8198 17.9735 23.8278 17.8265L23.1705 17.8093C22.9526 17.8036 22.749 17.7006 22.6151 17.5284L22.3983 17.2493L21.2537 14.2834L21.1433 13.6827C21.0649 13.2566 20.7223 12.9288 20.2927 12.8699L19.0588 12.7011C18.7293 12.6559 18.3947 12.6565 18.0652 12.7028L17.194 12.8247C16.8165 12.8773 16.4407 12.7171 16.2176 12.4082L16.0997 12.2447C16.0059 12.1148 15.979 11.9489 16.0271 11.7962C16.0751 11.6435 16.1924 11.5228 16.3429 11.4701L21.332 9.72831L21.308 8.97152L18.6006 8.16211L11.1426 12.1566V20.0888L11.817 24.3824L12.5412 26.6311C12.6087 26.8404 12.7425 27.0223 12.9227 27.1487L13.1876 27.3346L14.7086 32.7231C15.0924 34.0834 14.6834 35.5444 13.6492 36.5076L12.5097 37.5687C13.2333 37.9897 13.9609 38.3753 14.6886 38.7242C15.1788 38.3839 15.5157 37.8616 15.6215 37.2701L15.6238 37.2707Z" fill="#9583FF"/>
<path d="M16.1814 27.478C16.0087 27.1502 16.0579 26.6468 16.2913 26.3591L16.6922 25.8643C15.5791 25.9118 14.3767 25.3386 13.7972 24.4125L13.5364 23.9961C13.426 24.2638 13.4494 24.6899 13.589 24.9433L15.5539 28.5168C15.6609 28.7107 15.9252 28.9081 16.1414 28.955L16.5864 29.0511C16.8501 29.1083 16.9628 28.9595 16.837 28.721L16.1809 27.478H16.1814Z" fill="#0F0F0F"/>
<path d="M23.9683 25.5489L24.832 24.4506C25.1386 24.061 25.3325 23.5948 25.3932 23.1023L25.9595 18.5118C26.0258 17.9764 25.9395 17.433 25.7106 16.9445L24.9384 15.2953L25.0906 13.4883" stroke="#0F0F0F" stroke-width="0.0572024" stroke-linecap="round" stroke-linejoin="round"/>
<path d="M24.9402 15.298L25.2594 15.9787L25.7393 15.1127L24.9865 14.75L24.9402 15.298Z" fill="#9583FF"/>
<path d="M23.3686 20.1915C23.2164 20.1452 23.0517 20.1624 22.9127 20.2396C22.4733 20.4833 22.3395 19.985 21.6576 20.3271L20.2791 21.0192C20.3837 21.2635 20.5536 21.2612 20.8202 21.1886L21.6954 20.95C21.8264 20.9186 21.9637 20.9209 22.0935 20.9581L22.3881 21.0416C22.5826 21.0965 22.7902 21.0747 22.9687 20.9803C23.1146 20.9037 23.2885 20.9031 23.4349 20.9792C23.5613 21.045 23.7163 21.0073 23.7987 20.8911L23.8359 20.8391L23.7324 20.5427C23.674 20.3746 23.5384 20.2442 23.368 20.1921L23.3686 20.1915Z" fill="#9583FF"/>
<path d="M11.1378 16.4402C11.0405 16.1593 10.7762 15.9706 10.4788 15.9706H9.82781C9.4314 15.9706 9.07045 15.7933 8.82792 15.5078L7.5666 17.2834C7.41788 17.4933 7.43675 17.7787 7.61179 17.9669L7.84632 18.2186C7.97331 18.3548 8.02136 18.547 7.97388 18.7272L7.46593 20.644C7.399 20.8963 7.49453 21.164 7.70618 21.3173L8.6912 22.03C8.78788 22.0998 8.91544 22.1084 9.02012 22.0512C9.1248 21.9946 9.13509 21.8733 9.182 21.764L10.1024 19.6115L11.1847 18.3988L11.4358 18.19C11.5788 18.0716 11.6331 17.8766 11.5725 17.7009L11.1378 16.4408V16.4402Z" stroke="#0F0F0F" stroke-width="0.0572024" stroke-linecap="round" stroke-linejoin="round"/>
<path d="M11.1867 18.3973L11.4378 18.1885C11.5808 18.0696 11.6351 17.8751 11.5745 17.6995L11.1397 16.4393C11.0425 16.1584 10.7782 15.9697 10.4808 15.9697H9.82981C9.4334 15.9697 9.07245 15.7923 8.82991 15.5069C8.68462 15.3353 8.58165 15.1253 8.53933 14.8914L8.46553 14.4807C8.31052 13.6192 8.81161 12.7749 9.64162 12.498L10.5317 12.2012" stroke="#0F0F0F" stroke-width="0.0572024" stroke-linecap="round" stroke-linejoin="round"/>
<path d="M18.5613 25.3912L17.3618 25.7521C17.1456 25.8173 16.9196 25.8534 16.6897 25.8631C15.5765 25.9106 14.3741 25.3374 13.7947 24.4113L13.5338 23.9949L12.9292 23.0293" stroke="#0F0F0F" stroke-width="0.0572024" stroke-linecap="round" stroke-linejoin="round"/>
<path d="M19.1582 25.2111L19.5603 25.0898" stroke="#0F0F0F" stroke-width="0.0572024" stroke-linecap="round" stroke-linejoin="round"/>
<path d="M10.2199 21.9297L10.1466 22.246C10.098 22.4577 10.185 22.6767 10.3651 22.7974L11.7106 23.6972C12.0126 23.8992 12.2357 24.1989 12.3426 24.5461L12.8912 26.3268" stroke="#0F0F0F" stroke-width="0.0572024" stroke-linecap="round" stroke-linejoin="round"/>
<path d="M23.6426 19.0696L23.7667 18.902C23.8582 18.7785 23.8765 18.6148 23.8148 18.4736L23.7095 18.235C23.8748 17.9593 23.8891 17.6161 23.6946 17.2477L22.9562 15.8503L22.3275 14.6604C22.2062 14.4311 22.2325 14.1514 22.395 13.9483L22.7479 13.5078" stroke="#0F0F0F" stroke-width="0.0572024" stroke-linecap="round" stroke-linejoin="round"/>
<path d="M20.4873 18.8737L20.4329 18.5059C20.394 18.2422 20.481 17.9756 20.668 17.7852" stroke="#0F0F0F" stroke-width="0.0572024" stroke-linecap="round" stroke-linejoin="round"/>
<path d="M21.9718 18.3653L21.2305 18.4929C20.9759 18.537 20.7563 18.8613 21.104 19.0266L22.386 18.5415C22.2944 18.4065 22.1325 18.3379 21.9718 18.3653Z" fill="#0F0F0F"/>
<path d="M19.0655 15.3167C19.0655 15.3167 18.9339 14.6451 18.2349 14.6445C17.5754 14.644 16.8495 15.1965 16.4308 15.5747C16.3678 15.6313 16.3461 15.7199 16.3747 15.7994C16.4039 15.879 16.4777 15.9327 16.5623 15.9356L17.568 15.9693C18.2109 15.9911 18.8499 15.8624 19.4345 15.5947L19.4373 15.5935" stroke="#0F0F0F" stroke-width="0.0572024" stroke-linecap="round" stroke-linejoin="round"/>
<path d="M22.8161 15.5921L22.6365 15.2518C22.6365 15.2518 23.4888 14.5075 24.1066 14.9068C24.7249 15.3061 24.5053 15.9925 24.5053 15.9925L23.7754 15.9336" stroke="#0F0F0F" stroke-width="0.0572024" stroke-linecap="round" stroke-linejoin="round"/>
<path d="M19.0608 15.3164C19.0785 15.4234 19.0676 15.5269 19.0259 15.615" stroke="#0F0F0F" stroke-width="0.0572024" stroke-linecap="round" stroke-linejoin="round"/>
<path d="M18.6812 15.8433C18.5845 15.8605 18.477 15.8508 18.3706 15.8147C18.2642 15.7787 18.1578 15.7164 18.064 15.6294C17.8031 15.3874 17.727 15.0385 17.8786 14.8223" stroke="#0F0F0F" stroke-width="0.0572024" stroke-linecap="round" stroke-linejoin="round"/>
<path d="M24.2269 15.9677C24.0845 15.9111 23.9329 15.7846 23.8145 15.6079C23.6411 15.3499 23.5925 15.0656 23.68 14.9043" stroke="#0F0F0F" stroke-width="0.0572024" stroke-linecap="round" stroke-linejoin="round"/>
<path d="M21.8977 21.6146L20.8446 21.6078C20.7737 21.6078 20.7056 21.637 20.6581 21.6902C20.6106 21.7428 20.5872 21.8131 20.5946 21.884L20.6347 22.2604C20.6627 22.5224 20.9418 22.6683 21.3177 22.5596L22.4886 22.2204C22.6734 22.1666 22.8707 22.1735 23.0509 22.2399L23.4427 22.3829L23.7779 21.4785L23.0171 21.4539C22.5813 21.4402 22.2895 21.6169 21.8977 21.6146Z" fill="#9583FF"/>
<path d="M13.2104 8.15742C13.2104 8.15742 14.9099 7.33943 15.3916 9.66013" stroke="#0F0F0F" stroke-width="0.0572024" stroke-linecap="round" stroke-linejoin="round"/>
<path d="M23.7051 18.2344L23.1948 18.8476" stroke="#0F0F0F" stroke-width="0.0572024" stroke-linecap="round" stroke-linejoin="round"/>
<path d="M21.4508 33.344L21.3753 35.4457C21.3679 35.6493 21.4983 35.8318 21.6928 35.8918L23.2401 32.3281L22.2059 32.4917C21.7826 32.5586 21.4663 32.9156 21.4514 33.344H21.4508Z" fill="#9583FF"/>
<path d="M23.497 18.4902L23.3025 18.7248L23.6039 18.901L23.6268 18.8563C23.6766 18.7602 23.6566 18.6424 23.5782 18.568L23.4976 18.4908L23.497 18.4902Z" fill="#0F0F0F"/>
<path d="M27.0159 12.0063L26.774 11.8599C26.663 11.7924 26.6235 11.6505 26.6842 11.5356L26.9118 11.1054C27.1835 10.5917 27.1172 9.96479 26.7436 9.51976L25.8536 8.45863C25.7054 8.28188 25.4617 8.21781 25.2455 8.29904L25.067 8.36599C24.9955 8.39287 24.916 8.38486 24.8514 8.34482C24.7867 8.30477 24.7444 8.2367 24.7364 8.1612L24.6586 7.40896C24.6443 7.27053 24.578 7.14243 24.4739 7.05033L22.6125 5.41146C22.2738 5.11343 21.8385 4.94926 21.3878 4.94926H21.2122C21.0823 4.55971 20.7105 4.30345 20.3004 4.32118L18.7136 4.38813C18.2891 4.40586 17.9007 4.63179 17.6748 4.99216L17.2549 5.66203C17.1845 5.77414 17.0593 5.83878 16.9277 5.83134L15.5428 5.75297C15.2951 5.73867 15.0681 5.89024 14.9863 6.1242C14.917 6.32098 14.7683 6.47943 14.5761 6.56009L12.8429 7.29001C12.5431 7.41642 12.3481 7.70986 12.3481 8.03534V8.52556C12.3481 8.52556 11.2338 8.40145 10.5473 9.02038L8.1826 11.1517C7.80392 11.4927 7.57282 11.968 7.53678 12.476L7.5139 12.8009L6.39273 13.7378C6.12445 13.9621 6.04151 14.339 6.19081 14.6554L6.7554 15.8498L6.31093 19.2951C6.28176 19.5193 6.37615 19.7418 6.5569 19.8768L6.72565 20.0032C6.8658 20.1085 6.95618 20.2675 6.97391 20.4414L7.01681 20.9082C7.04827 21.2502 7.23704 21.5574 7.52763 21.7405L9.21682 22.8039L9.68588 24.9232L9.47709 25.7955C9.40559 26.0947 9.48567 26.4099 9.69217 26.6381L10.0171 26.9979C10.3551 27.3726 10.8362 27.586 11.3407 27.586L13.2193 29.7282C13.3995 29.9341 13.6735 30.032 13.9435 29.9868L13.1129 27.0437L12.1782 24.0103L11.6136 20.9162L12.5654 21.0523C12.8006 21.0861 13.0362 20.9928 13.185 20.8081C13.328 20.6307 13.3709 20.3928 13.2999 20.176L12.2977 17.1242L12.9058 15.9075C13.0974 15.5243 13.0425 14.6451 12.6524 14.2521L13.3182 13.5863L14.4777 13.413C14.9605 13.3409 15.3255 12.933 15.4427 12.4594L15.8191 10.939C15.8397 10.8566 15.8935 10.7868 15.9678 10.7462C16.0422 10.7056 16.1303 10.6975 16.2104 10.725L16.3379 10.7679C16.6051 10.8583 16.8991 10.8234 17.1376 10.6729L18.7038 9.68449C18.9778 9.51174 19.3096 9.45567 19.6248 9.52889L23.0695 10.3297C23.4276 10.4127 23.7279 10.6541 23.8875 10.9853L25.0922 13.4919L24.9401 15.2989L25.3199 16.1106L26.3375 15.0158L26.1956 14.6457L26.7825 14.537L26.9725 14.3327C27.2219 14.0639 27.3609 13.711 27.3609 13.3443V12.6207C27.3609 12.3702 27.2299 12.1379 27.0159 12.0081V12.0063Z" stroke="#0F0F0F" stroke-width="0.0572024" stroke-linecap="round" stroke-linejoin="round"/>
<path d="M21.2136 4.94922L21.3532 5.50066" stroke="#0F0F0F" stroke-width="0.0572024" stroke-linecap="round" stroke-linejoin="round"/>
<path d="M8.3441 12.1035L7.51123 12.7997" stroke="#0F0F0F" stroke-width="0.0572024" stroke-linecap="round" stroke-linejoin="round"/>
<path d="M13.824 13.507L13.4997 13.5557C13.1342 13.61 12.7618 13.5122 12.47 13.2851L11.6841 12.6719" stroke="#0F0F0F" stroke-width="0.0572024" stroke-linecap="round" stroke-linejoin="round"/>
<path d="M11.8125 13.5586L12.6494 14.2496" stroke="#0F0F0F" stroke-width="0.0572024" stroke-linecap="round" stroke-linejoin="round"/>
<path d="M11.146 17.8699C10.8446 17.4786 10.3377 17.3053 9.85953 17.4311C9.31039 17.5753 8.91912 18.0603 8.89396 18.6278L8.84533 19.7306C8.81387 20.4377 9.07357 21.1269 9.5638 21.6378L9.9133 22.0016C10.0626 22.1572 10.2691 22.2453 10.4853 22.2453H10.8137C10.963 22.2453 11.1088 22.287 11.2347 22.3665L11.908 22.7893C12.1019 22.9111 12.3524 22.8928 12.5263 22.7441L12.9313 22.398L11.4984 18.3275L11.146 17.8704V17.8699Z" fill="#9583FF"/>
<path d="M11.7083 18.6003L11.146 17.8699C10.8446 17.4786 10.3377 17.3053 9.85953 17.4311C9.31039 17.5753 8.91912 18.0603 8.89396 18.6278L8.84533 19.7306C8.81387 20.4377 9.07357 21.1269 9.5638 21.6378L9.9133 22.0016C10.0626 22.1572 10.2691 22.2453 10.4853 22.2453H10.8137C10.963 22.2453 11.1088 22.287 11.2347 22.3665L11.908 22.7893C12.1019 22.9111 12.3524 22.8928 12.5263 22.7441L12.9313 22.398" stroke="#0F0F0F" stroke-width="0.0572024" stroke-linecap="round" stroke-linejoin="round"/>
<path d="M11.3287 19.4439L10.39 18.3079C10.1778 18.051 9.806 17.9967 9.52914 18.182C9.23798 18.3771 9.07724 18.7168 9.11214 19.0663L9.21167 20.068C9.25228 20.4753 9.44734 20.8511 9.75681 21.1188L10.1401 21.45" stroke="#0F0F0F" stroke-width="0.0572024" stroke-linecap="round" stroke-linejoin="round"/>
<path d="M10.3903 18.3078C10.178 18.051 9.80622 17.9967 9.52936 18.182C9.38349 18.2798 9.27081 18.4131 9.19873 18.5664L9.6512 18.4732C9.87486 18.4274 10.1048 18.5155 10.2392 18.6997L11.0155 19.7602L11.3295 19.4433L10.6482 18.619L10.3908 18.3073L10.3903 18.3078Z" fill="#0F0F0F" stroke="#0F0F0F" stroke-width="0.0572024" stroke-linecap="round" stroke-linejoin="round"/>
<path d="M11 19.0391L10.1077 19.6111C9.89089 19.7501 9.78678 20.0127 9.8497 20.2626L9.88974 20.4216C9.9458 20.6442 10.1248 20.8152 10.3497 20.8621C10.5384 20.901 10.7346 20.8535 10.8845 20.7328L11.0189 20.6247L11.3627 20.7151C11.7477 20.8163 11.9605 20.5675 11.9605 20.5675L11.333 19.4452L11.0006 19.0396L11 19.0391Z" fill="#0F0F0F" stroke="#0F0F0F" stroke-width="0.0572024" stroke-linecap="round" stroke-linejoin="round"/>
<path d="M18.6565 14.9641C18.7926 15.0728 18.8355 15.2455 18.752 15.3508C18.6685 15.4561 18.49 15.4532 18.3533 15.3451C18.2171 15.2364 18.1742 15.0637 18.2577 14.9584C18.2772 14.9338 18.3018 14.9155 18.3298 14.9023" stroke="#0F0F0F" stroke-width="0.0572024" stroke-linecap="round" stroke-linejoin="round"/>
<path d="M24.3483 15.3057C24.4238 15.4298 24.4341 15.5591 24.3666 15.6112C24.29 15.6706 24.1407 15.6077 24.0343 15.4699C23.9279 15.332 23.9033 15.1724 23.9799 15.1123C24.0268 15.0757 24.1006 15.0855 24.175 15.1295" stroke="#0F0F0F" stroke-width="0.0572024" stroke-linecap="round" stroke-linejoin="round"/>
<path d="M12.9299 13.0387L12.8252 12.9735C12.6318 12.8534 12.5603 12.6063 12.6599 12.4009L12.7571 12.2001L13.0689 11.5583C13.1678 11.3547 13.1049 11.1099 12.9207 10.9789L12.1273 10.4148C11.855 10.2209 11.5004 10.186 11.1949 10.3227C10.8894 10.4595 10.6852 10.7392 10.6435 11.0658L10.584 11.5331" stroke="#0F0F0F" stroke-width="0.0572024" stroke-linecap="round" stroke-linejoin="round"/>
<path d="M13.4302 8.62812L12.3462 8.52344" stroke="#0F0F0F" stroke-width="0.0572024" stroke-linecap="round" stroke-linejoin="round"/>
<path d="M8.60693 22.418L9.71208 23.117C9.85337 23.2062 9.93575 23.3647 9.92774 23.5317L9.91058 23.8989C9.8917 24.2948 10.1222 24.6603 10.4872 24.8142L10.962 25.0144C11.1685 25.1013 11.403 25.0945 11.6043 24.9955L11.8869 24.8565" stroke="#0F0F0F" stroke-width="0.0572024" stroke-linecap="round" stroke-linejoin="round"/>
<path d="M31.7605 33.2936L33.107 35.7161L33.7569 34.7563C33.9988 33.0265 33.6945 31.0971 32.9126 29.1133L31.7605 30.3517V33.2936Z" fill="white" stroke="#0F0F0F" stroke-width="0.0572024" stroke-linecap="round" stroke-linejoin="round"/>
<path d="M31.76 33.291L15.6758 39.1731C16.9251 39.7171 18.1692 40.1547 19.3865 40.4842L33.1065 35.7135L31.76 33.291Z" fill="white"/>
<path d="M32.7781 28.7773L32.9131 29.1114" stroke="#0F0F0F" stroke-width="0.0572024" stroke-linecap="round" stroke-linejoin="round"/>
<path d="M31.76 33.291L15.6758 39.1731C16.9251 39.7171 18.1692 40.1547 19.3865 40.4842L33.1065 35.7135L31.76 33.291Z" stroke="#0F0F0F" stroke-width="0.0572024" stroke-linecap="round" stroke-linejoin="round"/>
<path d="M17.606 12.4121H18.6734V13.8548H17.2307V12.7874C17.2307 12.5803 17.3989 12.4121 17.606 12.4121Z" fill="#0F0F0F"/>
<path d="M20.1126 12.4121H18.6699V13.8548H20.1126V12.4121Z" fill="#0F0F0F"/>
<path d="M22.9995 12.4121H21.5569V13.8548H22.9995V12.4121Z" fill="#0F0F0F"/>
<path d="M21.5603 12.4121H20.1177V13.8548H21.5603V12.4121Z" fill="#0F0F0F"/>
<path d="M24.4431 12.4121H23.0005V13.8548H24.4431V12.4121Z" fill="#0F0F0F"/>
<path d="M24.4397 12.4121H25.5071C25.7142 12.4121 25.8823 12.5803 25.8823 12.7874V13.8548H24.4397V12.4121Z" fill="#0F0F0F"/>
<path d="M17.2258 13.8555H15.7832V15.2981H17.2258V13.8555Z" fill="#0F0F0F"/>
<path d="M14.7196 12.4121H15.4111C15.6182 12.4121 15.7864 12.5803 15.7864 12.7874V13.8548H14.719C14.5119 13.8548 14.3438 13.6866 14.3438 13.4795V12.7879C14.3438 12.5808 14.5119 12.4127 14.719 12.4127L14.7196 12.4121Z" fill="#0F0F0F"/>
<path d="M18.6734 13.8555H17.2307V15.2981H18.6734V13.8555Z" fill="#0F0F0F"/>
<path d="M20.1126 13.8555H18.6699V15.2981H20.1126V13.8555Z" fill="#0F0F0F"/>
<path d="M21.5603 13.8555H20.1177V15.2981H21.5603V13.8555Z" fill="#0F0F0F"/>
<path d="M22.9995 13.8555H21.5569V15.2981H22.9995V13.8555Z" fill="#0F0F0F"/>
<path d="M24.4431 13.8555H23.0005V15.2981H24.4431V13.8555Z" fill="#0F0F0F"/>
<path d="M25.8823 13.8555H24.4397V15.2981H25.8823V13.8555Z" fill="#0F0F0F"/>
<path d="M15.7832 15.2969H17.2258V16.7395H16.1585C15.9514 16.7395 15.7832 16.5714 15.7832 16.3643V15.2969Z" fill="#0F0F0F"/>
<path d="M18.6734 15.2969H17.2307V16.7395H18.6734V15.2969Z" fill="#0F0F0F"/>
<path d="M20.1126 15.2969H18.6699V16.7395H20.1126V15.2969Z" fill="#0F0F0F"/>
<path d="M20.1177 15.2969H21.5603V16.3643C21.5603 16.5714 21.3921 16.7395 21.1851 16.7395H20.1177V15.2969Z" fill="#0F0F0F"/>
<path d="M25.8823 15.2969H24.4397V16.7395H25.8823V15.2969Z" fill="#0F0F0F"/>
<path d="M23.0005 15.2969H24.4431V16.7395H23.3757C23.1687 16.7395 23.0005 16.5714 23.0005 16.3643V15.2969Z" fill="#0F0F0F"/>
<path d="M25.8833 15.2969H27.3259V16.3643C27.3259 16.5714 27.1578 16.7395 26.9507 16.7395H25.8833V15.2969Z" fill="#0F0F0F"/>
<path d="M27.7025 13.8561H28.3941C28.6011 13.8561 28.7693 14.0242 28.7693 14.2313V14.9229C28.7693 15.1299 28.6011 15.2981 28.3941 15.2981H27.3267V14.2307C27.3267 14.0236 27.4948 13.8555 27.7019 13.8555L27.7025 13.8561Z" fill="#0F0F0F"/>
<path d="M22.5988 13.8548C22.8184 13.8548 22.9969 14.0332 22.9969 14.2529C22.9969 14.0332 23.1754 13.8548 23.395 13.8548C23.1754 13.8548 22.9969 13.6763 22.9969 13.4566C22.9969 13.6763 22.8184 13.8548 22.5988 13.8548Z" fill="#9583FF"/>
<path d="M22.0491 13.8548H22.5988M22.5988 13.8548C22.8184 13.8548 22.9969 14.0332 22.9969 14.2529M22.5988 13.8548C22.8184 13.8548 22.9969 13.6763 22.9969 13.4566M22.9969 14.2529V15.2974M22.9969 14.2529C22.9969 14.0332 23.1754 13.8548 23.395 13.8548M23.395 13.8548H25.5384M23.395 13.8548C23.1754 13.8548 22.9969 13.6763 22.9969 13.4566M22.9969 13.4566V13.0625" stroke="#9583FF" stroke-width="0.0572024" stroke-linecap="round" stroke-linejoin="round"/>
<path d="M18.3709 13.8548C18.538 13.8548 18.673 13.9898 18.673 14.1568C18.673 13.9898 18.808 13.8548 18.975 13.8548C18.808 13.8548 18.673 13.7198 18.673 13.5527C18.673 13.7198 18.538 13.8548 18.3709 13.8548Z" fill="#9583FF"/>
<path d="M18.2937 13.8548H18.3709M18.3709 13.8548C18.538 13.8548 18.673 13.9898 18.673 14.1568M18.3709 13.8548C18.538 13.8548 18.673 13.7198 18.673 13.5527M18.673 14.1568V14.4348M18.673 14.1568C18.673 13.9898 18.808 13.8548 18.975 13.8548M18.975 13.8548H20.1156M18.975 13.8548C18.808 13.8548 18.673 13.7198 18.673 13.5527M18.673 13.5527V12.4121" stroke="#9583FF" stroke-width="0.0572024" stroke-linecap="round" stroke-linejoin="round"/>
<path d="M24.1363 15.2975C24.3045 15.2975 24.4412 15.4342 24.4412 15.6024C24.4412 15.4342 24.5779 15.2975 24.7461 15.2975C24.5779 15.2975 24.4412 15.1608 24.4412 14.9926C24.4412 15.1608 24.3045 15.2975 24.1363 15.2975Z" fill="#9583FF"/>
<path d="M23.3521 15.2975H24.1363M24.1363 15.2975C24.3045 15.2975 24.4412 15.4342 24.4412 15.6024M24.1363 15.2975C24.3045 15.2975 24.4412 15.1608 24.4412 14.9926M24.4412 15.6024V16.7401M24.4412 15.6024C24.4412 15.4342 24.5779 15.2975 24.7461 15.2975M24.7461 15.2975H24.9406M24.7461 15.2975C24.5779 15.2975 24.4412 15.1608 24.4412 14.9926M24.4412 14.9926V14.5762" stroke="#9583FF" stroke-width="0.0572024" stroke-linecap="round" stroke-linejoin="round"/>
<path d="M16.8987 15.2974C17.0794 15.2974 17.2258 15.4439 17.2258 15.6247C17.2258 15.4439 17.3723 15.2974 17.553 15.2974C17.3723 15.2974 17.2258 15.151 17.2258 14.9703C17.2258 15.151 17.0794 15.2974 16.8987 15.2974Z" fill="#9583FF"/>
<path d="M15.7832 15.2974H16.8987M16.8987 15.2974C17.0794 15.2974 17.2258 15.4439 17.2258 15.6247M16.8987 15.2974C17.0794 15.2974 17.2258 15.151 17.2258 14.9703M17.2258 15.6247V16.7401M17.2258 15.6247C17.2258 15.4439 17.3723 15.2974 17.553 15.2974M17.553 15.2974H18.021M17.553 15.2974C17.3723 15.2974 17.2258 15.151 17.2258 14.9703M17.2258 14.9703V14.6465" stroke="#9583FF" stroke-width="0.0572024" stroke-linecap="round" stroke-linejoin="round"/>
</g>
<defs>
<clipPath id="clip0_9062_21217">
<rect width="36" height="36" rx="18" fill="white"/>
</clipPath>
</defs>
</svg>
