<svg width="244" height="244" viewBox="0 0 244 244" fill="none" xmlns="http://www.w3.org/2000/svg">
<path d="M121.995 243.5C189.091 243.5 243.491 189.098 243.491 122C243.491 54.9016 189.091 0.5 121.995 0.5C54.8996 0.5 0.5 54.9016 0.5 122C0.5 189.098 54.8996 243.5 121.995 243.5Z" fill="white" stroke="#0F0F0F" stroke-width="0.9" stroke-linecap="round" stroke-linejoin="round"/>
<path d="M121.995 5.70312C57.7656 5.70312 5.69354 57.7772 5.69354 122.009C5.69354 186.242 57.7656 238.316 121.995 238.316C186.225 238.316 238.297 186.242 238.297 122.009C238.297 57.7772 186.225 5.70312 121.995 5.70312ZM105.338 180.5C56.3052 147.722 1.50405 87.2599 44.3757 44.3867C87.2473 1.51347 156.744 1.51347 199.615 44.3867C234.446 79.2183 238.434 130.517 219.203 173.061C207.912 198.035 155.74 214.191 105.338 180.5Z" fill="#9583FF"/>
<path d="M109.819 228.376C110.367 225.856 105.201 222.606 98.3006 221.119C91.3911 219.631 85.3579 220.47 84.8194 222.999C84.2809 225.518 89.4379 228.768 96.3382 230.256C103.239 231.744 109.281 230.904 109.819 228.376Z" fill="white"/>
<path d="M208.341 36.5449C228.723 64.0196 62.4662 131.976 13.89 126.39C1.27583 124.938 0.737314 119.836 0.609529 117.49C0.554765 118.987 0.5 120.484 0.5 121.999C0.5 154.531 13.3149 184.059 34.1346 205.865C64.2917 228.283 239.21 160.144 243.436 124.382C243.454 123.588 243.5 122.793 243.5 121.999C243.5 88.6737 230.074 58.4973 208.35 36.5449H208.341Z" fill="#0F0F0F" stroke="#0F0F0F" stroke-width="0.9" stroke-linecap="round" stroke-linejoin="round"/>
<path fill-rule="evenodd" clip-rule="evenodd" d="M26.6776 152.288C20.8999 148.336 16.3453 143.251 11.1609 138.66C14.9123 152.79 19.4213 166.573 25.5002 179.881C31.36 185.248 37.804 189.858 44.3118 194.385C41.7744 189.402 39.383 184.336 37.1103 179.215C43.9376 183.925 50.7923 188.589 58.0395 192.642C66.5189 191.355 74.9344 189.392 83.2313 187.266C72.8442 182.254 62.7858 176.632 52.8004 170.881C47.0044 172.488 41.1355 173.775 35.2665 175.044C32.0719 167.586 29.2789 159.983 26.6685 152.297L26.6776 152.288Z" fill="white"/>
<path fill-rule="evenodd" clip-rule="evenodd" d="M90.2137 125.624C96.7855 143.615 103.987 161.396 110.997 179.213C116.227 177.607 121.384 175.799 126.559 174.038C123.428 165.658 120.252 157.306 117.03 148.954C126.13 155.18 135.285 161.313 144.431 167.475C150.564 165.047 156.662 162.564 162.768 160.072C152.773 153.418 142.779 146.764 132.784 140.11C136.143 128.554 139.319 116.952 142.268 105.287C136.043 107.797 129.781 110.225 123.529 112.69C120.809 123.077 117.97 133.437 115.031 143.761C111.946 135.71 108.825 127.678 105.694 119.654C100.546 121.671 95.3707 123.634 90.2046 125.624H90.2137Z" fill="white"/>
<path d="M165.752 158.796C159.71 140.294 152.728 122.065 145.325 104.065C150.309 102.057 155.283 100.04 160.258 98.0137C167.669 115.822 174.469 133.868 180.21 152.288C175.455 154.606 170.581 156.651 165.743 158.796H165.752Z" fill="white"/>
<path fill-rule="evenodd" clip-rule="evenodd" d="M170.709 109.149C172.571 110.025 174.624 110.062 176.514 109.249C178.44 108.4 179.854 106.876 180.548 104.886C181.169 102.814 181.041 100.651 180.192 98.6611C179.407 96.653 177.965 95.0556 176.039 94.0789C174.186 93.1935 172.142 93.1388 170.234 93.9146C168.317 94.727 166.902 96.2331 166.181 98.1864C165.488 100.277 165.57 102.476 166.428 104.512C167.24 106.557 168.728 108.181 170.699 109.158L170.709 109.149ZM170.243 114.352C174.953 126.4 179.179 138.623 183.031 150.972C187.558 148.937 191.976 146.609 196.402 144.364C192.98 132.151 188.644 120.121 184.071 108.3C179.48 110.363 174.871 112.371 170.243 114.352Z" fill="white"/>
<path fill-rule="evenodd" clip-rule="evenodd" d="M210.112 77.0559C217.332 92.6279 223.283 108.967 227.226 125.689C229.563 123.836 231.954 122.065 234.117 120.011C233.058 115.028 231.799 110.08 230.348 105.197C232.821 108.967 235.468 112.727 237.376 116.817C238.891 115.247 240.169 113.512 241.228 111.614C239.366 107.178 237.23 103.116 234.647 99.063C234.345 93.5864 233.661 88.2922 232.739 82.8886C231.187 84.0752 229.581 85.1979 227.929 86.2476C228.358 91.0762 228.741 95.9139 228.979 100.752C225.994 91.4322 222.325 82.3318 218.117 73.4961C215.461 74.7101 212.796 75.8967 210.112 77.0559Z" fill="white"/>
<path fill-rule="evenodd" clip-rule="evenodd" d="M186.682 107.132C191.282 118.925 195.38 130.864 198.849 143.041C202.819 140.877 206.716 138.687 210.605 136.387C208.907 130.116 206.945 123.909 204.937 117.729C204.663 116.935 204.553 116.095 204.608 115.256C204.654 114.516 204.873 113.804 205.256 113.165C205.63 112.581 206.15 112.107 206.762 111.787C207.62 111.331 208.56 111.303 209.436 111.714C210.422 112.344 211.079 113.312 211.362 114.471C213.297 120.504 215.077 126.583 216.693 132.708C219.714 130.883 222.598 128.865 225.51 126.885C223.757 119.865 221.758 112.901 219.477 106.037C218.865 103.828 217.806 101.801 216.318 100.076C215.068 98.6523 213.434 97.6939 211.581 97.2831C209.756 96.918 207.894 97.1736 206.233 98.0133C204.006 98.8622 202.116 100.368 201.057 102.486C200.765 103.618 200.747 104.814 200.993 105.964L200.893 106.137L200.51 106C199.807 104.576 199.341 103.024 199.122 101.436C194.997 103.371 190.862 105.279 186.691 107.132H186.682ZM201.003 106.457H201.012V106.429C201.003 106.402 200.984 106.384 200.966 106.374C200.975 106.301 200.966 106.237 200.948 106.164V106.146L200.92 106.128H200.875L200.857 106.146C200.857 106.256 200.893 106.356 200.966 106.438H200.993L201.003 106.457ZM204.927 117.72C204.927 117.72 204.927 117.738 204.927 117.748C204.927 117.748 204.918 117.729 204.918 117.72H204.927Z" fill="white"/>
<path d="M46.4202 141.89C51.5863 140.129 56.6794 144.081 58.4228 148.846C60.1844 153.537 58.7331 159.589 53.5761 161.296C48.4647 162.711 43.7367 159.014 41.9843 154.368C40.2318 149.722 41.6831 144.026 46.4111 141.881L46.4202 141.89Z" fill="#9583FF"/>
</svg>
