<svg width="51" height="50" viewBox="0 0 51 50" fill="none" xmlns="http://www.w3.org/2000/svg">
<path d="M28.1272 34.8129L29.1523 34.4244C29.2564 34.3845 29.3572 34.3858 29.4463 34.421L36.1666 37.1124C36.0775 37.0773 35.9786 37.0765 35.8727 37.1158L34.8476 37.5044C34.7417 37.5438 34.6427 37.543 34.5536 37.5078L27.8333 34.8163C27.9224 34.8515 28.0232 34.8528 28.1272 34.8129Z" fill="#1E1D1D"/>
<path d="M41.375 17.8925L34.5046 15.5586L32 16.3663L38.8708 18.6981L41.375 17.8925Z" fill="#1E1D1D"/>
<path d="M39.2916 18.6475L32.022 16.6055L32 19.7956L39.2716 21.838L39.2916 18.6475Z" fill="#1E1D1D"/>
<path d="M41.9337 11.3586C42.2221 11.4358 42.4193 11.7143 42.4167 12.0972L42.3804 17.6494L34.5301 15.5682L34.5665 10.0159C34.5691 9.63304 34.3702 9.35226 34.0834 9.27734L41.9337 11.3586Z" fill="#1E1D1D"/>
<path d="M36.7986 22.9148L36.7857 25.2672C36.7834 25.6583 36.9574 25.9451 37.2084 26.0216L30.3394 23.8959C30.087 23.8171 29.9145 23.5326 29.9167 23.1415L29.9296 20.7891L36.7986 22.9148Z" fill="#1E1D1D"/>
<path d="M39.2916 22.0772L32.422 19.7461L29.9166 20.5529L36.7839 22.8856L39.2916 22.0772Z" fill="#1E1D1D"/>
<path d="M25.039 32.5796L26.192 32.3205C26.3111 32.2943 26.4224 32.2948 26.5247 32.3186L34.0834 34.1131C33.9832 34.0896 33.8698 34.0887 33.7507 34.115L32.5977 34.374C32.4786 34.4003 32.3673 34.3997 32.2671 34.3763L24.7084 32.5818C24.8086 32.6053 24.922 32.6062 25.039 32.5796Z" fill="#1E1D1D"/>
<path d="M33.354 6.13434L37.0479 5.11664C37.1604 5.08626 37.2655 5.08687 37.3602 5.11401L44.5 7.18992C44.4053 7.16278 44.2983 7.16177 44.1877 7.19255L40.4938 8.21025C40.3832 8.24103 40.2762 8.24001 40.1815 8.21288L33.0417 6.13697C33.1363 6.1641 33.2415 6.16471 33.354 6.13434Z" fill="#9583FF"/>
<path d="M17.0792 37.7264L17.0862 36.4883L23.6666 38.3839L23.6596 39.622C23.6572 40.0982 23.3405 40.5678 22.9554 40.6743L16.375 38.7787C16.7616 38.6743 17.0768 38.2026 17.0792 37.7264Z" fill="#1E1D1D"/>
<path d="M18.1243 34.7503L19.1336 34.3945L25.75 36.8589L24.7408 37.2147C24.3539 37.351 24.0373 37.962 24.0331 38.5806L17.4167 36.1162C17.4191 35.4972 17.7374 34.8866 18.1243 34.7503Z" fill="#9583FF"/>
<path d="M26.33 29.354C26.6036 29.4383 26.7941 29.7443 26.7916 30.1645L26.7629 35.2211C26.7602 35.7948 26.4008 36.3631 25.9601 36.4889L18.4583 34.2052C18.899 34.0793 19.2563 33.5106 19.2611 32.9374L19.2898 27.8808C19.2923 27.4606 19.1038 27.155 18.8282 27.0703L26.33 29.354Z" fill="#1E1D1D"/>
<path d="M21.1865 42.7288L21.1603 47.2746C21.1585 47.6505 21.3325 47.9275 21.5834 48.0014L14.7148 45.9484C14.4624 45.8722 14.2899 45.5975 14.2917 45.2216L14.318 40.6758L21.1865 42.7288Z" fill="#1E1D1D"/>
<path d="M15.0882 38.9376L16.2235 38.582L23.6666 41.0451L22.5313 41.4007C22.094 41.5365 21.737 42.1515 21.7347 42.7681L14.2916 40.305C14.2943 39.6863 14.6529 39.0738 15.0882 38.9376Z" fill="#9583FF"/>
<path d="M23.8037 27.192C24.0766 27.2741 24.2632 27.5706 24.2608 27.9782L24.2512 29.4229C24.2488 29.8305 24.437 30.1294 24.7084 30.2091L17.2797 27.9937C17.0088 27.912 16.8202 27.615 16.8226 27.2075L16.8322 25.7628C16.8346 25.3552 16.6464 25.0563 16.375 24.9766L23.8037 27.192Z" fill="#1E1D1D"/>
<path d="M21.1607 23.9617C21.4112 24.04 21.5856 24.325 21.5834 24.716L21.5704 27.0685L14.7015 24.9428L14.7144 22.5903C14.7167 22.1992 14.5441 21.9147 14.2917 21.8359L21.1607 23.9617Z" fill="#1E1D1D"/>
<path d="M19.0902 28.1492L19.0773 30.5016C19.0751 30.8927 19.2491 31.1795 19.5 31.256L12.631 29.1303C12.3786 29.0515 12.2061 28.767 12.2084 28.3759L12.2213 26.0234L19.0902 28.1492Z" fill="#1E1D1D"/>
<path d="M21.5834 27.3089L14.713 24.9766L12.2084 25.7837L19.0787 28.1161L21.5834 27.3089Z" fill="#1E1D1D"/>
<path d="M18.4584 25.2155L11.5894 22.8828L9.08337 23.6896L15.9524 26.0223L18.4584 25.2155Z" fill="#1E1D1D"/>
<path d="M15.9652 25.4337L15.9523 28.2566C15.95 28.7259 16.1226 29.0673 16.375 29.1619L9.50604 26.611C9.25553 26.517 9.08109 26.1751 9.08335 25.7058L9.09627 22.8828L15.9652 25.4337Z" fill="#1E1D1D"/>
<path d="M18.0357 17.9C18.2862 17.9864 18.4606 18.3002 18.4584 18.731L18.4265 24.9772L11.5576 22.6358L11.5894 16.3895C11.5917 15.9588 11.4176 15.6429 11.1667 15.5586L18.0357 17.9Z" fill="#1E1D1D"/>
<path d="M11.9713 10.8232L11.981 9.27734L19.5 11.648L19.4903 13.1939C19.4876 13.7893 19.1253 14.3788 18.6857 14.5099L11.1667 12.1393C11.6063 12.0081 11.9665 11.4182 11.9713 10.8232Z" fill="#1E1D1D"/>
<path d="M12.9597 8.87353L31.9628 3.02513C32.0735 2.99178 32.1769 2.99245 32.27 3.02225L39.2916 5.30185C39.1985 5.27205 39.0932 5.27093 38.9845 5.30473L19.9814 11.1531C19.5689 11.2788 19.2321 11.848 19.23 12.4186L12.2083 10.139C12.2109 9.56641 12.5492 8.9996 12.9597 8.87353Z" fill="#9583FF"/>
<path d="M13.916 16.7557L13.8689 25.227C13.8667 25.6398 14.0407 25.9426 14.2916 26.0233L7.42268 23.7793C7.17027 23.6961 6.99772 23.3958 6.99998 22.983L7.04703 14.5117L13.916 16.7557Z" fill="#1E1D1D"/>
<path d="M7.75494 13.4213L11.4044 12.418L18.4584 14.4646L14.8089 15.4679C14.3945 15.5807 14.0566 16.0899 14.054 16.604L7.00004 14.5574C7.00261 14.0434 7.34203 13.5363 7.75494 13.4213Z" fill="#9583FF"/>
<path d="M39.3073 18.412L39.2917 21.8384L40.7573 21.2999C41.0906 21.179 41.3623 20.6328 41.3643 20.0814L41.375 17.6523L39.3057 18.4115L39.3073 18.412Z" fill="white" stroke="#1E1D1D" stroke-width="0.5" stroke-linecap="round" stroke-linejoin="round"/>
<path d="M37.219 22.6322L37.2083 25.1812C37.2062 25.7597 37.4736 26.125 37.8075 25.9961L38.6734 25.6636C39.0069 25.5366 39.2792 24.9615 39.281 24.3849L39.2916 21.8359L37.2205 22.6326L37.219 22.6322Z" fill="white" stroke="#1E1D1D" stroke-width="0.5" stroke-linecap="round" stroke-linejoin="round"/>
<path d="M18.4744 27.8665L18.4584 30.4155C18.4553 30.9941 18.8564 31.3594 19.3572 31.2305L20.6561 30.898C21.1563 30.771 21.5619 30.1974 21.5674 29.6193L21.5834 27.0703L18.4767 27.867L18.4744 27.8665Z" fill="white" stroke="#1E1D1D" stroke-width="0.5" stroke-linecap="round" stroke-linejoin="round"/>
<path d="M16.3857 25.7734L16.3751 28.3227C16.373 28.9013 16.6394 29.2643 16.9731 29.1373L18.4427 28.5726L18.4584 24.9766L16.3857 25.7734Z" fill="white" stroke="#1E1D1D" stroke-width="0.5" stroke-linecap="round" stroke-linejoin="round"/>
<path d="M20.1231 10.7891C19.7184 10.9109 19.388 11.4627 19.3859 12.0158L19.3771 13.4567C19.3745 14.0117 19.0427 14.5612 18.6399 14.6834L15.076 15.7666C14.6713 15.8884 14.3414 16.4383 14.3389 16.9933L14.2917 25.335C14.2892 25.89 14.6137 26.2405 15.0188 26.1168L16.8007 25.5751L16.8326 19.6804C16.8351 19.1253 17.1651 18.5755 17.5698 18.4537L18.6205 18.1347C19.0233 18.0125 19.3478 18.363 19.3453 18.918L19.3134 24.8128L21.0953 24.2711C21.5 24.1494 21.8226 24.4994 21.8205 25.0525L21.8075 27.4979L23.5895 26.9562C23.9942 26.8345 24.3191 27.183 24.3165 27.738L24.3077 29.179C24.3052 29.734 24.6297 30.0845 25.0325 29.9623L26.0832 29.6433C26.4879 29.5215 26.8109 29.8696 26.8084 30.4247L26.7821 35.3173C26.7796 35.8724 26.4496 36.4222 26.0449 36.544L24.9941 36.863C24.5913 36.9852 24.2618 37.5331 24.2574 38.0877L24.25 39.531C24.2475 40.0861 23.916 40.6335 23.5128 40.7577L22.4621 41.0767C22.0574 41.1985 21.727 41.7503 21.7249 42.3033L21.6986 47.196C21.6946 47.7487 22.021 48.0996 22.4261 47.9759L36.0428 43.8335C36.4475 43.7118 36.7756 43.1615 36.7796 42.6088L36.8059 37.7161C36.8084 37.1611 36.4839 36.8106 36.0811 36.9328L35.0304 37.2518C34.6257 37.3736 34.3027 37.0255 34.3052 36.4704L34.3126 35.0271C34.3151 34.4721 33.9902 34.1236 33.5851 34.2473L32.5343 34.5663C32.1296 34.688 31.8047 34.3395 31.8072 33.7845L31.8336 28.8918C31.8361 28.3367 32.1675 27.7893 32.5707 27.6651L33.6215 27.3461C34.0262 27.2243 34.3566 26.6725 34.3587 26.1194L34.3675 24.6785C34.37 24.1235 34.7 23.5736 35.1047 23.4519L36.8866 22.9102L36.8996 20.4648C36.9036 19.9122 37.2335 19.3623 37.6368 19.2382L39.4187 18.6965L39.4506 12.8018C39.4531 12.2467 39.7831 11.6969 40.1878 11.5751L41.2385 11.2561C41.6432 11.1343 41.9681 11.4829 41.9656 12.0379L41.9337 17.9327L43.7156 17.391C44.1203 17.2693 44.4484 16.719 44.4528 16.1644L44.5 7.82272C44.5025 7.26769 44.1795 6.91957 43.7748 7.04135L40.2109 8.12463C39.8062 8.24641 39.4837 7.89635 39.4862 7.34132L39.495 5.90039C39.4975 5.34536 39.173 4.99488 38.7679 5.11859L20.1254 10.7876L20.1231 10.7891Z" fill="white" stroke="#1E1D1D" stroke-width="0.5" stroke-linecap="round" stroke-linejoin="round"/>
</svg>
