<svg width="206" height="173" viewBox="0 0 206 173" fill="none" xmlns="http://www.w3.org/2000/svg">
<path d="M142.671 110.575L143.391 111.58L144.395 110.861L143.676 109.856L142.671 110.575Z" fill="white"/>
<path d="M113.425 109.537L114.351 110.83L115.644 109.905L114.718 108.612L113.425 109.537Z" fill="white"/>
<path d="M118.033 111.338L117.785 112.094L118.541 112.341L118.788 111.586L118.033 111.338Z" fill="white"/>
<path d="M134.857 171.975L134.678 172.521L135.224 172.7L135.403 172.154L134.857 171.975Z" fill="white"/>
<path d="M149.337 98.987L149.249 100.025L150.287 100.113L150.375 99.075L149.337 98.987Z" fill="white"/>
<path d="M38.1676 140.853L38.8867 141.857L39.8914 141.138L39.1722 140.134L38.1676 140.853Z" fill="white"/>
<path d="M69.9553 133.998L70.8809 135.291L72.1738 134.365L71.2483 133.073L69.9553 133.998Z" fill="white"/>
<path d="M66.3566 136.495L66.2686 137.533L67.307 137.621L67.395 136.583L66.3566 136.495Z" fill="white"/>
<path d="M118.901 157.194L118.812 158.232L119.851 158.32L119.939 157.282L118.901 157.194Z" fill="white"/>
<path d="M161.537 135.76L161.449 136.799L162.488 136.887L162.576 135.848L161.537 135.76Z" fill="white"/>
<path d="M150.169 132.29L150.081 133.328L151.119 133.416L151.207 132.378L150.169 132.29Z" fill="white"/>
<path d="M163.516 126.145L163.428 127.184L164.466 127.272L164.554 126.233L163.516 126.145Z" fill="white"/>
<path d="M187.761 139.26L187.673 140.299L188.711 140.387L188.799 139.348L187.761 139.26Z" fill="white"/>
<path d="M73.8061 60.2081L73.2725 59.0938L72.1581 59.6274L72.6918 60.7417L73.8061 60.2081Z" fill="white"/>
<path d="M102.426 66.311L101.739 64.877L100.305 65.5638L100.992 66.9979L102.426 66.311Z" fill="white"/>
<path d="M98.2021 63.7361L98.5771 63.0352L97.8762 62.6601L97.5011 63.3611L98.2021 63.7361Z" fill="white"/>
<path d="M92.1702 1.09857L92.4414 0.591797L91.9346 0.320619L91.6634 0.827396L92.1702 1.09857Z" fill="white"/>
<path d="M65.228 70.4605L65.4951 69.4531L64.4878 69.186L64.2207 70.1934L65.228 70.4605Z" fill="white"/>
<path d="M181.981 48.5479L181.447 47.4336L180.333 47.9673L180.867 49.0816L181.981 48.5479Z" fill="white"/>
<path d="M149.486 49.7759L148.799 48.3418L147.365 49.0286L148.052 50.4627L149.486 49.7759Z" fill="white"/>
<path d="M153.463 47.9409L153.73 46.9336L152.723 46.6665L152.456 47.6738L153.463 47.9409Z" fill="white"/>
<path d="M105.315 18.4273L105.582 17.4199L104.575 17.1528L104.308 18.1602L105.315 18.4273Z" fill="white"/>
<path d="M59.603 32.1265L59.8701 31.1191L58.8628 30.852L58.5957 31.8594L59.603 32.1265Z" fill="white"/>
<path d="M70.1948 37.521L70.4619 36.5137L69.4546 36.2466L69.1875 37.2539L70.1948 37.521Z" fill="white"/>
<path d="M55.9829 41.2534L56.25 40.2461L55.2427 39.979L54.9756 40.9863L55.9829 41.2534Z" fill="white"/>
<path d="M34.3853 24.1245L34.6523 23.1172L33.645 22.8501L33.3779 23.8574L34.3853 24.1245Z" fill="white"/>
<path d="M176.009 129.257C176.117 128.996 176.094 128.684 175.921 128.383L175.025 126.843C174.683 126.25 173.868 125.928 173.217 126.121L147.104 133.83C146.452 134.021 145.641 133.696 145.297 133.105L142.26 127.877C142.086 127.576 142.064 127.263 142.171 127.001L139.273 134.053C139.165 134.313 139.189 134.628 139.362 134.929L142.399 140.157C142.741 140.75 143.556 141.076 144.207 140.882L170.319 133.173C170.97 132.98 171.785 133.306 172.128 133.895L173.023 135.436C173.197 135.737 173.219 136.049 173.111 136.309L176.009 129.257Z" fill="#4D99FF"/>
<path d="M187.243 127.816L190.141 120.764C190.037 121.015 189.814 121.22 189.494 121.313L186.607 122.166L183.709 129.218L186.597 128.366C186.917 128.272 187.139 128.068 187.243 127.816Z" fill="white" stroke="#1E1D1D" stroke-width="0.2" stroke-linecap="round" stroke-linejoin="round"/>
<path d="M169.584 118.19C169.692 117.93 169.67 117.618 169.497 117.319L168.602 115.778C168.26 115.186 167.443 114.861 166.792 115.054L165.091 115.556C164.442 115.749 163.629 115.425 163.285 114.833L162.389 113.293C162.047 112.7 161.23 112.375 160.579 112.569L158.881 113.069C158.229 113.263 157.415 112.937 157.072 112.348L156.176 110.807C155.834 110.215 155.018 109.89 154.369 110.082L152.668 110.584C152.017 110.777 151.202 110.451 150.859 109.862L149.964 108.322C149.791 108.023 149.769 107.711 149.875 107.452L146.977 114.504C146.871 114.763 146.89 115.074 147.064 115.375L147.959 116.916C148.302 117.509 149.117 117.831 149.768 117.638L151.469 117.136C152.118 116.943 152.932 117.27 153.277 117.861L154.172 119.401C154.514 119.994 155.33 120.317 155.981 120.123L157.68 119.623C158.332 119.431 159.146 119.757 159.489 120.346L160.385 121.887C160.727 122.48 161.543 122.802 162.191 122.61L163.892 122.108C164.545 121.917 165.359 122.243 165.702 122.832L166.598 124.373C166.77 124.671 166.791 124.981 166.684 125.244L169.582 118.191L169.584 118.19Z" fill="#4D99FF"/>
<path d="M184.671 133.257C184.991 133.164 185.213 132.959 185.317 132.708L188.215 125.656C188.111 125.907 187.888 126.112 187.569 126.205L185.868 126.707C185.545 126.802 185.322 127.004 185.219 127.258L182.322 134.31C182.426 134.058 182.649 133.856 182.97 133.759L184.671 133.257Z" fill="white" stroke="#1E1D1D" stroke-width="0.2" stroke-linecap="round" stroke-linejoin="round"/>
<path d="M182.743 138.145C183.065 138.051 183.288 137.846 183.392 137.595L186.289 130.542C186.186 130.796 185.96 131 185.641 131.093L183.94 131.595C183.617 131.69 183.394 131.892 183.291 132.146L180.394 139.198C180.498 138.946 180.72 138.742 181.042 138.647L182.743 138.145Z" fill="white" stroke="#1E1D1D" stroke-width="0.2" stroke-linecap="round" stroke-linejoin="round"/>
<path d="M180.81 143.031C181.132 142.936 181.358 142.733 181.461 142.479L184.358 135.427C184.256 135.68 184.03 135.884 183.707 135.979L182.006 136.481C181.687 136.574 181.464 136.778 181.36 137.03L178.463 144.082C178.567 143.831 178.789 143.626 179.109 143.533L180.81 143.031Z" fill="white" stroke="#1E1D1D" stroke-width="0.2" stroke-linecap="round" stroke-linejoin="round"/>
<path d="M174.082 134.144C174.19 133.884 174.167 133.572 173.994 133.271L173.098 131.73C172.924 131.429 172.904 131.119 173.012 130.859L170.114 137.912C170.008 138.17 170.028 138.484 170.201 138.783L171.096 140.323C171.27 140.624 171.292 140.937 171.184 141.197L174.082 134.144Z" fill="#1E1D1D"/>
<path d="M172.152 139.031C172.258 138.772 172.238 138.459 172.065 138.16L171.17 136.62C170.997 136.321 170.975 136.009 171.081 135.75L168.184 142.802C168.078 143.061 168.096 143.372 168.272 143.672L169.168 145.213C169.342 145.513 169.363 145.824 169.254 146.084L172.152 139.031Z" fill="#1E1D1D"/>
<path d="M179.536 147.37L182.434 140.318C182.331 140.572 182.105 140.775 181.783 140.87L171.947 143.774C171.294 143.965 170.481 143.642 170.138 143.053L169.243 141.512C169.069 141.211 169.047 140.899 169.155 140.639L166.257 147.691C166.149 147.951 166.172 148.263 166.345 148.564L167.241 150.105C167.583 150.698 168.398 151.02 169.049 150.827L178.886 147.922C179.208 147.828 179.434 147.624 179.536 147.37Z" fill="white" stroke="#1E1D1D" stroke-width="0.2" stroke-linecap="round" stroke-linejoin="round"/>
<path d="M170.79 143.644C170.52 143.508 170.284 143.31 170.137 143.054L169.241 141.514C169.067 141.213 169.045 140.901 169.153 140.641L166.256 147.693C166.148 147.953 166.17 148.265 166.344 148.566L167.239 150.107C167.379 150.348 167.6 150.543 167.854 150.676L170.789 143.641L170.79 143.644Z" fill="#4D99FF"/>
<path d="M190.053 119.89C190.395 120.483 190.147 121.122 189.495 121.313L187.783 121.818C187.137 122.009 186.885 122.641 187.223 123.226L188.125 124.778C188.467 125.371 188.219 126.01 187.566 126.201L185.865 126.703C185.213 126.894 184.963 127.534 185.306 128.123L186.201 129.664C186.543 130.256 186.293 130.896 185.64 131.088L183.939 131.59C183.287 131.781 183.037 132.421 183.38 133.01L184.275 134.551C184.617 135.143 184.364 135.779 183.713 135.972L182.012 136.474C181.36 136.665 181.111 137.308 181.454 137.897L182.349 139.437C182.691 140.03 182.438 140.665 181.787 140.859L171.951 143.763C171.299 143.954 170.485 143.63 170.142 143.041L169.247 141.501C168.905 140.908 169.157 140.267 169.81 140.076L171.511 139.574C172.16 139.381 172.414 138.742 172.071 138.153L171.175 136.613C170.833 136.02 171.088 135.383 171.739 135.19L173.438 134.689C174.091 134.498 174.342 133.854 173.999 133.265L173.103 131.725C172.761 131.132 173.017 130.495 173.663 130.304L175.364 129.802C176.017 129.611 176.268 128.968 175.925 128.378L175.029 126.838C174.687 126.245 173.872 125.923 173.221 126.116L147.108 133.825C146.456 134.016 145.645 133.691 145.301 133.1L142.264 127.872C141.922 127.279 142.17 126.64 142.822 126.449L168.935 118.74C169.587 118.549 169.839 117.905 169.497 117.319L168.601 115.778C168.259 115.185 167.443 114.861 166.791 115.054L165.09 115.556C164.442 115.748 163.629 115.424 163.284 114.833L162.389 113.293C162.046 112.7 161.23 112.375 160.579 112.569L158.88 113.069C158.228 113.26 157.414 112.937 157.071 112.348L156.176 110.807C155.834 110.214 155.017 109.89 154.368 110.082L152.667 110.584C152.015 110.775 151.202 110.451 150.859 109.862L149.963 108.321C149.621 107.729 149.876 107.092 150.527 106.898L160.364 103.994C161.016 103.803 161.829 104.127 162.172 104.716L163.068 106.257C163.41 106.849 164.222 107.171 164.874 106.98L166.575 106.478C167.227 106.286 168.042 106.613 168.385 107.202L169.28 108.742C169.623 109.335 170.434 109.656 171.087 109.465L172.788 108.963C173.44 108.772 174.255 109.098 174.598 109.687L175.493 111.228C175.835 111.82 176.647 112.142 177.3 111.951L179.001 111.449C179.653 111.257 180.464 111.583 180.808 112.174L181.704 113.715C182.043 114.303 182.861 114.63 183.512 114.436L185.213 113.934C185.866 113.743 186.677 114.068 187.021 114.66L190.058 119.888L190.053 119.89Z" fill="white" stroke="#1E1D1D" stroke-width="0.2" stroke-linecap="round" stroke-linejoin="round"/>
<path d="M109.371 153.739C78.2381 153.739 53.0002 128.501 53.0002 97.3686C53.0002 66.236 78.2381 40.998 109.371 40.998C140.503 40.998 165.741 66.236 165.741 97.3686C165.741 128.501 140.503 153.739 109.371 153.739Z" fill="white" stroke="#1E1D1D" stroke-width="0.2" stroke-linecap="round" stroke-linejoin="round"/>
<path d="M94.0507 122.762C113.225 138.584 123.1 151.147 140.312 142.726C120.577 156.201 93.5461 155.554 74.3264 139.45C58.3423 126.058 51.9424 105.472 55.8879 86.3867C59.2888 104.945 76.627 108.386 94.0507 122.762Z" fill="#1E1D1D"/>
<path d="M103.169 111.728C84.3188 102.725 71.6943 89.8654 74.971 83.0049C78.2477 76.1444 96.1848 77.8812 115.035 86.8842C133.884 95.8872 146.509 108.747 143.232 115.608C139.955 122.468 122.018 120.731 103.169 111.728Z" fill="#E1DCFF" stroke="#1E1D1D" stroke-width="0.2" stroke-linecap="round" stroke-linejoin="round"/>
<path d="M118.686 92.9157C118.125 94.0243 116.757 94.4609 115.631 93.8907C114.504 93.3206 114.046 91.9596 114.608 90.8509C115.169 89.7423 116.537 89.3057 117.663 89.8759C118.789 90.446 119.247 91.807 118.686 92.9157Z" fill="#9583FF"/>
<path d="M107.374 95.0176L108.496 92.8011L106.457 91.7687L107.374 95.0176Z" fill="#1E1D1D"/>
<path d="M115.644 103.985L113.152 95.158L108.496 92.8011L107.374 95.0176L108.949 100.596L115.644 103.985Z" fill="#1E1D1D"/>
<path d="M111.255 87.3523L109.499 80.6992L103.692 92.1703L105.448 98.8234L107.374 95.0176L106.457 91.7687L108.496 92.8011L111.255 87.3523Z" fill="#1E1D1D"/>
<path d="M96.7575 90.6745C97.0252 90.8581 97.2939 91.037 97.5663 91.2216C98.2168 91.652 98.8693 92.0731 99.52 92.4789C99.0153 93.3212 98.5327 94.1285 98.0844 94.8888C97.4554 94.4973 96.8246 94.0906 96.2005 93.6754C95.9365 93.4975 95.6763 93.3253 95.4171 93.1484C95.8267 92.3605 96.2745 91.5311 96.7575 90.6745Z" fill="white"/>
<path d="M91.496 90.0272C92.1563 90.5534 92.845 91.0854 93.5649 91.6092C93.538 91.6677 93.5121 91.7215 93.4852 91.78C93.1173 92.5569 92.7894 93.3075 92.4996 94.0168C91.8193 93.516 91.1683 93.0164 90.5419 92.5169C90.7893 91.7743 91.0833 90.9969 91.421 90.199C91.4479 90.1405 91.4701 90.081 91.497 90.0224" fill="white"/>
<path d="M97.9982 118.599C86.1155 112.341 81.5554 97.6358 87.8131 85.753C94.0708 73.8703 108.776 69.3103 120.659 75.5679C132.542 81.8256 137.102 96.5313 130.844 108.414C124.587 120.297 109.881 124.857 97.9982 118.599Z" stroke="#0F0F0F" stroke-width="0.2" stroke-linecap="round" stroke-linejoin="round"/>
<path d="M102.246 110.528C91.5589 104.9 83.9006 98.4273 85.1413 96.0715C86.3819 93.7156 96.0517 96.3683 106.739 101.997C117.427 107.625 125.085 114.097 123.844 116.453C122.604 118.809 112.934 116.156 102.246 110.528Z" fill="white" stroke="#0F0F0F" stroke-width="0.2" stroke-linecap="round" stroke-linejoin="round"/>
<path d="M103.669 108.379C96.6891 104.703 91.5533 100.731 92.1979 99.5068C92.8425 98.2828 99.0234 100.27 106.003 103.946C112.983 107.622 118.119 111.594 117.474 112.818C116.83 114.042 110.649 112.054 103.669 108.379Z" fill="#0F0F0F"/>
<path d="M98.8406 76.3634C99.0863 76.2385 99.3327 76.1217 99.5802 76.0079C90.5906 82.7903 84.2569 98.1979 88.8322 107.276C94.2555 118.037 106.619 120.234 117.379 114.811C128.14 109.388 133.578 98.5538 130.054 86.6589C135.83 98.1214 131.222 112.097 119.759 117.873C108.297 123.648 94.3208 119.04 88.5452 107.577C82.7696 96.1148 87.3781 82.139 98.8406 76.3634Z" fill="#4D99FF"/>
<path d="M102.241 110.528C112.164 115.753 121.209 118.413 123.443 116.882L123.445 116.883C116.206 122.039 106.394 123.022 97.9915 118.597C89.6089 114.182 84.8695 105.562 85.0044 96.6957C85.1094 99.433 92.3879 105.339 102.241 110.528Z" fill="#4D99FF" stroke="#0F0F0F" stroke-width="0.2" stroke-linecap="round" stroke-linejoin="round"/>
<path d="M87.3369 100.344C87.3594 102.848 87.8344 105.205 88.8611 107.24C93.8463 117.131 104.694 119.786 114.771 115.94C117.18 116.715 119.252 117.177 120.818 117.285C120.482 117.475 120.138 117.659 119.788 117.837C108.325 123.612 94.3498 119.004 88.5742 107.541C87.1942 104.801 86.408 101.918 86.1657 99.0365C86.4925 99.4501 86.8839 99.8874 87.3389 100.345L87.3369 100.344Z" fill="#0F0F0F"/>
<path d="M85.0099 96.7006C85.0099 96.7006 85.0113 96.6979 85.0127 96.6953C85.0127 96.6953 85.0113 96.698 85.0099 96.7006Z" fill="white" stroke="#0F0F0F" stroke-width="0.2" stroke-linecap="round" stroke-linejoin="round"/>
<path d="M79.2316 137.126L74.4766 85.9121C75.0325 93.0931 86.7347 103.877 103.172 111.728C120.031 119.782 136.158 122.02 141.723 117.495L98.1919 146.368" fill="#E1DCFF"/>
<path d="M79.2316 137.126L74.4766 85.9121C75.0325 93.0931 86.7347 103.877 103.172 111.728C120.031 119.782 136.158 122.02 141.723 117.495L98.1919 146.368" stroke="#1E1D1D" stroke-width="0.2" stroke-linecap="round" stroke-linejoin="round"/>
<path d="M81.7335 98.8201C81.0108 98.8201 80.425 98.2343 80.425 97.5116C80.425 96.789 81.0108 96.2031 81.7335 96.2031C82.4562 96.2031 83.042 96.789 83.042 97.5116C83.042 98.2343 82.4562 98.8201 81.7335 98.8201Z" fill="#1E1D1D"/>
<path d="M78.8905 95.172C78.5221 95.172 78.2235 94.8734 78.2235 94.505C78.2235 94.1366 78.5221 93.8379 78.8905 93.8379C79.259 93.8379 79.5576 94.1366 79.5576 94.505C79.5576 94.8734 79.259 95.172 78.8905 95.172Z" fill="#1E1D1D"/>
<path d="M77.0595 92.799C76.6911 92.799 76.3924 92.5003 76.3924 92.1319C76.3924 91.7635 76.6911 91.4648 77.0595 91.4648C77.4279 91.4648 77.7266 91.7635 77.7266 92.1319C77.7266 92.5003 77.4279 92.799 77.0595 92.799Z" fill="#1E1D1D"/>
<path d="M87.485 144.455C82.0537 141.861 78.4159 138.156 79.3598 136.18C80.3036 134.204 85.4717 134.705 90.9031 137.299C96.3344 139.893 99.9722 143.598 99.0283 145.574C98.0844 147.55 92.9163 147.05 87.485 144.455Z" fill="#E1DCFF" stroke="#1E1D1D" stroke-width="0.2" stroke-linecap="round" stroke-linejoin="round"/>
<path d="M144.603 67.0219C141.347 63.1534 142.351 59.2023 135.295 53.9883C141.459 57.8026 146.946 62.9339 151.297 69.3053C152.277 70.7421 153.175 72.2102 153.999 73.704C149.974 68.7409 147.833 70.8618 144.603 67.0219Z" fill="#1E1D1D"/>
<path d="M97.4743 51.8999C83.8221 57.1053 73.3685 64.828 66.3271 73.6767C74.6085 52.6639 95.7582 37.4096 123.618 44.9013C153.312 52.8862 169.994 81.9467 162.468 111.76C162.463 111.785 162.414 111.831 162.468 111.76C158.785 124.588 151.074 134.566 140.321 142.724C122.592 156.18 100.137 136.684 82.6163 131.946C90.3446 134.121 150.889 149.549 161.24 111.061C170.453 75.7292 141.535 35.1005 97.4772 51.8999H97.4743Z" fill="#9583FF"/>
<path d="M162.468 111.76C169.994 81.9467 153.312 52.8862 123.618 44.9013C95.7582 37.4096 74.6085 52.6639 66.3271 73.6767C73.3685 64.828 83.8221 57.1053 97.4743 51.8999H97.4772C141.535 35.1005 170.453 75.7292 161.24 111.061C150.889 149.549 90.3446 134.121 82.6163 131.946C100.137 136.684 122.592 156.18 140.321 142.724C151.074 134.566 158.785 124.588 162.468 111.76ZM162.468 111.76C162.463 111.785 162.414 111.831 162.468 111.76Z" stroke="#9583FF" stroke-width="0.2" stroke-linecap="round" stroke-linejoin="round"/>
<path d="M85.8945 52.6147C85.5753 51.866 87.6423 50.2674 90.5114 49.0442C93.3805 47.8211 95.9651 47.4365 96.2843 48.1853C96.6035 48.934 94.5365 50.5326 91.6674 51.7558C88.7983 52.9789 86.2137 53.3635 85.8945 52.6147Z" fill="#E1DCFF"/>
<path d="M56.6316 83.2981C56.6316 83.2981 61.0958 80.2449 66.3212 73.6797C65.6656 75.3417 65.0926 77.0293 64.6079 78.734C59.8786 95.3567 57.8089 122.769 82.6104 131.946C73.2229 129.218 65.7254 126.783 59.4281 119.631C54.5391 108.59 53.2506 95.867 56.6316 83.2981Z" fill="#9583FF" stroke="#9583FF" stroke-width="0.2" stroke-linecap="round" stroke-linejoin="round"/>
<path d="M32.2491 108.402L33.4763 107.72C33.6008 107.65 33.7303 107.623 33.8522 107.633L43.0605 108.422C42.9386 108.412 42.8116 108.439 42.6846 108.509L41.4574 109.191C41.3304 109.261 41.2034 109.288 41.0815 109.278L31.8732 108.489C31.9951 108.499 32.1246 108.472 32.2491 108.402Z" fill="white" stroke="#1E1D1D" stroke-width="0.2" stroke-miterlimit="10"/>
<path d="M44.8633 83.6427L35.655 82.8535L32.7225 84.4866L41.9308 85.2732L44.8633 83.6427Z" fill="#4D99FF" stroke="#1E1D1D" stroke-width="0.2" stroke-miterlimit="10"/>
<path d="M41.9322 85.2749L32.7239 84.4883L33.63 88.7128L42.8408 89.4995L41.9322 85.2749Z" fill="#1E1D1D" stroke="#1E1D1D" stroke-width="0.2" stroke-linecap="round" stroke-linejoin="round"/>
<path d="M41.9339 85.2717L42.8425 89.4962L44.9211 88.3387C45.3941 88.0773 45.658 87.313 45.5111 86.6334L44.8664 83.6387L41.9314 85.2717H41.9339Z" fill="white" stroke="#1E1D1D" stroke-width="0.2" stroke-miterlimit="10"/>
<path d="M42.5681 75.5802C42.9066 75.61 43.2028 75.9237 43.3099 76.4216L44.8633 83.6409L35.655 82.8517L34.1016 75.6324C33.9945 75.1346 33.6958 74.8184 33.3597 74.791L42.5681 75.5802Z" fill="#1E1D1D" stroke="#1E1D1D" stroke-width="0.2" stroke-linecap="round" stroke-linejoin="round"/>
<path d="M39.8996 91.133L40.5443 94.1278C40.6912 94.8074 41.1916 95.146 41.6646 94.8821L42.8918 94.2C43.3648 93.9386 43.6287 93.1719 43.4818 92.4948L42.8371 89.5L39.9021 91.133H39.8996Z" fill="white" stroke="#1E1D1D" stroke-width="0.2" stroke-miterlimit="10"/>
<path d="M39.8986 91.1348L40.5433 94.1296C40.6504 94.6275 40.9491 94.9436 41.2852 94.971L32.0768 94.1819C31.7383 94.152 31.4421 93.8383 31.335 93.3405L30.6902 90.3457L39.8986 91.1348Z" fill="#1E1D1D" stroke="#1E1D1D" stroke-width="0.2" stroke-linecap="round" stroke-linejoin="round"/>
<path d="M42.8408 89.4995L33.63 88.7129L30.695 90.3459L39.9033 91.1351L42.8408 89.4995Z" fill="#4D99FF" stroke="#1E1D1D" stroke-width="0.2" stroke-miterlimit="10"/>
<path d="M28.4057 105.81L29.633 105.128C29.76 105.058 29.8869 105.031 30.0114 105.041L39.2197 105.83C39.0977 105.82 38.9683 105.848 38.8413 105.917L37.6141 106.599C37.4871 106.669 37.3601 106.696 37.2382 106.687L28.0298 105.897C28.1518 105.907 28.2813 105.88 28.4057 105.81Z" fill="#1E1D1D" stroke="#1E1D1D" stroke-width="0.2" stroke-miterlimit="10"/>
<path d="M30.8473 71.3398L35.0095 69.0247C35.1365 68.955 35.2635 68.9276 35.3854 68.9375L44.5938 69.7267C44.4718 69.7167 44.3423 69.7441 44.2179 69.8138L40.0556 72.1289C39.9311 72.1986 39.8016 72.226 39.6797 72.2161L30.4714 71.4269C30.5933 71.4369 30.7203 71.4095 30.8473 71.3398Z" fill="#4D99FF" stroke="#1E1D1D" stroke-width="0.2" stroke-miterlimit="10"/>
<path d="M19.389 114.183L19.0081 112.416L28.2164 113.205L28.5973 114.973C28.7442 115.652 28.4778 116.414 28.0073 116.678L18.799 115.889C19.272 115.627 19.5358 114.863 19.389 114.183Z" fill="#1E1D1D" stroke="#1E1D1D" stroke-width="0.2" stroke-linecap="round" stroke-linejoin="round"/>
<path d="M19.5976 110.711L20.8249 110.029L30.0332 110.818L28.8059 111.501C28.3354 111.762 28.0716 112.524 28.2159 113.203L19.0076 112.414C18.8608 111.735 19.1271 110.973 19.5976 110.711Z" fill="#4D99FF" stroke="#1E1D1D" stroke-width="0.2" stroke-miterlimit="10"/>
<path d="M28.5931 102.279C28.9291 102.309 29.2279 102.623 29.3349 103.121L30.6244 109.113C30.7713 109.792 30.5074 110.557 30.0344 110.818L20.8261 110.029C21.2991 109.768 21.5605 109.003 21.4161 108.324L20.1266 102.332C20.0195 101.834 19.7233 101.52 19.3848 101.49L28.5931 102.279Z" fill="#1E1D1D" stroke="#1E1D1D" stroke-width="0.2" stroke-linecap="round" stroke-linejoin="round"/>
<path d="M26.1874 119.063L27.4769 125.055C27.584 125.55 27.8827 125.866 28.2188 125.894L19.0104 125.104C18.6719 125.074 18.3756 124.761 18.2686 124.265L16.9791 118.273L26.1874 119.063Z" fill="#1E1D1D" stroke="#1E1D1D" stroke-width="0.2" stroke-linecap="round" stroke-linejoin="round"/>
<path d="M17.5751 116.567L18.8024 115.885L28.0107 116.674L26.7835 117.356C26.3105 117.617 26.0466 118.384 26.1935 119.061L16.9852 118.272C16.8383 117.592 17.1046 116.828 17.5751 116.567Z" fill="#4D99FF" stroke="#1E1D1D" stroke-width="0.2" stroke-miterlimit="10"/>
<path d="M24.7473 99.6876C25.0859 99.7175 25.3821 100.031 25.4891 100.529L25.8675 102.294C25.9746 102.792 26.2733 103.108 26.6094 103.135L17.4011 102.346C17.065 102.316 16.7663 102.003 16.6592 101.505L16.2808 99.7399C16.1738 99.242 15.8751 98.9258 15.539 98.8984L24.7473 99.6876Z" fill="#1E1D1D" stroke="#1E1D1D" stroke-width="0.2" stroke-linecap="round" stroke-linejoin="round"/>
<path d="M20.9064 97.0958C21.2424 97.1257 21.5412 97.4393 21.6482 97.9372L22.293 100.932L13.0847 100.143L12.4399 97.1481C12.3328 96.6502 12.0366 96.3365 11.6981 96.3066L20.9064 97.0958Z" fill="#1E1D1D" stroke="#1E1D1D" stroke-width="0.2" stroke-linecap="round" stroke-linejoin="round"/>
<path d="M19.3595 102.565L20.0042 105.559C20.1511 106.239 20.6515 106.578 21.1245 106.314L22.3518 105.632C22.8247 105.37 23.0861 104.606 22.9417 103.926L22.297 100.932L19.362 102.565H19.3595Z" fill="white" stroke="#1E1D1D" stroke-width="0.2" stroke-miterlimit="10"/>
<path d="M19.3576 102.565L20.0023 105.559C20.1093 106.057 20.4081 106.373 20.7441 106.401L11.5358 105.612C11.1973 105.582 10.901 105.268 10.794 104.77L10.1492 101.775L19.3576 102.565Z" fill="#1E1D1D" stroke="#1E1D1D" stroke-width="0.2" stroke-linecap="round" stroke-linejoin="round"/>
<path d="M22.2881 100.934L13.0798 100.145L10.1472 101.778L19.3556 102.567L22.2881 100.934Z" fill="#4D99FF" stroke="#1E1D1D" stroke-width="0.2" stroke-miterlimit="10"/>
<path d="M15.5148 99.9729L16.1595 102.968C16.3064 103.647 16.8043 103.983 17.2772 103.722L19.3584 102.564L18.4498 98.3398L15.5148 99.9729Z" fill="white" stroke="#1E1D1D" stroke-width="0.2" stroke-miterlimit="10"/>
<path d="M18.4453 98.3419L9.237 97.5527L6.30198 99.1858L15.5103 99.9749L18.4453 98.3419Z" fill="#4D99FF" stroke="#1E1D1D" stroke-width="0.2" stroke-miterlimit="10"/>
<path d="M15.5148 99.9727L16.1595 102.967C16.2666 103.465 16.5628 103.779 16.9014 103.809L7.69304 103.02C7.35697 102.99 7.05825 102.676 6.9512 102.178L6.30644 99.1836L15.5148 99.9727Z" fill="#1E1D1D" stroke="#1E1D1D" stroke-width="0.2" stroke-linecap="round" stroke-linejoin="round"/>
<path d="M16.1501 90.2774C16.4862 90.3073 16.7849 90.621 16.8919 91.1188L18.4453 98.3381L9.237 97.549L7.68361 90.3297C7.57657 89.8318 7.27783 89.5157 6.94176 89.4883L16.1501 90.2774Z" fill="#1E1D1D" stroke="#1E1D1D" stroke-width="0.2" stroke-linecap="round" stroke-linejoin="round"/>
<path d="M6.25128 83.6478L5.87288 81.8828L15.0812 82.672L15.4596 84.4369C15.6065 85.1166 15.3401 85.8808 14.8696 86.1422L5.66129 85.353C6.13179 85.0917 6.39566 84.3274 6.25128 83.6478Z" fill="#1E1D1D" stroke="#1E1D1D" stroke-width="0.2" stroke-linecap="round" stroke-linejoin="round"/>
<path d="M6.45985 80.1752L28.2322 68.0618C28.3592 67.9921 28.4861 67.9647 28.6081 67.9746L37.8164 68.7638C37.6944 68.7538 37.565 68.7812 37.4405 68.8509L15.6682 80.9644C15.1952 81.2257 14.9313 81.9925 15.0782 82.6696L5.86985 81.8805C5.72297 81.2009 5.98935 80.4366 6.45985 80.1752Z" fill="#4D99FF" stroke="#1E1D1D" stroke-width="0.2" stroke-miterlimit="10"/>
<path d="M10.1162 90.1622L12.3119 100.379C12.4189 100.877 12.7176 101.193 13.0537 101.22L3.8454 100.431C3.50684 100.401 3.21059 100.087 3.10355 99.5896L0.907887 89.373L10.1162 90.1622Z" fill="#1E1D1D" stroke="#1E1D1D" stroke-width="0.2" stroke-linecap="round" stroke-linejoin="round"/>
<path d="M1.49756 87.6687L5.65985 85.3535L14.8682 86.1427L10.7059 88.4578C10.2329 88.7192 9.96902 89.4834 10.1159 90.163L0.907568 89.3739C0.760694 88.6943 1.02706 87.9325 1.49756 87.6687Z" fill="#4D99FF" stroke="#1E1D1D" stroke-width="0.2" stroke-miterlimit="10"/>
<path d="M15.6676 80.9654C15.1946 81.2267 14.9308 81.9935 15.0776 82.6706L15.456 84.4356C15.6029 85.1152 15.3365 85.8794 14.866 86.1408L10.7037 88.456C10.2308 88.7174 9.96688 89.4816 10.1138 90.1612L12.3094 100.378C12.4563 101.057 12.9567 101.396 13.4296 101.132L15.5108 99.9745L13.9574 92.7552C13.8105 92.0756 14.0744 91.3113 14.5474 91.0499L15.7747 90.3678C16.2452 90.1065 16.7455 90.445 16.8924 91.1246L18.4458 98.3439L20.5269 97.1863C20.9999 96.9249 21.4978 97.2635 21.6447 97.9406L22.2894 100.935L24.3706 99.7778C24.8436 99.5164 25.3439 99.8525 25.4908 100.532L25.8692 102.297C26.0161 102.977 26.5164 103.315 26.9869 103.054L28.2142 102.372C28.6872 102.11 29.1851 102.446 29.332 103.126L30.6215 109.118C30.7684 109.798 30.5045 110.562 30.0315 110.823L28.8042 111.505C28.3337 111.767 28.0698 112.529 28.2142 113.208L28.5951 114.976C28.742 115.655 28.4756 116.417 28.0051 116.681L26.7778 117.363C26.3049 117.624 26.041 118.391 26.1879 119.068L27.4774 125.06C27.6218 125.737 28.1246 126.076 28.5976 125.812L44.4999 116.962C44.9729 116.701 45.2343 115.937 45.0899 115.259L43.8004 109.267C43.6535 108.588 43.1531 108.249 42.6827 108.511L41.4554 109.193C40.9824 109.454 40.4845 109.118 40.3376 108.438L39.9568 106.671C39.8099 105.991 39.3095 105.655 38.8365 105.919L37.6092 106.601C37.1363 106.863 36.6359 106.527 36.489 105.847L35.1995 99.855C35.0526 99.1754 35.319 98.4136 35.7895 98.1497L37.0168 97.4676C37.4898 97.2062 37.7536 96.4395 37.6068 95.7624L37.2284 93.9974C37.0815 93.3178 37.3454 92.5535 37.8184 92.2922L39.8995 91.1346L39.2547 88.1398C39.1104 87.4627 39.3742 86.6985 39.8447 86.4346L41.9259 85.277L40.3725 78.0577C40.2256 77.3781 40.4895 76.6139 40.9625 76.3525L42.1898 75.6704C42.6627 75.409 43.1631 75.7451 43.31 76.4247L44.8634 83.644L46.9445 82.4864C47.4175 82.225 47.6789 81.4607 47.5345 80.7811L45.3389 70.5646C45.192 69.885 44.6941 69.5489 44.2211 69.8103L40.0588 72.1255C39.5858 72.3869 39.088 72.0483 38.9411 71.3687L38.5627 69.6037C38.4158 68.9241 37.9154 68.5855 37.4425 68.8494L15.6701 80.9629L15.6676 80.9654Z" fill="white" stroke="#1E1D1D" stroke-width="0.2" stroke-miterlimit="10"/>
<path d="M171.412 58.5814L172.175 57.8709C172.275 57.7792 172.384 57.7343 172.495 57.7323L179.59 57.6035C179.481 57.6055 179.369 57.6504 179.27 57.7421L178.507 58.4525C178.407 58.5443 178.298 58.5892 178.187 58.5911L171.092 58.7199C171.201 58.718 171.312 58.6731 171.412 58.5814Z" fill="#4D99FF" stroke="#1E1D1D" stroke-width="0.2" stroke-linecap="round" stroke-linejoin="round"/>
<path d="M167.271 54.7239L168.034 54.0115C168.132 53.9198 168.243 53.8749 168.351 53.873L175.445 53.7441C175.336 53.7461 175.227 53.791 175.129 53.8827L174.366 54.5951C174.268 54.6869 174.157 54.7317 174.048 54.7337L166.953 54.8625C167.062 54.8625 167.172 54.8157 167.271 54.7239Z" fill="#4D99FF" stroke="#1E1D1D" stroke-width="0.2" stroke-linecap="round" stroke-linejoin="round"/>
<path d="M165.98 90.7988L173.074 90.67C173.289 90.6661 173.502 90.8281 173.625 91.1209L174.109 92.2822C174.232 92.5769 174.444 92.7369 174.659 92.733L167.564 92.8618C167.35 92.8657 167.137 92.7037 167.014 92.411L166.53 91.2497C166.407 90.955 166.194 90.7949 165.98 90.7988Z" fill="#1E1D1D"/>
<path d="M161.174 91.4238L168.269 91.295C168.483 91.2911 168.696 91.4531 168.819 91.7459L169.303 92.9072C169.426 93.2019 169.639 93.3619 169.854 93.358L162.759 93.4868C162.544 93.4907 162.331 93.3287 162.208 93.036L161.724 91.8747C161.601 91.58 161.389 91.4199 161.174 91.4238Z" fill="#1E1D1D"/>
<path d="M162.46 55.3517L165.052 52.9373C165.15 52.8456 165.261 52.8007 165.37 52.7987L172.465 52.6699C172.356 52.6719 172.246 52.7168 172.147 52.8085L169.555 55.2229C169.457 55.3146 169.348 55.3595 169.239 55.3614L162.144 55.4902C162.253 55.4883 162.362 55.4434 162.46 55.3517Z" fill="#4D99FF" stroke="#1E1D1D" stroke-width="0.2" stroke-linecap="round" stroke-linejoin="round"/>
<path d="M157.03 87.5664L164.125 87.4376C164.34 87.4337 164.552 87.5957 164.675 87.8884L166.317 91.8291C166.44 92.1257 166.654 92.2877 166.869 92.2838L159.774 92.4127C159.56 92.4166 159.347 92.2546 159.222 91.9579L157.581 88.0172C157.458 87.7225 157.245 87.5625 157.03 87.5664Z" fill="#1E1D1D"/>
<path d="M158.414 77.1751C158.122 77.4464 158.036 78.0338 158.219 78.4769L162.175 87.9762C162.361 88.4232 162.751 88.5637 163.044 88.2924L163.807 87.58C164.1 87.3087 164.49 87.4492 164.674 87.8923L166.315 91.8329C166.501 92.2799 166.893 92.4204 167.184 92.1491L167.947 91.4367C168.24 91.1635 168.632 91.304 168.815 91.749L169.299 92.9103C169.485 93.3553 169.875 93.4958 170.166 93.2226L172.756 90.8102C173.049 90.5389 173.439 90.6794 173.625 91.1225L174.109 92.2838C174.294 92.7268 174.684 92.8693 174.977 92.5961L181.221 86.7798C181.514 86.5085 181.6 85.921 181.416 85.4779L180.932 84.3166C180.747 83.8736 180.834 83.2861 181.127 83.0148L183.719 80.6004C184.012 80.3291 184.098 79.7416 183.914 79.2986L183.43 78.1373C183.245 77.6942 183.333 77.1067 183.626 76.8354L184.389 76.123C184.681 75.8517 184.767 75.2643 184.582 74.8173L182.94 70.8767C182.755 70.4336 182.843 69.8461 183.136 69.5729L183.899 68.8624C184.192 68.5892 184.279 68.0017 184.094 67.5567L180.138 58.0574C179.952 57.6143 179.562 57.4718 179.269 57.7451L178.506 58.4555C178.213 58.7288 177.821 58.5882 177.637 58.1432L175.996 54.2026C175.811 53.7556 175.42 53.6151 175.127 53.8864L174.364 54.5988C174.072 54.8701 173.681 54.7296 173.496 54.2865L173.012 53.1252C172.826 52.6822 172.436 52.5397 172.145 52.8129L169.553 55.2273C169.26 55.4986 168.87 55.358 168.685 54.9111L168.203 53.7517C168.017 53.3048 167.627 53.1642 167.334 53.4355L161.09 59.2518C160.798 59.5251 160.71 60.1126 160.895 60.5576L161.377 61.7169C161.563 62.1639 161.475 62.7494 161.184 63.0227L158.594 65.4351C158.301 65.7064 158.215 66.2939 158.399 66.7369L158.883 67.8982C159.068 68.3413 158.98 68.9288 158.686 69.202L157.923 69.9144C157.63 70.1857 157.544 70.7732 157.729 71.2202L159.371 75.1608C159.556 75.6039 159.468 76.1914 159.176 76.4627L158.412 77.1751H158.414Z" fill="white" stroke="#1E1D1D" stroke-width="0.2" stroke-linecap="round" stroke-linejoin="round"/>
<path d="M170.041 62.4804C169.748 62.7517 169.662 63.3392 169.846 63.7822L170.666 65.7516L171.823 68.529L172.643 70.4983C172.828 70.9453 173.219 71.0858 173.511 70.8145L174.274 70.1021C174.567 69.8308 174.653 69.2433 174.468 68.7964L173.648 66.827L172.49 64.0496L171.671 62.0803C171.485 61.6372 171.095 61.4948 170.802 61.768L170.039 62.4804H170.041Z" fill="#1E1D1D"/>
<path d="M164.565 67.5859C164.272 67.8591 164.184 68.4466 164.368 68.8897L165.188 70.859L166.345 73.6364L167.165 75.6057C167.35 76.0527 167.741 76.1932 168.035 75.92L168.798 75.2095C169.091 74.9363 169.179 74.3488 168.994 73.9038L168.174 71.9344L167.016 69.1571L166.197 67.1877C166.011 66.7447 165.621 66.6022 165.328 66.8754L164.565 67.5859Z" fill="#1E1D1D"/>
<path d="M176.498 71.8934C176.206 72.1647 176.12 72.7522 176.305 73.1992L177.125 75.1685L178.419 73.9623C178.712 73.691 178.798 73.1035 178.612 72.6566L178.13 71.4972C177.945 71.0503 177.554 70.9097 177.262 71.181L176.498 71.8934Z" fill="#1E1D1D"/>
<path d="M169.817 81.9777L170.637 83.9471C170.823 84.3901 171.213 84.5326 171.506 84.2594L172.8 83.0532L174.627 81.3512L176.453 79.6493L177.748 78.4431C178.04 78.1718 178.126 77.5843 177.943 77.1412L177.123 75.1719L175.296 76.8738L173.469 78.5758L171.642 80.2777L169.816 81.9797L169.817 81.9777Z" fill="#1E1D1D"/>
<path d="M167.365 80.4032C167.072 80.6745 166.986 81.262 167.172 81.7089L167.654 82.8683C167.839 83.3153 168.23 83.4558 168.522 83.1845L169.816 81.9783L168.997 80.0089C168.811 79.562 168.421 79.4215 168.128 79.6928L167.365 80.4052V80.4032Z" fill="#1E1D1D"/>
<path d="M151.125 78.6017C150.939 78.1587 151.027 77.5712 151.32 77.2999L152.083 76.5875C152.376 76.3162 152.462 75.7287 152.278 75.2856L150.637 71.345C150.451 70.898 150.539 70.3125 150.83 70.0393L151.593 69.3269C151.886 69.0536 151.974 68.4661 151.79 68.0231L151.306 66.8618C151.121 66.4187 151.209 65.8312 151.501 65.5599L154.091 63.1475C154.384 62.8762 154.47 62.2887 154.285 61.8418L153.801 60.6824C153.615 60.2355 153.703 59.6499 153.996 59.3767L160.239 53.5604C160.337 53.4686 160.448 53.4237 160.556 53.4218L167.65 53.293C167.541 53.2949 167.432 53.3398 167.334 53.4315L161.09 59.2479C160.798 59.5211 160.71 60.1086 160.895 60.5536L161.379 61.713C161.565 62.1599 161.477 62.7454 161.186 63.0187L158.596 65.4311C158.303 65.7024 158.217 66.2899 158.401 66.7329L158.885 67.8942C159.07 68.3373 158.983 68.9248 158.688 69.198L157.925 69.9104C157.632 70.1817 157.546 70.7692 157.731 71.2162L159.373 75.1568C159.558 75.5999 159.47 76.1874 159.178 76.4587L158.415 77.1711C158.122 77.4424 158.036 78.0298 158.219 78.4729L162.176 87.9722C162.299 88.2689 162.513 88.4309 162.728 88.427L155.633 88.5558C155.419 88.5597 155.206 88.3977 155.081 88.103L151.125 78.6037V78.6017Z" fill="#4D99FF" stroke="#1E1D1D" stroke-width="0.2" stroke-linecap="round" stroke-linejoin="round"/>
<path d="M162.73 88.4306C162.516 88.4346 162.303 88.2726 162.178 87.9759L158.222 78.4766L151.127 78.6054L155.083 88.1047C155.206 88.4014 155.419 88.5614 155.636 88.5575L162.73 88.4287V88.4306Z" fill="#1E1D1D"/>
<path d="M154.092 63.1486C154.385 62.8773 154.471 62.2898 154.286 61.8429L153.801 60.6835L160.896 60.5547L161.38 61.714C161.566 62.161 161.478 62.7465 161.187 63.0198L154.092 63.1486Z" fill="#1E1D1D"/>
<path d="M151.592 69.3302C151.885 69.057 151.973 68.4695 151.79 68.0265L151.306 66.8651L158.4 66.7363L158.884 67.8976C159.07 68.3407 158.982 68.9282 158.687 69.2014L151.592 69.3302Z" fill="#1E1D1D"/>
<path d="M152.083 76.5881C152.375 76.3168 152.461 75.7293 152.278 75.2863L150.636 71.3456L157.731 71.2168L159.373 75.1574C159.558 75.6005 159.47 76.188 159.177 76.4593L152.083 76.5881Z" fill="#1E1D1D"/>
<path d="M58.5681 56.225L59.4062 59.498L56.1332 60.3362L55.2951 57.0632L58.5681 56.225Z" fill="#1E1D1D"/>
<path d="M187.878 89.6186L190.669 90.5566L189.731 93.3479L186.94 92.4099L187.878 89.6186Z" fill="#1E1D1D"/>
<path d="M40.0273 48.274L44.4746 48.0586L44.69 52.5059L40.2427 52.7214L40.0273 48.274Z" fill="#0098EA"/>
<path d="M205.703 79.8959L205.787 84.3477L201.335 84.4316L201.251 79.9798L205.703 79.8959Z" fill="#0098EA"/>
<path d="M91.5013 46.4775C99.8663 38.1765 101.883 26.6462 96.006 20.7238C90.1289 14.8014 78.5834 16.7295 70.2184 25.0305C61.8535 33.3315 59.8367 44.8618 65.7138 50.7842C71.5909 56.7066 83.1364 54.7784 91.5013 46.4775Z" fill="white" stroke="#1E1D1D" stroke-width="0.2" stroke-linecap="round" stroke-linejoin="round"/>
<path d="M88.7874 28.1676L77.0008 26.0893C74.8336 25.7072 72.3421 27.9759 72.5287 30.198L73.7735 45.023C73.8545 45.991 75.0441 46.2008 75.9125 45.4002L89.2177 33.1407C91.2088 31.3061 90.9546 28.5498 88.7889 28.1679L88.7874 28.1676ZM75.5757 40.9608L75.4577 37.3883L74.9045 29.3711C74.8616 28.8567 75.4413 28.3093 75.9693 28.4024L80.7873 29.2519L75.5735 40.9622L75.5757 40.9608ZM87.8667 31.655L80.7748 38.3276L77.725 41.3398L82.9388 29.6296L87.7567 30.4791C88.2848 30.5722 88.3281 31.2294 87.8667 31.655Z" fill="#0098EA"/>
<path d="M91.4985 46.4607C99.8625 38.1596 101.88 26.632 96.0022 20.7109L99.0353 23.7682C104.913 29.6892 102.896 41.2218 94.5316 49.5228C86.1676 57.8239 74.6206 59.7541 68.7479 53.833L65.7148 50.7757C71.5924 56.6968 83.1345 54.7667 91.4985 46.4656V46.4607Z" fill="#0098EA" stroke="#1E1D1D" stroke-width="0.2" stroke-linecap="round" stroke-linejoin="round"/>
<path d="M93.4297 44.3514C94.4988 43.0695 95.4276 41.7343 96.2161 40.375L99.2492 43.4323C98.4607 44.7916 97.5319 46.1267 96.4628 47.4087L93.4297 44.3514Z" fill="white"/>
<path d="M97.2754 38.3385C98.954 34.7394 99.6457 31.0582 99.2636 27.7832L102.297 30.8405C102.684 34.1154 101.987 37.7967 100.308 41.3958L97.2754 38.3385Z" fill="#1E1D1D"/>
<path d="M91.4985 46.4607C99.8625 38.1596 101.88 26.632 96.0022 20.7109L99.0353 23.7682C104.913 29.6892 102.896 41.2218 94.5316 49.5228C86.1676 57.8239 74.6206 59.7541 68.7479 53.833L65.7148 50.7757C71.5924 56.6968 83.1345 54.7667 91.4985 46.4656V46.4607Z" stroke="#1E1D1D" stroke-width="0.2" stroke-linecap="round" stroke-linejoin="round"/>
</svg>
