<svg width="40" height="40" viewBox="0 0 40 40" fill="none" xmlns="http://www.w3.org/2000/svg">
<rect width="40" height="40" rx="5" fill="black"/>
<g clip-path="url(#clip0_12364_38515)">
<path fill-rule="evenodd" clip-rule="evenodd" d="M9.53627 10.6414L8.63169 10.5935L8.6276 11.5071L8.62714 11.6975C8.62687 11.8458 8.62651 12.1019 8.62615 12.5334C8.62543 13.3962 8.62471 14.961 8.62471 17.7689V18.1296L9.6965 19.2106C9.27212 19.4798 8.84574 19.746 8.41739 20.0091L8.00335 20.2634L8 26.2855L12.9437 31.2746L13.2683 31.296C19.3344 31.6956 25.573 31.2522 31.4182 29.2184L32 29.016V21.7796L30.7355 20.5042C30.9509 20.2897 31.1659 20.0734 31.3793 19.8557L31.6287 19.6013V19.2434C31.6287 18.9965 31.6295 17.703 31.6302 16.4708L31.6318 13.7077L26.5398 8.57227L26.033 8.7435C20.7704 10.5215 15.126 10.9374 9.53627 10.6414ZM26.3073 9.56917L30.7682 14.0682C30.7682 14.0682 30.7653 18.7488 30.7653 19.2434C30.5533 19.4597 30.3395 19.6749 30.1249 19.8885C29.9195 20.093 29.7133 20.296 29.5074 20.4971L31.1366 22.1402V28.3952C25.432 30.3802 19.3157 30.8218 13.3245 30.427L8.86361 25.9252L8.86649 20.7528C9.35431 20.4532 9.83967 20.1496 10.3225 19.8419C10.5717 19.6831 10.8202 19.5232 11.0679 19.3622L9.48811 17.7689C9.48811 14.7885 9.48893 13.209 9.48969 12.3829C9.49036 11.6524 9.491 11.511 9.491 11.511C9.77851 11.5262 10.0663 11.5396 10.3543 11.551C15.7329 11.7645 21.1835 11.3003 26.3073 9.56917Z" fill="white"/>
<path fill-rule="evenodd" clip-rule="evenodd" d="M9.49098 11.5102C15.1482 11.8098 20.9091 11.3922 26.3073 9.56836L30.7682 14.0673C30.7682 14.0673 30.7653 18.748 30.7653 19.2426C30.3502 19.666 29.9283 20.0852 29.5074 20.4963L31.1366 22.1394V28.3944C25.432 30.3793 19.3157 30.821 13.3245 30.4262L8.86359 25.9243L8.86648 20.752C9.60605 20.2978 10.34 19.8343 11.0679 19.3614L9.4881 17.7681C9.4881 12.1525 9.49098 11.5102 9.49098 11.5102Z" fill="#0D0D0D"/>
<path d="M29.0385 16.3428V18.8506C26.2555 21.5267 23.4724 23.8604 20.6923 25.9415C23.5991 25.7471 26.5029 25.2798 29.4126 24.4322C29.4126 25.3581 29.4126 26.2812 29.4126 27.2071C25.4007 28.3797 21.3916 28.8238 17.3825 28.8238C16.6055 28.8238 15.8284 28.8064 15.0513 28.7744V26.2666C17.8344 24.4815 20.6174 22.5107 23.3976 20.2554C21.3974 20.5137 19.3971 20.624 17.3969 20.624C16.8213 20.624 16.2486 20.6153 15.673 20.5979C15.673 19.672 15.673 18.749 15.673 17.823C16.2428 17.8405 16.8098 17.8492 17.3797 17.8492C21.265 17.8492 25.1503 17.4341 29.0356 16.3398L29.0385 16.3428Z" fill="white"/>
</g>
<defs>
<clipPath id="clip0_12364_38515">
<rect width="24" height="24" fill="white" transform="translate(8 8)"/>
</clipPath>
</defs>
</svg>
