<svg width="24" height="24" viewBox="0 0 24 24" fill="none" xmlns="http://www.w3.org/2000/svg">
<g clip-path="url(#clip0_9225_23535)">
<path d="M11.9999 23.9551C18.6021 23.9551 23.955 18.6022 23.955 12C23.955 5.39781 18.6021 0.0449219 11.9999 0.0449219C5.39769 0.0449219 0.0447998 5.39781 0.0447998 12C0.0447998 18.6022 5.39769 23.9551 11.9999 23.9551Z" fill="white" stroke="#0F0F0F" stroke-width="0.13472" stroke-linecap="round" stroke-linejoin="round"/>
<path d="M11.9997 0.556641C5.67953 0.556641 0.555664 5.68051 0.555664 12.0007C0.555664 18.3209 5.67953 23.4448 11.9997 23.4448C18.3199 23.4448 23.4438 18.3209 23.4438 12.0007C23.4438 5.68051 18.3199 0.556641 11.9997 0.556641ZM10.3606 17.756C5.53583 14.5307 0.14342 8.58149 4.36196 4.36294C8.58051 0.144396 15.4189 0.144396 19.6375 4.36294C23.0647 7.79023 23.4572 12.8378 21.5649 17.024C20.4539 19.4813 15.3201 21.071 10.3606 17.756Z" fill="#CD7F32"/>
<path d="M10.8017 22.4661C10.8556 22.2182 10.3472 21.8985 9.66824 21.7521C8.98835 21.6057 8.39468 21.6883 8.34169 21.9371C8.2887 22.185 8.79615 22.5047 9.47514 22.6511C10.1541 22.7975 10.7487 22.7149 10.8017 22.4661Z" fill="white"/>
<path d="M20.4963 3.5918C22.5018 6.29519 6.14225 12.9818 1.36237 12.4322C0.121141 12.2893 0.0681513 11.7873 0.0555774 11.5565C0.0501886 11.7038 0.0447998 11.8511 0.0447998 12.0001C0.0447998 15.2011 1.30578 18.1066 3.35443 20.2522C6.32187 22.458 23.5338 15.7535 23.9496 12.2346C23.9514 12.1564 23.9559 12.0783 23.9559 12.0001C23.9559 8.72105 22.6347 5.75181 20.4972 3.5918H20.4963Z" fill="#0F0F0F" stroke="#0F0F0F" stroke-width="0.13472" stroke-linecap="round" stroke-linejoin="round"/>
<path fill-rule="evenodd" clip-rule="evenodd" d="M2.62058 14.9796C2.05206 14.5907 1.60389 14.0904 1.09375 13.6387C1.46288 15.029 1.90656 16.3852 2.50472 17.6947C3.08133 18.2228 3.71541 18.6763 4.35578 19.1218C4.1061 18.6314 3.87079 18.1329 3.64715 17.6291C4.31896 18.0925 4.99346 18.5515 5.70658 18.9502C6.54095 18.8236 7.36903 18.6305 8.18543 18.4212C7.16335 17.9282 6.17361 17.3749 5.19105 16.8091C4.62073 16.9672 4.04323 17.0938 3.46573 17.2186C3.15138 16.4849 2.87655 15.7367 2.61968 14.9805L2.62058 14.9796Z" fill="#CD7F32"/>
<path fill-rule="evenodd" clip-rule="evenodd" d="M8.87224 12.3565C9.51889 14.1267 10.2275 15.8763 10.9173 17.6295C11.4319 17.4714 11.9394 17.2936 12.4486 17.1202C12.1406 16.2957 11.828 15.4739 11.511 14.6522C12.4064 15.2647 13.3072 15.8682 14.2072 16.4745C14.8107 16.2356 15.4107 15.9913 16.0115 15.7461C15.0281 15.0913 14.0446 14.4366 13.0611 13.7819C13.3917 12.6448 13.7042 11.5033 13.9943 10.3555C13.3818 10.6025 12.7657 10.8414 12.1504 11.0839C11.8828 12.1059 11.6035 13.1253 11.3143 14.1411C11.0107 13.349 10.7035 12.5586 10.3955 11.7691C9.88893 11.9676 9.37968 12.1607 8.87134 12.3565H8.87224Z" fill="#CD7F32"/>
<path d="M16.3052 15.6194C15.7106 13.7988 15.0236 12.0053 14.2952 10.2341C14.7855 10.0365 15.275 9.83806 15.7645 9.63867C16.4938 11.3909 17.1629 13.1666 17.7278 14.979C17.2599 15.2071 16.7803 15.4083 16.3043 15.6194H16.3052Z" fill="#CD7F32"/>
<path fill-rule="evenodd" clip-rule="evenodd" d="M16.7935 10.7341C16.9767 10.8203 17.1788 10.8239 17.3647 10.744C17.5542 10.6605 17.6934 10.5105 17.7617 10.3147C17.8228 10.1108 17.8102 9.89795 17.7267 9.70215C17.6494 9.50456 17.5075 9.34739 17.318 9.25129C17.1357 9.16417 16.9345 9.15878 16.7468 9.23512C16.5582 9.31506 16.419 9.46325 16.348 9.65545C16.2798 9.86112 16.2878 10.0776 16.3723 10.2779C16.4522 10.479 16.5986 10.6389 16.7926 10.735L16.7935 10.7341ZM16.7477 11.246C17.2111 12.4316 17.627 13.6342 18.006 14.8494C18.4515 14.6491 18.8862 14.4201 19.3217 14.1991C18.9849 12.9974 18.5583 11.8137 18.1084 10.6506C17.6566 10.8536 17.203 11.0512 16.7477 11.246Z" fill="#CD7F32"/>
<path fill-rule="evenodd" clip-rule="evenodd" d="M20.6702 7.57684C21.3806 9.10906 21.9662 10.7167 22.3542 12.3621C22.5841 12.1798 22.8194 12.0055 23.0323 11.8035C22.9281 11.3131 22.8041 10.8263 22.6613 10.3458C22.9047 10.7167 23.1652 11.0868 23.3529 11.4891C23.502 11.3346 23.6277 11.164 23.7319 10.9772C23.5487 10.5407 23.3385 10.141 23.0844 9.74224C23.0547 9.20336 22.9874 8.68244 22.8966 8.15074C22.744 8.2675 22.5859 8.37797 22.4233 8.48126C22.4655 8.95637 22.5033 9.43239 22.5266 9.9084C22.2329 8.9914 21.8719 8.09596 21.4578 7.22656C21.1965 7.34601 20.9342 7.46277 20.6702 7.57684Z" fill="#CD7F32"/>
<path fill-rule="evenodd" clip-rule="evenodd" d="M18.3645 10.5358C18.8172 11.6962 19.2204 12.871 19.5617 14.0691C19.9524 13.8562 20.3359 13.6407 20.7185 13.4143C20.5515 12.7973 20.3584 12.1866 20.1608 11.5785C20.1338 11.5004 20.1231 11.4178 20.1284 11.3352C20.1329 11.2624 20.1545 11.1924 20.1922 11.1295C20.229 11.072 20.2802 11.0253 20.3404 10.9939C20.4248 10.949 20.5173 10.9463 20.6036 10.9867C20.7006 11.0486 20.7652 11.1439 20.7931 11.2579C20.9835 11.8516 21.1586 12.4497 21.3176 13.0524C21.6149 12.8728 21.8987 12.6743 22.1852 12.4794C22.0127 11.7887 21.816 11.1034 21.5915 10.428C21.5313 10.2107 21.4271 10.0113 21.2807 9.84155C21.1577 9.70144 20.9969 9.60714 20.8146 9.56672C20.635 9.5308 20.4518 9.55595 20.2883 9.63857C20.0692 9.7221 19.8832 9.87029 19.7791 10.0787C19.7503 10.19 19.7485 10.3077 19.7728 10.4209L19.7629 10.4379L19.7252 10.4244C19.656 10.2843 19.6102 10.1317 19.5887 9.97538C19.1827 10.1658 18.7758 10.3535 18.3654 10.5358H18.3645ZM19.7737 10.4694H19.7746V10.4667C19.7737 10.464 19.7719 10.4622 19.7701 10.4613C19.771 10.4541 19.7701 10.4478 19.7683 10.4406V10.4388L19.7656 10.437H19.7611L19.7593 10.4388C19.7593 10.4496 19.7629 10.4595 19.7701 10.4676H19.7728L19.7737 10.4694ZM20.1599 11.5777C20.1599 11.5777 20.1599 11.5794 20.1599 11.5803C20.1599 11.5803 20.159 11.5785 20.159 11.5777H20.1599Z" fill="#CD7F32"/>
<path d="M4.563 13.9561C5.07135 13.7828 5.57251 14.1717 5.74405 14.6405C5.91739 15.1021 5.77459 15.6976 5.26714 15.8656C4.76418 16.0048 4.29895 15.641 4.12651 15.1839C3.95407 14.7267 4.09687 14.1663 4.5621 13.9552L4.563 13.9561Z" fill="#CD7F32"/>
</g>
<defs>
<clipPath id="clip0_9225_23535">
<rect width="24.0009" height="24" fill="white"/>
</clipPath>
</defs>
</svg>
