<svg width="142" height="370" viewBox="0 0 142 370" fill="none" xmlns="http://www.w3.org/2000/svg">
<path d="M141.823 85.2861C141.823 86.0189 141.526 86.7441 140.958 87.4501L117.049 155.33L115.898 158.606L111.203 171.936C99.4112 172.734 85.4247 173.187 70.434 173.187C55.4433 173.187 42.3538 172.761 30.8002 172.009L26.0573 158.526L24.8984 155.237L1.03313 87.4501C0.473514 86.748 0.171875 86.0189 0.171875 85.2861C0.171875 77.6122 31.8797 71.3887 70.9976 71.3887C110.115 71.3887 141.827 77.616 141.827 85.2861H141.823Z" fill="url(#paint0_linear_7600_24130)"/>
<path d="M128.667 178.073H14.3334V370H128.667V178.073Z" fill="url(#paint1_linear_7600_24130)"/>
<path d="M114.655 168H28.3448L14.3334 178.073H128.667L114.655 168Z" fill="url(#paint2_linear_7600_24130)"/>
<g opacity="0.2" clip-path="url(#clip0_7600_24130)">
<path d="M40.5087 107.035C51.6331 112.545 62.9304 109.019 64.7749 101.525C57.8389 98.4813 46.4455 103.105 40.5087 107.035Z" fill="#FFF964"/>
<path d="M48.9433 97.0556C43.3715 92.4513 32.7274 93.4338 25.9644 95.6685C32.6505 102.065 44.6396 104.222 48.9433 97.0556Z" fill="#FFF964"/>
<path d="M35.2443 88.0203C31.3633 82.3949 22.0833 80.5647 15.2434 80.9115C20.162 88.8872 29.8646 92.8558 35.2443 88.0203Z" fill="#FFF964"/>
<path d="M24.946 75.3054C23.3513 69.391 14.8015 65.1527 9.11438 63.9583C11.5737 71.8569 18.6633 78.2337 24.946 75.3054Z" fill="#FFF964"/>
<path d="M18.9899 60.0669C19.0475 57.6973 18.1637 55.6167 16.7612 53.7287C16.5114 53.3819 16.2424 53.0159 15.9542 52.6498C13.956 50.1647 11.1125 47.7758 8.01917 46.196C8.15366 53.4782 12.7264 60.9338 19.0091 60.0669H18.9899Z" fill="#FFF964"/>
<path d="M17.914 43.8071C19.4895 39.0294 15.5508 32.4793 11.7466 29.0693C10.0943 35.4846 12.3038 42.9595 17.914 43.8071Z" fill="#FFF964"/>
<path d="M21.7759 27.9904C24.4273 24.2145 22.5444 17.6451 20.0275 13.8499C17.2031 18.9166 17.1839 25.8135 21.7759 27.9904Z" fill="#FFF964"/>
<path d="M30.2296 14.1581C33.3998 11.5188 33.3421 5.58517 31.9972 1.71289C27.3668 6.64475 27.6935 11.9041 30.2296 14.1581Z" fill="#FFF964"/>
<path d="M77.2251 101.525C79.0696 109.019 90.3669 112.545 101.491 107.035C95.5737 103.105 84.1611 98.4813 77.2251 101.525Z" fill="#FFF964"/>
<path d="M93.0568 97.0556C97.3605 104.222 109.35 102.065 116.036 95.6685C109.273 93.4338 98.6286 92.4513 93.0568 97.0556Z" fill="#FFF964"/>
<path d="M106.756 88.0203C112.116 92.8558 121.838 88.8872 126.757 80.9115C119.917 80.5647 110.637 82.3949 106.756 88.0203Z" fill="#FFF964"/>
<path d="M117.054 75.3054C123.317 78.2337 130.426 71.8569 132.886 63.9583C127.199 65.1527 118.649 69.391 117.054 75.3054Z" fill="#FFF964"/>
<path d="M126.065 52.6498C125.758 53.0159 125.508 53.3819 125.258 53.7287C123.855 55.6359 122.972 57.6973 123.029 60.0669C129.312 60.9531 133.885 53.4782 134.019 46.196C130.926 47.7758 128.082 50.1647 126.084 52.6498H126.065Z" fill="#FFF964"/>
<path d="M124.086 43.8071C129.677 42.9595 131.887 35.4846 130.253 29.0693C126.468 32.4793 122.53 39.0294 124.086 43.8071Z" fill="#FFF964"/>
<path d="M121.973 13.8499C119.475 17.6451 117.573 24.2337 120.224 27.9904C124.816 25.8135 124.797 18.9166 121.973 13.8499Z" fill="#FFF964"/>
<path d="M111.77 14.1581C114.307 11.9041 114.652 6.64475 110.003 1.71289C108.658 5.58517 108.581 11.5188 111.77 14.1581Z" fill="#FFF964"/>
</g>
<path d="M71.9883 212.029V211.938H91.3368L76.5602 276.446H57.016L67.789 230.185H54.3512L55.8794 223.549L71.9883 212.029Z" fill="url(#paint3_linear_7600_24130)"/>
<path d="M69.3183 209.654V209.562H88.6667L73.8902 274.071H54.346L65.119 227.81H51.6812L53.2093 221.174L69.3183 209.654Z" fill="white"/>
<path d="M54.3512 274.065L57.0223 276.446H76.5665L73.8891 274.065H54.3512Z" fill="url(#paint4_linear_7600_24130)"/>
<path d="M51.6812 227.803L54.3586 230.184H64.5696L65.119 227.803H51.6812Z" fill="url(#paint5_linear_7600_24130)"/>
<path d="M88.667 209.562L91.3382 211.937L76.568 276.446L73.8905 274.065L88.667 209.562Z" fill="url(#paint6_linear_7600_24130)"/>
<defs>
<linearGradient id="paint0_linear_7600_24130" x1="70.9976" y1="190.027" x2="70.9976" y2="-63.948" gradientUnits="userSpaceOnUse">
<stop stop-color="#FFFF00"/>
<stop offset="0.01" stop-color="#F8FC03" stop-opacity="0.94"/>
<stop offset="0.07" stop-color="#DFF111" stop-opacity="0.73"/>
<stop offset="0.13" stop-color="#C9E81D" stop-opacity="0.53"/>
<stop offset="0.19" stop-color="#B6E027" stop-opacity="0.37"/>
<stop offset="0.25" stop-color="#A7DA30" stop-opacity="0.23"/>
<stop offset="0.31" stop-color="#9BD536" stop-opacity="0.13"/>
<stop offset="0.37" stop-color="#92D13B" stop-opacity="0.06"/>
<stop offset="0.43" stop-color="#8DCF3E" stop-opacity="0.01"/>
<stop offset="0.5" stop-color="#8CCF3F" stop-opacity="0"/>
</linearGradient>
<linearGradient id="paint1_linear_7600_24130" x1="71.5" y1="370" x2="71.5" y2="178.073" gradientUnits="userSpaceOnUse">
<stop stop-color="#22795A"/>
<stop offset="1" stop-color="#06262B"/>
</linearGradient>
<linearGradient id="paint2_linear_7600_24130" x1="71.5" y1="168" x2="71.5" y2="178.073" gradientUnits="userSpaceOnUse">
<stop stop-color="#253E37"/>
<stop offset="1" stop-color="#4C776B"/>
</linearGradient>
<linearGradient id="paint3_linear_7600_24130" x1="54.3575" y1="244.195" x2="91.3368" y2="244.195" gradientUnits="userSpaceOnUse">
<stop stop-color="#FFDB31"/>
<stop offset="1" stop-color="#943E00"/>
</linearGradient>
<linearGradient id="paint4_linear_7600_24130" x1="54.3512" y1="275.256" x2="76.5665" y2="275.256" gradientUnits="userSpaceOnUse">
<stop stop-color="#FFDB31"/>
<stop offset="1" stop-color="#943E00"/>
</linearGradient>
<linearGradient id="paint5_linear_7600_24130" x1="51.6812" y1="228.994" x2="65.119" y2="228.994" gradientUnits="userSpaceOnUse">
<stop stop-color="#FFDB31"/>
<stop offset="1" stop-color="#943E00"/>
</linearGradient>
<linearGradient id="paint6_linear_7600_24130" x1="73.8905" y1="243.004" x2="91.3382" y2="243.004" gradientUnits="userSpaceOnUse">
<stop stop-color="#943E00"/>
<stop offset="1" stop-color="#FFDB31"/>
</linearGradient>
<clipPath id="clip0_7600_24130">
<rect width="126" height="108" fill="white" transform="translate(8 1.71289)"/>
</clipPath>
</defs>
</svg>
