<svg width="115" height="295" viewBox="0 0 115 295" fill="none" xmlns="http://www.w3.org/2000/svg">
<path d="M111.209 33.4169C111.209 34.1498 110.979 34.875 110.54 35.581L92.0618 103.46L91.1722 106.737L87.5434 120.067C78.43 120.865 67.6203 121.318 56.0346 121.318C44.4488 121.318 34.3323 120.892 25.403 120.14L21.7374 106.657L20.8417 103.368L2.39708 35.581C1.96457 34.8788 1.73145 34.1498 1.73145 33.4169C1.73145 25.7431 26.2373 19.5195 56.4701 19.5195C86.703 19.5195 111.212 25.7469 111.212 33.4169H111.209Z" fill="url(#paint0_linear_8044_18990)"/>
<path d="M114 131H0V295H114V131Z" fill="url(#paint1_linear_8044_18990)"/>
<path d="M114 131H0V295H114V131Z" fill="black" fill-opacity="0.2"/>
<path d="M18.5 120.242H114.333V130.316H0L18.5 120.242Z" fill="url(#paint2_linear_8044_18990)"/>
<path d="M69.7431 159.548C69.7431 159.548 69.7431 159.531 69.7431 159.52C69.5663 158.399 67.8302 157.635 67.8302 157.635L67.8585 158.593H44.4544L42.9269 164.918H42.9622L42.8491 165.351C42.7501 165.832 42.7006 166.142 42.7006 166.285C42.7006 166.671 42.8314 166.943 43.0931 167.11C43.3547 167.278 43.8321 167.363 44.5286 167.363H49.0015L49.5991 164.918L61.1509 164.955L59.7719 170.633L44.0867 170.599C43.1921 170.599 42.4531 170.749 41.8697 171.049C41.2862 171.349 40.8937 171.918 40.6957 172.754L40.0628 175.447L38.3479 183.747H46.0243L47.7003 175.447L63.4245 175.485C64.2695 175.485 64.9626 175.335 65.5106 175.035C66.0552 174.735 66.4406 174.165 66.6669 173.326L67.4129 170.633L69.6476 161.004C69.7466 160.478 69.7961 160.131 69.7961 159.964C69.7961 159.81 69.7749 159.677 69.7431 159.551V159.548Z" fill="url(#paint3_linear_8044_18990)"/>
<path d="M47.6963 183.75L64.018 183.784L65.5066 177.677L48.9621 177.64L47.6963 183.75Z" fill="url(#paint4_linear_8044_18990)"/>
<path d="M68.0918 157.795C68.364 158.024 68.5019 158.364 68.5019 158.818C68.5019 158.985 68.4524 159.333 68.3534 159.858L66.1187 169.487L65.3727 172.181C65.1499 173.02 64.7645 173.589 64.2164 173.889C63.6684 174.189 62.9753 174.339 62.1303 174.339L46.4061 174.302L44.7301 182.601H37.0537L38.7686 174.302L39.4015 171.608C39.5996 170.769 39.992 170.2 40.5755 169.903C41.1589 169.603 41.8979 169.453 42.7925 169.453L58.4812 169.487L59.8602 163.81L48.3085 163.772L47.7109 166.217H43.238C42.5414 166.217 42.0641 166.132 41.8024 165.965C41.5408 165.798 41.4099 165.522 41.4099 165.14C41.4099 164.996 41.4594 164.686 41.5584 164.205L41.6716 163.772H41.6362L43.1637 157.447H66.6385C67.3351 157.447 67.8195 157.56 68.0918 157.788V157.795ZM62.7278 182.642L46.4061 182.608L47.672 176.498L64.2164 176.535L62.7243 182.642H62.7278Z" fill="white"/>
<path d="M37.0537 182.608L38.3443 183.75H46.0207L44.7301 182.608H37.0537Z" fill="url(#paint5_linear_8044_18990)"/>
<path d="M47.6959 175.447L46.4053 174.305L44.7292 182.607L46.0199 183.75L47.6959 175.447Z" fill="url(#paint6_linear_8044_18990)"/>
<path d="M64.2163 176.535L65.5069 177.677L64.0183 183.784L62.7277 182.642L64.2163 176.535Z" fill="url(#paint7_linear_8044_18990)"/>
<path d="M46.4067 182.608L47.6973 183.75L64.019 183.784L62.7284 182.642L46.4067 182.608Z" fill="url(#paint8_linear_8044_18990)"/>
<path d="M47.7106 166.22L49.0012 167.363L49.5987 164.921L48.3081 163.779L47.7106 166.22Z" fill="url(#paint9_linear_8044_18990)"/>
<defs>
<linearGradient id="paint0_linear_8044_18990" x1="56.4701" y1="138.158" x2="56.4701" y2="-115.817" gradientUnits="userSpaceOnUse">
<stop stop-color="#FFFF00"/>
<stop offset="0.01" stop-color="#F8FC03" stop-opacity="0.94"/>
<stop offset="0.07" stop-color="#DFF111" stop-opacity="0.73"/>
<stop offset="0.13" stop-color="#C9E81D" stop-opacity="0.53"/>
<stop offset="0.19" stop-color="#B6E027" stop-opacity="0.37"/>
<stop offset="0.25" stop-color="#A7DA30" stop-opacity="0.23"/>
<stop offset="0.31" stop-color="#9BD536" stop-opacity="0.13"/>
<stop offset="0.37" stop-color="#92D13B" stop-opacity="0.06"/>
<stop offset="0.43" stop-color="#8DCF3E" stop-opacity="0.01"/>
<stop offset="0.5" stop-color="#8CCF3F" stop-opacity="0"/>
</linearGradient>
<linearGradient id="paint1_linear_8044_18990" x1="57" y1="295" x2="57" y2="131" gradientUnits="userSpaceOnUse">
<stop stop-color="#22795A"/>
<stop offset="1" stop-color="#06262B"/>
</linearGradient>
<linearGradient id="paint2_linear_8044_18990" x1="57.1667" y1="120.242" x2="57.1667" y2="130.316" gradientUnits="userSpaceOnUse">
<stop stop-color="#253E37"/>
<stop offset="1" stop-color="#4C776B"/>
</linearGradient>
<linearGradient id="paint3_linear_8044_18990" x1="38.3444" y1="170.694" x2="69.7926" y2="170.694" gradientUnits="userSpaceOnUse">
<stop offset="0.06" stop-color="white"/>
<stop offset="0.43" stop-color="#B7BFE2"/>
<stop offset="0.97" stop-color="#5E6EB4"/>
</linearGradient>
<linearGradient id="paint4_linear_8044_18990" x1="47.6963" y1="180.712" x2="65.5066" y2="180.712" gradientUnits="userSpaceOnUse">
<stop stop-color="#FFDB31"/>
<stop offset="1" stop-color="#943E00"/>
</linearGradient>
<linearGradient id="paint5_linear_8044_18990" x1="37.0537" y1="183.177" x2="46.0207" y2="183.177" gradientUnits="userSpaceOnUse">
<stop offset="0.06" stop-color="white"/>
<stop offset="0.43" stop-color="#B7BFE2"/>
<stop offset="0.97" stop-color="#5E6EB4"/>
</linearGradient>
<linearGradient id="paint6_linear_8044_18990" x1="44.7292" y1="179.027" x2="47.6959" y2="179.027" gradientUnits="userSpaceOnUse">
<stop offset="0.06" stop-color="white"/>
<stop offset="0.43" stop-color="#B7BFE2"/>
<stop offset="0.97" stop-color="#5E6EB4"/>
</linearGradient>
<linearGradient id="paint7_linear_8044_18990" x1="62.7277" y1="180.159" x2="65.5069" y2="180.159" gradientUnits="userSpaceOnUse">
<stop offset="0.06" stop-color="white"/>
<stop offset="0.43" stop-color="#B7BFE2"/>
<stop offset="0.97" stop-color="#5E6EB4"/>
</linearGradient>
<linearGradient id="paint8_linear_8044_18990" x1="46.4067" y1="183.194" x2="64.019" y2="183.194" gradientUnits="userSpaceOnUse">
<stop offset="0.06" stop-color="white"/>
<stop offset="0.43" stop-color="#B7BFE2"/>
<stop offset="0.97" stop-color="#5E6EB4"/>
</linearGradient>
<linearGradient id="paint9_linear_8044_18990" x1="47.7106" y1="165.573" x2="49.5987" y2="165.573" gradientUnits="userSpaceOnUse">
<stop offset="0.06" stop-color="white"/>
<stop offset="0.43" stop-color="#B7BFE2"/>
<stop offset="0.97" stop-color="#5E6EB4"/>
</linearGradient>
</defs>
</svg>
