<svg width="554" height="554" viewBox="0 0 554 554" fill="none" xmlns="http://www.w3.org/2000/svg">
<path d="M277 514C407.891 514 514 407.891 514 277C514 146.109 407.891 40 277 40C146.109 40 40 146.109 40 277C40 407.891 146.109 514 277 514Z" fill="url(#paint0_linear_10699_74316)"/>
<path d="M277 554C429.983 554 554 429.983 554 277C554 124.017 429.983 0 277 0C124.017 0 0 124.017 0 277C0 429.983 124.017 554 277 554Z" fill="url(#paint1_linear_10699_74316)"/>
<path d="M276.999 465.306C380.998 465.306 465.306 380.998 465.306 276.999C465.306 172.999 380.998 88.6914 276.999 88.6914C172.999 88.6914 88.6914 172.999 88.6914 276.999C88.6914 380.998 172.999 465.306 276.999 465.306Z" fill="url(#paint2_linear_10699_74316)"/>
<path d="M276.999 454.534C375.049 454.534 454.534 375.049 454.534 276.999C454.534 178.95 375.049 99.4648 276.999 99.4648C178.95 99.4648 99.4648 178.95 99.4648 276.999C99.4648 375.049 178.95 454.534 276.999 454.534Z" stroke="url(#paint3_linear_10699_74316)" stroke-width="2"/>
<g filter="url(#filter0_i_10699_74316)">
<path d="M277 504C402.369 504 504 402.369 504 277C504 151.631 402.369 50 277 50C151.631 50 50 151.631 50 277C50 402.369 151.631 504 277 504Z" fill="url(#paint4_linear_10699_74316)"/>
</g>
<path d="M277 504C402.369 504 504 402.369 504 277C504 151.631 402.369 50 277 50C151.631 50 50 151.631 50 277C50 402.369 151.631 504 277 504Z" stroke="#0F3E35" stroke-width="2"/>
<path d="M415.872 344.994C412.761 345.891 409.916 346.709 407.065 347.531C405.627 347.945 404.135 348.232 402.76 348.805C400.276 349.835 399.012 352.138 399.309 354.766C399.554 356.958 399.83 359.15 400.1 361.337C400.467 364.325 398.837 366.151 395.742 366.162C391.851 366.178 387.96 366.188 384.069 366.162C382.418 366.151 380.82 366.459 380.788 368.38C380.756 370.366 382.445 370.615 384.042 370.615C387.403 370.626 390.768 370.716 394.123 370.583C396.151 370.504 397.382 371.034 397.382 373.412C397.117 373.614 396.804 373.927 396.427 374.129C392.053 376.459 390.28 380.27 390.243 385.042C390.211 389.283 390.349 393.529 390.216 397.765C390.067 402.382 388.119 404.437 383.421 404.325C375.48 404.129 367.538 403.688 359.613 403.099C354.336 402.706 349.102 401.74 343.826 401.316C341.612 401.135 341.256 400.174 341.267 398.29C341.331 390.243 341.293 382.197 341.293 374.15C341.293 343.02 341.293 311.894 341.293 280.764C341.293 277.064 341.288 276.953 344.823 276.677C361.614 275.355 378.171 276.878 394.458 281.13C395.323 281.358 396.374 282.717 396.496 283.657C397.282 289.761 398.089 295.881 398.402 302.022C398.885 311.491 402.717 319.776 406.906 327.966C409.316 332.685 411.949 337.287 414.46 341.953C414.911 342.791 415.261 343.678 415.867 345.01L415.872 344.994Z" fill="#145546"/>
<path d="M377.861 198.386C366.086 182.425 352.29 169.049 334.634 159.718C344.465 142.202 354.18 124.899 364.053 107.309C393.303 121.263 415.423 143.147 435.701 167.892C416.283 178.131 397.252 188.163 377.861 198.386Z" fill="#145546"/>
<path d="M120.315 398.013C103.44 375.21 92.0743 350.327 86.0439 322.609C89.5157 322.116 92.7114 321.633 95.9177 321.213C114.657 318.756 133.401 316.346 152.129 313.836C154.417 313.528 155.494 313.857 156.094 316.463C159.55 331.378 165.448 345.322 173.522 358.336C173.888 358.931 174.223 359.541 174.722 360.407C156.641 372.907 138.629 385.353 120.315 398.018V398.013Z" fill="#145546"/>
<path d="M155.687 247.545C133.014 242.704 110.618 237.922 87.9507 233.076C94.2731 208.304 105.092 186.117 120.242 165.613C138.206 178.623 155.989 191.505 173.958 204.514C165.56 217.959 159.615 232.221 155.687 247.54V247.545Z" fill="#145546"/>
<path d="M85.5066 242.186C92.5191 243.661 98.8945 244.993 105.265 246.347C120.532 249.585 135.783 252.886 151.071 256.023C153.386 256.501 154.113 257.292 153.688 259.659C151.984 269.266 151.73 278.98 152.138 288.703C152.324 293.109 152.77 297.509 153.317 301.883C153.524 303.534 153.089 304.117 151.528 304.309C141.633 305.545 131.743 306.809 121.859 308.098C110.398 309.595 98.9317 311.076 87.4867 312.679C85.1669 313.003 84.1477 312.806 83.7548 310.03C81.4828 294.038 81.0051 278.024 82.794 261.973C83.5106 255.514 84.5511 249.086 85.5066 242.186Z" fill="#145546"/>
<path d="M274.11 144.424C272.767 125.587 271.435 106.834 270.086 87.88C299.946 85.1411 327.911 91.4628 355.234 103.262C353.249 106.818 351.417 110.125 349.57 113.421C342.048 126.829 334.505 140.226 327.02 153.655C326.213 155.109 325.549 155.81 323.781 154.902C308.472 147.025 292 144.584 275.013 144.647C274.843 144.647 274.673 144.568 274.116 144.43L274.11 144.424Z" fill="#145546"/>
<path d="M125.683 158.086C131.395 152.136 136.607 146.383 142.165 140.985C151.959 131.478 162.81 123.294 174.409 116.085C176.214 114.96 177.137 115.109 178.475 116.77C190.228 131.356 202.077 145.868 213.888 160.406C214.435 161.075 214.902 161.813 215.592 162.779C201.328 171.844 189.304 183.134 179.197 196.818C161.456 183.978 143.891 171.261 125.683 158.081V158.086Z" fill="#145546"/>
<path d="M185.087 110.114C208.673 97.5026 233.633 90.4219 260.319 88.1289C260.685 92.545 261.067 96.6586 261.359 100.778C262.341 114.88 263.265 128.989 264.29 143.092C264.417 144.822 264.146 145.501 262.198 145.767C249.59 147.497 237.583 151.239 226.217 156.977C224.805 157.688 223.903 157.996 222.677 156.478C210.658 141.627 198.555 126.855 186.478 112.051C186.043 111.515 185.671 110.926 185.087 110.109V110.114Z" fill="#145546"/>
<path d="M216.526 465.327C180.842 453.909 151.11 434.276 127.025 405.353C145.074 392.864 162.9 380.528 180.949 368.039C181.633 368.856 182.26 369.557 182.838 370.3C191.889 381.898 202.549 391.739 214.88 399.785C215.751 400.353 216.706 401.627 216.712 402.577C216.813 422.996 216.786 443.416 216.77 463.835C216.77 464.18 216.664 464.52 216.526 465.321V465.327Z" fill="#145546"/>
<path d="M331.974 281.078V284.523C331.974 344.571 331.952 404.618 332.043 464.666C332.043 467.458 331.13 468.397 328.555 469.04C314.275 472.601 299.82 474.629 285.089 475.016C266.324 475.51 247.925 473.307 229.786 468.546C227.79 468.02 227.116 467.192 227.121 465.133C227.174 428.435 227.164 391.731 227.148 355.032C227.148 353.546 227.254 352.378 228.889 351.593C240.976 345.775 250.404 336.566 259.747 327.251C269.626 317.394 279.224 307.225 289.527 297.83C299.343 288.881 311.956 285.468 324.579 282.501C326.872 281.959 329.213 281.604 331.974 281.078ZM303.568 388.7C303.568 407.086 303.568 425.473 303.568 443.859C303.568 444.746 303.552 445.627 303.605 446.508C303.701 448.169 304.582 449.14 306.265 449.204C308.064 449.273 309.047 448.281 309.301 446.561C309.402 445.865 309.344 445.149 309.344 444.443C309.344 407.315 309.344 370.192 309.344 333.063C309.344 332.182 309.62 331.051 309.185 330.473C308.484 329.539 307.289 328.382 306.329 328.403C305.41 328.424 304.317 329.698 303.696 330.675C303.292 331.312 303.568 332.394 303.568 333.275C303.568 351.752 303.568 370.223 303.568 388.7ZM276.633 399.592C276.633 414.533 276.633 429.475 276.633 444.416C276.633 445.037 276.607 445.658 276.644 446.274C276.75 448.01 277.668 449.385 279.388 449.109C280.482 448.933 281.612 447.766 282.308 446.757C282.786 446.067 282.616 444.878 282.616 443.912C282.626 414.385 282.632 384.857 282.616 355.324C282.616 354.273 282.717 353.037 282.223 352.219C281.671 351.306 280.423 350.149 279.595 350.234C278.565 350.34 277.493 351.487 276.76 352.431C276.368 352.941 276.638 353.971 276.638 354.767C276.638 369.709 276.638 384.65 276.638 399.592H276.633ZM255.686 407.861C255.686 401.582 255.686 395.308 255.686 389.029C255.686 382.665 255.659 376.296 255.697 369.931C255.712 367.761 254.89 366.11 252.634 366.136C250.505 366.163 249.746 367.867 249.698 369.852C249.687 370.207 249.693 370.558 249.693 370.913C249.693 395.404 249.693 419.899 249.703 444.39C249.703 445.266 249.544 446.37 249.995 446.964C250.696 447.898 251.821 449.008 252.83 449.066C253.695 449.119 254.81 447.941 255.484 447.054C255.882 446.534 255.681 445.526 255.681 444.735C255.691 432.447 255.686 420.154 255.686 407.867V407.861Z" fill="#145546"/>
<path d="M372.809 198.365C370.559 198.365 368.472 198.428 366.386 198.354C349.473 197.744 333.718 202.308 318.52 209.193C300.891 217.176 285.193 228.094 270.961 241.141C269.353 242.616 267.829 243.078 265.733 242.749C247.397 239.899 229.89 253.991 227.528 272.372C225.447 288.55 236.733 307.489 256.586 310.461C258.295 310.716 260.037 310.769 262.367 310.965C259.686 313.832 257.425 316.374 255.036 318.789C250.37 323.502 245.672 328.184 240.905 332.797C235.804 337.733 229.731 341.151 223.074 343.46C221.2 344.113 220.733 345.01 220.749 346.852C220.839 359.235 220.818 371.618 220.834 383.996C220.834 384.962 220.834 385.933 220.834 387.52C219.491 386.623 218.487 386.018 217.558 385.318C192.104 366.093 175.717 340.801 169.257 309.718C159.553 263.02 171.295 221.725 203.741 186.836C221.593 167.638 244.032 156.194 270.218 153.142C301.145 149.538 328.675 158.227 352.536 178.03C359.581 183.874 365.707 190.822 372.241 197.277C372.517 197.547 372.624 197.993 372.809 198.354V198.365Z" fill="#145546"/>
<path d="M291.457 283.491C293.14 268.587 287.178 257.18 274.512 248.772C277.071 246.596 279.364 244.542 281.764 242.621C298.522 229.171 316.704 218.332 337.614 212.653C347.88 209.866 358.274 208.12 369.013 209.08C373.08 209.447 375.84 210.726 377.979 214.616C387.487 231.878 393.358 250.195 395.242 269.802C395.428 271.718 395.614 273.64 395.81 275.662C360.031 266.304 325.574 270.657 291.462 283.491H291.457ZM371.402 215.662C368.812 215.551 368.058 216.925 368.758 219.314C370.08 223.799 371.492 228.252 372.867 232.721C375.686 241.904 378.515 251.087 381.308 260.28C381.743 261.713 382.417 262.812 384.073 262.376C385.82 261.92 386.091 260.657 385.512 259.054C385.066 257.812 384.748 256.522 384.36 255.259C380.623 243.035 376.907 230.8 373.101 218.592C372.729 217.403 371.827 216.384 371.397 215.662H371.402ZM348.172 259.287C347.238 256.262 346.452 253.741 345.677 251.209C342.89 242.1 340.088 232.992 337.338 223.873C336.839 222.223 336.048 221.007 334.174 221.612C332.311 222.217 332.778 223.778 333.128 225.174C333.213 225.513 333.372 225.837 333.473 226.172C335.883 234.107 338.283 242.042 340.698 249.977C341.675 253.183 342.556 256.426 343.761 259.547C344.058 260.317 345.438 261.065 346.33 261.071C346.973 261.076 347.631 259.845 348.178 259.282L348.172 259.287ZM312.829 264.038C312.632 263.226 312.579 262.966 312.505 262.716C310.036 254.627 307.563 246.533 305.089 238.443C304.659 237.037 303.868 235.97 302.222 236.437C300.359 236.962 300.508 238.396 300.959 239.866C302.812 245.933 304.659 252.005 306.517 258.072C307.159 260.179 307.674 262.345 308.566 264.34C308.895 265.067 310.201 265.832 310.981 265.752C311.724 265.678 312.356 264.526 312.834 264.043L312.829 264.038Z" fill="#145546"/>
<path d="M283.302 277.527C283.775 290.611 272.181 302.883 258.889 303.361C244.105 303.892 232.107 292.862 231.603 278.276C231.115 264.263 242.432 252.294 256.712 251.731C271.066 251.163 282.761 262.512 283.307 277.533L283.302 277.527Z" fill="#145546"/>
<path d="M368.809 195.365C366.559 195.365 364.472 195.428 362.386 195.354C345.473 194.744 329.718 199.308 314.52 206.193C296.891 214.176 281.193 225.094 266.961 238.141C265.353 239.616 263.829 240.078 261.733 239.749C243.397 236.899 225.89 250.991 223.528 269.372C221.447 285.55 232.733 304.489 252.586 307.461C254.295 307.716 256.037 307.769 258.367 307.965C255.686 310.832 253.425 313.374 251.036 315.789C246.37 320.502 241.672 325.184 236.905 329.797C231.804 334.733 225.731 338.151 219.074 340.46C217.2 341.113 216.733 342.01 216.749 343.852C216.839 356.235 216.818 368.618 216.834 380.996C216.834 381.962 216.834 382.933 216.834 384.52C215.491 383.623 214.487 383.018 213.558 382.318C188.104 363.093 171.717 337.801 165.257 306.718C155.553 260.02 167.295 218.725 199.741 183.836C217.593 164.638 240.032 153.194 266.218 150.142C297.145 146.538 324.675 155.227 348.536 175.03C355.581 180.874 361.707 187.822 368.241 194.277C368.517 194.547 368.624 194.993 368.809 195.354V195.365Z" fill="#27A486"/>
<path d="M328.974 277.078V280.523C328.974 340.571 328.952 400.618 329.043 460.666C329.043 463.458 328.13 464.397 325.555 465.04C311.275 468.601 296.82 470.629 282.089 471.016C263.324 471.51 244.925 469.307 226.786 464.546C224.79 464.02 224.116 463.192 224.121 461.133C224.174 424.435 224.164 387.731 224.148 351.032C224.148 349.546 224.254 348.378 225.889 347.593C237.976 341.775 247.404 332.566 256.747 323.251C266.626 313.394 276.224 303.225 286.527 293.83C296.343 284.881 308.956 281.468 321.579 278.501C323.872 277.959 326.213 277.604 328.974 277.078ZM300.568 384.7C300.568 403.086 300.568 421.473 300.568 439.859C300.568 440.746 300.552 441.627 300.605 442.508C300.701 444.169 301.582 445.14 303.265 445.204C305.064 445.273 306.047 444.281 306.301 442.561C306.402 441.865 306.344 441.149 306.344 440.443C306.344 403.315 306.344 366.192 306.344 329.063C306.344 328.182 306.62 327.051 306.185 326.473C305.484 325.539 304.289 324.382 303.329 324.403C302.41 324.424 301.317 325.698 300.696 326.675C300.292 327.312 300.568 328.394 300.568 329.275C300.568 347.752 300.568 366.223 300.568 384.7ZM273.633 395.592C273.633 410.533 273.633 425.475 273.633 440.416C273.633 441.037 273.607 441.658 273.644 442.274C273.75 444.01 274.668 445.385 276.388 445.109C277.482 444.933 278.612 443.766 279.308 442.757C279.786 442.067 279.616 440.878 279.616 439.912C279.626 410.385 279.632 380.857 279.616 351.324C279.616 350.273 279.717 349.037 279.223 348.219C278.671 347.306 277.423 346.149 276.595 346.234C275.565 346.34 274.493 347.487 273.76 348.431C273.368 348.941 273.638 349.971 273.638 350.767C273.638 365.709 273.638 380.65 273.638 395.592H273.633ZM252.686 403.861C252.686 397.582 252.686 391.308 252.686 385.029C252.686 378.665 252.659 372.296 252.697 365.931C252.712 363.761 251.89 362.11 249.634 362.136C247.505 362.163 246.746 363.867 246.698 365.852C246.687 366.207 246.693 366.558 246.693 366.913C246.693 391.404 246.693 415.899 246.703 440.39C246.703 441.266 246.544 442.37 246.995 442.964C247.696 443.898 248.821 445.008 249.83 445.066C250.695 445.119 251.81 443.941 252.484 443.054C252.882 442.534 252.681 441.526 252.681 440.735C252.691 428.447 252.686 416.154 252.686 403.867V403.861Z" fill="#27A486"/>
<path d="M412.872 343.994C409.761 344.891 406.916 345.709 404.065 346.531C402.627 346.945 401.135 347.232 399.76 347.805C397.276 348.835 396.012 351.138 396.309 353.766C396.554 355.958 396.83 358.15 397.1 360.337C397.467 363.325 395.837 365.151 392.742 365.162C388.851 365.178 384.96 365.188 381.069 365.162C379.418 365.151 377.82 365.459 377.788 367.38C377.756 369.366 379.445 369.615 381.042 369.615C384.403 369.626 387.768 369.716 391.123 369.583C393.151 369.504 394.382 370.034 394.382 372.412C394.117 372.614 393.804 372.927 393.427 373.129C389.053 375.459 387.28 379.27 387.243 384.042C387.211 388.283 387.349 392.529 387.216 396.765C387.067 401.382 385.119 403.437 380.421 403.325C372.48 403.129 364.538 402.688 356.613 402.099C351.336 401.706 346.102 400.74 340.826 400.316C338.612 400.135 338.256 399.174 338.267 397.29C338.331 389.243 338.293 381.197 338.293 373.15C338.293 342.02 338.293 310.894 338.293 279.764C338.293 276.064 338.288 275.953 341.823 275.677C358.614 274.355 375.171 275.878 391.458 280.13C392.323 280.358 393.374 281.717 393.496 282.657C394.282 288.761 395.089 294.881 395.402 301.022C395.885 310.491 399.717 318.776 403.906 326.966C406.316 331.685 408.949 336.287 411.46 340.953C411.911 341.791 412.261 342.678 412.867 344.01L412.872 343.994ZM369.746 291.988C367.278 292.598 365.043 293.065 362.866 293.718C361.433 294.148 359.718 294.743 360.302 296.733C360.923 298.851 362.67 298.532 364.23 297.89C367.554 296.521 370.845 296.478 374.29 297.503C377.581 298.479 380.941 299.275 384.323 299.865C385.119 300.003 386.117 299.015 387.02 298.548C386.537 297.625 386.229 296.07 385.544 295.878C380.289 294.424 374.964 293.235 369.746 291.988ZM371.434 319.902C374.81 319.047 377.974 318.362 381.053 317.412C382.497 316.967 383.941 315.979 383.049 314.079C382.2 312.269 380.878 312.715 379.285 313.389C374.667 315.342 369.879 315.751 365.228 313.564C363.811 312.901 362.633 312.115 361.597 313.676C360.504 315.321 361.454 316.738 362.951 317.312C365.701 318.362 368.583 319.053 371.434 319.907V319.902Z" fill="#27A486"/>
<path d="M291.457 278.491C293.14 263.587 287.178 252.18 274.512 243.772C277.071 241.596 279.364 239.542 281.764 237.621C298.522 224.171 316.704 213.332 337.614 207.653C347.88 204.866 358.274 203.12 369.013 204.08C373.08 204.447 375.84 205.726 377.979 209.616C387.487 226.878 393.358 245.195 395.242 264.802C395.428 266.718 395.614 268.64 395.81 270.662C360.031 261.304 325.574 265.657 291.462 278.491H291.457ZM371.402 210.662C368.812 210.551 368.058 211.925 368.758 214.314C370.08 218.799 371.492 223.252 372.867 227.721C375.686 236.904 378.515 246.087 381.308 255.28C381.743 256.713 382.417 257.812 384.073 257.376C385.82 256.92 386.091 255.657 385.512 254.054C385.066 252.812 384.748 251.522 384.36 250.259C380.623 238.035 376.907 225.8 373.101 213.592C372.729 212.403 371.827 211.384 371.397 210.662H371.402ZM348.172 254.287C347.238 251.262 346.452 248.741 345.677 246.209C342.89 237.1 340.088 227.992 337.338 218.873C336.839 217.223 336.048 216.007 334.174 216.612C332.311 217.217 332.778 218.778 333.128 220.174C333.213 220.513 333.372 220.837 333.473 221.172C335.883 229.107 338.283 237.042 340.698 244.977C341.675 248.183 342.556 251.426 343.761 254.547C344.058 255.317 345.438 256.065 346.33 256.071C346.973 256.076 347.631 254.845 348.178 254.282L348.172 254.287ZM312.829 259.038C312.632 258.226 312.579 257.966 312.505 257.716C310.036 249.627 307.563 241.533 305.089 233.443C304.659 232.037 303.868 230.97 302.222 231.437C300.359 231.962 300.508 233.396 300.959 234.866C302.812 240.933 304.659 247.005 306.517 253.072C307.159 255.179 307.674 257.345 308.566 259.34C308.895 260.067 310.201 260.832 310.981 260.752C311.724 260.678 312.356 259.526 312.834 259.043L312.829 259.038Z" fill="#27A486"/>
<path d="M216.526 460.327C180.842 448.909 151.11 429.276 127.025 400.353C145.074 387.864 162.9 375.528 180.949 363.039C181.633 363.856 182.26 364.557 182.838 365.3C191.889 376.898 202.549 386.739 214.88 394.785C215.751 395.353 216.706 396.627 216.712 397.577C216.813 417.996 216.786 438.416 216.77 458.835C216.77 459.18 216.664 459.52 216.526 460.321V460.327Z" fill="#27A486"/>
<path d="M378.861 193.386C367.086 177.425 353.29 164.049 335.634 154.718C345.465 137.202 355.18 119.899 365.053 102.309C394.303 116.263 416.423 138.147 436.701 162.892C417.283 173.131 398.252 183.163 378.861 193.386Z" fill="#27A486"/>
<path d="M121.315 393.013C104.44 370.21 93.0743 345.327 87.0439 317.609C90.5157 317.116 93.7114 316.633 96.9177 316.213C115.657 313.756 134.401 311.346 153.129 308.836C155.417 308.528 156.494 308.857 157.094 311.463C160.55 326.378 166.448 340.322 174.522 353.336C174.888 353.931 175.223 354.541 175.722 355.407C157.641 367.907 139.629 380.353 121.315 393.018V393.013Z" fill="#27A486"/>
<path d="M156.687 242.545C134.014 237.704 111.618 232.922 88.9507 228.076C95.2731 203.304 106.092 181.117 121.242 160.613C139.206 173.623 156.989 186.505 174.958 199.514C166.56 212.959 160.615 227.221 156.687 242.54V242.545Z" fill="#27A486"/>
<path d="M86.5066 237.186C93.5191 238.661 99.8945 239.993 106.265 241.347C121.532 244.585 136.783 247.886 152.071 251.023C154.386 251.501 155.113 252.292 154.688 254.659C152.984 264.266 152.73 273.98 153.138 283.703C153.324 288.109 153.77 292.509 154.317 296.883C154.524 298.534 154.089 299.117 152.528 299.309C142.633 300.545 132.743 301.809 122.859 303.098C111.398 304.595 99.9317 306.076 88.4867 307.679C86.1669 308.003 85.1477 307.806 84.7548 305.03C82.4828 289.038 82.0051 273.024 83.794 256.973C84.5106 250.514 85.5511 244.086 86.5066 237.186Z" fill="#27A486"/>
<path d="M275.11 139.424C273.767 120.587 272.435 101.834 271.086 82.88C300.946 80.1411 328.911 86.4628 356.234 98.2621C354.249 101.818 352.417 105.125 350.57 108.421C343.048 121.829 335.505 135.226 328.02 148.655C327.213 150.109 326.549 150.81 324.781 149.902C309.472 142.025 293 139.584 276.013 139.647C275.843 139.647 275.673 139.568 275.116 139.43L275.11 139.424Z" fill="#27A486"/>
<path d="M126.683 153.086C132.395 147.136 137.607 141.383 143.165 135.985C152.959 126.478 163.81 118.294 175.409 111.085C177.214 109.96 178.137 110.109 179.475 111.77C191.228 126.356 203.077 140.868 214.888 155.406C215.435 156.075 215.902 156.813 216.592 157.779C202.328 166.844 190.304 178.134 180.197 191.818C162.456 178.978 144.891 166.261 126.683 153.081V153.086Z" fill="#27A486"/>
<path d="M186.087 105.114C209.673 92.5026 234.633 85.4219 261.319 83.1289C261.685 87.545 262.067 91.6586 262.359 95.7775C263.341 109.88 264.265 123.989 265.29 138.092C265.417 139.822 265.146 140.501 263.198 140.767C250.59 142.497 238.583 146.239 227.217 151.977C225.805 152.688 224.903 152.996 223.677 151.478C211.658 136.627 199.555 121.855 187.478 107.051C187.043 106.515 186.671 105.926 186.087 105.109V105.114Z" fill="#27A486"/>
<path d="M283.302 273.527C283.775 286.611 272.181 298.883 258.889 299.361C244.105 299.892 232.107 288.862 231.603 274.276C231.115 260.263 242.432 248.294 256.712 247.731C271.066 247.163 282.761 258.512 283.307 273.533L283.302 273.527Z" fill="#27A486"/>
<path d="M277 503C401.816 503 503 401.816 503 277C503 152.184 401.816 51 277 51C152.184 51 51 152.184 51 277C51 401.816 152.184 503 277 503Z" stroke="url(#paint5_linear_10699_74316)" stroke-width="12"/>
<path d="M451.472 71.4698C447.906 75.688 444.693 79.496 441.295 83.5134C438.91 81.6721 436.742 80.0066 434.34 78.1486C432.951 79.9061 431.687 81.4963 430.264 83.3041C433.503 86.0493 436.558 88.6271 439.914 91.4727C444.944 85.9321 449.873 80.5087 455.38 74.4493C460.493 80.333 465.473 86.066 469.909 91.1714C467.431 94.1091 464.142 98.0009 460.309 102.545C458.192 99.8003 456.51 97.6075 454.652 95.1887C452.694 97.3313 451.304 98.8546 449.622 100.687C452.618 103.357 455.614 106.019 458.995 109.032C463.992 104.563 469.448 99.6747 475.282 94.4522C480.261 100.361 485.073 106.077 490.312 112.296C486.103 115.577 482.111 118.69 477.842 122.021C475.926 119.795 474.152 117.728 472.118 115.367C470.402 116.79 468.837 118.088 467.072 119.544C469.658 122.875 472.118 126.038 474.813 129.503C480.922 125.109 486.864 120.833 493.225 116.255C497.535 122.624 501.736 128.817 506.297 135.546C501.719 138.4 497.418 141.078 492.865 143.924C491.183 141.438 489.651 139.162 487.936 136.626C486.094 137.864 484.404 139.011 482.437 140.333C484.638 143.89 486.73 147.272 489.082 151.08C495.535 147.372 501.87 143.74 508.775 139.773C512.432 146.602 515.997 153.264 519.78 160.328C514.792 162.755 510.231 164.981 505.527 167.275C504.088 164.596 502.849 162.287 501.393 159.575C499.485 160.554 497.694 161.466 495.543 162.563C497.368 166.337 499.1 169.911 501.058 173.97C507.904 170.949 514.574 168.003 521.813 164.797C524.743 172.07 527.571 179.092 530.534 186.424C525.354 188.282 520.675 189.947 515.738 191.713C514.549 188.935 513.478 186.424 512.315 183.696C510.298 184.499 508.523 185.21 506.314 186.089C507.67 190.023 508.967 193.764 510.44 198.024C517.529 195.748 524.483 193.521 532.116 191.069C534.258 198.468 536.367 205.732 538.602 213.432C533.287 214.763 528.35 215.993 523.261 217.265C522.349 214.277 521.546 211.666 520.684 208.854C518.55 209.473 516.717 210.001 514.474 210.645C515.453 214.688 516.399 218.554 517.445 222.864C524.801 221.358 531.948 219.885 539.673 218.303C541.046 226.036 542.343 233.368 543.732 241.185C538.259 241.938 533.246 242.633 528.082 243.353C527.504 240.265 527.019 237.703 526.467 234.757C524.291 235.126 522.316 235.46 519.989 235.854C520.592 240.08 521.152 244.006 521.772 248.333C529.262 247.605 536.434 246.901 544.259 246.14C544.837 253.806 545.397 261.238 546 269.248H530.174C529.965 266.879 529.739 264.293 529.496 261.489H523.245V274.01H545.356V297.511C539.74 297.118 534.702 296.767 529.546 296.407V287.795H523.094C522.834 291.603 522.558 295.553 522.257 299.947C529.739 300.792 536.878 301.587 544.753 302.475C543.673 310.107 542.636 317.473 541.514 325.415C536.091 324.495 531.12 323.641 525.956 322.762C526.358 319.732 526.709 317.155 527.103 314.175C524.927 313.815 522.943 313.489 520.633 313.112C519.863 317.389 519.169 321.297 518.416 325.516C525.713 327.123 532.752 328.679 540.535 330.395C538.677 337.894 536.861 345.226 534.945 352.959C529.68 351.436 524.918 350.063 519.805 348.582C520.483 345.694 521.094 343.058 521.788 340.112C519.621 339.518 517.671 338.99 515.453 338.388C514.265 342.564 513.168 346.406 511.988 350.565C519.11 352.917 525.956 355.177 533.472 357.654C530.844 364.936 528.283 372.041 525.563 379.574C520.474 377.507 515.771 375.59 510.825 373.581C511.879 370.744 512.825 368.208 513.863 365.413C511.737 364.601 509.946 363.915 507.745 363.069C506.13 366.928 504.598 370.585 502.866 374.72C509.703 377.816 516.357 380.829 523.588 384.093C520.19 391.065 516.884 397.853 513.394 405.017C508.54 402.431 504.172 400.104 499.451 397.593C500.723 394.94 501.904 392.488 503.234 389.726C501.351 388.763 499.543 387.834 497.409 386.746C495.401 390.454 493.501 393.952 491.375 397.869C497.778 401.611 504.113 405.301 511.009 409.327C506.917 415.897 502.908 422.325 498.673 429.121C494.12 426.024 489.902 423.162 485.517 420.174C487.09 417.73 488.513 415.52 490.254 412.809C488.404 411.637 486.613 410.507 484.605 409.243C482.203 412.817 479.977 416.131 477.558 419.73C483.709 424.233 489.618 428.568 495.853 433.13C491.015 439.315 486.412 445.207 481.508 451.476C477.349 447.977 473.482 444.721 469.407 441.298C471.248 438.905 472.922 436.745 474.771 434.343C473.039 432.971 471.44 431.707 469.599 430.242C466.871 433.498 464.31 436.553 461.456 439.951C466.98 444.956 472.403 449.869 478.537 455.426C472.679 460.54 466.963 465.528 461.816 470.022C458.803 467.461 454.928 464.164 450.434 460.339C453.145 458.255 455.338 456.564 457.698 454.748C455.665 452.631 454.233 451.141 452.451 449.291C449.522 452.622 446.877 455.635 443.914 459C448.375 464.005 453.254 469.478 458.451 475.312C452.56 480.283 446.835 485.104 440.634 490.326C437.336 486.1 434.223 482.099 430.917 477.864C433.135 475.948 435.194 474.165 437.554 472.131C436.148 470.441 434.859 468.876 433.378 467.093C430.055 469.671 426.9 472.115 423.41 474.826C427.796 480.919 432.072 486.862 436.667 493.247C430.248 497.591 423.954 501.851 417.351 506.312C414.472 501.675 411.844 497.449 408.999 492.862C411.443 491.205 413.702 489.674 416.288 487.916C415.083 486.125 413.953 484.443 412.614 482.443C408.974 484.702 405.509 486.862 401.86 489.121C405.668 495.767 409.317 502.119 413.158 508.823C406.22 512.506 399.617 516.021 392.579 519.762C390.168 514.799 387.951 510.246 385.657 505.534C388.319 504.094 390.629 502.856 393.34 501.391C392.378 499.491 391.474 497.708 390.369 495.541C386.612 497.357 383.038 499.081 378.987 501.039C381.983 507.886 384.913 514.573 388.093 521.837C380.87 524.758 373.849 527.596 366.509 530.567C364.643 525.394 362.952 520.724 361.145 515.728C363.848 514.598 366.358 513.543 369.246 512.338C368.426 510.304 367.672 508.446 366.794 506.27C362.726 507.735 358.985 509.082 354.935 510.539C357.236 517.736 359.471 524.708 361.848 532.149C354.382 534.3 347.202 536.375 339.519 538.593C338.205 533.371 336.966 528.458 335.661 523.26C338.59 522.381 341.201 521.603 344.063 520.749C343.477 518.674 342.967 516.841 342.306 514.497C338.238 515.485 334.28 516.448 330.045 517.477C331.577 524.976 333.041 532.132 334.598 539.698C326.84 541.062 319.601 542.343 311.792 543.715C311.039 538.392 310.319 533.379 309.574 528.123C312.621 527.537 315.299 527.018 318.195 526.457C317.81 524.281 317.483 522.407 317.065 520.055C312.964 520.615 309.039 521.143 304.645 521.745C305.348 529.244 306.034 536.526 306.771 544.343C298.963 544.904 291.531 545.431 283.614 546V530.265C286.041 530.014 288.736 529.738 291.732 529.429C291.631 527.211 291.539 525.319 291.447 523.302H278.944V545.33H255.418C255.82 539.756 256.172 534.818 256.548 529.655H265.219V523.118C261.369 522.85 257.511 522.591 253.033 522.281C252.18 529.696 251.351 536.936 250.447 544.803C242.764 543.732 235.391 542.694 227.466 541.589C228.428 536.107 229.307 531.136 230.211 526.014C233.266 526.399 235.835 526.717 238.756 527.085C239.141 524.934 239.475 523.084 239.902 520.733C235.726 519.954 231.834 519.226 227.457 518.406C225.851 525.696 224.277 532.827 222.553 540.61C214.954 538.71 207.614 536.877 199.973 534.969C201.513 529.663 202.903 524.892 204.376 519.804C207.255 520.507 209.782 521.126 212.745 521.846C213.33 519.846 213.891 517.912 214.586 515.51C210.552 514.347 206.744 513.25 202.384 511.995C200.024 519.126 197.731 526.056 195.253 533.546C187.905 530.851 180.792 528.248 173.393 525.528C175.435 520.507 177.302 515.895 179.31 510.949C182.022 511.895 184.583 512.782 187.52 513.803C188.282 511.836 189.01 509.953 189.872 507.727C185.913 506.103 182.223 504.588 178.172 502.931C175.059 509.836 172.054 516.523 168.857 523.629C161.894 520.239 155.174 516.975 147.893 513.435C150.471 508.622 152.856 504.17 155.358 499.499C158.12 500.813 160.58 501.985 163.242 503.257C164.213 501.357 165.083 499.633 166.188 497.466C162.547 495.474 158.965 493.515 155.065 491.389C151.249 497.918 147.55 504.262 143.591 511.041C136.98 506.898 130.544 502.872 123.832 498.679C126.97 494.059 129.832 489.841 132.77 485.514C135.289 487.154 137.49 488.586 140.135 490.301C141.348 488.385 142.495 486.585 143.733 484.635C140.235 482.267 137.013 480.091 133.247 477.538C128.837 483.564 124.443 489.565 119.806 495.892C113.555 490.979 107.571 486.284 101.47 481.497C105.01 477.295 108.224 473.487 111.63 469.445C114.023 471.269 116.191 472.926 118.618 474.784C119.974 473.052 121.229 471.453 122.669 469.621C119.447 466.9 116.392 464.331 113.011 461.477C107.981 467.034 103.068 472.458 97.6368 478.467C92.4814 472.634 87.46 466.942 82.924 461.803C85.5017 458.816 88.8242 454.966 92.6656 450.513C94.7829 453.133 96.5069 455.275 98.2393 457.418C100.29 455.577 101.813 454.196 103.646 452.539C100.29 449.517 97.302 446.839 94.0213 443.885C88.9162 448.437 83.4512 453.325 77.6515 458.514C72.6719 452.589 67.8513 446.856 62.6458 440.662C66.8805 437.373 70.8893 434.251 75.124 430.962C77.0489 433.197 78.8315 435.264 80.8568 437.616C82.5641 436.21 84.1208 434.921 85.895 433.456C83.2922 430.1 80.8401 426.936 78.1453 423.463C72.0442 427.857 66.1022 432.134 59.7166 436.729C55.3731 430.293 51.13 423.999 46.6776 417.412C51.3476 414.516 55.5823 411.897 60.0598 409.118C61.7921 411.587 63.3655 413.83 65.0979 416.299C66.9224 415.069 68.6129 413.922 70.5378 412.625C68.32 409.043 66.2194 405.653 63.8928 401.895C57.3984 405.619 51.0547 409.252 44.1837 413.194C40.5264 406.323 36.9696 399.644 33.237 392.638C38.158 390.236 42.6187 388.052 47.4058 385.717C48.8285 388.303 50.1341 390.68 51.6321 393.4C53.5737 392.396 55.3647 391.475 57.457 390.395C55.5907 386.571 53.8499 382.997 51.9334 379.055C45.0289 382.076 38.3337 385.006 31.1447 388.152C28.2406 380.938 25.4537 374.008 22.466 366.601C27.5544 364.752 32.2996 363.027 37.2959 361.203C38.4425 363.973 39.4803 366.501 40.6268 369.271C42.6521 368.484 44.4264 367.79 46.6776 366.911C45.2633 362.885 43.9075 359.035 42.4513 354.917C35.1869 357.269 28.2239 359.521 20.8089 361.923C18.6497 354.407 16.5909 347.218 14.3899 339.56C19.6205 338.246 24.5415 337.007 29.722 335.701C30.6091 338.647 31.3958 341.259 32.2662 344.121C34.3835 343.51 36.2163 342.983 38.5262 342.313C37.5135 338.22 36.526 334.27 35.4882 330.085C28.0565 331.625 21.0098 333.082 13.3186 334.672C11.9461 327.005 10.6405 319.682 9.22617 311.806C14.6158 311.053 19.6289 310.359 24.8763 309.63C25.437 312.618 25.914 315.188 26.4831 318.217C28.5754 317.866 30.5421 317.531 32.944 317.129C32.3666 312.97 31.8226 309.045 31.2116 304.659C23.7046 305.379 16.4319 306.073 8.65707 306.827C8.09634 298.951 7.56073 291.519 7 283.627H22.7505C22.9765 286.029 23.2276 288.606 23.5289 291.762C25.6462 291.661 27.6213 291.569 29.6717 291.477V278.915H7.71137V255.43C13.3103 255.84 18.248 256.208 23.3866 256.585V265.281H29.8224C30.1069 261.481 30.4082 257.539 30.743 253.053C23.328 252.216 16.1892 251.404 8.25536 250.509C9.27638 243.018 10.2807 235.661 11.377 227.568C16.8002 228.48 21.7714 229.326 26.9853 230.204C26.5919 233.151 26.2488 235.737 25.8555 238.758C27.9394 239.143 29.9061 239.503 32.2745 239.947C33.0612 235.67 33.7809 231.761 34.5676 227.493C27.2364 225.861 20.0892 224.271 12.398 222.563C14.2894 214.989 16.0972 207.749 18.0137 200.058C23.2025 201.548 27.9561 202.903 33.1867 204.401C32.5005 207.239 31.8644 209.867 31.1447 212.863C33.2621 213.449 35.2121 213.976 37.4884 214.604C38.6685 210.503 39.7732 206.67 40.9951 202.41C33.7977 200.049 26.8514 197.765 19.4531 195.337C22.1145 187.989 24.6587 180.967 27.3954 173.418C32.4168 175.46 37.1118 177.36 42.0914 179.385C41.0788 182.172 40.1498 184.725 39.112 187.571C41.1708 188.357 43.0622 189.085 45.2633 189.922C46.912 185.905 48.4184 182.206 50.0504 178.23C43.1041 175.092 36.4172 172.079 29.337 168.882C32.7516 161.885 36.0322 155.172 39.564 147.941C44.4013 150.536 48.862 152.938 53.5319 155.449C52.2012 158.144 51.0379 160.495 49.6738 163.266C51.5484 164.22 53.3478 165.132 55.5405 166.237C57.4988 162.646 59.3986 159.148 61.5997 155.106C55.1639 151.356 48.7364 147.615 41.9408 143.664C46.0583 137.053 50.0169 130.7 54.2767 123.862C58.7625 126.901 62.9554 129.755 67.3994 132.768C65.8428 135.27 64.4033 137.572 62.7462 140.208C64.6209 141.396 66.3198 142.484 68.3116 143.757C70.6884 140.25 72.923 136.961 75.4253 133.261C69.3326 128.809 63.4157 124.49 57.0636 119.853C61.926 113.66 66.6043 107.701 71.4751 101.499C75.7266 105.081 79.6182 108.362 83.5935 111.718C81.6937 114.12 80.0618 116.179 78.1536 118.581C79.8442 119.937 81.4092 121.193 83.3424 122.741C86.0875 119.46 88.7237 116.322 91.4855 113.032C85.8197 107.894 80.3631 102.947 74.2118 97.3732C80.0283 92.159 85.6272 87.1457 91.1173 82.2161C94.3561 85.1873 98.0971 88.6187 102.382 92.5607C99.6956 94.561 97.4778 96.2182 94.8833 98.1431C97.2016 100.353 98.6996 101.775 100.599 103.592C103.336 100.386 105.939 97.3313 108.901 93.8664C104.591 89.0372 99.7123 83.572 94.4649 77.6966C100.415 72.6917 106.215 67.8123 112.316 62.6819C115.639 66.9586 118.693 70.8923 121.999 75.1439C119.84 77.002 117.781 78.7679 115.388 80.8268C116.727 82.5007 117.99 84.0741 119.48 85.9321C122.802 83.3711 125.958 80.9356 129.514 78.1988C125.179 72.1644 120.911 66.2221 116.275 59.7777C122.643 55.4507 128.929 51.1822 135.523 46.7046C138.428 51.3496 141.131 55.6683 143.934 60.1459C141.365 61.8868 139.08 63.4267 136.653 65.0755C137.95 66.9921 139.114 68.6995 140.369 70.5575C143.976 68.2977 147.374 66.1719 151.056 63.8619C147.307 57.3254 143.658 50.973 139.758 44.1687C146.704 40.4861 153.408 36.9375 160.371 33.2466C162.79 38.2515 164.957 42.7375 167.242 47.4662C164.598 48.9058 162.196 50.2114 159.551 51.6426C160.597 53.6512 161.534 55.4423 162.597 57.4928C166.497 55.5678 170.062 53.8019 173.929 51.8937C170.916 45.0391 168.012 38.444 164.823 31.2044C171.962 28.3002 178.976 25.4462 186.391 22.4249C188.257 27.5302 189.956 32.1836 191.805 37.2722C189.06 38.4189 186.449 39.5153 183.671 40.6786C184.499 42.7291 185.21 44.5034 186.089 46.6879C190.056 45.2902 193.797 43.9762 197.99 42.5031C195.714 35.3724 193.487 28.409 191.077 20.8514C198.534 18.7088 205.798 16.6165 213.431 14.4153C214.762 19.7299 215.967 24.5507 217.264 29.7732C214.427 30.6018 211.832 31.3634 208.836 32.2506C209.464 34.4183 210.025 36.3432 210.669 38.5611C214.829 37.5233 218.687 36.5608 222.846 35.523C221.331 28.0742 219.875 20.9184 218.327 13.3189C226.135 11.9463 233.475 10.6574 241.183 9.30159C241.936 14.7836 242.614 19.6964 243.317 24.8604C240.329 25.463 237.659 25.9902 234.73 26.5845C235.098 28.7019 235.425 30.5767 235.835 32.9453C239.919 32.4012 243.836 31.874 248.28 31.2797C247.568 23.7975 246.882 16.5244 246.137 8.70737C253.937 8.12987 261.377 7.58586 269.311 7V22.8182C266.901 23.0275 264.206 23.2534 261.461 23.4878V29.7063H273.981V7.68629H297.506C297.113 13.252 296.761 18.1899 296.393 23.3706H287.715V29.9071C291.573 30.175 295.439 30.4344 299.875 30.7441C300.745 23.3037 301.582 16.0725 302.494 8.23868C310.236 9.31833 317.609 10.3478 325.451 11.4358C324.513 16.8759 323.66 21.7721 322.756 26.9862C319.835 26.6263 317.148 26.2999 314.085 25.9317C313.759 28.1579 313.466 30.1415 313.14 32.3594C317.324 33.121 321.132 33.8073 325.484 34.6024C327.074 27.3796 328.639 20.2572 330.363 12.4318C337.929 14.3065 345.26 16.1227 352.943 18.0309C351.411 23.3204 350.03 28.091 348.549 33.2214C345.737 32.5268 343.218 31.8991 340.188 31.1458C339.586 33.2047 338.992 35.2301 338.322 37.5233C342.557 38.7202 346.398 39.8082 350.549 40.9883C352.909 33.8492 355.169 27.0113 357.646 19.4956C364.911 22.1236 372.016 24.693 379.548 27.4131C377.481 32.51 375.573 37.2053 373.581 42.1349C370.819 41.1138 368.384 40.2183 365.463 39.1386C364.676 41.1054 363.94 42.9635 363.036 45.2232C366.944 46.8553 370.61 48.3869 374.711 50.0942C377.824 43.2229 380.837 36.5525 384.092 29.3631C391.072 32.7695 397.86 36.0922 405.032 39.599C402.429 44.4532 400.086 48.8221 397.567 53.509C394.872 52.2117 392.42 51.0316 389.708 49.726C388.721 51.6677 387.8 53.4755 386.729 55.5846C390.47 57.6016 393.976 59.4931 397.86 61.5938C401.617 55.1494 405.316 48.8221 409.3 41.9842C415.912 46.102 422.347 50.111 429.084 54.3124C425.98 58.9072 423.117 63.1422 420.18 67.4775C417.686 65.879 415.468 64.4562 412.857 62.7823C411.677 64.5064 410.547 66.1803 409.141 68.2392C412.589 70.6161 415.861 72.8675 419.678 75.4955C424.105 69.4276 428.482 63.4184 433.11 57.0827C439.387 62.0207 445.354 66.7243 451.455 71.5283L451.472 71.4698ZM34.6346 366.911C32.3582 367.739 30.4752 368.417 28.3076 369.204C30.1655 373.774 31.8142 377.841 33.555 382.11C40.6854 378.971 47.3723 376.025 54.1512 373.037C57.3733 379.708 60.3778 385.909 63.4576 392.279C58.704 394.815 54.3186 397.141 49.7742 399.56C48.2008 396.79 46.7948 394.304 45.3219 391.709C43.1794 392.781 41.3717 393.685 39.3715 394.681C41.6813 398.983 43.7568 402.841 45.9412 406.908C52.7285 403.025 58.9718 399.46 65.4076 395.777C69.249 401.912 72.9146 407.762 76.7644 413.897C72.3874 416.851 68.1861 419.688 63.8593 422.601C61.9846 419.931 60.4113 417.671 58.6538 415.161C56.7289 416.475 54.9797 417.663 53.1218 418.927C55.8166 422.894 58.2269 426.451 60.8213 430.284C67.0479 425.807 72.9983 421.53 79.0742 417.169C83.5014 422.844 87.7613 428.292 92.222 434.009C88.1881 437.398 84.2965 440.671 80.2877 444.035C78.1787 441.6 76.3124 439.449 74.3625 437.197C72.4627 438.737 70.8893 440.001 69.1569 441.407C72.3622 445.207 75.191 448.563 78.1118 452.02C83.9785 446.755 89.343 441.934 93.9628 437.783C99.3524 442.755 104.441 447.45 109.579 452.187C105.713 455.886 102.039 459.401 98.2477 463.017C96.5404 461.444 94.5235 459.577 92.5986 457.803C90.9248 459.393 89.4686 460.774 88.4308 461.753C91.4102 465.151 94.3226 468.466 97.369 471.93C102.734 466.03 107.671 460.598 112.659 455.116C118.266 459.862 123.539 464.314 128.97 468.918C125.656 473.136 122.602 477.036 119.396 481.12C116.827 479.195 114.559 477.488 112.224 475.739C110.701 477.588 109.479 479.078 108.014 480.861C111.663 483.731 115.128 486.46 118.886 489.423C123.388 483.288 127.732 477.362 132.226 471.236C138.218 475.337 144.001 479.296 149.893 483.33C146.997 487.958 144.344 492.185 141.666 496.47C138.946 494.821 136.603 493.39 133.95 491.774C132.711 493.674 131.615 495.348 130.301 497.357C134.352 499.91 138.076 502.245 142.051 504.755C145.968 498.01 149.642 491.674 153.358 485.263C159.894 488.761 165.97 492.017 172.23 495.373C169.887 500.152 167.694 504.622 165.384 509.325C162.539 507.994 159.978 506.789 157.249 505.509C156.136 507.685 155.224 509.467 154.203 511.468C158.563 513.568 162.505 515.468 166.656 517.477C169.853 510.38 172.841 503.718 175.879 496.98C182.817 499.826 189.177 502.437 195.705 505.115C193.764 510.229 192.006 514.849 190.19 519.628C187.194 518.565 184.733 517.695 181.93 516.707C181.076 518.749 180.298 520.616 179.327 522.951C183.821 524.566 188.039 526.089 192.408 527.663C194.902 520.197 197.228 513.276 199.555 506.321C206.66 508.388 213.163 510.279 220.017 512.271C218.678 517.502 217.423 522.398 216.159 527.328C212.92 526.583 210.276 525.98 207.439 525.336C206.828 527.621 206.342 529.454 205.74 531.722C210.343 532.877 214.594 533.948 219.13 535.086C220.787 527.545 222.352 520.39 223.959 513.1C231.207 514.414 237.994 515.636 244.974 516.899C244.196 522.281 243.484 527.194 242.756 532.232C239.618 531.872 236.898 531.554 233.927 531.211C233.542 533.471 233.207 535.446 232.805 537.798C237.626 538.434 241.953 538.995 246.489 539.597C247.376 531.764 248.188 524.624 249.008 517.351C256.28 517.854 263.043 518.314 269.688 518.774V534.467H260.708V540.861H274.249V518.707H295.657C296 523.52 296.343 528.458 296.711 533.655C293.556 533.956 290.845 534.224 287.807 534.517C287.94 536.769 288.058 538.76 288.2 541.188C292.979 540.786 297.322 540.418 301.85 540.033C301.097 532.282 300.402 525.127 299.691 517.778C307.022 516.766 313.834 515.828 320.831 514.866C321.76 520.239 322.605 525.127 323.467 530.123C320.32 530.784 317.642 531.345 314.663 531.973C315.081 534.291 315.433 536.258 315.835 538.501C320.613 537.622 324.915 536.827 329.351 536.007C327.744 528.357 326.271 521.31 324.748 514.037C331.878 512.28 338.565 510.639 345.503 508.923C346.959 514.046 348.323 518.808 349.746 523.813C346.758 524.758 344.155 525.579 341.26 526.491C341.804 528.642 342.297 530.592 342.892 532.919C347.495 531.596 351.713 530.383 356.19 529.102C353.83 521.737 351.595 514.782 349.319 507.693C356.207 505.207 362.684 502.864 369.422 500.428C371.422 505.391 373.271 509.986 375.205 514.782C372.3 516.063 369.689 517.209 366.978 518.406C367.823 520.649 368.526 522.524 369.321 524.633C373.949 522.741 378 521.076 382.159 519.377C378.996 512.213 376.083 505.617 373.079 498.83C379.615 495.649 385.825 492.628 392.328 489.464C394.822 494.176 397.19 498.654 399.617 503.232C396.805 504.781 394.395 506.103 391.742 507.568C392.771 509.643 393.667 511.459 394.704 513.56C398.889 511.325 402.772 509.258 406.948 507.032C403.149 500.361 399.525 494.009 395.809 487.498C402.011 483.631 407.861 479.982 413.953 476.182C416.891 480.543 419.661 484.669 422.657 489.13C420.046 490.921 417.686 492.528 415.25 494.202C416.539 496.244 417.627 497.976 418.832 499.901C422.866 497.181 426.515 494.712 430.357 492.118C425.787 485.79 421.494 479.848 417.184 473.864C423.009 469.328 428.474 465.076 434.081 460.715C437.487 464.775 440.701 468.599 444.082 472.634C441.747 474.659 439.579 476.542 437.286 478.534C438.717 480.35 439.973 481.94 441.429 483.798C445.145 480.668 448.501 477.839 452.041 474.851C446.81 468.984 441.931 463.519 438.316 459.46C443.278 453.811 447.856 448.596 452.468 443.349C456.192 447.065 459.724 450.588 463.389 454.246C461.481 456.388 459.581 458.506 457.891 460.406C459.447 462.155 460.719 463.578 461.841 464.833C465.197 461.686 468.419 458.682 471.85 455.468C466.126 450.254 460.711 445.307 455.196 440.277C459.866 434.728 464.31 429.431 468.955 423.907C473.147 427.196 477.131 430.318 481.215 433.523C479.207 436.176 477.558 438.369 475.809 440.679C477.608 442.202 479.156 443.516 480.906 444.998C483.893 441.139 486.588 437.666 489.442 433.975C483.199 429.405 477.29 425.087 471.315 420.718C475.441 414.633 479.324 408.9 483.316 403C487.869 405.854 492.17 408.549 496.522 411.269C494.832 414.047 493.409 416.391 491.861 418.944C493.852 420.258 495.526 421.362 497.46 422.635C500.046 418.483 502.364 414.776 504.782 410.901C497.945 406.9 491.635 403.209 485.341 399.527C488.823 393.007 492.028 387.014 495.409 380.695C500.138 383.014 504.69 385.24 509.411 387.558C508.038 390.446 506.866 392.923 505.578 395.635C507.586 396.714 509.369 397.677 511.461 398.807C513.562 394.513 515.503 390.554 517.579 386.311C510.599 383.156 503.929 380.135 497.066 377.038C499.828 370.267 502.431 363.889 505.134 357.253C510.122 359.085 514.775 360.801 519.746 362.626C518.7 365.547 517.788 368.116 516.759 370.995C518.893 371.874 520.834 372.677 523.019 373.581C524.692 368.886 526.165 364.768 527.697 360.491C520.332 358.056 513.495 355.796 506.381 353.444C508.398 346.464 510.306 339.861 512.315 332.906C517.554 334.253 522.45 335.509 527.32 336.756C526.626 340.011 526.065 342.665 525.462 345.502C527.714 346.096 529.538 346.573 531.806 347.167C532.953 342.539 534.007 338.287 535.129 333.759C527.58 332.111 520.424 330.554 513.135 328.964C514.449 321.716 515.679 314.928 516.943 307.94C522.299 308.71 527.22 309.421 532.258 310.141C531.907 313.246 531.597 315.974 531.262 318.962C533.48 319.356 535.455 319.707 537.815 320.134C538.46 315.33 539.029 310.995 539.64 306.433C531.848 305.555 524.701 304.751 517.395 303.931C517.88 296.708 518.332 289.946 518.784 283.233H534.442V292.163H540.979V278.714H518.734V257.28C523.563 256.945 528.492 256.593 533.706 256.233C534.007 259.405 534.267 262.109 534.551 265.13C536.844 264.988 538.836 264.871 541.188 264.728C540.828 260.033 540.502 255.781 540.15 251.095C532.501 251.823 525.236 252.517 517.813 253.229C516.809 245.906 515.871 239.093 514.917 232.096C520.299 231.175 525.186 230.338 530.166 229.485C530.827 232.615 531.388 235.293 532.015 238.264C534.334 237.863 536.309 237.519 538.543 237.134C537.673 232.372 536.886 228.07 536.074 223.618C528.408 225.208 521.362 226.681 514.089 228.187C512.34 221.099 510.683 214.411 508.967 207.448C514.089 205.983 518.851 204.627 523.847 203.196C524.793 206.167 525.621 208.779 526.55 211.7C528.684 211.156 530.643 210.662 532.978 210.068C531.664 205.473 530.459 201.246 529.178 196.769C521.788 199.129 514.834 201.355 507.728 203.631C505.251 196.777 502.916 190.291 500.472 183.528C505.427 181.528 510.022 179.67 514.867 177.711C516.106 180.607 517.236 183.235 518.432 186.022C520.642 185.185 522.517 184.474 524.701 183.645C522.835 179.101 521.169 175.042 519.42 170.79C512.315 173.928 505.628 176.883 498.874 179.862C495.66 173.267 492.681 167.166 489.517 160.663C494.137 158.194 498.598 155.817 503.201 153.356C504.799 156.135 506.23 158.612 507.712 161.173C509.846 160.102 511.653 159.198 513.654 158.194C511.302 153.875 509.201 150.025 507.009 146C500.263 149.866 494.02 153.448 487.567 157.148C483.734 151.004 480.077 145.146 476.244 139.003C480.621 136.048 484.822 133.203 489.141 130.29C490.999 132.968 492.572 135.236 494.313 137.731C496.271 136.417 498.037 135.228 499.895 133.989C497.209 130.031 494.807 126.474 492.179 122.599C485.944 127.085 479.993 131.37 473.934 135.73C469.507 130.064 465.247 124.616 460.778 118.899C464.812 115.518 468.712 112.237 472.721 108.864C474.796 111.241 476.671 113.401 478.629 115.652C480.504 114.154 482.077 112.907 483.843 111.501C480.646 107.709 477.826 104.353 474.897 100.872C469.038 106.119 463.665 110.94 458.133 115.895C453.095 110.622 448.25 105.558 443.253 100.344C447.17 96.6701 450.802 93.247 454.577 89.7068C456.401 91.4141 458.401 93.2889 460.385 95.1385C462.025 93.5567 463.473 92.159 464.728 90.9538C461.665 87.7567 458.627 84.5679 455.397 81.195C450.283 86.8193 445.354 92.2511 440.332 97.7749C434.784 93.0964 429.503 88.6438 423.988 83.9988C427.227 79.8643 430.298 75.939 433.562 71.7711C436.048 73.6207 438.341 75.3448 440.768 77.1526C442.274 75.3448 443.58 73.7797 445.044 72.0221C441.211 69.051 437.738 66.356 434.064 63.5104C429.469 69.7624 425.134 75.6628 420.749 81.6219C414.681 77.4958 408.965 73.6123 403.115 69.6285C405.978 65.0504 408.656 60.7485 411.334 56.455C414.162 58.1624 416.506 59.5768 418.983 61.0666C420.297 59.1248 421.36 57.5347 422.691 55.5678C418.724 53.0654 415.008 50.7219 410.965 48.1692C407.066 54.823 403.375 61.1335 399.592 67.5863C393.156 64.1465 387.063 60.8908 380.753 57.5179C383.113 52.7055 385.339 48.1525 387.616 43.5075C390.612 44.9303 393.072 46.0936 395.7 47.3407C396.813 45.2734 397.759 43.4991 398.855 41.457C394.478 39.3311 390.537 37.4062 386.369 35.3808C383.172 42.4362 380.159 49.0899 377.088 55.8775C370.242 53.0821 363.864 50.4792 357.286 47.7926C359.178 42.7208 360.91 38.1008 362.693 33.3219C365.798 34.3429 368.384 35.1883 371.154 36.0922C372.016 33.9496 372.769 32.0832 373.648 29.8988C369.037 28.25 364.902 26.777 360.567 25.2286C358.098 32.5937 355.78 39.532 353.437 46.5456C346.432 44.5202 339.912 42.6371 332.974 40.6284C334.28 35.4645 335.527 30.5432 336.799 25.5216C339.946 26.2664 342.607 26.8942 345.561 27.5972C346.13 25.2705 346.608 23.3371 347.152 21.1192C342.523 19.9643 338.381 18.9264 333.861 17.7966C332.229 25.2454 330.664 32.3929 329.049 39.7663C321.902 38.4858 315.123 37.2806 308.043 36.0085C308.788 30.7525 309.482 25.8312 310.211 20.6673C313.24 21.0188 315.952 21.3285 319.006 21.68C319.4 19.5709 319.776 17.5957 320.237 15.1351C315.517 14.499 311.19 13.9132 306.511 13.2771C305.649 20.9602 304.854 28.0993 304.026 35.5565C296.82 35.0376 289.957 34.5438 283.354 34.0668V18.4829H292.242V11.938H278.776V34.2007H257.343C257.009 29.3464 256.665 24.4168 256.306 19.1943C259.477 18.9013 262.189 18.6503 265.185 18.3657C265.043 16.0055 264.926 14.0052 264.783 11.7036C259.98 12.097 255.736 12.4401 251.175 12.8084C251.912 20.5417 252.598 27.8064 253.293 35.1213C245.978 36.134 239.266 37.063 232.211 38.0339C231.299 32.8532 230.437 27.9738 229.525 22.8266C232.621 22.1487 235.383 21.5377 238.387 20.8765C237.919 18.4661 237.534 16.516 237.115 14.3567C232.295 15.2941 228.01 16.1227 223.716 16.9513C225.307 24.6428 226.754 31.6815 228.244 38.8792C221.047 40.6368 214.368 42.2688 207.506 43.9427C206.024 38.7202 204.677 33.9747 203.271 29.0367C206.401 28.0742 208.995 27.2708 211.791 26.4087C211.196 24.0569 210.711 22.1152 210.15 19.8973C205.405 21.3034 201.195 22.5504 196.843 23.8393C199.212 31.196 201.421 38.0506 203.714 45.1814C196.986 47.6001 190.491 49.9436 183.587 52.4293C181.595 47.4997 179.704 42.8295 177.77 38.0339C180.8 36.7533 183.327 35.6821 186.039 34.5354C185.244 32.3678 184.549 30.4846 183.746 28.2751C179.227 30.0996 175.168 31.7401 170.866 33.4725C173.996 40.5949 176.933 47.2821 179.921 54.0781C173.268 57.2919 167.066 60.2966 160.689 63.3765C158.17 58.631 155.843 54.2455 153.433 49.7092C156.178 48.1274 158.664 46.6962 161.233 45.2148C160.17 43.089 159.266 41.2728 158.287 39.2977C153.977 41.6076 150.119 43.6832 146.077 45.8509C149.977 52.7055 153.584 59.0495 157.199 65.3936C150.931 69.2937 145.165 72.8842 139.089 76.6672C136.159 72.3234 133.322 68.122 130.385 63.7782C133.021 61.9286 135.272 60.3384 137.75 58.5976C136.478 56.6642 135.314 54.8983 134.076 53.0068C130.033 55.752 126.41 58.2042 122.652 60.7485C127.255 67.1177 131.49 72.9679 135.833 78.9855C130.084 83.4464 124.552 87.7399 118.928 92.1088C115.438 87.9575 112.224 84.1411 108.927 80.2158C111.329 78.1151 113.488 76.232 115.739 74.2735C114.274 72.449 113.002 70.8672 111.571 69.0845C107.83 72.223 104.466 75.0435 100.968 77.9895C106.223 83.89 111.086 89.3552 114.726 93.4479C109.764 99.114 105.194 104.328 100.524 109.651C96.7413 105.835 93.2263 102.294 89.6025 98.6369C91.5525 96.4525 93.4522 94.3351 95.0926 92.5105C93.5192 90.7195 92.2638 89.2799 91.1675 88.0329C87.845 91.23 84.6731 94.2765 81.292 97.5322C86.8993 102.612 92.3308 107.542 97.8544 112.539C93.1593 118.113 88.6986 123.402 84.0454 128.926C79.8525 125.62 75.8772 122.49 71.7932 119.276C73.8101 116.648 75.4839 114.472 77.233 112.195C75.4002 110.647 73.8519 109.325 72.0944 107.843C69.1234 111.685 66.437 115.158 63.5915 118.841C69.8181 123.427 75.7182 127.771 81.6854 132.157C77.5762 138.216 73.6929 143.941 69.6925 149.841C65.1147 146.979 60.8046 144.284 56.4778 141.572C58.1683 138.793 59.5911 136.442 61.1394 133.897C59.181 132.592 57.5156 131.479 55.5823 130.19C52.9795 134.358 50.6613 138.065 48.2427 141.94C55.0885 145.941 61.3988 149.64 67.6756 153.314C64.1941 159.826 60.9887 165.827 57.5993 172.154C52.8707 169.827 48.3263 167.593 43.6062 165.274C44.9704 162.395 46.142 159.918 47.4225 157.215C45.4307 156.135 43.6481 155.164 41.5642 154.034C39.4635 158.303 37.5135 162.261 35.4129 166.547C42.3508 169.668 49.0377 172.673 55.9254 175.77C53.1888 182.524 50.5944 188.91 47.8828 195.597C42.8195 193.739 38.0826 192.006 33.2955 190.257C34.3835 187.052 35.2539 184.482 36.1745 181.771C34.0488 180.908 32.2662 180.189 30.0484 179.293C28.4164 183.746 26.8765 187.947 25.2696 192.333C32.7348 194.818 39.6644 197.128 46.6274 199.447C44.5686 206.544 42.6772 213.055 40.677 219.935C35.4715 218.604 30.5672 217.349 25.596 216.085C26.3492 212.855 26.9685 210.218 27.6297 207.381C25.3198 206.762 23.487 206.276 21.2357 205.674C20.0641 210.285 18.9845 214.537 17.8295 219.073C25.3366 220.714 32.4921 222.27 39.8318 223.877C38.5429 231.083 37.3294 237.863 36.0657 244.893C30.7597 244.14 25.8387 243.437 20.7252 242.708C21.0767 239.645 21.3948 236.934 21.7379 233.904C19.5703 233.502 17.5952 233.142 15.2017 232.699C14.5489 237.444 13.9547 241.779 13.327 246.391C21.0684 247.261 28.2155 248.073 35.6221 248.902C35.1116 256.175 34.6346 263.046 34.1743 269.658H18.6246V260.678H12.0382V274.044H34.2329V295.57C29.2951 295.921 24.4578 296.256 19.2104 296.633C18.9677 293.544 18.7501 290.833 18.5074 287.753C16.2311 287.87 14.2392 287.962 11.7955 288.087C12.1721 292.833 12.5152 297.185 12.8834 301.763C20.6248 301.01 27.7887 300.315 35.1869 299.604C36.1912 306.852 37.1286 313.673 38.0994 320.728C32.7934 321.649 27.9059 322.503 22.851 323.373C22.2149 320.318 21.6542 317.64 21.0265 314.627C18.7836 314.987 16.8085 315.297 14.4903 315.665C15.3523 320.394 16.1306 324.695 16.9508 329.19C24.6001 327.633 31.7389 326.177 38.9446 324.704C40.7189 331.901 42.3425 338.497 44.0414 345.401C38.9279 346.858 34.0739 348.247 29.0943 349.661C28.1402 346.531 27.387 344.037 26.5082 341.15C24.3658 341.677 22.4158 342.154 20.0139 342.748C21.3613 347.377 22.6166 351.67 23.8971 356.072C31.3707 353.679 38.2249 351.478 45.2549 349.226C47.7154 356.039 50.0671 362.517 52.5192 369.313C47.6066 371.296 43.012 373.154 38.0994 375.146C36.9444 372.393 35.8816 369.848 34.6346 366.869V366.911Z" fill="url(#paint6_linear_10699_74316)"/>
<defs>
<filter id="filter0_i_10699_74316" x="49" y="49" width="464" height="464" filterUnits="userSpaceOnUse" color-interpolation-filters="sRGB">
<feFlood flood-opacity="0" result="BackgroundImageFix"/>
<feBlend mode="normal" in="SourceGraphic" in2="BackgroundImageFix" result="shape"/>
<feColorMatrix in="SourceAlpha" type="matrix" values="0 0 0 0 0 0 0 0 0 0 0 0 0 0 0 0 0 0 127 0" result="hardAlpha"/>
<feOffset dx="20" dy="12"/>
<feGaussianBlur stdDeviation="4"/>
<feComposite in2="hardAlpha" operator="arithmetic" k2="-1" k3="1"/>
<feColorMatrix type="matrix" values="0 0 0 0 0.0742708 0 0 0 0 0.258333 0 0 0 0 0.203115 0 0 0 0.5 0"/>
<feBlend mode="normal" in2="shape" result="effect1_innerShadow_10699_74316"/>
</filter>
<linearGradient id="paint0_linear_10699_74316" x1="277" y1="40" x2="277" y2="514" gradientUnits="userSpaceOnUse">
<stop stop-color="#EAEAEA"/>
<stop offset="1" stop-color="#8A8A8A"/>
</linearGradient>
<linearGradient id="paint1_linear_10699_74316" x1="277" y1="0" x2="277" y2="554" gradientUnits="userSpaceOnUse">
<stop stop-color="#2EAA8C"/>
<stop offset="1" stop-color="#10745C"/>
</linearGradient>
<linearGradient id="paint2_linear_10699_74316" x1="276.999" y1="88.6914" x2="276.999" y2="465.306" gradientUnits="userSpaceOnUse">
<stop stop-color="#E6E6E6"/>
<stop offset="1" stop-color="#828584"/>
</linearGradient>
<linearGradient id="paint3_linear_10699_74316" x1="276.999" y1="88.6921" x2="276.999" y2="465.307" gradientUnits="userSpaceOnUse">
<stop stop-color="#A9B0AF"/>
<stop offset="1" stop-color="#636363"/>
</linearGradient>
<linearGradient id="paint4_linear_10699_74316" x1="277" y1="50" x2="277" y2="504" gradientUnits="userSpaceOnUse">
<stop stop-color="white"/>
<stop offset="1" stop-color="white"/>
</linearGradient>
<linearGradient id="paint5_linear_10699_74316" x1="79.0973" y1="149.096" x2="476.124" y2="405.637" gradientUnits="userSpaceOnUse">
<stop stop-color="#133D32"/>
<stop offset="1" stop-color="#6CB399"/>
</linearGradient>
<linearGradient id="paint6_linear_10699_74316" x1="276.5" y1="7" x2="276.5" y2="546" gradientUnits="userSpaceOnUse">
<stop stop-color="#6DD5BC"/>
<stop offset="1" stop-color="#4BB098"/>
</linearGradient>
</defs>
</svg>
