<svg width="23" height="22" viewBox="0 0 23 22" fill="none" xmlns="http://www.w3.org/2000/svg">
<path fill-rule="evenodd" clip-rule="evenodd" d="M20.6673 10.9997C20.6673 16.0622 16.5632 20.1663 11.5006 20.1663C6.43804 20.1663 2.33398 16.0622 2.33398 10.9997C2.33398 5.93706 6.43804 1.83301 11.5006 1.83301C16.5632 1.83301 20.6673 5.93706 20.6673 10.9997ZM15.1951 8.22187C15.4636 8.49035 15.4636 8.92566 15.1951 9.19412L10.6118 13.7774C10.3433 14.0459 9.90803 14.0459 9.63951 13.7774L7.80618 11.9441C7.5377 11.6756 7.5377 11.2404 7.80618 10.9719C8.07466 10.7034 8.50997 10.7034 8.77845 10.9719L10.1256 12.319L12.1742 10.2705L14.2229 8.22187C14.4914 7.95339 14.9266 7.95339 15.1951 8.22187Z" fill="#00B828"/>
</svg>
