<svg width="36" height="36" viewBox="0 0 36 36" fill="none" xmlns="http://www.w3.org/2000/svg">
<path d="M30.1504 12.9378L16.6504 34.3128C16.5379 34.6503 16.0879 34.8753 15.7504 34.8753C15.6379 34.8753 15.5254 34.8753 15.4129 34.7628C14.9629 34.5378 14.6254 34.0878 14.7379 33.5253L16.6504 19.1253H6.75038C6.30038 19.1253 5.96288 18.9003 5.73788 18.5628C5.51288 18.2253 5.62538 17.7753 5.85038 17.4378L17.1004 1.68784C17.4379 1.23784 17.8879 1.12534 18.3379 1.23784C18.7879 1.35034 19.1254 1.80034 19.1254 2.25034V11.2503H29.2504C29.7004 11.2503 30.0379 11.4753 30.2629 11.8128C30.3754 12.1503 30.3754 12.6003 30.1504 12.9378Z" fill="#00C076"/>
</svg>
