<svg xmlns="http://www.w3.org/2000/svg" width="64" height="64" viewBox="0 0 64 64" fill="none">
    <g clip-path="url(#clip0_810_6921)">
        <path d="M31.9894 0C34.1972 0 35.9871 1.78985 35.9871 3.99772V17.3235C35.9871 19.5314 34.1972 21.3212 31.9894 21.3212C29.7815 21.3212 27.9917 19.5314 27.9917 17.3235V3.99772C27.9917 1.78985 29.7814 0 31.9894 0Z" fill="#171717"/>
        <path d="M41.3173 13.1655C41.2977 14.5075 41.9743 15.764 43.1057 16.4862C53.1539 22.6256 56.3226 35.7483 50.1831 45.7965C44.0436 55.8446 30.9211 59.0135 20.8728 52.8741C10.8246 46.7347 7.65588 33.6119 13.7954 23.5637C15.5496 20.6926 17.9585 18.2773 20.825 16.5154C21.9757 15.7932 22.6706 14.5266 22.6613 13.168C22.6674 10.9601 20.8826 9.16538 18.6747 9.15926C17.9164 9.15714 17.1731 9.37077 16.5316 9.77528C2.77754 18.3184 -1.44668 36.3936 7.09633 50.1475C15.6393 63.9014 33.7145 68.1256 47.4684 59.5826C61.2223 51.0396 65.4466 32.9644 56.9036 19.2105C54.5255 15.3821 51.2969 12.1534 47.4684 9.77541C45.5949 8.59346 43.1179 9.15414 41.936 11.0277C41.5322 11.6676 41.3178 12.4088 41.3173 13.1655Z" fill="#171717"/>
    </g>
    <defs>
        <clipPath id="clip0_810_6921">
            <rect width="64" height="64" fill="white"/>
        </clipPath>
    </defs>
</svg>