<svg width="38" height="38" fill="none" xmlns="http://www.w3.org/2000/svg"><path d="M24.164 5.121c0-.328.266-.594.594-.594h5.996a2.8 2.8 0 0 1 1.993.828c.534.533.828 1.24.828 1.993v3.188l.709-.81a.594.594 0 1 1 .893.782l-1.75 1.999a.593.593 0 0 1-.893 0l-1.75-1.999a.594.594 0 0 1 .894-.782l.71.81V7.348c0-.435-.171-.844-.48-1.154-.31-.309-.72-.48-1.154-.48h-5.996a.594.594 0 0 1-.594-.593Zm9.309 21.121v4.512a2.824 2.824 0 0 1-2.82 2.82H25.98l.81.71a.594.594 0 0 1-.782.893l-1.999-1.75a.594.594 0 0 1 0-.893l1.999-1.75a.594.594 0 1 1 .782.894l-.81.709h4.673c.9 0 1.633-.732 1.633-1.633v-4.512a.594.594 0 1 1 1.187 0ZM13.836 32.88a.594.594 0 0 1-.594.594H7.246a2.824 2.824 0 0 1-2.82-2.82v-3.189l-.71.81a.594.594 0 1 1-.893-.782l1.75-1.999a.594.594 0 0 1 .893 0l1.75 2a.594.594 0 1 1-.894.781l-.709-.81v3.189c0 .9.732 1.632 1.633 1.632h5.996c.328 0 .594.266.594.594ZM4.527 11.758V7.246a2.8 2.8 0 0 1 .828-1.993 2.8 2.8 0 0 1 1.993-.827h4.673l-.81-.71a.594.594 0 0 1 .781-.893l2 1.75a.594.594 0 0 1 0 .893l-2 1.75a.591.591 0 0 1-.837-.056.594.594 0 0 1 .055-.838l.81-.709H7.349c-.435 0-.844.17-1.154.48-.309.309-.48.718-.48 1.153v4.512a.594.594 0 0 1-1.187 0Z" fill="#94FFDF"/><g clip-path="url(#a)" fill="#94FFDF"><path d="M4.75 14.25a2.508 2.508 0 0 0-2.505 2.505A2.508 2.508 0 0 0 4.75 19.26a2.508 2.508 0 0 0 2.505-2.505A2.508 2.508 0 0 0 4.75 14.25ZM7.867 20.896a3.571 3.571 0 0 0-2.56-1.08H4.193c-.965 0-1.874.384-2.56 1.08a3.65 3.65 0 0 0-1.058 2.576c0 .153.125.278.279.278h7.792a.278.278 0 0 0 .279-.278 3.65 3.65 0 0 0-1.058-2.576Z"/></g><g clip-path="url(#b)" fill="#94FFDF"><path d="M32.063 14.25a2.508 2.508 0 0 0-2.505 2.505 2.508 2.508 0 0 0 2.505 2.505 2.508 2.508 0 0 0 2.504-2.505 2.508 2.508 0 0 0-2.505-2.505ZM35.18 20.896a3.571 3.571 0 0 0-2.56-1.08h-1.114c-.965 0-1.874.384-2.56 1.08a3.65 3.65 0 0 0-1.058 2.576c0 .153.124.278.278.278h7.793a.278.278 0 0 0 .278-.278 3.65 3.65 0 0 0-1.058-2.576Z"/></g><g clip-path="url(#c)" fill="#94FFDF"><path d="M19 27.313a2.508 2.508 0 0 0-2.505 2.504A2.508 2.508 0 0 0 19 32.322a2.508 2.508 0 0 0 2.505-2.505A2.508 2.508 0 0 0 19 27.312ZM22.117 33.959a3.571 3.571 0 0 0-2.56-1.08h-1.114c-.965 0-1.874.383-2.56 1.08a3.65 3.65 0 0 0-1.058 2.575c0 .154.125.279.279.279h7.793a.278.278 0 0 0 .278-.279 3.65 3.65 0 0 0-1.058-2.575Z"/></g><g clip-path="url(#d)" fill="#94FFDF"><path d="M19 1.188a2.508 2.508 0 0 0-2.505 2.504A2.508 2.508 0 0 0 19 6.197a2.508 2.508 0 0 0 2.505-2.505A2.508 2.508 0 0 0 19 1.187ZM22.117 7.834a3.57 3.57 0 0 0-2.56-1.08h-1.114c-.965 0-1.874.383-2.56 1.08a3.65 3.65 0 0 0-1.058 2.575c0 .154.125.278.279.278h7.793a.278.278 0 0 0 .278-.278 3.65 3.65 0 0 0-1.058-2.575Z"/></g><path d="M16.05 19.47H12a6.947 6.947 0 0 0 1.268 3.562c.845-.313 1.884-.548 3.032-.692a20.717 20.717 0 0 1-.25-2.87Zm0-.94H12a6.949 6.949 0 0 1 1.268-3.562c.845.313 1.884.548 3.033.692a20.72 20.72 0 0 0-.25 2.87Zm.428-3.793c-.963-.117-1.84-.3-2.575-.542a7.023 7.023 0 0 1 3.515-2.015 6.696 6.696 0 0 0-.62 1.39c-.12.362-.228.752-.32 1.167Zm2.537.148c-.544 0-1.077-.02-1.593-.057.08-.34.17-.662.269-.962.458-1.377.992-1.866 1.31-1.866.317 0 .85.489 1.309 1.866.1.3.19.623.269.964-.507.036-1.03.055-1.564.055Zm-2.023 4.585h4.016c-.02.978-.104 1.916-.246 2.772a22.728 22.728 0 0 0-3.524.003 19.672 19.672 0 0 1-.246-2.775Zm4.211-5.9a6.698 6.698 0 0 0-.62-1.39 7.02 7.02 0 0 1 3.52 2.022c-.737.24-1.616.422-2.58.538-.092-.415-.2-.807-.32-1.17Zm-.195 4.96h-4.016c.02-.978.105-1.918.246-2.775a22.73 22.73 0 0 0 3.524.003c.142.856.226 1.795.246 2.773Zm.692-2.867c1.15-.142 2.19-.376 3.038-.687A6.95 6.95 0 0 1 26 18.531h-4.05a20.736 20.736 0 0 0-.25-2.867Zm.25 3.807H26a6.948 6.948 0 0 1-1.262 3.554c-.847-.311-1.888-.545-3.038-.688.144-.89.23-1.86.25-2.866Zm-2.935 3.645c.533 0 1.057.02 1.564.055-.08.341-.17.664-.27.964-.457 1.377-.99 1.866-1.308 1.866-.318 0-.852-.489-1.31-1.866-.1-.3-.19-.621-.269-.962a22.067 22.067 0 0 1 1.593-.057Zm-2.218 1.315c.195.585.405 1.04.621 1.39a7.022 7.022 0 0 1-3.515-2.015c.736-.241 1.612-.425 2.574-.542.093.415.2.805.32 1.167Zm4.727-1.17c.963.116 1.842.298 2.58.538a7.022 7.022 0 0 1-3.521 2.023c.216-.352.426-.806.62-1.391.12-.363.228-.755.32-1.17Z" fill="#94FFDF"/><defs><clipPath id="a"><path fill="#fff" transform="translate(0 14.25)" d="M0 0h9.5v9.5H0z"/></clipPath><clipPath id="b"><path fill="#fff" transform="translate(27.313 14.25)" d="M0 0h9.5v9.5H0z"/></clipPath><clipPath id="c"><path fill="#fff" transform="translate(14.25 27.313)" d="M0 0h9.5v9.5H0z"/></clipPath><clipPath id="d"><path fill="#fff" transform="translate(14.25 1.188)" d="M0 0h9.5v9.5H0z"/></clipPath></defs></svg>