<svg width="36" height="36" fill="none" xmlns="http://www.w3.org/2000/svg"><rect x=".55" y=".55" width="34.9" height="34.9" rx="17.45" stroke="#94FFDF" stroke-width="1.1"/><g clip-path="url(#a)"><path d="M17.998 24.871 11 20.634l6.995 10.108 7.003-10.108-7.003 4.237h.003Z" fill="url(#b)"/><path d="m25 20.634-7.002 10.108v-5.87L25 20.633Z" fill="url(#c)"/><path d="M17.998 24.871v-.707L25 20.634" fill="#86CEBF"/><path d="M18.002 24.871v-.707L11 20.634" fill="url(#d)"/><path d="M16.369 19.721a1.92 1.92 0 0 1 .173-1.499c.14-.24.33-.447.554-.602.2-.14.428-.237.668-.285.554-.1.962.036 1.209.173l.078.046c.057.036.104.07.138.098.044.036.069.061.069.061l.129.01-.01-.012-.05-.064a2.48 2.48 0 0 0-.17-.185c-.01-.009-.02-.018-.029-.024a1.863 1.863 0 0 0-.323-.237 1.702 1.702 0 0 0-.483-.198 1.517 1.517 0 0 0-.17-.033c-.045-.005-.088-.01-.134-.012-.031 0-.065-.004-.096-.004h-.004c-.054 0-.107.004-.158.009h-.005c-.81.077-1.48.723-1.696 1.588a2.435 2.435 0 0 0-.076.605c0 .616.23 1.2.621 1.613l.036.036c.024.025.051.046.076.069v-.495a1.887 1.887 0 0 1-.348-.658Z" fill="url(#e)"/><path d="m17.689 16.792-.067-.963a3.122 3.122 0 0 0-1.238.37l.641.807c.205-.11.43-.185.664-.212v-.002Z" fill="url(#f)"/><path d="m16.88 17.088-.64-.807a3.312 3.312 0 0 0-.833.732l.875.648c.164-.23.369-.427.6-.573h-.002Z" fill="url(#g)"/><path d="m16.188 17.8-.883-.657a3.288 3.288 0 0 0-.53 1.136l1.113.244c.064-.262.164-.506.3-.723Z" fill="url(#h)"/><path d="m15.879 19.785-.027-.132s-.004 0-.009.005l-1.1.145v.007c.1.466.294.895.564 1.264l.857-.607a2.38 2.38 0 0 1-.283-.682h-.002Z" fill="url(#i)"/><path d="M19.024 17.736a1.63 1.63 0 0 0-1.837.019c-.207.141-.378.33-.505.55a1.76 1.76 0 0 0-.185 1.275c.25-.14.461-.338.664-.554.173-.183.342-.38.53-.56a3.037 3.037 0 0 1 .81-.561c.164-.075.34-.134.518-.169h.005Z" fill="url(#j)"/><path d="M16.698 21.086a2.201 2.201 0 0 1-.412-.443c-.011-.014-.022-.025-.031-.039l-.848.6a3.228 3.228 0 0 0 1.307.967v-1.078l-.016-.014-.005.005h.005v.002Z" fill="url(#k)"/><path d="M17.915 15.17c-2.12 0-3.841 1.763-3.841 3.938 0 2.174 1.72 3.938 3.841 3.938 2.122 0 3.842-1.764 3.842-3.938 0-2.175-1.718-3.939-3.842-3.939Zm.441 7.365c-.078.011-.156.02-.238.025-.038.004-.073.004-.107.004-.033 0-.073.005-.109.005h-.051c-.054 0-.107-.005-.163-.007-.044-.005-.086-.005-.131-.011a3.212 3.212 0 0 1-.774-.171c-.007 0-.014-.005-.02-.007a3.392 3.392 0 0 1-1.527-1.12l-.012-.014v-.005a3.495 3.495 0 0 1-.623-2.895v-.01s.005-.004.005-.01c.113-.494.327-.945.62-1.333 0 0 0-.005.005-.005l.007-.007c.27-.351.603-.65.984-.871l.004-.005c.238-.137.492-.246.759-.324.19-.052.385-.091.583-.11l.15-.01c.035-.005.073-.005.106-.005.031-.005.065-.005.096-.005 1.865 0 3.378 1.552 3.378 3.464 0 1.759-1.28 3.21-2.938 3.427h-.004Z" fill="url(#l)"/><path d="M17.83 19.365a.445.445 0 0 1 .036-.031c.01-.01.018-.017.025-.026l-.005-.009-.182-.616c-.145.146-.283.301-.428.457-.215.228-.447.444-.734.6.064.184.156.356.274.506.202-.084.372-.221.527-.374.17-.167.32-.351.485-.509l.003.002Z" fill="url(#m)"/><path d="M17.788 19.644c-.155.166-.318.358-.516.518-.004.004-.011.007-.018.011-.044.037-.093.069-.142.103-.045.023-.211.11-.236.116v1.844a3.136 3.136 0 0 0 1.865.048v-3.165c-.169.03-.334.075-.487.146-.16.073-.31.212-.466.381v-.002Z" fill="url(#n)"/><path d="M18.031 19.201a.966.966 0 0 1 .156-.089c.294-.132.623-.194.948-.194.24 0 .479.032.704.094l.004-.005a2.422 2.422 0 0 0-.338-1.111l-.058-.014c-.051-.009-.085-.009-.085-.009h-.122c-.123.01-.247.032-.365.069-.103.03-.205.068-.303.114a2.837 2.837 0 0 0-.732.5l.171.577.02.066v.002Zm1.39-1.218a.04.04 0 0 1 .05.027l.216.723c.007.023-.004.046-.027.053a.04.04 0 0 1-.05-.027l-.217-.724c-.006-.023.005-.045.027-.052Zm-.542.125.18.605c.005.023-.004.046-.026.052a.04.04 0 0 1-.051-.027l-.18-.605c-.007-.023.004-.045.026-.052a.04.04 0 0 1 .051.027Zm-.583.226a.04.04 0 0 1 .051.027s.031.11.067.22l.062.21c.007.022-.004.045-.026.052-.02.005-.045-.005-.052-.03a3.828 3.828 0 0 1-.044-.153 2.978 2.978 0 0 1-.04-.139l-.042-.139c-.007-.023.004-.046.026-.052l-.002.004Z" fill="url(#o)"/><path d="M20.105 20.196c-.017-.032-.037-.075-.064-.123a2.03 2.03 0 0 1-.151-.322.682.682 0 0 1-.047-.237v-.041c0-.1-.018-.206-.04-.3a2.555 2.555 0 0 0-.897-.077v2.097c.082.011.182.025.282.034.13.014.26.025.35.025h.055a.14.14 0 0 0 .074-.018.068.068 0 0 0 .027-.03c.004-.009.006-.02.01-.034.005-.018.005-.039.005-.066v-.06c0-.018-.004-.043-.004-.068 0-.018 0-.038.004-.057 0-.018.005-.038.007-.057.004-.013.004-.025.011-.04a.178.178 0 0 1 .06-.065.225.225 0 0 1 .045-.027l-.014-.039v-.005h-.225a.04.04 0 0 1-.04-.04.04.04 0 0 1 .04-.042h.245l.038-.045v-.016c-.004-.03-.004-.066-.009-.096-.004-.018-.004-.037-.004-.039v-.014c0-.018.004-.036.011-.047a.08.08 0 0 1 .022-.026c.011-.011.02-.013.031-.018a.593.593 0 0 1 .047-.016l.105-.027a.17.17 0 0 0 .053-.023v-.004s-.011-.026-.02-.042l-.007.005Zm-.474-.404a.214.214 0 0 1-.084.034.4.4 0 0 1-.191 0 .146.146 0 0 1-.076-.04.046.046 0 0 1 .004-.06c.018-.014.042-.014.058.005 0 .004.013.01.033.015a.344.344 0 0 0 .154 0 .128.128 0 0 0 .056-.022c.017-.014.044-.012.055.009.014.018.011.045-.009.06Zm.03-.283-.06-.016c-.036-.009-.08-.02-.114-.03-.025-.004-.045-.01-.054-.01h-.01a.173.173 0 0 0-.065.013c-.023.004-.04.014-.045.014-.02.009-.044 0-.051-.023a.041.041 0 0 1 .022-.055l.047-.016a.283.283 0 0 1 .093-.018c.007 0 .016 0 .023.004.013 0 .035.007.06.014.024.005.05.014.08.018l.1.025c.02.005.036.03.031.05-.004.023-.029.037-.051.033l-.005-.005-.002.002Z" fill="url(#p)"/><path d="m19.3 16.125-.163.3-.069.125-.251.458c.018.012.035.019.053.03.094.053.185.116.27.185l.082.068c.08.071.151.146.22.229l.005.004.398-.26.232-.15.244-.16c-.284-.281-.578-.603-1.023-.835v.004l.002.002Z" fill="url(#q)"/><path d="M17.915 16.778c.036 0 .07.005.105.005.111.006.22.02.327.045a1.84 1.84 0 0 1 .314.107l.316-.575.17-.308c-.323-.141-.724-.232-1.24-.235h-.114l.067.963c.02 0 .04-.004.06-.004l-.005.002Z" fill="url(#r)"/><path d="m14.993 19.598.828-.11h.005a2.484 2.484 0 0 1 .029-.792v-.006l-1.118-.244a3.385 3.385 0 0 0-.024 1.191l.05-.007.228-.032h.002Z" fill="url(#s)"/><path d="M21.294 19.11c0-1.912-1.514-3.464-3.379-3.464-.031 0-.064 0-.095.005-.038 0-.074 0-.107.004l-.15.012a3.333 3.333 0 0 0-.583.11 3.407 3.407 0 0 0-.759.323l-.004.005c-.38.221-.714.52-.984.872l-.007.006s0 .005-.004.005c-.294.388-.51.84-.621 1.332 0 .005-.004.007-.004.012v.009a3.51 3.51 0 0 0 .623 2.895v.005l.01.014c.393.509.92.903 1.528 1.12.004.005.013.005.02.007.247.086.505.146.774.171.045.005.087.007.132.011.053.005.107.005.162.007h.051c.038 0 .074 0 .11-.004.037 0 .073-.005.106-.005.08-.005.158-.016.238-.025.087-.011.17-.027.254-.046 1.532-.326 2.684-1.713 2.684-3.381h.005Zm-1.756 2.147c-.091 0-.223-.012-.35-.025l-.282-.034V19.1a2.573 2.573 0 0 1 .897.078c.022.093.04.2.04.298v.041c0 .082.02.16.046.238.04.116.1.23.152.321l.064.123c.01.019.014.033.02.042v.004c-.01.007-.03.014-.053.023-.031.011-.073.018-.105.027a.281.281 0 0 0-.046.016c-.012.005-.018.007-.032.019-.006.004-.013.013-.022.025-.009.011-.011.03-.011.048v.013s.004.02.004.04c.005.029.005.065.01.095v.016l-.039.045h-.244a.04.04 0 0 0-.04.042.04.04 0 0 0 .04.04h.224v.005l.014.039c-.014.007-.031.016-.045.027-.01.007-.02.016-.03.026a.174.174 0 0 0-.03.038.114.114 0 0 0-.01.041c-.005.019-.005.04-.008.057 0 .02-.004.04-.004.057 0 .026 0 .05.005.069v.06c0 .024 0 .047-.005.065-.005.014-.005.026-.011.035a.057.057 0 0 1-.027.03.127.127 0 0 1-.073.018h-.056l.007-.005Zm-1.643-1.946s-.018.016-.024.025a.446.446 0 0 1-.036.032c-.165.155-.316.342-.485.509-.156.152-.325.29-.528.374a1.707 1.707 0 0 1-.273-.507c.287-.153.518-.374.734-.6.145-.153.283-.31.427-.456l.183.616.004.009-.002-.002Zm-1.29 1.455c-.393-.415-.622-.999-.622-1.613 0-.139.014-.274.034-.406a1.96 1.96 0 0 1 .042-.198c.218-.865.886-1.51 1.696-1.588h.004a1.86 1.86 0 0 1 .158-.01h.005c.031 0 .064.005.096.005.044.005.089.005.133.011.058.01.116.019.172.032l.102.03a1.907 1.907 0 0 1 .38.169c.087.052.17.11.247.173.025.02.052.041.076.064a2.012 2.012 0 0 1 .25.274l.008.011-.129-.009s-.024-.025-.069-.061a1.393 1.393 0 0 0-.216-.144c-.247-.137-.654-.274-1.208-.174a1.797 1.797 0 0 0-.668.286 1.868 1.868 0 0 0-.554.602 1.926 1.926 0 0 0-.174 1.5c.074.243.192.467.348.656v.495c-.025-.022-.052-.045-.076-.068l-.036-.037Zm2.419-3.027a2.126 2.126 0 0 0-.519.168 2.985 2.985 0 0 0-.81.562c-.19.18-.358.376-.53.559-.205.216-.416.415-.663.554a1.764 1.764 0 0 1 .185-1.275c.126-.22.3-.409.505-.55a1.624 1.624 0 0 1 1.836-.018h-.004Zm-1.184.821c.044-.041.088-.082.135-.119.183-.15.385-.28.597-.38.1-.046.2-.083.303-.115.12-.034.24-.06.364-.068h.123s.033 0 .085.009l.057.014c.196.319.316.7.339 1.11l-.005.005a2.77 2.77 0 0 0-.703-.093c-.325 0-.655.06-.948.194a1.066 1.066 0 0 0-.156.089l-.02-.066-.171-.578v-.002Zm2.481-1.6-.245.16-.231.15-.398.261-.005-.005a2.119 2.119 0 0 0-.22-.228c-.027-.025-.054-.045-.083-.068a2.097 2.097 0 0 0-.269-.185c-.018-.011-.036-.018-.053-.03l.251-.458.07-.126.162-.299c.442.23.738.552 1.023.835v-.004l-.002-.003Zm-2.417-1.143c.519 0 .917.096 1.24.235l-.17.308-.315.576c-.067-.03-.136-.053-.205-.076a1.849 1.849 0 0 0-.11-.032 1.944 1.944 0 0 0-.326-.045c-.036 0-.07-.005-.105-.005-.02 0-.04.005-.06.005l-.067-.963h.114l.004-.003Zm-.283.014.067.963c-.236.03-.458.103-.663.212l-.641-.808a3.106 3.106 0 0 1 1.237-.37v.003Zm-1.382.452.641.808a2.23 2.23 0 0 0-.6.572l-.876-.648c.234-.29.517-.538.833-.732h.002Zm-.932.865.883.657a2.497 2.497 0 0 0-.3.723l-1.113-.244c.105-.415.287-.8.53-1.136Zm-.568 1.298 1.117.244v.007a2.52 2.52 0 0 0-.029.792h-.004l-.828.11-.227.031-.051.007a3.408 3.408 0 0 1-.043-.525c0-.23.025-.452.067-.666h-.002Zm.007 1.369v-.007l1.097-.146s.004 0 .009-.005l.027.133c.06.244.155.472.282.682l-.857.607a3.33 3.33 0 0 1-.56-1.264h.002Zm1.97 2.366a3.207 3.207 0 0 1-1.307-.967l.848-.6c.011.013.022.025.031.038.118.167.254.317.412.443l.004-.005.016.014v1.08h-.005v-.003Zm1.17.228c-.351 0-.69-.06-1.008-.166v-1.844c.024-.007.191-.094.236-.116.049-.032.096-.067.142-.103.005-.005.011-.007.018-.011.198-.16.358-.352.517-.518.155-.167.305-.308.465-.381a2.05 2.05 0 0 1 .487-.146v3.164a3.125 3.125 0 0 1-.857.119v.002Z" fill="url(#t)"/><path d="M18.354 18.663c.015.05.031.102.044.153a.044.044 0 0 0 .052.03.042.042 0 0 0 .026-.053c-.01-.044-.037-.126-.062-.21l-.067-.22c-.004-.02-.03-.033-.051-.027a.043.043 0 0 0-.027.053 13.234 13.234 0 0 0 .083.278l.002-.004Z" fill="url(#u)"/><path d="M19.66 18.786c.023-.005.034-.03.027-.053l-.216-.723a.04.04 0 0 0-.051-.027c-.02.004-.033.03-.027.052l.216.724c.005.022.03.034.051.027Z" fill="url(#v)"/><path d="M19.035 18.765c.02-.004.031-.03.027-.052-.032-.103-.18-.605-.18-.605-.005-.023-.032-.034-.052-.027-.02.004-.033.03-.026.052l.18.605c.006.02.03.034.051.027Z" fill="url(#w)"/><path d="M19.631 19.792a.044.044 0 0 0 .01-.06c-.012-.017-.039-.022-.056-.008a.24.24 0 0 1-.056.023.328.328 0 0 1-.154 0c-.02-.005-.033-.014-.033-.017-.016-.018-.04-.018-.058-.004-.018.016-.018.041-.005.06a.147.147 0 0 0 .076.04.401.401 0 0 0 .192 0 .253.253 0 0 0 .084-.034Z" fill="url(#x)"/><path d="M19.311 19.48s.02-.01.044-.014a.235.235 0 0 1 .065-.014h.011s.031.005.054.011l.113.03.06.016a.043.043 0 0 0 .051-.032c.005-.02-.008-.045-.03-.05l-.1-.025c-.028-.005-.054-.014-.081-.018-.024-.005-.047-.012-.06-.014-.007 0-.016-.005-.022-.005a.295.295 0 0 0-.094.019l-.047.016a.042.042 0 0 0-.022.054c.009.023.031.032.051.023l.005.005.002-.002Z" fill="url(#y)"/><path d="m11 16.904 6.995-3.261 6.998 3.26L17.996 5 11 16.904Z" fill="url(#z)"/><path d="M17.996 5v8.643l6.997 3.26L17.996 5Z" fill="url(#A)"/><path d="m11 16.904 6.995-2.7v-.561L11 16.903Z" fill="#86CEBF"/><path d="m24.993 16.904-6.995-2.7v-.561l6.995 3.26Z" fill="url(#B)"/><path d="M18.118 15.083c2.115 0 3.83 1.757 3.83 3.926 0 2.168-1.713 3.927-3.83 3.927-2.114 0-3.83-1.757-3.83-3.927 0-2.167 1.713-3.926 3.83-3.926Z" fill="#fff"/><path d="M19.44 17.74h-.095c-.254-.008-.49.063-.717.167a2.7 2.7 0 0 0-.712.491.085.085 0 0 1-.078.025c-.274-.043-.537.174-.572.454a.532.532 0 0 0 .436.584c.027.005.051.005.087.007l-.11.121c-.068.073-.14.144-.21.215a.723.723 0 0 1-.268.164c-.029.009-.035.023-.035.052v.625c-.02-.013-.036-.022-.05-.034a1.908 1.908 0 0 1-.723-1.161c-.144-.717.031-1.35.517-1.887a1.57 1.57 0 0 1 .995-.518c.463-.055.874.077 1.233.381.104.089.198.196.296.294.004.005.006.012.009.016l-.003.005Z" fill="#20A282"/><path d="M18.844 18.994v2.817c0 .044-.014.057-.052.067a2.845 2.845 0 0 1-1.478-.01c-.029-.009-.04-.02-.04-.052v-1.69c0-.024 0-.042.027-.053.18-.09.323-.23.463-.374.147-.151.292-.309.445-.452.147-.137.336-.19.526-.235.033-.01.069-.014.11-.023l-.001.005Zm-.425 1.651v.888c0 .025.015.041.04.041.026 0 .042-.014.044-.041v-1.741c0-.014.005-.032-.002-.039-.011-.013-.03-.032-.043-.032-.013 0-.03.02-.04.035-.006.009 0 .027 0 .038v.851Zm-.403.17v.716c0 .027.015.048.04.043.015-.002.033-.02.044-.036.007-.012.005-.03.005-.044v-1.36c0-.016 0-.034-.007-.048-.009-.013-.027-.031-.04-.03-.016 0-.031.019-.042.035-.007.007 0 .023 0 .037v.689-.003Zm-.314.125v-.582c0-.034-.011-.06-.047-.06-.031 0-.042.028-.045.058v1.143c0 .014-.002.03.005.039.011.013.027.032.042.032.014 0 .03-.019.04-.032.007-.007.003-.023.003-.037v-.566l.002.005ZM20.101 20.023l-.13.038c-.023.007-.045.012-.065.02-.038.017-.056.051-.052.092l.012.1c.004.046-.018.074-.065.074h-.176c-.024 0-.049.004-.049.034 0 .03.025.034.05.034h.15c.032 0 .05.007.05.043a.059.059 0 0 0-.014.012c-.065.036-.091.093-.093.166v.197c0 .07-.032.102-.103.1a6.247 6.247 0 0 1-.356-.018c-.08-.007-.158-.02-.236-.028-.033-.002-.038-.018-.038-.045v-1.803c0-.057 0-.06.054-.061.251-.021.498.002.743.068.014.005.03.025.031.039.011.093.025.187.03.283.006.146.064.271.126.399.036.073.076.144.114.215.006.013.01.027.02.047l-.003-.006Zm-.645-.799c-.038.01-.071.016-.102.027-.023.007-.047.016-.038.046.009.032.035.027.058.018a.215.215 0 0 1 .151-.007c.049.016.1.028.151.037.011 0 .027-.014.04-.02-.006-.014-.01-.04-.022-.042-.078-.023-.158-.04-.236-.059h-.002Zm.024.427c.052-.014.098-.023.145-.04.022-.006.042-.022.03-.05-.014-.027-.034-.02-.057-.01a.245.245 0 0 1-.211.002c-.022-.01-.038-.023-.053 0-.016.025 0 .047.02.054.042.016.084.028.126.04v.004ZM18.283 19.016a.54.54 0 0 0-.254-.533c.038-.035.074-.064.11-.094a2.33 2.33 0 0 1 .836-.461 1.31 1.31 0 0 1 .47-.055c.06.005.102.025.133.085a2.21 2.21 0 0 1 .268.935c-.537-.144-1.053-.077-1.563.121v.002Zm1.197-1.042c-.037 0-.049.018-.04.057.02.068.04.137.063.205.042.142.084.283.127.422.006.023.015.039.042.032.027-.007.031-.027.022-.05l-.018-.06c-.055-.186-.11-.376-.169-.563-.004-.018-.02-.034-.024-.046l-.003.003Zm-.349.67c-.013-.045-.027-.084-.038-.123-.042-.139-.084-.28-.124-.42-.007-.025-.02-.043-.047-.034-.03.01-.02.034-.016.055 0 .005.005.01.005.016.035.12.07.244.109.365.015.05.029.098.047.146.004.011.024.023.037.023.01 0 .02-.018.027-.027Zm-.527.074-.005-.021c-.038-.123-.073-.249-.111-.372-.007-.02-.018-.039-.043-.032-.028.01-.026.03-.02.053l.083.278c.009.032.018.066.031.096.004.011.024.023.036.02.01 0 .02-.018.026-.025l.003.003ZM17.161 21.807a2.814 2.814 0 0 1-1.34-.922l.808-.573.03.034c.135.178.295.33.48.452.013.01.027.028.027.044v.94c0 .004 0 .011-.005.023v.002ZM19.591 17.709a1.94 1.94 0 0 0-.647-.593c.147-.27.294-.534.44-.806.439.215.77.55 1.073.931-.291.158-.576.31-.866.468ZM15.734 20.773a3.017 3.017 0 0 1-.514-1.157c.051-.006.1-.015.147-.02.28-.039.561-.075.841-.114.034-.005.052 0 .06.04.052.23.14.444.261.644.004.01.011.019.018.032l-.815.578.002-.003ZM16.264 18.464c-.34-.075-.674-.148-1.015-.221a2.99 2.99 0 0 1 .483-1.036c.27.2.536.397.803.598a2.276 2.276 0 0 0-.273.66h.002ZM15.213 18.382l.296.064c.23.05.457.1.686.148.036.007.044.02.04.055a2.135 2.135 0 0 0-.022.445c.002.068.009.134.018.203.002.025-.005.034-.027.037l-.445.056c-.172.023-.343.046-.514.071-.036.005-.05 0-.056-.04a2.92 2.92 0 0 1-.013-.738c.01-.098.026-.198.04-.303l-.002.002ZM18.038 16.88l-.06-.866c.447-.041.866.054 1.275.235l-.084.155c-.114.205-.225.41-.338.618-.012.023-.023.032-.05.018a1.53 1.53 0 0 0-.73-.157l-.013-.002ZM15.814 17.09c.085-.09.165-.18.247-.262a2.93 2.93 0 0 1 .483-.383c.027-.018.04-.016.06.011l.53.671c.009.01.016.02.025.037-.214.139-.394.312-.546.522-.265-.196-.53-.392-.801-.595h.002ZM16.705 16.354a2.848 2.848 0 0 1 1.126-.338c.004.068.011.13.015.194l.045.65c0 .027 0 .037-.031.041-.19.028-.37.085-.539.171-.022.012-.036.016-.053-.006-.18-.229-.36-.455-.543-.683l-.02-.03ZM18.16 18.939c.007.2-.166.39-.364.397a.398.398 0 0 1-.033-.794c.215-.01.389.166.398.397Z" fill="#20A282"/><path d="M18.118 22.934a3.758 3.758 0 0 1-2.709-1.15 3.93 3.93 0 0 1-.82-1.248c-.201-.484-.301-1-.301-1.529 0-.53.102-1.045.3-1.529a3.93 3.93 0 0 1 .821-1.248c.352-.36.762-.643 1.218-.841a3.757 3.757 0 0 1 4.2.842c.352.36.628.78.821 1.247.2.484.3 1 .3 1.53a4.02 4.02 0 0 1-.3 1.528c-.194.468-.47.887-.821 1.248-.352.36-.761.643-1.218.842a3.72 3.72 0 0 1-1.49.308Zm0-7.162c-1.74 0-3.156 1.45-3.156 3.235 0 1.784 1.416 3.236 3.156 3.236 1.74 0 3.156-1.451 3.156-3.236 0-1.784-1.415-3.235-3.156-3.235Z" fill="url(#C)"/><path d="M20.277 21.798c.04.048.078.093.12.146.24-.194.448-.413.633-.664l-.143-.119-.156.192c-.018-.016-.035-.03-.05-.046.061-.08.122-.157.188-.24l.254.206a4.36 4.36 0 0 1-.728.769l-.209-.258.214-.182.046.05-.167.148-.002-.002ZM20.326 15.918c.283.219.53.465.748.748l-.252.215a10.5 10.5 0 0 1-.18-.224c.018-.011.034-.023.056-.039.044.053.091.11.142.167l.138-.119c-.071-.137-.498-.566-.648-.648l-.11.142c.062.055.122.105.186.16-.015.02-.029.034-.044.052l-.234-.192.2-.26-.002-.002ZM15.897 21.992c.038-.046.073-.094.114-.142-.063-.055-.123-.105-.188-.16l.045-.052.236.192c-.067.086-.134.173-.2.262a4.123 4.123 0 0 1-.748-.748l.251-.215.178.221a.907.907 0 0 0-.049.048 8.928 8.928 0 0 0-.144-.17c-.047.038-.092.08-.138.118.069.135.487.554.645.65l-.002-.004ZM16.024 15.918l.1.157c.069-.045.136-.086.205-.132l.033.06c-.084.056-.164.109-.25.168l-.18-.276c.288-.208.595-.372.924-.5l.12.31-.258.108c-.009-.02-.017-.039-.029-.062.067-.03.134-.057.205-.089l-.071-.178c-.287.11-.55.254-.801.434h.002ZM15.638 16.657c-.03-.03-.07-.068-.118-.112-.055.066-.109.128-.164.196a2.452 2.452 0 0 0-.056-.047l.211-.251.237.22c-.223.238-.403.5-.555.793a40.959 40.959 0 0 1-.278-.158l.145-.258c.022.014.042.023.062.037-.038.066-.073.13-.114.198l.14.08c.165-.235.326-.465.488-.7l.002.002Z" fill="#7DCAB8"/><path d="M15.828 16.064c-.24.196-.45.415-.632.666l.142.119.156-.192.051.046c-.062.08-.124.157-.187.24l-.254-.206c.21-.29.452-.54.728-.769l.21.258-.216.185-.043-.055.167-.146-.12-.146h-.002ZM21.125 16.862l-.118.078-.038.027c.043.071.085.14.13.21a.486.486 0 0 1-.058.035c-.054-.085-.11-.167-.168-.258l.27-.185c.202.297.36.61.485.949l-.303.123-.104-.264c.018-.01.038-.019.062-.03.029.068.056.134.085.21a7.36 7.36 0 0 0 .173-.073 3.718 3.718 0 0 0-.42-.824l.004.002ZM21.198 21.168c-.093-.062-.184-.119-.276-.18.052-.082.098-.16.15-.24.017.012.035.02.06.034l-.116.194c.053.035.105.067.158.1.169-.26.3-.533.403-.832-.058-.023-.112-.043-.172-.069a7.06 7.06 0 0 0-.089.23c-.02-.006-.04-.015-.062-.022l.107-.29c.1.04.198.076.302.114-.115.343-.269.66-.46.961h-.005ZM19.32 15.46c-.02.054-.04.111-.065.173.076.032.147.059.225.09l-.024.065c-.094-.037-.185-.071-.28-.11l.108-.31c.334.116.644.274.937.472l-.173.283-.234-.153.029-.059c.065.039.125.078.191.116.034-.054.065-.105.094-.155-.1-.102-.625-.372-.81-.415l.002.002Z" fill="#7DCAB8"/><path d="m15.801 16.61-.218-.24.216-.201.049.055-.165.152c.04.046.078.087.11.121l.676-.51c-.02-.04-.05-.09-.078-.145l-.218.135a.66.66 0 0 0-.038-.062l.276-.17.156.285c-.28.155-.534.346-.766.58ZM19.897 22.067a2.2 2.2 0 0 1-.034-.06l.25-.168.18.276c-.287.205-.592.37-.924.497-.04-.102-.08-.203-.12-.31l.258-.107.03.064c-.068.03-.134.057-.206.086l.07.174c.157-.032.685-.317.8-.431-.03-.05-.064-.1-.095-.153-.071.045-.136.089-.207.132h-.002ZM14.853 20.25l-.171.074c.104.294.244.563.42.821.054-.034.103-.068.154-.103-.045-.07-.085-.139-.127-.21l.056-.036c.055.085.109.167.164.256-.089.061-.178.12-.27.184a4.16 4.16 0 0 1-.484-.947c.1-.04.2-.082.302-.125l.103.262a1.66 1.66 0 0 0-.06.032c-.03-.07-.058-.137-.087-.212v.005ZM20.45 16.634l.232-.221.198.224-.05.052a14.168 14.168 0 0 0-.154-.173c-.045.04-.085.08-.118.11l.498.693c.038-.02.085-.05.14-.08-.044-.075-.087-.146-.131-.224.02-.011.038-.023.062-.038l.165.282-.278.16a3.533 3.533 0 0 0-.563-.785ZM20.713 21.563c-.08-.076-.153-.144-.233-.222.218-.24.405-.5.554-.794.091.053.182.103.278.158l-.145.26-.062-.037.111-.198-.14-.08-.487.7c.03.03.07.069.117.112.056-.066.11-.13.168-.196l.055.048-.214.249h-.002Z" fill="#7DCAB8"/><path d="m19.816 22.263-.151-.278c.136-.091.272-.176.398-.272.127-.096.245-.203.37-.308l.211.233c-.073.068-.142.135-.215.2-.018-.018-.032-.033-.05-.054.056-.05.107-.1.167-.155-.04-.046-.08-.087-.109-.121l-.676.511c.02.039.049.087.078.144l.218-.135c.01.02.02.039.035.064-.09.057-.182.112-.276.169v.002ZM16.905 22.548l.065-.173-.225-.091.024-.064c.094.036.185.07.28.11l-.11.31a4.12 4.12 0 0 1-.938-.473l.174-.283c.08.053.158.1.236.153l-.036.06-.187-.117-.093.158c.093.1.62.37.81.415v-.005Z" fill="#7DCAB8"/><path d="M16.197 22.133c.014-.025.025-.041.036-.064.062.037.125.076.194.114l.078-.143-.684-.5c-.027.03-.064.073-.109.119l.194.173-.05.055-.242-.217.216-.24c.234.226.485.416.772.569l-.153.285-.254-.149.002-.002ZM15.214 17.034a10.198 10.198 0 0 0-.16-.1c-.17.26-.301.533-.401.832.06.023.113.046.171.069.031-.078.058-.153.09-.231.021.01.04.016.062.023l-.107.29c-.1-.04-.2-.076-.303-.115.113-.34.267-.654.46-.96l.279.178-.15.242c-.017-.012-.035-.02-.057-.035l.116-.193ZM14.555 20.166a4.372 4.372 0 0 1-.176-1.054l.325-.02.018.283-.065.006-.02-.226c-.062.005-.12.01-.185.017.011.312.063.613.154.917.06-.016.118-.032.178-.05l-.06-.24a.666.666 0 0 1 .064-.016l.078.297-.311.09v-.004ZM19.776 15.724c.085.05.167.098.252.15l-.036.064a15.087 15.087 0 0 0-.193-.114l-.08.144c.229.167.451.33.683.502l.107-.12-.192-.172c.014-.016.03-.034.047-.057l.243.217c-.074.082-.143.157-.216.24a3.46 3.46 0 0 0-.775-.567l.154-.285.006-.002ZM14.935 20.748l.278-.16c.152.29.34.548.563.785l-.231.222-.196-.222.053-.05c.052.057.098.112.152.171.044-.04.084-.08.118-.11-.167-.23-.33-.46-.499-.693l-.14.08c.045.075.085.146.13.224l-.061.038-.167-.285ZM14.528 17.923c.109.03.211.055.316.083-.022.093-.045.182-.07.276-.021-.005-.041-.01-.064-.014.016-.073.034-.144.05-.22l-.183-.045a3.677 3.677 0 0 0-.132.92c.065.004.123.007.185.009l.016-.249c.022 0 .042.003.067.005l-.014.296h-.322c.004-.365.057-.712.149-1.06h.002ZM17.34 15.528a.889.889 0 0 0 .015.066l-.29.082-.087-.32a4.118 4.118 0 0 1 1.029-.18c.006.112.015.222.022.333l-.274.019c-.004-.02-.009-.041-.013-.067l.223-.02c-.005-.062-.007-.121-.012-.19a3.355 3.355 0 0 0-.894.158l.046.182.234-.061v-.002ZM16.838 22.46c-.102-.044-.195-.087-.296-.13.045-.101.09-.197.134-.297.29.141.588.24.906.294l-.06.32-.283-.06.014-.073c.07.016.142.03.218.048.01-.06.022-.114.033-.162l-.801-.26-.067.15.231.103c-.009.02-.015.039-.026.066h-.003ZM21.662 18.35l-.31.064a3.588 3.588 0 0 0-.3-.924c.093-.046.187-.09.287-.137l.12.271a1.37 1.37 0 0 1-.067.03c-.03-.07-.058-.137-.091-.21-.056.025-.107.05-.147.069.09.273.176.54.265.817.042-.01.096-.019.158-.032-.02-.087-.038-.167-.056-.254l.07-.018.07.322v.002Z" fill="#7DCAB8"/><path d="M21.777 18.838a3.838 3.838 0 0 0-.154-.915l-.178.048.06.24c-.022.005-.04.011-.064.018l-.08-.296c.102-.03.202-.06.311-.09.103.345.16.692.176 1.055-.111.006-.213.016-.325.023l-.02-.283c.02-.005.04-.007.067-.012l.02.226c.062-.005.12-.01.187-.014ZM19.527 15.868l.067-.151c-.078-.034-.154-.066-.234-.103.01-.02.016-.04.027-.068l.296.13-.134.297a3.322 3.322 0 0 0-.905-.295l.06-.32.282.062-.013.071c-.073-.016-.142-.03-.218-.048l-.031.162c.267.087.532.174.801.26l.002.003ZM21.777 19.087l-.185-.014c-.004.085-.01.165-.015.244h-.067l.013-.298h.323a4.37 4.37 0 0 1-.15 1.063L21.382 20l.067-.274c.02.005.04.007.066.011l-.05.222c.06.016.117.03.182.045.082-.3.124-.602.131-.92v.003ZM18.096 22.503v.33a4.174 4.174 0 0 1-1.035-.155l.08-.324.27.069c-.005.02-.007.041-.012.068-.07-.018-.14-.034-.216-.052l-.044.18c.142.069.714.155.895.135.002-.06.006-.119.01-.185a8.95 8.95 0 0 0-.242-.016c0-.023.005-.041.007-.066l.29.014-.003.002ZM14.563 19.657c.11-.022.207-.043.312-.063.058.32.156.625.3.924l-.287.139-.117-.272a.579.579 0 0 0 .064-.032l.091.21c.056-.025.105-.05.147-.068l-.265-.817-.158.034c.02.087.038.167.056.253l-.07.017-.07-.322-.003-.003ZM14.557 18.396l.06-.292c.024.004.044.009.069.016l-.047.223.158.032c.085-.276.17-.543.254-.821-.04-.018-.091-.041-.147-.069-.033.082-.067.16-.1.24l-.065-.03c.043-.1.083-.198.125-.303.098.045.191.089.29.137a3.615 3.615 0 0 0-.288.928l-.311-.061h.002Z" fill="#7DCAB8"/><path d="M18.817 15.582a.713.713 0 0 0 .015-.066c.072.016.14.034.214.05l.045-.184a3.387 3.387 0 0 0-.897-.135c-.005.064-.007.126-.011.192.082.004.158.009.238.016v.068a10.5 10.5 0 0 1-.29-.016v-.33c.357.006.695.056 1.038.152l-.08.324-.272-.07ZM21.174 20.454c.04.018.089.04.147.068l.1-.237c.02.01.038.016.065.027-.043.1-.083.201-.127.304l-.29-.137a3.52 3.52 0 0 0 .288-.926l.309.059-.058.292-.069-.014.047-.223-.158-.032-.254.821v-.002ZM16.77 15.576c.01.027.02.045.028.066l-.204.093.066.15c.265-.09.526-.18.797-.27l-.033-.163-.247.06a6.026 6.026 0 0 0-.016-.071l.312-.073.062.32c-.316.059-.614.161-.901.305L16.5 15.7l.267-.123h.002ZM18.358 22.69l-.006-.07c.073-.01.142-.017.22-.026l-.018-.164h-.839c-.007.05-.011.105-.02.17.085.01.167.017.252.026 0 .02-.003.041-.005.07-.107-.008-.21-.018-.32-.029.01-.11.024-.212.035-.322.316.041.628.041.948-.006l.04.321c-.098.012-.189.02-.289.032l.002-.002ZM19.458 22.432l-.029-.066c.067-.032.134-.062.205-.094-.024-.057-.049-.107-.067-.15l-.797.271c.01.041.018.096.032.162.082-.018.16-.039.247-.057l.015.07-.311.074-.065-.317c.312-.062.61-.16.901-.31.045.098.09.193.136.296l-.267.123v-.002ZM21.454 19.413l.168.019.022-.26.069.01c-.01.106-.018.21-.027.323l-.314-.035c.038-.326.04-.648-.009-.974l.314-.04.031.296c-.024 0-.044.004-.069.004-.009-.075-.015-.146-.024-.226l-.16.019v.864Z" fill="#7DCAB8"/><path d="m19.17 22.603-.048-.182c-.08.02-.154.04-.232.061-.006-.023-.01-.043-.017-.066.098-.027.189-.052.289-.082l.089.317a4.041 4.041 0 0 1-1.028.183l-.02-.334c.093-.006.182-.013.276-.018l.006.066c-.073.007-.142.014-.22.02l.013.193c.305-.012.599-.064.895-.158h-.002ZM18.603 15.343l-.037.324a3.22 3.22 0 0 0-.949.007c-.013-.11-.026-.213-.037-.322.098-.011.189-.02.287-.032a.613.613 0 0 0 .009.07c-.074.01-.145.017-.22.026.006.064.013.118.02.166h.838l.02-.17c-.086-.01-.166-.017-.253-.026a.778.778 0 0 1 .009-.07c.104.009.207.018.318.03l-.005-.003ZM14.541 18.5l.316.04c-.044.323-.04.645.007.972l-.316.04-.029-.294a.654.654 0 0 0 .07-.009l.024.228a6.42 6.42 0 0 0 .162-.02v-.86a6.898 6.898 0 0 0-.167-.021l-.024.26c-.023 0-.043-.005-.07-.007l.03-.328h-.003Z" fill="#7DCAB8"/></g><defs><linearGradient id="b" x1="14.089" y1="25.873" x2="19.906" y2="23.389" gradientUnits="userSpaceOnUse"><stop stop-color="#4EBDA0"/><stop offset="1" stop-color="#94FFDF"/></linearGradient><linearGradient id="c" x1="17.998" y1="25.688" x2="25" y2="25.688" gradientUnits="userSpaceOnUse"><stop stop-color="#0F5A48"/><stop offset="1" stop-color="#94FFDF"/></linearGradient><linearGradient id="d" x1="14.292" y1="22.218" x2="17.483" y2="24.85" gradientUnits="userSpaceOnUse"><stop stop-color="#154237"/><stop offset="1" stop-color="#6AC5AE"/></linearGradient><linearGradient id="e" x1="15.69" y1="22.635" x2="17.357" y2="19.084" gradientUnits="userSpaceOnUse"><stop stop-color="#154237"/><stop offset="1" stop-color="#6AC5AE"/></linearGradient><linearGradient id="f" x1="14.535" y1="22.092" x2="16.202" y2="18.541" gradientUnits="userSpaceOnUse"><stop stop-color="#154237"/><stop offset="1" stop-color="#6AC5AE"/></linearGradient><linearGradient id="g" x1="14.002" y1="21.841" x2="15.669" y2="18.29" gradientUnits="userSpaceOnUse"><stop stop-color="#154237"/><stop offset="1" stop-color="#6AC5AE"/></linearGradient><linearGradient id="h" x1="13.809" y1="21.75" x2="15.476" y2="18.201" gradientUnits="userSpaceOnUse"><stop stop-color="#154237"/><stop offset="1" stop-color="#6AC5AE"/></linearGradient><linearGradient id="i" x1="14.572" y1="22.11" x2="16.239" y2="18.559" gradientUnits="userSpaceOnUse"><stop stop-color="#154237"/><stop offset="1" stop-color="#6AC5AE"/></linearGradient><linearGradient id="j" x1="15.77" y1="22.672" x2="17.437" y2="19.121" gradientUnits="userSpaceOnUse"><stop stop-color="#154237"/><stop offset="1" stop-color="#6AC5AE"/></linearGradient><linearGradient id="k" x1="15.647" y1="22.614" x2="17.314" y2="19.064" gradientUnits="userSpaceOnUse"><stop stop-color="#154237"/><stop offset="1" stop-color="#6AC5AE"/></linearGradient><linearGradient id="l" x1="16.226" y1="22.886" x2="17.895" y2="19.335" gradientUnits="userSpaceOnUse"><stop stop-color="#154237"/><stop offset="1" stop-color="#6AC5AE"/></linearGradient><linearGradient id="m" x1="15.805" y1="22.688" x2="17.472" y2="19.139" gradientUnits="userSpaceOnUse"><stop stop-color="#154237"/><stop offset="1" stop-color="#6AC5AE"/></linearGradient><linearGradient id="n" x1="16.963" y1="23.233" x2="18.632" y2="19.682" gradientUnits="userSpaceOnUse"><stop stop-color="#154237"/><stop offset="1" stop-color="#6AC5AE"/></linearGradient><linearGradient id="o" x1="16.872" y1="23.19" x2="18.539" y2="19.639" gradientUnits="userSpaceOnUse"><stop stop-color="#154237"/><stop offset="1" stop-color="#6AC5AE"/></linearGradient><linearGradient id="p" x1="17.759" y1="23.605" x2="19.427" y2="20.056" gradientUnits="userSpaceOnUse"><stop stop-color="#154237"/><stop offset="1" stop-color="#6AC5AE"/></linearGradient><linearGradient id="q" x1="16.809" y1="23.16" x2="18.476" y2="19.609" gradientUnits="userSpaceOnUse"><stop stop-color="#154237"/><stop offset="1" stop-color="#6AC5AE"/></linearGradient><linearGradient id="r" x1="15.509" y1="22.551" x2="17.179" y2="19" gradientUnits="userSpaceOnUse"><stop stop-color="#154237"/><stop offset="1" stop-color="#6AC5AE"/></linearGradient><linearGradient id="s" x1="13.998" y1="21.839" x2="15.665" y2="18.29" gradientUnits="userSpaceOnUse"><stop stop-color="#154237"/><stop offset="1" stop-color="#6AC5AE"/></linearGradient><linearGradient id="t" x1="16.217" y1="22.881" x2="17.886" y2="19.333" gradientUnits="userSpaceOnUse"><stop stop-color="#154237"/><stop offset="1" stop-color="#6AC5AE"/></linearGradient><linearGradient id="u" x1="16.415" y1="22.975" x2="18.082" y2="19.424" gradientUnits="userSpaceOnUse"><stop stop-color="#154237"/><stop offset="1" stop-color="#6AC5AE"/></linearGradient><linearGradient id="v" x1="17.303" y1="23.393" x2="18.97" y2="19.842" gradientUnits="userSpaceOnUse"><stop stop-color="#154237"/><stop offset="1" stop-color="#6AC5AE"/></linearGradient><linearGradient id="w" x1="16.814" y1="23.162" x2="18.483" y2="19.611" gradientUnits="userSpaceOnUse"><stop stop-color="#154237"/><stop offset="1" stop-color="#6AC5AE"/></linearGradient><linearGradient id="x" x1="17.744" y1="23.598" x2="19.411" y2="20.049" gradientUnits="userSpaceOnUse"><stop stop-color="#154237"/><stop offset="1" stop-color="#6AC5AE"/></linearGradient><linearGradient id="y" x1="17.648" y1="23.555" x2="19.315" y2="20.004" gradientUnits="userSpaceOnUse"><stop stop-color="#154237"/><stop offset="1" stop-color="#6AC5AE"/></linearGradient><linearGradient id="z" x1="21.552" y1="10.905" x2="12.61" y2="17.717" gradientUnits="userSpaceOnUse"><stop stop-color="#165646"/><stop offset="1" stop-color="#94FFDF"/></linearGradient><linearGradient id="A" x1="17.996" y1="10.953" x2="24.993" y2="10.953" gradientUnits="userSpaceOnUse"><stop stop-color="#4EBDA0"/><stop offset="1" stop-color="#94FFDF"/></linearGradient><linearGradient id="B" x1="23.925" y1="13.864" x2="19.263" y2="16.435" gradientUnits="userSpaceOnUse"><stop stop-color="#154237"/><stop offset="1" stop-color="#6AC5AE"/></linearGradient><linearGradient id="C" x1="18.118" y1="15.083" x2="18.118" y2="22.936" gradientUnits="userSpaceOnUse"><stop stop-color="#269F82"/><stop offset="1" stop-color="#198469"/></linearGradient><clipPath id="a"><path fill="#fff" transform="translate(11 5)" d="M0 0h14v25.742H0z"/></clipPath></defs></svg>