<svg width="38" height="38" viewBox="0 0 38 38" fill="none" xmlns="http://www.w3.org/2000/svg">
<path d="M29.866 18.4518C28.646 16.5466 27.2437 15.0819 25.7761 14.137C26.3828 13.6624 26.7739 12.9246 26.7739 12.0968C26.7739 11.1353 26.2465 10.2951 25.466 9.84818L28.7742 3.42885L28.4196 2.97894C25.7974 -0.34851 23.4687 0.553545 21.5972 1.27851C20.7275 1.61539 19.906 1.93364 19.0755 1.86232L18.9994 1.85579L18.9232 1.86232C18.09 1.93387 17.3028 1.61317 16.4689 1.27369C14.6983 0.552951 12.4948 -0.344131 9.8761 2.97894L9.53491 3.41186L12.5648 9.8297C11.7666 10.2718 11.2248 11.1221 11.2248 12.0968C11.2248 12.9246 11.6159 13.6624 12.2227 14.137C10.7552 15.0818 9.35315 16.5464 8.13359 18.4512C6.07268 21.6699 4.84229 25.625 4.84229 29.0311C4.84229 31.4268 5.46164 33.4513 6.63333 34.8857C7.99955 36.5582 10.0247 37.4062 12.6525 37.4062H25.3483C27.9758 37.4062 30.0008 36.5583 31.3669 34.8862C32.5386 33.452 33.1579 31.4277 33.1579 29.0324C33.1578 25.6261 31.9272 21.6708 29.866 18.4518ZM15.7973 2.92342C16.7243 3.30075 17.7724 3.72758 18.9994 3.64283C20.2105 3.7261 21.2877 3.30862 22.2407 2.93938C23.908 2.29346 25.0484 1.85193 26.6576 3.64787L23.6383 9.50633H14.3818L11.6231 3.66264C13.2042 1.86811 14.2067 2.27587 15.7973 2.92342ZM13.8174 12.9061C13.3699 12.9061 13.0059 12.5431 13.0059 12.0968C13.0059 11.6582 13.3775 11.2875 13.8174 11.2875H24.1812C24.6211 11.2875 24.9927 11.6582 24.9927 12.0968C24.9927 12.5431 24.6287 12.9061 24.1812 12.9061H21.9631H16.0355H13.8174ZM29.9874 33.7592C28.9761 34.9972 27.4153 35.625 25.3483 35.625H12.6525C7.6695 35.625 6.62354 32.0391 6.62354 29.0311C6.62354 25.9974 7.77697 22.3114 9.63363 19.4116C11.5561 16.4092 13.8895 14.6872 16.0356 14.6872H21.9631C26.7226 14.6872 31.3766 22.9013 31.3766 29.0323C31.3766 31.0123 30.8962 32.6468 29.9874 33.7592Z" fill="#94FFDF"/>
<g clip-path="url(#clip0_14253_20783)">
<path d="M19.7557 28.9911V28.9171C19.3774 28.913 19.0155 28.8924 18.666 28.8636C18.4768 29.353 18.2095 29.8094 17.8765 30.2165C18.5056 30.3193 19.143 30.3769 19.7804 30.3851L19.7557 28.9911Z" fill="#94FFDF"/>
<path d="M18.0903 26.2689C17.786 24.8132 16.7127 23.6289 15.2858 23.1807C14.891 23.0614 14.4839 22.9998 14.0727 22.9998C13.0529 23.0039 12.066 23.3822 11.3135 24.0648C9.63981 25.5863 9.52055 28.1811 11.042 29.8547C12.5635 31.5283 15.1583 31.6476 16.8319 30.1261C17.6873 29.3489 18.1766 28.251 18.1725 27.0955C18.1725 26.8199 18.1437 26.5403 18.0903 26.2689ZM14.0727 26.5444C14.7677 26.5444 15.3804 27.005 15.5695 27.6753C15.7998 28.5018 15.3228 29.3571 14.4921 29.5915V29.9534C14.4921 30.1796 14.3071 30.3646 14.0809 30.3646C13.8548 30.3646 13.6697 30.1796 13.6697 29.9534V29.5956C12.9912 29.4106 12.5224 28.7979 12.5183 28.0947C12.5183 27.8685 12.7034 27.6835 12.9295 27.6835C13.1557 27.6835 13.3407 27.8685 13.3407 28.0947C13.3407 28.4977 13.6697 28.8226 14.0727 28.8226C14.4757 28.8226 14.8005 28.4936 14.8005 28.0906C14.8005 27.6876 14.4716 27.3627 14.0686 27.3627C13.3654 27.3627 12.7527 26.8898 12.5718 26.2113C12.3538 25.3889 12.8473 24.5336 13.6738 24.3115V24.1347C13.6738 23.9085 13.8589 23.7235 14.085 23.7235C14.3112 23.7235 14.4963 23.9085 14.4963 24.1347V24.3198C15.1665 24.5089 15.6271 25.1216 15.6271 25.8166C15.6271 26.0427 15.442 26.2278 15.2159 26.2278C14.9897 26.2278 14.8047 26.0427 14.8047 25.8166C14.8047 25.4136 14.4757 25.0846 14.0727 25.0846C13.6697 25.0846 13.3448 25.4095 13.3407 25.8166C13.3407 26.2196 13.6697 26.5444 14.0727 26.5444Z" fill="#94FFDF"/>
<path d="M19.7434 28.0906L19.7187 26.6349C19.4638 26.6308 19.2129 26.6225 18.9744 26.6061C18.9867 26.7706 18.995 26.9309 18.995 27.0913C18.995 27.4121 18.9621 27.7369 18.9004 28.0536C19.1718 28.0782 19.4555 28.0906 19.7434 28.0906Z" fill="#94FFDF"/>
<path d="M24.2461 21.285C23.9624 21.4331 23.6622 21.5523 23.3538 21.6428C22.4286 21.9224 21.2155 22.0746 19.949 22.0746C18.7359 22.0746 17.5804 21.9348 16.688 21.6757C16.3796 21.5934 16.0835 21.4783 15.7998 21.3344L15.8286 22.494C16.2933 22.6667 16.725 22.9134 17.1157 23.2219C17.128 23.226 17.1363 23.226 17.1486 23.2301C17.9381 23.4316 18.9333 23.5385 19.949 23.5385C21.125 23.5385 22.2805 23.3905 23.1153 23.1396C24.0076 22.8682 24.205 22.5845 24.205 22.531C24.205 22.4734 24.2009 22.42 24.2461 22.3624V21.285Z" fill="#94FFDF"/>
<path d="M23.1113 19.6524C22.2765 19.3975 21.121 19.2535 19.945 19.2535C18.7607 19.2535 17.6504 19.3975 16.8197 19.6524C15.9521 19.9156 15.7629 20.1747 15.7588 20.2569C15.7588 20.2569 15.7629 20.2569 15.7629 20.2651C15.7835 20.3556 16.0302 20.6352 16.9143 20.8902C17.7326 21.1287 18.81 21.2603 19.945 21.2603C21.121 21.2603 22.2724 21.1163 23.1072 20.8655C23.9995 20.5982 24.201 20.3145 24.201 20.2569C24.201 20.2034 24.0036 19.9238 23.1113 19.6524Z" fill="#94FFDF"/>
<path d="M28.9671 31.0308V29.7971C28.6915 29.9369 28.4037 30.0562 28.1035 30.1467C27.1824 30.4263 25.9775 30.5784 24.7069 30.5784C23.5801 30.5784 22.4822 30.451 21.6187 30.2248C21.265 30.1343 20.9237 30.011 20.5947 29.8506L20.6153 31.0431C20.6153 31.0472 20.6153 31.0472 20.6153 31.0513C20.6153 31.113 20.7962 31.3885 21.6639 31.6558C22.4863 31.9066 23.5966 32.0465 24.785 32.0465C25.9693 32.0465 27.0837 31.9025 27.9143 31.6435C28.782 31.3721 28.9712 31.0883 28.9712 31.0308H28.9671Z" fill="#94FFDF"/>
<path d="M24.2381 23.5796C23.9544 23.7235 23.6583 23.8428 23.3499 23.9332C22.4247 24.2129 21.2116 24.365 19.9409 24.365C19.3159 24.365 18.6949 24.3239 18.0781 24.2458C18.4112 24.7063 18.6579 25.2244 18.8142 25.7755C19.1678 25.8001 19.5503 25.8166 19.945 25.8166C19.9574 25.8166 19.9738 25.8166 19.9862 25.8166C20.6606 25.0764 22.474 24.7063 24.2381 24.657V23.5796Z" fill="#94FFDF"/>
<path d="M28.0746 27.8726C27.1576 28.144 25.9651 28.292 24.715 28.292C23.5019 28.292 22.3464 28.1522 21.4541 27.8932C21.1457 27.8068 20.8455 27.6917 20.5576 27.5477L20.5741 28.4935L20.5782 28.839C20.8989 29.2378 22.4328 29.7519 24.7109 29.7519C25.8993 29.7519 27.0219 29.612 27.8649 29.3571C28.7531 29.0857 28.9464 28.8061 28.9464 28.7485C28.9464 28.7033 28.9711 28.6539 28.9711 28.6128H28.9752V27.5231C28.6873 27.667 28.3871 27.7904 28.0746 27.8726Z" fill="#94FFDF"/>
<path d="M27.8813 25.8782C27.0424 25.6232 25.891 25.4875 24.715 25.4875H24.6451C23.5512 25.4875 22.5109 25.6109 21.7131 25.8371C20.8619 26.0756 20.5699 26.347 20.5329 26.458C20.5288 26.4662 20.5288 26.4704 20.5288 26.4745C20.5288 26.4745 20.5288 26.4745 20.537 26.4909C20.5617 26.5773 20.8043 26.8569 21.6884 27.116C22.5068 27.3504 23.5841 27.4819 24.7191 27.4819C25.891 27.4819 27.0013 27.3462 27.8443 27.0954C28.7572 26.824 28.9628 26.5403 28.9669 26.4786V26.4745C28.9628 26.4128 28.7572 26.1414 27.8813 25.8782Z" fill="#94FFDF"/>
</g>
<defs>
<clipPath id="clip0_14253_20783">
<rect width="19" height="19" fill="white" transform="translate(9.9751 16.15)"/>
</clipPath>
</defs>
</svg>
