<svg width="41" height="40" viewBox="0 0 41 40" fill="none" xmlns="http://www.w3.org/2000/svg">
<g clip-path="url(#clip0_14200_20544)">
<path d="M40.4785 25.0331C40.3789 22.7413 39.9803 20.2004 39.3825 17.8089C38.7846 15.5171 38.0373 13.3748 37.1405 11.7307C33.653 5.60259 29.8665 6.5492 25.3327 7.74493C23.8879 8.09368 22.3434 8.49225 20.7491 8.64172H20.2509C18.6566 8.49225 17.1121 8.09368 15.6673 7.74493C11.1335 6.59903 7.34708 5.60259 3.85956 11.7805C2.96276 13.4246 2.16562 15.5669 1.61758 17.8587C1.01972 20.2502 0.621143 22.7911 0.5215 25.0829C0.421856 27.6238 0.670965 29.4672 1.219 30.7626C1.76704 31.9583 2.56419 32.7056 3.61045 33.0045C4.55706 33.2537 5.65314 33.154 6.79904 32.6558C8.74209 31.8586 10.9841 30.1647 13.1762 28.122C14.7207 26.6274 17.6104 25.88 20.5 25.88C23.3897 25.88 26.2793 26.6274 27.8238 28.122C30.016 30.1647 32.2579 31.8586 34.201 32.6558C35.3469 33.1042 36.443 33.2537 37.3896 33.0045C38.386 32.7056 39.233 32.0081 39.781 30.7127C40.3291 29.4672 40.5782 27.6238 40.4785 25.0331ZM38.0871 30.0152C37.7882 30.7127 37.3896 31.1113 36.8914 31.2608C36.3433 31.4102 35.6458 31.3106 34.8487 31.0117C33.1049 30.3142 31.0622 28.7697 29.0694 26.8765C27.1761 24.9832 23.8381 24.0366 20.5 24.0366C17.162 24.0366 13.8239 24.9832 11.8809 26.7768C9.83816 28.6701 7.79547 30.2643 6.10153 30.912C5.30439 31.211 4.60688 31.3604 4.05884 31.1611C3.56063 31.0117 3.16205 30.6131 2.86312 29.9156C2.46455 28.969 2.26526 27.4245 2.3649 25.1327C2.46455 22.9904 2.8133 20.5491 3.41116 18.2573C3.9592 16.115 4.6567 14.1221 5.50367 12.6275C8.24387 7.6951 11.4325 8.49225 15.2189 9.48869C16.7634 9.88726 18.3577 10.2858 20.1014 10.4353C20.1513 10.4353 20.1513 10.4353 20.2011 10.4353H20.7491C20.7989 10.4353 20.7989 10.4353 20.8488 10.4353C22.6424 10.2858 24.2366 9.88726 25.7811 9.48869C29.5676 8.54207 32.7562 7.6951 35.4964 12.6275C36.3433 14.1221 37.0408 16.0652 37.5889 18.2573C38.1369 20.5491 38.5355 22.9406 38.6351 25.1327C38.7348 27.4245 38.5355 28.969 38.0871 30.0152Z" fill="#94FFDF"/>
<path d="M15.9166 15.3178C15.4184 14.8694 14.8205 14.5207 14.123 14.4709C14.0732 13.8232 13.7743 13.1755 13.3259 12.7271L13.276 12.6773C12.728 12.1293 12.0305 11.8303 11.2334 11.8303C10.4362 11.8303 9.68888 12.1791 9.19066 12.6773C8.74227 13.1257 8.39352 13.7734 8.34369 14.4709C7.64619 14.5207 7.04833 14.8196 6.55011 15.268L6.50029 15.3178C5.95225 15.8659 5.65332 16.5634 5.65332 17.3605C5.65332 18.1577 6.00207 18.905 6.50029 19.4032C6.99851 19.9014 7.59637 20.2004 8.34369 20.2502C8.39352 20.9477 8.69245 21.5954 9.19066 22.0438C9.7387 22.5918 10.4362 22.8907 11.2334 22.8907C12.0305 22.8907 12.7778 22.542 13.276 22.0438C13.7244 21.5456 14.0732 20.9477 14.123 20.2502C14.8205 20.2004 15.4682 19.9014 15.9166 19.4032C16.4646 18.8552 16.7636 18.1577 16.7636 17.3605C16.7636 16.5634 16.4148 15.8161 15.9166 15.3178ZM14.6711 18.1079C14.4718 18.3071 14.2227 18.4068 13.9237 18.4068H13.2262C12.728 18.4068 12.2796 18.8054 12.2796 19.3534V20.0011C12.2796 20.3 12.18 20.5491 11.9807 20.7484C11.7814 20.9477 11.5323 21.0473 11.2334 21.0473C10.9344 21.0473 10.6853 20.9477 10.486 20.7484C10.2867 20.5491 10.1871 20.3 10.1871 20.0011V19.3036C10.1871 18.8054 9.78852 18.357 9.24048 18.357H8.54298C8.24405 18.357 7.99494 18.2573 7.79566 18.058C7.64619 17.9086 7.49672 17.6595 7.49672 17.3605C7.49672 17.0616 7.59637 16.8125 7.79566 16.6132C7.79566 16.6132 7.79565 16.6132 7.84548 16.5634C8.04476 16.4139 8.29387 16.3143 8.54298 16.3143H9.24048C9.7387 16.3143 10.1871 15.9157 10.1871 15.3677V14.6702C10.1871 14.3712 10.2867 14.1221 10.486 13.9228C10.6853 13.7235 10.9344 13.6239 11.2334 13.6239C11.5323 13.6239 11.7814 13.7235 11.9807 13.9228C11.9807 13.9228 11.9807 13.9228 12.0305 13.9727C12.18 14.1719 12.2796 14.4211 12.2796 14.6702V15.3677C12.2796 15.8659 12.6782 16.3143 13.2262 16.3143H13.9237C14.2227 16.3143 14.4718 16.4139 14.6711 16.6132C14.8703 16.8125 14.97 17.0616 14.97 17.3605C14.97 17.6595 14.8703 17.9086 14.6711 18.1079Z" fill="#94FFDF"/>
<path d="M29.1691 15.5669C30.1321 15.5669 30.9128 14.7862 30.9128 13.8231C30.9128 12.8601 30.1321 12.0793 29.1691 12.0793C28.206 12.0793 27.4253 12.8601 27.4253 13.8231C27.4253 14.7862 28.206 15.5669 29.1691 15.5669Z" fill="#94FFDF"/>
<path d="M29.1691 22.6416C30.1321 22.6416 30.9128 21.8609 30.9128 20.8978C30.9128 19.9348 30.1321 19.1541 29.1691 19.1541C28.206 19.1541 27.4253 19.9348 27.4253 20.8978C27.4253 21.8609 28.206 22.6416 29.1691 22.6416Z" fill="#94FFDF"/>
<path d="M25.6315 19.1042C26.5945 19.1042 27.3752 18.3235 27.3752 17.3605C27.3752 16.3974 26.5945 15.6167 25.6315 15.6167C24.6684 15.6167 23.8877 16.3974 23.8877 17.3605C23.8877 18.3235 24.6684 19.1042 25.6315 19.1042Z" fill="#94FFDF"/>
<path d="M32.7062 19.1042C33.6692 19.1042 34.4499 18.3235 34.4499 17.3605C34.4499 16.3974 33.6692 15.6167 32.7062 15.6167C31.7431 15.6167 30.9624 16.3974 30.9624 17.3605C30.9624 18.3235 31.7431 19.1042 32.7062 19.1042Z" fill="#94FFDF"/>
</g>
<defs>
<clipPath id="clip0_14200_20544">
<rect width="40" height="40" fill="white" transform="translate(0.5)"/>
</clipPath>
</defs>
</svg>
