<svg width="39" height="38" viewBox="0 0 39 38" fill="none" xmlns="http://www.w3.org/2000/svg">
<g clip-path="url(#clip0_14200_20570)">
<path d="M15.0161 19.0714C15.0624 18.6936 15.1361 18.067 15.2154 17.4404C15.2727 16.9878 15.5007 16.7125 15.9621 16.5716C17.4333 16.1223 18.8903 15.6256 20.3604 15.1741C20.6049 15.0992 20.9121 15.0915 21.1555 15.1653C22.6532 15.6223 24.1398 16.1134 25.6331 16.587C25.9393 16.6839 26.1936 16.8304 26.2663 17.1673C26.8059 19.6947 26.5515 22.0656 24.8711 24.1481C24.2555 24.9101 23.4769 25.4695 22.597 25.8902C22.1136 26.1215 21.6356 26.367 21.1423 26.5719C20.965 26.6457 20.7062 26.7051 20.5564 26.6291C19.5554 26.1204 18.4872 25.6854 17.6029 25.0136C15.7495 23.6084 15.0624 21.5965 15.0183 19.0714H15.0161ZM20.0972 21.2155C19.8098 20.9049 19.551 20.6032 19.2691 20.3268C18.9739 20.0371 18.6127 20.0327 18.3507 20.2838C18.0897 20.5338 18.0819 20.9082 18.3606 21.2011C18.7768 21.6394 19.203 22.07 19.6402 22.4885C19.9342 22.7693 20.2525 22.7792 20.5641 22.5072C21.4341 21.7485 22.2942 20.9776 23.1531 20.2056C23.4064 19.9777 23.4681 19.6925 23.2985 19.3863C23.0893 19.0108 22.6444 18.959 22.2788 19.2784C21.5663 19.9006 20.8626 20.5349 20.0972 21.2166V21.2155Z" fill="#94FFDF"/>
<path d="M27.9861 28.609C30.2436 30.6221 33.2874 30.4316 35.2796 28.5969C36.5074 29.5341 37.5866 30.5869 37.9423 32.1726C38.2375 33.4875 37.3741 34.6493 36.0317 34.7605C35.4987 34.8046 34.9602 34.7815 34.4239 34.7826C32.141 34.7848 29.8582 34.787 27.5753 34.7826C26.3838 34.7793 25.5281 34.1747 25.3365 33.1219C25.2616 32.7067 25.2947 32.2321 25.4202 31.829C25.8563 30.4305 26.8463 29.4537 27.9861 28.6101V28.609Z" fill="#94FFDF"/>
<path d="M10.9895 10.6997C12.1458 11.5741 13.127 12.5421 13.5763 13.923C14.1115 15.5661 13.127 16.8964 11.3959 16.8964C8.70006 16.8986 6.00424 16.8986 3.30841 16.8964C1.60701 16.8952 0.620303 15.5683 1.13788 13.9472C1.58498 12.5487 2.57389 11.573 3.73679 10.7107C4.77195 11.6743 5.98331 12.1754 7.37197 12.1721C8.74741 12.1688 9.94886 11.6765 10.9895 10.6997Z" fill="#94FFDF"/>
<path d="M7.39122 3.18161C9.59809 3.19593 11.2599 4.87091 11.2367 7.06016C11.2147 9.25602 9.54303 10.8836 7.32294 10.8704C5.12158 10.8583 3.45211 9.17343 3.47633 6.98968C3.50166 4.78831 5.16783 3.1673 7.39012 3.18161H7.39122Z" fill="#94FFDF"/>
<path d="M27.7539 24.9134C27.7495 22.7242 29.4234 21.0558 31.6237 21.0558C33.825 21.0558 35.511 22.7242 35.5143 24.9035C35.5176 27.085 33.8349 28.7578 31.6358 28.7611C29.4355 28.7644 27.7583 27.1016 27.7539 24.9134Z" fill="#94FFDF"/>
<path d="M31.8608 8.68667C32.5204 9.76808 33.245 10.8087 33.8199 11.9265C35.0929 14.401 35.573 17.0616 35.4387 19.8345C35.4299 20.0206 35.4056 20.2551 35.2922 20.3752C35.1502 20.5249 34.8958 20.6714 34.7108 20.6494C34.5269 20.6262 34.3209 20.4203 34.2152 20.2408C34.1282 20.0932 34.1524 19.8664 34.1613 19.6759C34.3286 15.9912 33.2549 12.7084 30.9831 9.81103C30.9324 9.74605 30.8796 9.68218 30.8234 9.62272C30.8069 9.6051 30.775 9.60179 30.7276 9.58197C30.699 9.76257 30.6769 9.93877 30.6406 10.1117C30.5668 10.4597 30.2948 10.6623 29.9567 10.6314C29.622 10.6017 29.3687 10.3473 29.3995 9.98833C29.4678 9.22187 29.5559 8.45541 29.6737 7.69556C29.7266 7.35528 29.9931 7.17467 30.3389 7.20991C31.0778 7.2848 31.8145 7.3751 32.5501 7.48082C32.9025 7.53147 33.114 7.8233 33.0886 8.15037C33.0611 8.50276 32.8001 8.73292 32.4158 8.72741C32.2121 8.72411 32.0083 8.69768 31.8619 8.68667H31.8608Z" fill="#94FFDF"/>
<path d="M8.2113 28.3526C8.23772 28.0949 8.24653 27.9605 8.26636 27.8273C8.32142 27.4661 8.61655 27.2183 8.95022 27.2502C9.27949 27.2811 9.53608 27.5399 9.51626 27.8944C9.47661 28.608 9.41604 29.3216 9.33786 30.0319C9.29601 30.413 8.99317 30.6244 8.59783 30.5749C7.8611 30.4812 7.12548 30.3799 6.39206 30.2698C6.02424 30.2147 5.78748 29.9141 5.81831 29.5804C5.85245 29.2192 6.14978 28.9792 6.54072 29.0045C6.7026 29.0144 6.86338 29.0375 7.10125 29.0618C6.84797 28.7171 6.63433 28.4363 6.4328 28.1466C4.50014 25.3803 3.52775 22.3134 3.54867 18.9359C3.55197 18.4624 3.78984 18.1915 4.18628 18.197C4.58163 18.2014 4.80298 18.4734 4.80518 18.9524C4.8228 22.2363 5.81501 25.1942 7.78181 27.824C7.89524 27.9759 8.02188 28.1202 8.2113 28.3526Z" fill="#94FFDF"/>
<path d="M19.4988 3.00096C22.5867 3.01197 25.4411 3.83459 28.0521 5.48644C28.1897 5.57344 28.3362 5.66925 28.4287 5.79809C28.6214 6.06459 28.5906 6.34651 28.3692 6.58878C28.1633 6.81343 27.942 6.81343 27.6711 6.65595C25.1052 5.16268 22.3554 4.2861 19.3667 4.27178C17.3162 4.26187 15.3549 4.69686 13.4905 5.55362C13.366 5.61088 13.2449 5.67916 13.115 5.72431C12.7604 5.84765 12.4245 5.70999 12.2813 5.39504C12.1382 5.08009 12.2472 4.71778 12.6018 4.57021C13.4255 4.22773 14.2503 3.87974 15.1016 3.61875C16.5288 3.18156 18 2.98444 19.4977 3.00096H19.4988Z" fill="#94FFDF"/>
<path d="M16.3803 33.8481C18.8909 34.3713 21.3517 34.195 23.7577 33.3029C23.8845 33.256 24.02 33.2034 24.1174 33.1147C24.3199 32.9314 24.3434 32.697 24.2054 32.462C24.0768 32.244 23.897 32.2059 23.6497 32.2871C21.3077 33.0581 18.9226 33.2963 16.492 32.7928C14.8244 32.4475 13.306 31.756 11.9389 30.7386C11.8477 30.6707 11.761 30.5943 11.6633 30.5352C11.3964 30.3739 11.0998 30.4279 10.9292 30.6591C10.7586 30.8903 10.7848 31.2034 11.0474 31.3844C11.6576 31.8046 12.2678 32.2295 12.9144 32.5883C13.9985 33.1894 15.1598 33.6032 16.3795 33.8479L16.3803 33.8481Z" fill="#94FFDF"/>
</g>
<defs>
<clipPath id="clip0_14200_20570">
<rect width="38" height="38" fill="white" transform="translate(0.5)"/>
</clipPath>
</defs>
</svg>
