<svg width="40" height="40" viewBox="0 0 40 40" fill="none" xmlns="http://www.w3.org/2000/svg">
<path d="M19.7392 23.9492C21.5142 25.7242 21.5142 28.6141 19.7392 30.3914C18.8502 31.2789 17.6838 31.7227 16.5166 31.7227C15.3494 31.7227 14.1838 31.2789 13.2963 30.3914C12.4361 29.5305 11.9619 28.3867 11.9619 27.1695C11.9619 25.9523 12.4361 24.8086 13.297 23.9492C14.1564 23.0883 15.3002 22.6148 16.5166 22.6148C17.733 22.6148 18.8783 23.0883 19.7392 23.9492ZM23.8892 23.8508C24.3533 24.8812 24.5978 26.007 24.5978 27.1703C24.5978 29.3281 23.7572 31.357 22.2306 32.8828C20.7048 34.4102 18.6759 35.2508 16.5173 35.2508C14.7478 35.2508 13.065 34.6852 11.6744 33.6391L6.15016 37.907C5.49079 38.4172 4.68844 38.6898 3.87985 38.6898C3.67907 38.6898 3.47829 38.6726 3.27907 38.6391C2.41813 38.4914 1.67985 38.0273 1.25328 37.3656C0.826722 36.7039 0.707972 35.8398 0.928285 34.9945C1.18375 34.0109 1.85719 33.1672 2.77594 32.6789L8.77907 29.4906C7.95797 26.7367 8.63297 23.6273 10.8025 21.4555C12.7228 19.5367 15.3752 18.7875 17.8673 19.2062V16.0883C17.8673 15.4875 18.1838 15.0508 18.6197 15.0508H23.1369C23.5728 15.0508 23.8892 15.4875 23.8892 16.0883V23.8508ZM23.6611 27.1703C23.6611 26.1219 23.4361 25.1086 23.0095 24.1844C22.9978 24.1633 22.9884 24.1406 22.9806 24.118C22.633 23.3844 22.1588 22.7086 21.5681 22.118C20.1759 20.7258 18.3463 20.0297 16.5173 20.0297C14.6884 20.0297 12.8588 20.7258 11.465 22.118C8.68141 24.9039 8.68141 29.4359 11.465 32.2203C12.815 33.5703 14.6095 34.3141 16.5173 34.3141C18.4252 34.3141 20.2189 33.5703 21.5681 32.2203C22.9181 30.8719 23.6611 29.0781 23.6611 27.1703ZM30.7908 18.6922H26.2728C25.8517 18.6922 25.5213 19.0852 25.5213 19.5875V29.582C25.5213 30.0844 25.8517 30.4781 26.2728 30.4781H30.7908C31.2119 30.4781 31.5424 30.0844 31.5424 29.582V19.5875C31.5424 19.0852 31.2119 18.6922 30.7908 18.6922ZM38.4424 11.4898H33.9244C33.5095 11.4898 33.1728 11.8273 33.1728 12.2422V29.8055C33.1728 30.2203 33.5095 30.5578 33.9244 30.5578H38.4424C38.8564 30.5578 39.1939 30.2203 39.1939 29.8055V12.2422C39.1939 11.8273 38.8564 11.4898 38.4424 11.4898ZM31.008 11.0992C31.383 11.6078 31.6049 12.2359 31.6049 12.9148C31.6049 14.6094 30.2259 15.9875 28.5322 15.9875C26.8384 15.9875 25.4588 14.6094 25.4588 12.9148C25.4588 12.4469 25.565 12.0031 25.7533 11.6055L23.133 9.83984C22.5713 10.4469 21.7689 10.8281 20.8783 10.8281C20.2291 10.8281 19.6259 10.625 19.1291 10.2797L15.6548 13.9414C16.0588 14.4609 16.2994 15.1133 16.2994 15.8211C16.2994 17.5148 14.9213 18.8937 13.2267 18.8937C11.5322 18.8937 10.1541 17.5148 10.1541 15.8211C10.1541 14.1273 11.533 12.7477 13.2267 12.7477C13.8767 12.7477 14.4791 12.9508 14.9759 13.2961L18.4502 9.63516C18.0463 9.11484 17.8056 8.4625 17.8056 7.75547C17.8056 6.06094 19.1838 4.68281 20.8783 4.68281C22.5728 4.68281 23.9509 6.06094 23.9509 7.75547C23.9509 8.22266 23.8455 8.66641 23.658 9.06328L26.2783 10.8297C26.84 10.2227 27.6423 9.84219 28.5322 9.84219C29.2095 9.84219 29.8369 10.0633 30.3455 10.4367L33.7533 7.02891C33.3509 6.50937 33.1103 5.85781 33.1103 5.15078C33.1103 3.45625 34.4892 2.07812 36.183 2.07812C37.8767 2.07812 39.2556 3.45625 39.2556 5.15078C39.2556 6.84531 37.8775 8.22344 36.183 8.22344C35.533 8.22344 34.9299 8.02031 34.433 7.67422L31.008 11.0992ZM34.047 5.15078C34.047 6.32891 35.0056 7.28672 36.183 7.28672C37.3603 7.28672 38.3189 6.32891 38.3189 5.15078C38.3189 3.97266 37.3611 3.01484 36.183 3.01484C35.0049 3.01484 34.047 3.97344 34.047 5.15078ZM15.3627 15.8211C15.3627 14.643 14.4048 13.6844 13.2267 13.6844C12.0486 13.6844 11.0908 14.643 11.0908 15.8211C11.0908 16.9992 12.0494 17.957 13.2267 17.957C14.4041 17.957 15.3627 16.9984 15.3627 15.8211ZM23.0142 7.75547C23.0142 6.57734 22.0556 5.61953 20.8783 5.61953C19.7009 5.61953 18.7423 6.57734 18.7423 7.75547C18.7423 8.93359 19.7002 9.89141 20.8783 9.89141C22.0564 9.89141 23.0142 8.93281 23.0142 7.75547ZM30.6681 12.9148C30.6681 11.7375 29.7095 10.7789 28.5322 10.7789C27.3548 10.7789 26.3955 11.7375 26.3955 12.9148C26.3955 14.0922 27.3541 15.0508 28.5322 15.0508C29.7103 15.0508 30.6681 14.093 30.6681 12.9148Z" fill="#94FFDF"/>
</svg>
