<svg width="20" height="22" viewBox="0 0 20 22" fill="none" xmlns="http://www.w3.org/2000/svg">
<path d="M9.9953 0C8.00618 0 6.09852 0.790176 4.692 2.1967C3.28548 3.60322 2.4953 5.51088 2.4953 7.5V13.35L0.835301 15.85C0.636332 16.1568 0.523475 16.5114 0.508539 16.8767C0.493603 17.2421 0.577137 17.6047 0.7504 17.9267C0.923664 18.2487 1.18029 18.5182 1.49341 18.707C1.80654 18.8959 2.16466 18.997 2.5303 19H17.4603C17.8283 18.9988 18.1891 18.898 18.5045 18.7085C18.8199 18.5189 19.0782 18.2475 19.2519 17.9231C19.4256 17.5987 19.5084 17.2333 19.4914 16.8657C19.4744 16.4981 19.3582 16.142 19.1553 15.835L17.4953 13.35V7.5C17.4953 5.51088 16.7051 3.60322 15.2986 2.1967C13.8921 0.790176 11.9844 0 9.9953 0Z" fill="#94FFDF"/>
<path d="M9.99492 22C10.6147 21.9993 11.2191 21.8066 11.7249 21.4485C12.2308 21.0904 12.6133 20.5844 12.8199 20H7.16992C7.37652 20.5844 7.75904 21.0904 8.2649 21.4485C8.77076 21.8066 9.37512 21.9993 9.99492 22Z" fill="#94FFDF"/>
<circle cx="16" cy="3" r="3" fill="#FF4141"/>
</svg>
