<svg width="23" height="24" viewBox="0 0 23 24" fill="none" xmlns="http://www.w3.org/2000/svg">
<path fill-rule="evenodd" clip-rule="evenodd" d="M13.6533 0.182689C13.205 0 12.6367 0 11.5 0C10.3633 0 9.79501 0 9.34671 0.182689C8.74896 0.426275 8.27406 0.893492 8.02646 1.48156C7.91344 1.75001 7.86921 2.0622 7.8519 2.51759C7.82646 3.18682 7.47761 3.80627 6.88809 4.14112C6.29858 4.47596 5.57888 4.46345 4.97706 4.15051C4.56753 3.93756 4.2706 3.81915 3.97778 3.78122C3.33632 3.69814 2.68759 3.86915 2.17429 4.25664C1.78932 4.54726 1.50516 5.03148 0.93683 5.99992C0.368501 6.96836 0.0843362 7.45258 0.020999 7.92589C-0.0634503 8.55696 0.110377 9.19519 0.504241 9.70018C0.684014 9.93067 0.936673 10.1244 1.3288 10.3668C1.90526 10.7232 2.27618 11.3302 2.27614 12C2.2761 12.6698 1.9052 13.2767 1.3288 13.633C0.936604 13.8755 0.683913 14.0692 0.504121 14.2997C0.110258 14.8047 -0.0635697 15.443 0.0208797 16.074C0.0842167 16.5473 0.368381 17.0316 0.936711 18C1.50504 18.9684 1.7892 19.4527 2.17417 19.7433C2.68747 20.1308 3.3362 20.3018 3.97766 20.2187C4.27046 20.1808 4.56738 20.0624 4.97687 19.8494C5.57873 19.5365 6.29849 19.524 6.88804 19.8588C7.47759 20.1937 7.82646 20.8132 7.8519 21.4825C7.86921 21.9378 7.91344 22.25 8.02646 22.5184C8.27406 23.1065 8.74896 23.5737 9.34671 23.8173C9.79501 24 10.3633 24 11.5 24C12.6367 24 13.205 24 13.6533 23.8173C14.251 23.5737 14.7259 23.1065 14.9735 22.5184C15.0866 22.25 15.1308 21.9378 15.1481 21.4824C15.1735 20.8132 15.5224 20.1937 16.1118 19.8588C16.7014 19.5239 17.4212 19.5364 18.023 19.8494C18.4325 20.0623 18.7294 20.1807 19.0222 20.2186C19.6637 20.3017 20.3124 20.1307 20.8257 19.7432C21.2107 19.4526 21.4948 18.9684 22.0632 17.9999C22.6315 17.0315 22.9157 16.5473 22.979 16.074C23.0634 15.4429 22.8896 14.8046 22.4958 14.2997C22.316 14.0692 22.0633 13.8754 21.6711 13.633C21.0947 13.2766 20.7238 12.6696 20.7239 11.9999C20.7239 11.3302 21.0948 10.7233 21.6711 10.367C22.0634 10.1246 22.3161 9.93079 22.4959 9.70026C22.8897 9.19527 23.0636 8.55704 22.9791 7.92597C22.9158 7.45266 22.6316 6.96844 22.0633 6C21.495 5.03156 21.2108 4.54734 20.8258 4.25672C20.3125 3.86923 19.6638 3.69822 19.0223 3.7813C18.7295 3.81923 18.4326 3.93763 18.0231 4.15056C17.4213 4.46351 16.7015 4.47602 16.112 4.14115C15.5224 3.80629 15.1735 3.18679 15.1481 2.51753C15.1308 2.06217 15.0866 1.75 14.9735 1.48156C14.7259 0.893492 14.251 0.426275 13.6533 0.182689ZM11.5 15.6C13.5209 15.6 15.1592 13.9882 15.1592 12C15.1592 10.0118 13.5209 8.4 11.5 8.4C9.47906 8.4 7.84077 10.0118 7.84077 12C7.84077 13.9882 9.47906 15.6 11.5 15.6Z" fill="#94FFDF"/>
</svg>
